<svg xmlns="http://www.w3.org/2000/svg" viewBox="0 0 22 22"><path d="M3.49 18.12a.66.66 0 0 0 .67.66H6a.66.66 0 0 0 .67-.66v-1.37H3.49Zm11.84 0a.66.66 0 0 0 .67.66h1.84a.66.66 0 0 0 .67-.66v-1.37h-3.18Zm3.44-8.41-.94-3.39a4.21 4.21 0 0 0-4.07-3.1H8.24a4.21 4.21 0 0 0-4.07 3.1l-.94 3.39a3.35 3.35 0 0 0 1.2 6.47h3.51a1.09 1.09 0 0 0 .28.49A1 1 0 0 0 9 17h4a1 1 0 0 0 .74-.31 1.09 1.09 0 0 0 .28-.49h3.51a3.35 3.35 0 0 0 1.2-6.47ZM4.43 14.27a1.44 1.44 0 1 1 1.44-1.44 1.43 1.43 0 0 1-1.44 1.44Zm8.74 1.66a.14.14 0 0 1-.13.13H9a.14.14 0 0 1-.13-.13v-1.88a.13.13 0 0 1 0-.09.1.1 0 0 1 .09 0H13a.1.1 0 0 1 .09 0 .13.13 0 0 1 0 .09v1.88ZM5.35 8.72a.37.37 0 0 1-.29-.14.36.36 0 0 1-.06-.33l.43-1.58a2.92 2.92 0 0 1 2.81-2.14h5.52a2.93 2.93 0 0 1 2.81 2.13L17 8.25a.36.36 0 0 1-.06.33.37.37 0 0 1-.29.14Zm12.22 5.55A1.44 1.44 0 1 1 19 12.83a1.44 1.44 0 0 1-1.43 1.44Z" style="fill:#74c7d1"/></svg>