<svg xmlns="http://www.w3.org/2000/svg" viewBox="0 0 22 22"><path d="M14.71 18H6.89l-2.44 3.11h1.8l.54-.8h8.42l.54.8h1.8L15.11 18Zm-7.4 1.56.55-.82h6.28l.55.82ZM11 .89C5.34.89 3.71 3 3.71 4.51v10.21a2.5 2.5 0 0 0 2.5 2.5h9.58a2.5 2.5 0 0 0 2.5-2.5V4.51C18.29 3 16.66.89 11 .89ZM8.36 3.14h5.28a.64.64 0 0 1 0 1.28H8.36a.64.64 0 1 1 0-1.28ZM7.22 15a.79.79 0 1 1 .78-.75.79.79 0 0 1-.78.75Zm3.23-4.7H6.21V6.47h4.24Zm4.33 4.7a.79.79 0 1 1 .79-.79.79.79 0 0 1-.79.79Zm1.2-4.7h-4.42V6.47H16Z" style="fill:#74c7d1"/></svg>