<svg id="bg" xmlns="http://www.w3.org/2000/svg" viewBox="0 0 64 50"><defs><style>.cls-1{fill:none;stroke:#74c7d1;stroke-width:1.5px}</style></defs><path class="cls-1" d="M32 46.44A21.44 21.44 0 1 0 10.56 25 21.44 21.44 0 0 0 32 46.44Z"/><path class="cls-1" d="M32 43a18 18 0 1 0-18-18 18 18 0 0 0 18 18Zm0-34.02v3.33m8.01-1.18-1.66 2.88m7.52 2.98-2.88 1.66M48.02 25h-3.33m1.18 8.01-2.88-1.66m-2.98 7.52-1.66-2.88M32 41.02v-3.33m-8.01 1.18 1.66-2.88m-7.52-2.98 2.88-1.66M15.98 25h3.33m-1.18-8.01 2.88 1.66m2.98-7.52 1.66 2.88"/></svg>