<svg version="1.1" id="bg" xmlns="http://www.w3.org/2000/svg" x="0" y="0" viewBox="0 0 64 50" style="enable-background:new 0 0 64 50" xml:space="preserve"><style>.st0{fill:none;stroke:#e2915a;stroke-width:1.5;stroke-linecap:round;stroke-linejoin:round}</style><path class="st0" d="M19 42.2c0-.9 1-15 1-15l7.1-6.2M31 34.8l-1.7 7.4m15.7 0c0-.9-1-15-1-15L36.8 21"/><path class="st0" d="m36.9 21.1-7.6 9.4 1.7 4.3h2l1.8-4.3-7.7-9.4M33 34.8l1.7 7.4m2.2-5.5h3.8M38 14c.1-3.4-2.5-6.2-5.8-6.3-3.4-.1-6.2 2.5-6.3 5.8v.5c-.1 3.4 2.5 6.2 5.8 6.3 3.4.1 6.2-2.5 6.3-5.8.1-.2.1-.3 0-.5zm5.9 13.4 4.9-2.7m3.2 3.1-3.2-3.1m12.5 17.6c0-.6-1.1-14.9-1.1-14.9l-4.8-2.7m-.1 0L52 27.8v8.9m4.7-18.8c-.1-2.6-2.2-4.6-4.8-4.5-2.6.1-4.6 2.2-4.5 4.8.1 2.5 2.1 4.5 4.6 4.5 2.7 0 4.7-2.2 4.7-4.8zm-36.6 9.5-4.8-2.7M12 27.8l3.3-3.1M2.7 42.3c0-.6 1.1-14.9 1.1-14.9l4.8-2.7m.1 0 3.3 3.1v8.9M7.2 17.9c0-2.6 2-4.8 4.6-4.8 2.6.1 4.7 2.4 4.6 5-.1 2.5-2.1 4.5-4.6 4.6-2.6 0-4.6-2.2-4.6-4.8 0 0 0 0 0 0z"/></svg>