<svg version="1.1" id="bg" xmlns="http://www.w3.org/2000/svg" x="0" y="0" viewBox="0 0 64 50" style="enable-background:new 0 0 64 50" xml:space="preserve"><style>.st0{fill:none;stroke:#74c7d1;stroke-width:1.5}</style><path class="st0" d="M32 46.4c11.8 0 21.4-9.6 21.4-21.4S43.8 3.6 32 3.6 10.6 13.2 10.6 25c0 11.8 9.6 21.4 21.4 21.4z"/><path class="st0" d="M32 43c9.9 0 18-8.1 18-18S41.9 7 32 7s-18 8.1-18 18 8.1 18 18 18zm0-34v3.3m8-1.2L38.3 14m7.6 3L43 18.6m5 6.4h-3.3m1.2 8L43 31.4m-3 7.5L38.3 36M32 41v-3.3m-8 1.2 1.6-2.9m-7.5-3 2.9-1.6M16 25h3.3m-1.2-8 2.9 1.6m3-7.5 1.6 2.9"/><path class="st0" d="M31.3 24.3c-.4.4-.3 1 .1 1.4.4.4 1 .3 1.4-.1.4-.4.3-1-.1-1.4-.4-.3-1.1-.3-1.4.1zm.7-9.5v9.4m3.9 6.8-4.3-6.4"/></svg>