<svg xmlns="http://www.w3.org/2000/svg" viewBox="0 0 64 50"><path d="m43.94 27.42 4.81-2.68m3.29 3.08-3.29-3.08m12.53 17.54c0-.6-1.14-14.86-1.14-14.86l-4.8-2.68m0 0-3.3 3.08v8.84m4.67-18.74a4.63 4.63 0 1 0-4.63 4.79 4.72 4.72 0 0 0 4.63-4.79Zm-36.64 9.5-4.81-2.68m-3.29 3.08 3.29-3.08M2.72 42.28c0-.6 1.15-14.86 1.15-14.86l4.8-2.68m0 0 3.3 3.08v8.84M7.22 17.92a4.73 4.73 0 0 1 4.63-4.8 4.8 4.8 0 0 1 0 9.59 4.71 4.71 0 0 1-4.63-4.79Z" style="fill:none;stroke:#e2915a;stroke-linecap:round;stroke-linejoin:round;stroke-width:1.5px"/></svg>