<svg id="bg" xmlns="http://www.w3.org/2000/svg" viewBox="0 0 64 50"><defs><style>.cls-1{fill:none;stroke:#e2915a;stroke-linecap:round;stroke-linejoin:round;stroke-width:1.5px}</style></defs><path class="cls-1" d="M19 42.24c0-.89 1-15 1-15l7.15-6.19m3.86 13.7-1.7 7.49m15.74 0c0-.89-1-15-1-15l-7.15-6.19"/><path class="cls-1" d="m36.91 21.09-7.66 9.36 1.76 4.31h1.98l1.77-4.31-7.66-9.36m5.89 13.66 1.71 7.49m2.21-5.58h3.82M38.05 14a6.09 6.09 0 1 0-12.17-.49 4 4 0 0 0 0 .49 6.09 6.09 0 0 0 12.17.49 4 4 0 0 0 0-.49Z"/></svg>