<svg id="bg" xmlns="http://www.w3.org/2000/svg" viewBox="0 0 216 216"><defs><style>.cls-3,.cls-4{fill:#fff}.cls-2{fill:#8bb89e}.cls-3,.cls-4{stroke:#8bb89e;stroke-linecap:round;stroke-width:1.5px}.cls-3{stroke-linejoin:round}.cls-4{stroke-miterlimit:10}</style></defs><circle cx="108" cy="108" r="108" style="fill:#fff"/><path class="cls-2" d="M108 9.5A98.5 98.5 0 1 1 9.5 108 98.62 98.62 0 0 1 108 9.5m0-1.5a100 100 0 1 0 100 100A100 100 0 0 0 108 8Z"/><path class="cls-2" d="M75.42 147.18a3.37 3.37 0 0 1-.22 1.23 2.27 2.27 0 0 1-.7.93 3.43 3.43 0 0 1-1.23.58 7.11 7.11 0 0 1-1.86.21h-1.17v2.51a4.11 4.11 0 0 0 .06.78.8.8 0 0 0 .25.48 1.08 1.08 0 0 0 .55.23 5.82 5.82 0 0 0 .94.06v.49h-4.59v-.49a4.14 4.14 0 0 0 .73-.08 1 1 0 0 0 .44-.22.94.94 0 0 0 .21-.45 4.76 4.76 0 0 0 0-.74v-6a4.76 4.76 0 0 0 0-.74.89.89 0 0 0-.18-.44.68.68 0 0 0-.4-.22 4.36 4.36 0 0 0-.67-.09v-.49h4.08a5 5 0 0 1 2.78.66 2.12 2.12 0 0 1 .98 1.8Zm-5.18 2.3h.93a3.11 3.11 0 0 0 1.93-.5 2 2 0 0 0 .63-1.65 2.14 2.14 0 0 0-.5-1.58 2.27 2.27 0 0 0-1.57-.47h-1.2a.2.2 0 0 0-.22.22Zm8.44 3.13v.85a1 1 0 0 0 .13.47.57.57 0 0 0 .32.22 3.39 3.39 0 0 0 .59.07v.46h-3.43v-.46a2.35 2.35 0 0 0 .6-.07.59.59 0 0 0 .33-.21.92.92 0 0 0 .15-.45 5.63 5.63 0 0 0 0-.79v-2.9a2.15 2.15 0 0 0-.13-.72.47.47 0 0 0-.35-.28 3.48 3.48 0 0 0-.65-.05v-.45l2.28-.5.18 1.61a3.59 3.59 0 0 1 .42-.71 2.91 2.91 0 0 1 .56-.55 2.78 2.78 0 0 1 .62-.36 1.72 1.72 0 0 1 .66-.13 1 1 0 0 1 .66.2.67.67 0 0 1 .24.54.63.63 0 0 1-.19.49.85.85 0 0 1-.56.17.89.89 0 0 1-.35-.05 1.56 1.56 0 0 1-.26-.11l-.21-.11a.46.46 0 0 0-.21 0 .94.94 0 0 0-.7.45 3.22 3.22 0 0 0-.55 1.13 6.3 6.3 0 0 0-.16.86 7.74 7.74 0 0 0-.06 1Zm9.96.86a3.43 3.43 0 0 1-2.74 1.34 3.78 3.78 0 0 1-1.39-.25 3.1 3.1 0 0 1-1.08-.72 3.21 3.21 0 0 1-.69-1.1 3.87 3.87 0 0 1-.25-1.43 4.13 4.13 0 0 1 .26-1.47 3.21 3.21 0 0 1 .74-1.15 3.31 3.31 0 0 1 1.13-.76 3.68 3.68 0 0 1 1.43-.27 2.67 2.67 0 0 1 2 .68 2.65 2.65 0 0 1 .69 2c0 .12 0 .19-.07.22a1 1 0 0 1-.33 0H84a1.45 1.45 0 0 0 0 .25v.33a4.31 4.31 0 0 0 .16 1.23 2.86 2.86 0 0 0 .47.94 2.13 2.13 0 0 0 .73.61 2.06 2.06 0 0 0 .94.21 2.18 2.18 0 0 0 1-.24 3.46 3.46 0 0 0 1-.78ZM86.49 150h.42a.89.89 0 0 0 .23 0 .21.21 0 0 0 .11-.12.47.47 0 0 0 0-.18 1.24 1.24 0 0 0-.38-1 1.45 1.45 0 0 0-1-.36q-1.4 0-1.74 1.68Zm3.93 4.68h-.29v-2.24h.33c.34 1.22 1 1.84 1.85 1.84a1.24 1.24 0 0 0 .82-.26 1 1 0 0 0 .31-.77.81.81 0 0 0-.06-.33.89.89 0 0 0-.22-.29 3.67 3.67 0 0 0-.46-.34l-.77-.5c-.3-.18-.55-.35-.77-.5a3.74 3.74 0 0 1-.54-.48 1.82 1.82 0 0 1-.34-.51 1.79 1.79 0 0 1-.11-.64 2.16 2.16 0 0 1 .15-.81 1.86 1.86 0 0 1 .41-.63 1.93 1.93 0 0 1 .61-.41 2 2 0 0 1 .77-.15 2.75 2.75 0 0 1 .73.11 2.49 2.49 0 0 1 .66.29l.26-.27H94v1.87h-.34a3.21 3.21 0 0 0-.62-1.13 1.14 1.14 0 0 0-.84-.34 1 1 0 0 0-.7.24.8.8 0 0 0-.27.65.92.92 0 0 0 .07.38 1.07 1.07 0 0 0 .23.32 2.42 2.42 0 0 0 .4.32l.57.37c.38.23.69.44 1 .62a3.62 3.62 0 0 1 .64.54 1.84 1.84 0 0 1 .37.55 1.88 1.88 0 0 1 .11.65 1.85 1.85 0 0 1-.59 1.45 2.32 2.32 0 0 1-1.58.53 2.71 2.71 0 0 1-1.74-.59Zm11.36-1.08a3.06 3.06 0 0 1-1.21.89 4 4 0 0 1-1.6.32 3.26 3.26 0 0 1-1.26-.25 2.88 2.88 0 0 1-1-.72 3.37 3.37 0 0 1-.64-1.11 4.39 4.39 0 0 1-.23-1.44 4.23 4.23 0 0 1 .26-1.51 3.4 3.4 0 0 1 .74-1.14 3.06 3.06 0 0 1 1.14-.73 4.14 4.14 0 0 1 1.48-.25 5.25 5.25 0 0 1 .92.08 3 3 0 0 1 .72.24 1.36 1.36 0 0 1 .47.36.69.69 0 0 1 .17.46.49.49 0 0 1-.17.41.7.7 0 0 1-.46.14.67.67 0 0 1-.39-.1 1.7 1.7 0 0 1-.41-.43 1.88 1.88 0 0 0-.5-.43 1.35 1.35 0 0 0-.61-.12 1.56 1.56 0 0 0-1.4.72 3.75 3.75 0 0 0-.48 2.1 4 4 0 0 0 .53 2.27 1.73 1.73 0 0 0 1.54.77 2.56 2.56 0 0 0 1-.21 3.41 3.41 0 0 0 1-.7Zm3.28-.99v.85a1.09 1.09 0 0 0 .14.47.53.53 0 0 0 .32.22 3.39 3.39 0 0 0 .58.07v.46h-3.45v-.46a2.2 2.2 0 0 0 .59-.07.62.62 0 0 0 .34-.21.92.92 0 0 0 .15-.45v-3.69a2.15 2.15 0 0 0-.13-.72.47.47 0 0 0-.35-.28 3.56 3.56 0 0 0-.65-.05v-.45l2.28-.5.18 1.61h.05a3.2 3.2 0 0 1 1-1.26 2.84 2.84 0 0 1 .63-.36 1.72 1.72 0 0 1 .66-.13 1 1 0 0 1 .66.2.67.67 0 0 1 .24.54.63.63 0 0 1-.2.49.83.83 0 0 1-.56.17 1 1 0 0 1-.35-.05l-.25-.11-.21-.11a.46.46 0 0 0-.21 0 .93.93 0 0 0-.7.45 3.22 3.22 0 0 0-.55 1.13 6.3 6.3 0 0 0-.16.86 7.74 7.74 0 0 0-.06 1Zm6.28 0a5.86 5.86 0 0 0 0 .81 1 1 0 0 0 .18.49.76.76 0 0 0 .36.24 2.61 2.61 0 0 0 .63.07v.46h-3.73v-.46a2.15 2.15 0 0 0 .63-.08.88.88 0 0 0 .39-.23.93.93 0 0 0 .18-.46 5.11 5.11 0 0 0 0-.75v-2.94a2.79 2.79 0 0 0-.07-.67.53.53 0 0 0-.3-.41 2.41 2.41 0 0 0-.88-.11v-.46l2.55-.49Zm-1.5-7.59a.82.82 0 0 1 .81-.81.76.76 0 0 1 .57.24.82.82 0 0 1 0 1.14.76.76 0 0 1-.57.24.82.82 0 0 1-.81-.81Zm5.7 3.7a3.58 3.58 0 0 1 .9-.77 2 2 0 0 1 1.11-.29 3.34 3.34 0 0 1 1.36.27 3.07 3.07 0 0 1 1.07.74 3.33 3.33 0 0 1 .71 1.14 4.15 4.15 0 0 1 0 2.89 3.59 3.59 0 0 1-.72 1.12 3.13 3.13 0 0 1-1.08.73 3.49 3.49 0 0 1-1.35.26 2.94 2.94 0 0 1-1.09-.2 2.78 2.78 0 0 1-.91-.66v1.9a5.92 5.92 0 0 0 0 .83.82.82 0 0 0 .21.48.88.88 0 0 0 .45.24 3.81 3.81 0 0 0 .77.07v.46h-4v-.46a2.61 2.61 0 0 0 .63-.07.75.75 0 0 0 .37-.24.93.93 0 0 0 .19-.46 4 4 0 0 0 0-.76v-6.1a2.75 2.75 0 0 0-.07-.66.53.53 0 0 0-.3-.42 2.2 2.2 0 0 0-.88-.11v-.45l2.5-.49Zm.39.38a1.93 1.93 0 0 0-.26.62 4.65 4.65 0 0 0-.08.93v1a5.54 5.54 0 0 0 0 .61 2.34 2.34 0 0 0 .06.43 1.59 1.59 0 0 0 .1.33 1.34 1.34 0 0 0 .17.27 2.15 2.15 0 0 0 .71.64 1.78 1.78 0 0 0 2.33-.52 3.59 3.59 0 0 0 .55-2.12 4.71 4.71 0 0 0-.15-1.23 3.18 3.18 0 0 0-.42-.95 2.28 2.28 0 0 0-.66-.62 1.8 1.8 0 0 0-2.37.6Zm6.22-.49v-.48a5 5 0 0 0 1.08-.81 2.79 2.79 0 0 0 .6-1h.38V148H126v.61h-1.74v3.95a5.69 5.69 0 0 0 0 .77 1.48 1.48 0 0 0 .15.5.59.59 0 0 0 .28.26.88.88 0 0 0 .42.08 1.08 1.08 0 0 0 .56-.13 1.7 1.7 0 0 0 .45-.47l.32.25a1.39 1.39 0 0 1-.63.74 2.33 2.33 0 0 1-1.11.25 1.9 1.9 0 0 1-1.31-.41 1.52 1.52 0 0 1-.45-1.18v-4.61Zm7.36 4a5.61 5.61 0 0 0 .05.81 1.17 1.17 0 0 0 .17.49.75.75 0 0 0 .37.24 2.46 2.46 0 0 0 .62.07v.46H127v-.46a2.27 2.27 0 0 0 .64-.08.84.84 0 0 0 .38-.23.93.93 0 0 0 .18-.46 4.91 4.91 0 0 0 .05-.75v-2.94a4.51 4.51 0 0 0-.07-.67.57.57 0 0 0-.3-.41 2.47 2.47 0 0 0-.89-.11v-.46l2.55-.49ZM128 145a.74.74 0 0 1 .23-.57.78.78 0 0 1 .57-.24.81.81 0 0 1 0 1.62.78.78 0 0 1-.57-.24.74.74 0 0 1-.23-.57Zm7.2 2.66a3.69 3.69 0 0 1 1.41.27 3.57 3.57 0 0 1 1.16.73 3.35 3.35 0 0 1 1.09 2.52 3.66 3.66 0 0 1-.29 1.46 3.56 3.56 0 0 1-.8 1.14 3.82 3.82 0 0 1-1.16.76 3.69 3.69 0 0 1-1.41.27 3.61 3.61 0 0 1-1.38-.27 3.27 3.27 0 0 1-1.15-.75 3.44 3.44 0 0 1-.78-1.15 3.66 3.66 0 0 1-.29-1.46 3.45 3.45 0 0 1 .29-1.41 3.32 3.32 0 0 1 .78-1.12 3.37 3.37 0 0 1 1.15-.73 3.8 3.8 0 0 1 1.38-.26Zm0 .62a1.81 1.81 0 0 0-.87.21 2 2 0 0 0-.68.59 3.07 3.07 0 0 0-.43.93 4.4 4.4 0 0 0-.15 1.19 4.63 4.63 0 0 0 .15 1.22 3.07 3.07 0 0 0 .43.93 2.09 2.09 0 0 0 .67.59 1.84 1.84 0 0 0 .88.21 1.93 1.93 0 0 0 .9-.21 2 2 0 0 0 .69-.6 2.82 2.82 0 0 0 .44-.94 4.1 4.1 0 0 0 .16-1.2 4 4 0 0 0-.16-1.19 2.75 2.75 0 0 0-.44-.91 2 2 0 0 0-.69-.6 1.82 1.82 0 0 0-.9-.22Zm7.09 4.36v.84a.9.9 0 0 0 .13.46.56.56 0 0 0 .33.22 4.7 4.7 0 0 0 .59.08v.44H140v-.44a4.5 4.5 0 0 0 .58-.08.55.55 0 0 0 .33-.21.85.85 0 0 0 .15-.44 7.36 7.36 0 0 0 0-.78V151a12.56 12.56 0 0 0-.08-1.88 1.11 1.11 0 0 0-.1-.28.37.37 0 0 0-.18-.17.72.72 0 0 0-.3-.08h-.46v-.42l2.08-.49.15 1.29h.06a3.37 3.37 0 0 1 1.15-.95 3.09 3.09 0 0 1 1.44-.34 3 3 0 0 1 1.1.19 1.66 1.66 0 0 1 .75.54 1.81 1.81 0 0 1 .31.77 7.41 7.41 0 0 1 .09 1.31v2.17a6.35 6.35 0 0 0 0 .84 1 1 0 0 0 .13.46.53.53 0 0 0 .32.22 4.57 4.57 0 0 0 .57.08v.44h-3.37v-.44a3.52 3.52 0 0 0 .58-.07.53.53 0 0 0 .32-.22 1 1 0 0 0 .15-.45V151a8.48 8.48 0 0 0-.08-1.24 2.49 2.49 0 0 0-.25-.82 1 1 0 0 0-.46-.45 1.6 1.6 0 0 0-.69-.14 2 2 0 0 0-1.08.31 2.18 2.18 0 0 0-.76.83c0 .09-.08.17-.11.25a1.63 1.63 0 0 0-.07.28 3.09 3.09 0 0 0 0 .35v.52Z"/><path class="cls-3" d="m97.67 59.72 2.43-2.43a2.43 2.43 0 0 1 3.44 3.44l-2.44 2.43m0 0-2.43 2.43a2.43 2.43 0 1 1-3.43-3.44l2.43-2.43Zm6.9-11.11h15.33v19.42H108z"/><circle class="cls-4" cx="139.77" cy="55.59" r="7.59" transform="matrix(1 -.08 .08 1 -4.17 11.93)"/><path class="cls-3" d="M137.2 49.06s-.18 2.76 3.08 4.61c4.09 2.34 3.05 6.38 1.25 9.3m6.7 29.44V72a8 8 0 0 0-8-8 7.67 7.67 0 0 0-5.06 1.79l-8.63 6.87s-8.93-2.9-10.75-3.43a3.08 3.08 0 0 0-4 2c-.55 1.67.22 3.11 2.65 4s12.11 4.08 12.11 4.08l5.63-3.31v16.41"/><circle class="cls-4" cx="76.28" cy="55.59" r="7.59" transform="rotate(-85.19 76.28 55.59)"/><path class="cls-3" d="M80.47 49.26c-7 2.11-6.35 14.28-2 16.94 0 0-11.63 13-10.65 6.31 1.17-8 .64-11.63.86-16.92a7.59 7.59 0 0 1 7.6-7.59 7.85 7.85 0 0 1 4.19 1.26Z"/><path class="cls-3" d="M67.83 92.41V72a8 8 0 0 1 8-8 7.67 7.67 0 0 1 5.06 1.79l8.63 6.87s8.93-2.9 10.75-3.43a3.09 3.09 0 0 1 4 2c.54 1.67-.23 3.11-2.65 4s-12.11 4.08-12.11 4.08L83.88 76v16.41m27.75-40.36h8.07v2.7h-8.07zm0 6.65h8.07m-8.07 3h8.07m-8.07 2.99h8.07"/><path d="M86 128.16a18.07 18.07 0 0 0 3.74-4.78 17.11 17.11 0 0 1-1-4.84 1.52 1.52 0 0 1 0-.25 12.27 12.27 0 0 1-2.7 4.14l-.2-.14a20.87 20.87 0 0 0 2.66-6.23 21.27 21.27 0 0 0 .72-3.73 10.19 10.19 0 0 1 1.93.38c.09 0 .13.07.13.14s-.22.25-.87.43c-.32 1.23-.41 1.5-.68 2.42H92a4.64 4.64 0 0 1 .66-.67c.47.41.6.54 1 1 .07.11.07.13.07.16a.17.17 0 0 1-.11.13.78.78 0 0 1-.23.13l-.24.12a20.36 20.36 0 0 1-2.46 7.06c1.22 2.23 3.08 3.08 6.79 3.08a49.26 49.26 0 0 0 5.36-.32v.19a2.06 2.06 0 0 0-.7.38 1.3 1.3 0 0 0-.33 1L100 128a38.72 38.72 0 0 1-4.11-.2 7.4 7.4 0 0 1-3.76-1.18 6.09 6.09 0 0 1-2-2.22 13.65 13.65 0 0 1-4.05 3.94Zm3.65-12a11.54 11.54 0 0 1-.52 1.42 13.58 13.58 0 0 0 1.08 4.92 20.83 20.83 0 0 0 1.79-6.39Zm12 3.1-.15 3.9v.06c0 .2.06.25.24.3a.57.57 0 0 1 .48.49.55.55 0 0 1-.32.43 6.44 6.44 0 0 1-2.18.2c-1.22 0-1.51-.16-1.51-.83v-8.91H96a22.66 22.66 0 0 1-.59 6.19 7.52 7.52 0 0 1-2.5 4.06l-.2-.11a9 9 0 0 0 1.42-2.85 24.22 24.22 0 0 0 .72-6.73v-1.77a9.37 9.37 0 0 1 1.38.8h1.93l.63-.89c.52.45.67.58 1.15 1a.15.15 0 0 1 .06.11c0 .09-.13.18-.58.41v8.16c0 .3.05.34.52.34s.58-.07.67-.36.68-3.29.81-4Zm25.55-3.33 1.08-1.39c.78.63 1 .83 1.77 1.5a.26.26 0 0 1 .1.18c0 .07-.09.12-.21.12H121a21.2 21.2 0 0 1-.22 3h5.09a10.15 10.15 0 0 1 .69-.87l1.15.87c.18.16.24.23.24.29s0 .1-.63.54a26.41 26.41 0 0 1-1.12 6.82c-.45 1-.87 1.22-2.76 1.48-.1-1-.3-1.1-3.31-1.66v-.25c1.66.16 3.49.3 4.16.3.38 0 .5 0 .65-.23.47-.67.93-3.73 1.06-6.88h-5.29a12.56 12.56 0 0 1-1.39 4.14 10.52 10.52 0 0 1-3.65 3.82 11.84 11.84 0 0 1-1.82.9l-.15-.31a10.24 10.24 0 0 0 3.82-3.45c1.46-2.2 2.09-4.7 2.16-8.47h-4.07a12 12 0 0 0-1.58.13l-.18-.72.48.07a9.6 9.6 0 0 0 1.3.11h5.4v-2.11a9.6 9.6 0 0 0-.11-1.29c1.66.16 2.13.27 2.13.48s-.13.18-.78.42v2.5Z" style="fill:#433f3f"/></svg>