<svg id="bg" xmlns="http://www.w3.org/2000/svg" viewBox="0 0 216 216"><defs><style>.cls-3,.cls-4{fill:#fff}.cls-2{fill:#da6669}.cls-3,.cls-4{stroke:#da6669;stroke-linecap:round;stroke-width:1.5px}.cls-3{stroke-miterlimit:10}.cls-4{stroke-linejoin:round}</style></defs><circle cx="108" cy="108" r="108" style="fill:#fff"/><path class="cls-2" d="M108 9.5A98.5 98.5 0 1 1 9.5 108 98.62 98.62 0 0 1 108 9.5m0-1.5a100 100 0 1 0 100 100A100 100 0 0 0 108 8Z"/><circle class="cls-3" cx="85.17" cy="55.87" r="7.45" transform="rotate(-85.19 85.17 55.875)"/><path class="cls-4" d="M89.28 49.66c-6.88 2.08-6.23 14-2 16.62 0 0-11.41 12.72-10.45 6.19 1.15-7.85.63-11.41.85-16.6a7.44 7.44 0 0 1 7.44-7.44 7.74 7.74 0 0 1 4.16 1.23Z"/><path class="cls-4" d="M76.88 92V72a7.87 7.87 0 0 1 15.74 0v20"/><circle class="cls-3" cx="130.88" cy="55.87" r="7.45" transform="rotate(-4.81 130.98 55.947)"/><path class="cls-4" d="M128.35 51.43s-.16 2.31 3 3.87c4 2 3 5.36 1.24 7.81"/><path class="cls-4" d="M136.79 52.09h-12.07l.75-1.32h10.52l.8 1.32z"/><path d="m121.53 52.69-2.56.89v-4.3l2.56.89v2.52zm-20.24 19.42-2.56.89v-4.3l2.56.89v2.52z" style="stroke-linejoin:round;stroke:#da6669;stroke-linecap:round;stroke-width:1.5px;fill:#da6669"/><path d="M126.13 61.61s-10.06 10-24.93 9.27" style="fill:none;stroke-linejoin:round;stroke:#da6669;stroke-linecap:round;stroke-width:1.5px"/><path class="cls-4" d="M139.18 92V72a7.88 7.88 0 0 0-7.87-7.87 7.49 7.49 0 0 0-5 1.76l-8.47 6.73s-8.76-2.84-10.54-3.36a3 3 0 0 0-3.94 1.92c-.53 1.64.23 3 2.6 3.94s11.88 4 11.88 4l5.56-3.21V92"/><path class="cls-2" d="m88.35 152.35 3.38-7.68h2.91v.49a2.33 2.33 0 0 0-.67.11.76.76 0 0 0-.38.3 1.32 1.32 0 0 0-.19.59 8.81 8.81 0 0 0 0 1v5.09a7.08 7.08 0 0 0 0 1 1.2 1.2 0 0 0 .2.58.73.73 0 0 0 .43.28 4.26 4.26 0 0 0 .73.08v.49h-4.2v-.49a3.38 3.38 0 0 0 .74-.09.8.8 0 0 0 .43-.27 1 1 0 0 0 .21-.55 8 8 0 0 0 0-1v-6h-.13l-3.79 8.53h-.29L84 146.28v5.94a7.08 7.08 0 0 0 0 1 1.2 1.2 0 0 0 .2.58.73.73 0 0 0 .43.28 4.26 4.26 0 0 0 .73.08v.49h-3.57v-.49a3.28 3.28 0 0 0 .73-.09.83.83 0 0 0 .44-.27 1.22 1.22 0 0 0 .21-.55 8 8 0 0 0 0-1V147a7.39 7.39 0 0 0 0-.91 1.27 1.27 0 0 0-.18-.56.73.73 0 0 0-.4-.3 3.33 3.33 0 0 0-.67-.11v-.49H85l3.28 7.68Zm13.48 1.12a3.42 3.42 0 0 1-2.74 1.34 3.86 3.86 0 0 1-1.39-.25 3.06 3.06 0 0 1-1.07-.72 3.39 3.39 0 0 1-.7-1.1 4.09 4.09 0 0 1-.25-1.43 4.13 4.13 0 0 1 .26-1.47 3.35 3.35 0 0 1 .74-1.15 3.41 3.41 0 0 1 1.13-.76 3.77 3.77 0 0 1 1.44-.27 2.67 2.67 0 0 1 2 .68 2.65 2.65 0 0 1 .69 2c0 .12 0 .19-.08.22a.92.92 0 0 1-.33 0h-4.32a1.45 1.45 0 0 0 0 .25 3.25 3.25 0 0 0 0 .33 4.3 4.3 0 0 0 .17 1.23 2.66 2.66 0 0 0 .46.94 2.23 2.23 0 0 0 .73.61 2.09 2.09 0 0 0 .94.21 2.19 2.19 0 0 0 1-.24 3.58 3.58 0 0 0 1-.78ZM99.69 150h.41a.89.89 0 0 0 .24 0 .19.19 0 0 0 .1-.12.45.45 0 0 0 0-.18 1.24 1.24 0 0 0-.39-1 1.45 1.45 0 0 0-1-.36q-1.41 0-1.74 1.68Zm9.1 3.59h-.05a3.12 3.12 0 0 1-1 .94 2.55 2.55 0 0 1-1.24.28 3.37 3.37 0 0 1-1.36-.27 3 3 0 0 1-1.06-.74 3.29 3.29 0 0 1-.71-1.14 4.19 4.19 0 0 1-.25-1.44 4.11 4.11 0 0 1 .25-1.42 3.34 3.34 0 0 1 .71-1.13 3 3 0 0 1 1.07-.74 3.32 3.32 0 0 1 1.35-.27 2.75 2.75 0 0 1 1.11.21 3 3 0 0 1 .94.66v-2.56a5.79 5.79 0 0 0 0-.68.57.57 0 0 0-.37-.4 2.82 2.82 0 0 0-1-.12v-.39l2.66-.49v8.98a3.72 3.72 0 0 0 .07.82 1.28 1.28 0 0 0 .1.26.44.44 0 0 0 .17.16.89.89 0 0 0 .3.09 3.4 3.4 0 0 0 .49 0v.45l-2.16.14Zm-.26-2.88a6.19 6.19 0 0 0-.07-1 1.37 1.37 0 0 0-.28-.61 2 2 0 0 0-.76-.6 2.39 2.39 0 0 0-.92-.2 1.57 1.57 0 0 0-1.42.78 3.84 3.84 0 0 0-.49 2.1 5.86 5.86 0 0 0 .12 1.24 3.26 3.26 0 0 0 .37 1 1.75 1.75 0 0 0 .6.61 1.57 1.57 0 0 0 .82.22 1.89 1.89 0 0 0 .47-.06 1.86 1.86 0 0 0 .47-.16 2.34 2.34 0 0 0 .43-.26 1.47 1.47 0 0 0 .32-.34 2 2 0 0 0 .26-.69 6.33 6.33 0 0 0 .08-1.11Zm5.7 1.9a5.61 5.61 0 0 0 0 .81 1 1 0 0 0 .18.49.68.68 0 0 0 .36.24 2.52 2.52 0 0 0 .62.07v.46h-3.73v-.46a2.27 2.27 0 0 0 .64-.08.84.84 0 0 0 .38-.23.93.93 0 0 0 .19-.46 5.11 5.11 0 0 0 0-.75v-2.94a3.44 3.44 0 0 0-.07-.67.53.53 0 0 0-.3-.41 2.45 2.45 0 0 0-.88-.11v-.46l2.54-.49Zm-1.49-7.61a.78.78 0 0 1 .23-.57.81.81 0 0 1 1.15 0 .81.81 0 0 1-.57 1.38.78.78 0 0 1-.58-.24.78.78 0 0 1-.23-.57Zm9.54 8.6a3.06 3.06 0 0 1-1.21.89 4 4 0 0 1-1.6.32 3.22 3.22 0 0 1-1.26-.25 2.88 2.88 0 0 1-1-.72 3.2 3.2 0 0 1-.64-1.11 4.39 4.39 0 0 1-.23-1.44 4.23 4.23 0 0 1 .26-1.51 3.26 3.26 0 0 1 .74-1.14 3.06 3.06 0 0 1 1.14-.73 4.13 4.13 0 0 1 1.47-.25 5.28 5.28 0 0 1 .93.08 3.38 3.38 0 0 1 .72.24 1.36 1.36 0 0 1 .47.36.69.69 0 0 1 .17.46.49.49 0 0 1-.17.41.7.7 0 0 1-.46.14.67.67 0 0 1-.39-.1 1.7 1.7 0 0 1-.41-.43 1.88 1.88 0 0 0-.5-.43 1.37 1.37 0 0 0-.62-.12 1.55 1.55 0 0 0-1.39.72 3.75 3.75 0 0 0-.48 2.1 4 4 0 0 0 .53 2.27 1.73 1.73 0 0 0 1.54.77 2.56 2.56 0 0 0 1-.21 3.41 3.41 0 0 0 1-.7Zm4.93-3.33v-.53q0-1.59-1.35-1.59a1.92 1.92 0 0 0-.38 0 .71.71 0 0 0-.26.13.92.92 0 0 0-.19.26 2.18 2.18 0 0 0-.16.42 1.43 1.43 0 0 1-.28.5.58.58 0 0 1-.4.12.57.57 0 0 1-.65-.65 1.07 1.07 0 0 1 .67-1 4.15 4.15 0 0 1 1.88-.34 2.88 2.88 0 0 1 1.85.46 2 2 0 0 1 .54 1.57v2.91c0 1 .2 1.48.59 1.48a1.34 1.34 0 0 0 .35 0 .45.45 0 0 0 .28-.25l.19.32a1.27 1.27 0 0 1-.58.5 2 2 0 0 1-.87.2 1 1 0 0 1-.85-.36 1.73 1.73 0 0 1-.28-1h-.06a2.69 2.69 0 0 1-.94 1 2.53 2.53 0 0 1-1.32.37 1.86 1.86 0 0 1-1.29-.42 1.43 1.43 0 0 1-.47-1.12 1.73 1.73 0 0 1 .11-.6 1.5 1.5 0 0 1 .36-.54 3 3 0 0 1 .65-.52 8.93 8.93 0 0 1 1-.51Zm0 .56a12.18 12.18 0 0 0-1.26.56 4 4 0 0 0-.82.55 1.79 1.79 0 0 0-.45.54 1.25 1.25 0 0 0-.14.56.92.92 0 0 0 .29.7 1 1 0 0 0 .75.28 1.24 1.24 0 0 0 .63-.17 1.89 1.89 0 0 0 .52-.46 2.79 2.79 0 0 0 .35-.69 3 3 0 0 0 .13-.84Zm5.38 1.82a5.54 5.54 0 0 0 0 .79 1.08 1.08 0 0 0 .16.47.69.69 0 0 0 .35.24 2.43 2.43 0 0 0 .61.07v.46h-3.59v-.46a2 2 0 0 0 .62-.08.73.73 0 0 0 .37-.23.86.86 0 0 0 .19-.43 5 5 0 0 0 0-.74v-6.78a3.39 3.39 0 0 0-.06-.64.51.51 0 0 0-.3-.4 2.42 2.42 0 0 0-.87-.11v-.44l2.46-.48Zm-64.51 14.53a7.71 7.71 0 0 0 1.18-.08 2.18 2.18 0 0 0 .75-.27 1 1 0 0 0 .4-.47 1.54 1.54 0 0 0 .13-.67H71v3.54h-.45a1.92 1.92 0 0 0-.11-.67 1.13 1.13 0 0 0-.39-.48 2.16 2.16 0 0 0-.76-.28 5.72 5.72 0 0 0-1.2-.1v2.94a2.09 2.09 0 0 0 .1.71 1 1 0 0 0 .36.45 1.65 1.65 0 0 0 .67.25 6 6 0 0 0 1 .07 5.6 5.6 0 0 0 1.17-.1 1.88 1.88 0 0 0 .8-.33 1.59 1.59 0 0 0 .52-.62 4.18 4.18 0 0 0 .33-.95h.49l-.19 2.56h-8.06v-.49a4.27 4.27 0 0 0 .74-.08.92.92 0 0 0 .43-.22.79.79 0 0 0 .21-.45 3.78 3.78 0 0 0 0-.74v-6a5 5 0 0 0 0-.74.89.89 0 0 0-.18-.44.71.71 0 0 0-.4-.22 4.52 4.52 0 0 0-.68-.09v-.49h7.52l.12 2.29h-.46a2.77 2.77 0 0 0-.25-.85 1.37 1.37 0 0 0-.48-.53 2.11 2.11 0 0 0-.78-.27 6.17 6.17 0 0 0-1.13-.08H68.3a.19.19 0 0 0-.22.22Zm11.15.14a1.16 1.16 0 0 0 .32-.66c0-.28-.26-.42-.77-.42v-.45h2.85v.45a1.44 1.44 0 0 0-.43.06 1.48 1.48 0 0 0-.37.16 2.55 2.55 0 0 0-.37.32c-.12.14-.27.3-.42.5L78.7 169l1.73 2.27a2.92 2.92 0 0 0 .75.75 1.37 1.37 0 0 0 .73.21v.46h-3.46v-.46a2 2 0 0 0 .65-.07.27.27 0 0 0 .19-.28.52.52 0 0 0-.12-.26 5.09 5.09 0 0 0-.37-.52l-.91-1.17-1.1 1.41a.72.72 0 0 0-.2.46.38.38 0 0 0 .16.31.8.8 0 0 0 .49.12v.46h-3v-.46a2.17 2.17 0 0 0 .53-.05 1.25 1.25 0 0 0 .45-.18 2.68 2.68 0 0 0 .44-.36c.15-.16.32-.35.51-.59l1.33-1.62-1.7-2.43a2.14 2.14 0 0 0-.54-.57 1.22 1.22 0 0 0-.63-.15v-.45h3.2v.45a1.11 1.11 0 0 0-.51.09.26.26 0 0 0-.15.23 1.08 1.08 0 0 0 .24.54l.94 1.37Zm7.36.95v-.53q0-1.59-1.35-1.59a2 2 0 0 0-.38 0 .71.71 0 0 0-.26.13.92.92 0 0 0-.19.26 3.13 3.13 0 0 0-.16.42 1.28 1.28 0 0 1-.28.5.66.66 0 0 1-1-.53 1.07 1.07 0 0 1 .66-1 4.15 4.15 0 0 1 1.88-.34 2.86 2.86 0 0 1 1.85.46 2 2 0 0 1 .54 1.57v2.91c0 1 .2 1.48.59 1.48a1.34 1.34 0 0 0 .35 0 .49.49 0 0 0 .29-.25l.18.32a1.24 1.24 0 0 1-.57.5 2 2 0 0 1-.87.2 1 1 0 0 1-.86-.36 1.73 1.73 0 0 1-.28-1h-.06a2.69 2.69 0 0 1-.94 1 2.5 2.5 0 0 1-1.32.37 1.86 1.86 0 0 1-1.29-.42 1.43 1.43 0 0 1-.47-1.12 1.73 1.73 0 0 1 .11-.6 1.82 1.82 0 0 1 .36-.54 3.29 3.29 0 0 1 .65-.52 8.93 8.93 0 0 1 1-.51Zm0 .56a11.92 11.92 0 0 0-1.25.56 3.85 3.85 0 0 0-.83.55 1.79 1.79 0 0 0-.45.54 1.24 1.24 0 0 0-.13.56.91.91 0 0 0 .28.7 1 1 0 0 0 .79.26 1.29 1.29 0 0 0 .63-.17 2 2 0 0 0 .51-.46 2.49 2.49 0 0 0 .35-.69 2.63 2.63 0 0 0 .13-.84Zm5.54 1.77v.86a1 1 0 0 0 .13.47.57.57 0 0 0 .32.22 3.39 3.39 0 0 0 .59.07v.46h-3.43v-.46a3.82 3.82 0 0 0 .6-.07.59.59 0 0 0 .33-.21.92.92 0 0 0 .15-.45v-3.73a3.22 3.22 0 0 0-.08-.67.85.85 0 0 0-.09-.27.32.32 0 0 0-.17-.15.77.77 0 0 0-.3-.08 3.48 3.48 0 0 0-.49 0v-.46l2.12-.49L92 167h.06a4.05 4.05 0 0 1 1.23-1 3.23 3.23 0 0 1 1.43-.32 2.65 2.65 0 0 1 1.37.33 1.69 1.69 0 0 1 .78 1h.06a3.35 3.35 0 0 1 2.63-1.29 3.1 3.1 0 0 1 1.12.2 1.85 1.85 0 0 1 .76.55 2 2 0 0 1 .33.79 7.5 7.5 0 0 1 .1 1.33v2.91a1.19 1.19 0 0 0 .14.49.48.48 0 0 0 .31.22 3.67 3.67 0 0 0 .6.07v.46h-3.43v-.46a2.18 2.18 0 0 0 .58-.07.58.58 0 0 0 .34-.22.92.92 0 0 0 .15-.45v-2.41a7.54 7.54 0 0 0-.08-1.26 2.19 2.19 0 0 0-.26-.83 1.09 1.09 0 0 0-.47-.46 1.55 1.55 0 0 0-.71-.15 2 2 0 0 0-1.07.32 2.39 2.39 0 0 0-.79.85l-.11.26a1.76 1.76 0 0 0-.07.27 1.86 1.86 0 0 0 0 .36v3.01a1.06 1.06 0 0 0 .13.49.59.59 0 0 0 .33.22 3.82 3.82 0 0 0 .6.07v.46h-3.43v-.46a3.67 3.67 0 0 0 .58-.07.56.56 0 0 0 .33-.21.92.92 0 0 0 .14-.45 5.63 5.63 0 0 0 0-.79v-1.63a8.83 8.83 0 0 0-.08-1.27 2.55 2.55 0 0 0-.25-.83 1 1 0 0 0-.47-.46 1.62 1.62 0 0 0-.7-.14 2.1 2.1 0 0 0-1.87 1.17l-.11.26a1.76 1.76 0 0 0-.07.27 1.86 1.86 0 0 0 0 .36v.52Zm14.04.01a4.46 4.46 0 0 0 0 .81 1 1 0 0 0 .17.49.76.76 0 0 0 .36.24 2.61 2.61 0 0 0 .63.07v.46h-3.73v-.46a2.15 2.15 0 0 0 .63-.08.83.83 0 0 0 .39-.23.93.93 0 0 0 .18-.46 4.91 4.91 0 0 0 .05-.75v-2.94a3.22 3.22 0 0 0-.08-.67.54.54 0 0 0-.29-.41 2.47 2.47 0 0 0-.89-.11v-.46l2.55-.49Zm-1.5-7.59a.75.75 0 0 1 .24-.57.76.76 0 0 1 .57-.24.81.81 0 0 1 0 1.62.76.76 0 0 1-.57-.24.75.75 0 0 1-.24-.59Zm5.78 7.62v.84a.89.89 0 0 0 .14.46.53.53 0 0 0 .32.22 5 5 0 0 0 .59.08v.44h-3.4v-.44a5.09 5.09 0 0 0 .58-.08.58.58 0 0 0 .32-.16.85.85 0 0 0 .15-.44V169a12.56 12.56 0 0 0-.08-1.88 1.15 1.15 0 0 0-.09-.28.37.37 0 0 0-.18-.17.82.82 0 0 0-.3-.08h-.47v-.42l2.08-.49.16 1.29a3.5 3.5 0 0 1 1.16-.95 3.06 3.06 0 0 1 1.44-.34 2.94 2.94 0 0 1 1.09.19 1.75 1.75 0 0 1 .76.54 1.94 1.94 0 0 1 .31.77 7.41 7.41 0 0 1 .09 1.31v3.01a1 1 0 0 0 .14.46.51.51 0 0 0 .32.22 4.65 4.65 0 0 0 .56.08v.44h-3.36v-.44a3.38 3.38 0 0 0 .57-.07.53.53 0 0 0 .33-.22 1 1 0 0 0 .14-.45 7.31 7.31 0 0 0 0-.77V169a8.48 8.48 0 0 0-.08-1.24 2.47 2.47 0 0 0-.26-.82 1 1 0 0 0-.46-.45 1.6 1.6 0 0 0-.69-.14 1.94 1.94 0 0 0-1.07.31 2.1 2.1 0 0 0-.76.83c0 .09-.08.17-.11.25a1 1 0 0 0-.07.28 3.09 3.09 0 0 0 0 .35v.52Zm10.68-2.37v-.53q0-1.59-1.35-1.59a2 2 0 0 0-.38 0 .71.71 0 0 0-.26.13.92.92 0 0 0-.19.26 3.13 3.13 0 0 0-.16.42 1.28 1.28 0 0 1-.28.5.66.66 0 0 1-1-.53 1.07 1.07 0 0 1 .66-1 4.15 4.15 0 0 1 1.88-.34 2.86 2.86 0 0 1 1.85.46 2 2 0 0 1 .55 1.57v2.91c0 1 .19 1.48.58 1.48a1.34 1.34 0 0 0 .35 0 .49.49 0 0 0 .29-.25l.18.32a1.24 1.24 0 0 1-.57.5 2 2 0 0 1-.87.2 1 1 0 0 1-.85-.36 1.66 1.66 0 0 1-.28-1h-.07a2.61 2.61 0 0 1-.94 1 2.5 2.5 0 0 1-1.32.37 1.86 1.86 0 0 1-1.29-.42 1.43 1.43 0 0 1-.47-1.12 1.73 1.73 0 0 1 .11-.6 1.82 1.82 0 0 1 .36-.54 3.29 3.29 0 0 1 .65-.52 8.93 8.93 0 0 1 1-.51Zm0 .56a11.92 11.92 0 0 0-1.25.56 4.11 4.11 0 0 0-.83.55 1.79 1.79 0 0 0-.45.54 1.24 1.24 0 0 0-.13.56.91.91 0 0 0 .28.7 1 1 0 0 0 .76.28 1.29 1.29 0 0 0 .63-.17 2 2 0 0 0 .51-.46 2.24 2.24 0 0 0 .35-.69 2.63 2.63 0 0 0 .13-.84Zm3.19-2.22v-.48a5 5 0 0 0 1.08-.81 2.62 2.62 0 0 0 .59-1h.38V166h1.74v.61h-1.74v3.95a5.51 5.51 0 0 0 0 .77 1.48 1.48 0 0 0 .15.5.61.61 0 0 0 .27.26.92.92 0 0 0 .43.08 1.07 1.07 0 0 0 .55-.13 1.7 1.7 0 0 0 .45-.47l.32.25a1.39 1.39 0 0 1-.63.74 2.33 2.33 0 0 1-1.11.25 1.88 1.88 0 0 1-1.3-.41 1.52 1.52 0 0 1-.45-1.18v-4.61Zm7.36 4a5.86 5.86 0 0 0 0 .81 1 1 0 0 0 .18.49.68.68 0 0 0 .36.24 2.52 2.52 0 0 0 .62.07v.46h-3.73v-.46a2.22 2.22 0 0 0 .64-.08.84.84 0 0 0 .38-.23.93.93 0 0 0 .19-.46 5.11 5.11 0 0 0 0-.75v-2.94a2.79 2.79 0 0 0-.07-.67.53.53 0 0 0-.3-.41 2.45 2.45 0 0 0-.88-.11v-.46l2.55-.49Zm-1.5-7.59a.78.78 0 0 1 .23-.57.81.81 0 0 1 1.15 0 .81.81 0 0 1-.57 1.38.78.78 0 0 1-.58-.24.78.78 0 0 1-.23-.59Zm7.19 2.64a3.67 3.67 0 0 1 1.4.27 3.61 3.61 0 0 1 1.17.73 3.56 3.56 0 0 1 .79 1.11 3.45 3.45 0 0 1 .29 1.41 3.53 3.53 0 0 1-1.08 2.6 3.87 3.87 0 0 1-1.17.76 3.67 3.67 0 0 1-1.4.27 3.62 3.62 0 0 1-1.39-.27 3.37 3.37 0 0 1-1.15-.75 3.44 3.44 0 0 1-.78-1.15 3.65 3.65 0 0 1-.28-1.46 3.45 3.45 0 0 1 .28-1.41 3.32 3.32 0 0 1 .78-1.12 3.47 3.47 0 0 1 1.15-.73 3.81 3.81 0 0 1 1.39-.26Zm0 .62a1.87 1.87 0 0 0-.88.21 2 2 0 0 0-.67.59 2.85 2.85 0 0 0-.43.93 4.4 4.4 0 0 0-.15 1.19 4.63 4.63 0 0 0 .15 1.22 2.85 2.85 0 0 0 .43.93 2 2 0 0 0 .66.59 1.86 1.86 0 0 0 .89.21 1.93 1.93 0 0 0 .9-.21 2 2 0 0 0 .68-.6 2.83 2.83 0 0 0 .45-.94 4.48 4.48 0 0 0 .15-1.2 4.4 4.4 0 0 0-.15-1.19 2.77 2.77 0 0 0-.45-.91 2 2 0 0 0-.68-.6 1.82 1.82 0 0 0-.9-.22Zm7.08 4.36v.84a.89.89 0 0 0 .14.46.53.53 0 0 0 .32.22 4.7 4.7 0 0 0 .59.08v.44h-3.4v-.44a5.09 5.09 0 0 0 .58-.08.58.58 0 0 0 .32-.16 1.07 1.07 0 0 0 .15-.44V169a12.56 12.56 0 0 0-.08-1.88 1.11 1.11 0 0 0-.1-.28.35.35 0 0 0-.17-.17.82.82 0 0 0-.3-.08h-.47v-.42l2.08-.49.16 1.29a3.4 3.4 0 0 1 1.16-.95 3.06 3.06 0 0 1 1.44-.34 2.94 2.94 0 0 1 1.09.19 1.75 1.75 0 0 1 .76.54 1.94 1.94 0 0 1 .31.77 7.41 7.41 0 0 1 .09 1.31v3.01a1 1 0 0 0 .14.46.51.51 0 0 0 .31.22 5.2 5.2 0 0 0 .57.08v.44h-3.37v-.44a3.39 3.39 0 0 0 .58-.07.59.59 0 0 0 .33-.22 1 1 0 0 0 .14-.45V169a8.66 8.66 0 0 0-.07-1.24 2.47 2.47 0 0 0-.26-.82 1 1 0 0 0-.46-.45 1.6 1.6 0 0 0-.69-.14 1.91 1.91 0 0 0-1.07.31 2 2 0 0 0-.76.83 1.74 1.74 0 0 0-.11.25 1 1 0 0 0-.07.28 1.78 1.78 0 0 0 0 .35v.52Z"/><path d="M64.47 116a5.81 5.81 0 0 0 1.43.16h2.77a13 13 0 0 1 .86-1.13c.74.59.74.59 1.55 1.26a.24.24 0 0 1 .09.16c0 .07-.09.12-.23.12h-5a6.77 6.77 0 0 0-1.3.11Zm.56-2.36a7.43 7.43 0 0 0 1.33.14h1.91q.44-.48.87-1c.63.5.81.66 1.42 1.19a.26.26 0 0 1 .07.14c0 .07-.07.11-.2.11h-3.94a10.69 10.69 0 0 0-1.31.09Zm.06 7.2a5.84 5.84 0 0 0 1.4.15h1.69c.33-.36.63-.69.92-1 .56.49.72.63 1.23 1.13a.5.5 0 0 1 .12.2c0 .07-.07.11-.2.11h-3.76a12.14 12.14 0 0 0-1.28.07Zm.1-2.41a7.31 7.31 0 0 0 1.3.14h1.62l.94-1a9.83 9.83 0 0 1 1.37 1.19.21.21 0 0 1 .07.14s-.07.11-.16.11h-3.84a7.72 7.72 0 0 0-1.17.09Zm1.17 10.06c0 .24-.19.31-.79.31-.25 0-.36-.07-.36-.23v-6.11a12.7 12.7 0 0 1 1.33.94h2.13c.31-.34.4-.45.68-.78.44.33.56.44 1 .78.12.11.18.16.18.23s-.08.16-.53.47v4.09c0 .14 0 .2-.12.23a2.12 2.12 0 0 1-.7.09q-.33 0-.33-.21v-.71h-2.49Zm0-1.31h2.47v-3.37h-2.47Zm3.64-7.59a14.17 14.17 0 0 0 3.06-3.59 12.08 12.08 0 0 0 1.55-3.4l1 .22c.74.18.94.27.94.41s-.11.2-.54.27a8.92 8.92 0 0 0 5.49 4.63l-.07.25a1.44 1.44 0 0 0-1.22 1.12 10.11 10.11 0 0 1-2.76-2.58 14.46 14.46 0 0 1-1.75-3.17 14.06 14.06 0 0 1-2.77 3.87 14.26 14.26 0 0 1-2.74 2.18Zm.24 8.53a17 17 0 0 0 5.44-2.7 15 15 0 0 0 3.49-3.33c1.26.59 1.66.83 1.66 1s-.17.23-.24.22h-.13a3.17 3.17 0 0 1-.43 0 18.68 18.68 0 0 1-5.43 3.84 24.13 24.13 0 0 1-4.25 1.35Zm.83-6.39A17.46 17.46 0 0 0 74.4 119a9.77 9.77 0 0 0 1.38-1.64c.31.16.56.29.7.38.67.32.81.43.81.56s-.19.19-.59.19h-.18a20 20 0 0 1-5.31 3.51Zm0 2.93a22 22 0 0 0 4.62-3 9.57 9.57 0 0 0 1.77-1.93c1 .45 1.57.79 1.57.94s-.15.19-.38.19h-.44a17.75 17.75 0 0 1-7 4.07Zm20.32-8.1c.29-.23.38-.31.65-.56a8 8 0 0 1 1 1c.07.13.07.15.07.2s-.22.2-.7.27a13.37 13.37 0 0 1-3.12 3.53 17.93 17.93 0 0 1-4.83 2.79l-.12-.26a18.37 18.37 0 0 0 3.87-2.62c-.26-.06-.26-.06-.54-.6a3.69 3.69 0 0 0-.94-1.11 14.17 14.17 0 0 1-1.84 1.09l-.14-.19a12 12 0 0 0 2.76-2.54 7 7 0 0 0 1.43-2.4c1.59.38 1.63.4 1.63.52s-.06.17-.71.31a2.87 2.87 0 0 1-.37.54Zm.74-2.25v-.79a6.46 6.46 0 0 0-.09-1.19h.85c.79.06 1.21.18 1.21.38s-.11.18-.8.42v1.13h5.31c.33-.41.44-.52.8-.92a12.4 12.4 0 0 1 1.63 1.32c.15.14.17.16.17.21s-.38.16-1.25.22a8.52 8.52 0 0 1-1.45 1.17l-.18-.11a7.48 7.48 0 0 0 .48-1.48h-12.1a4.9 4.9 0 0 1-.47 1.62c-.21.49-.72 1-1 1a.46.46 0 0 1-.3-.21 3.07 3.07 0 0 1-.27-.87c0-.18 0-.21.5-.57a4.12 4.12 0 0 0 1-1.48 7.44 7.44 0 0 0 .3-1.22h.24v1.33Zm-7.38 13.79a12.29 12.29 0 0 0 2.83-2.1 7.09 7.09 0 0 0 1.33-1.58c.56.16 1.33.43 1.58.54s.17.11.17.16-.2.24-.49.24h-.4a11.58 11.58 0 0 1-2.37 1.81 9.39 9.39 0 0 1-2.51 1.17Zm8.79-2.27v1.77c-.07.47-.21.65-.75.86a5.75 5.75 0 0 1-1.19.36c-.16-.65-.27-.79-.67-.95a10.34 10.34 0 0 0-1.83-.45v-.24l1.58.09 1.28.06c.25 0 .36-.15.36-.38v-3.3h-4.51a8.72 8.72 0 0 0-1.17.09l-.14-.63a8.5 8.5 0 0 0 1.29.13h8.63c.48-.58.48-.58 1-1.13.63.59.83.79 1.49 1.38a.19.19 0 0 1 .07.11.07.07 0 0 1-.07.05h-5.37ZM89.13 117l-.65.67.43.22a1.71 1.71 0 0 1 .92.75 2 2 0 0 1 0 .47.37.37 0 0 1-.34.4c-.23 0-.27 0-.72-.88a7.76 7.76 0 0 0-.51-.8 13 13 0 0 1-1.38 1.28 5.06 5.06 0 0 1 .92.36c.57.27.84.54.84.85a1.93 1.93 0 0 1 0 .23 11.57 11.57 0 0 0 2.75-3.55Zm.59 3.88c.18 0 .54.09 1.08.14H94c.33-.45.43-.59.79-1 .62.51.8.65 1.37 1.17a.29.29 0 0 1 .13.17s0 .1-.13.1h-5.4a4.49 4.49 0 0 0-.92.06Zm3.37-5.19c1.54 2.31 1.91 2.72 2.91 3.48a16.56 16.56 0 0 0 1-2.2h-1.57a4.59 4.59 0 0 0-1 .11l-.18-.59a9.36 9.36 0 0 0 1.16.07H97c.26-.29.33-.36.56-.65.61.43.81.58 1.35 1a.28.28 0 0 1 .11.2c0 .11-.16.16-.86.29a20.28 20.28 0 0 1-1.93 2 12.64 12.64 0 0 0 4.73 2v.25a1.53 1.53 0 0 0-1.42 1.07 10.64 10.64 0 0 1-3.78-2.69 13.27 13.27 0 0 1-2.81-4.35Zm2.26 9.08a13.66 13.66 0 0 1 3.19 1.17c.94.46 1.17.75 1.17 1.45s-.16.9-.39.9-.22-.07-.67-.59a8.5 8.5 0 0 0-1.65-1.54 18.73 18.73 0 0 0-1.78-1.25Zm14.33-4.21a1.65 1.65 0 1 1-1.64-1.64 1.64 1.64 0 0 1 1.64 1.64Zm9.43-4.13.79-1.08c.58.53.76.69 1.34 1.25 0 .05.09.1.09.14s-.07.11-.2.11h-2.56v1.8c.45.27.69.43 1.19.79s.74.69.74 1.14-.34 1.18-.61 1.18c-.11 0-.18-.1-.26-.34a5.67 5.67 0 0 0-1.06-2.41v9.58a.31.31 0 0 1-.18.23 6.79 6.79 0 0 1-.79.07c-.17 0-.24-.07-.26-.21.06-1.35.06-1.35.09-3.51 0-.81 0-2.06.08-3.73v-2.2a14.53 14.53 0 0 1-2.6 5.57l-.18-.13a23.58 23.58 0 0 0 1.79-4.82 19 19 0 0 0 .66-3h-.93a3.08 3.08 0 0 0-1.08.14l-.15-.74a2.82 2.82 0 0 0 1.23.18h1.09v-2.3a16.12 16.12 0 0 0-.07-1.84c1.77.17 2.07.24 2.07.42s-.12.2-.81.41v3.31Zm9.42 3.1c.32-.34.43-.43.74-.74.43.31.56.42 1 .74.14.13.2.18.2.24s-.18.23-.56.39v3.48c0 .12-.05.18-.14.21a2.82 2.82 0 0 1-.81.11c-.16 0-.22-.07-.23-.23v-.63h-2.89a5.42 5.42 0 0 0 1.63 2.05 9.52 9.52 0 0 0 4.32 1.75v.27a1.79 1.79 0 0 0-1.25 1.29 8.26 8.26 0 0 1-3.15-2.25 8.85 8.85 0 0 1-1.83-2.84 5.35 5.35 0 0 1-2.29 3.51 13.51 13.51 0 0 1-3.67 1.76l-.13-.25a9.4 9.4 0 0 0 4.12-3.1 5 5 0 0 0 .89-2.19h-2.27v.73c0 .24-.15.27-.63.31a1.62 1.62 0 0 0-.33 0c-.13 0-.2-.07-.22-.22 0-.72.07-2.3.07-2.7 0-.72 0-1.4-.07-2.48a11.16 11.16 0 0 1 1.32.77h2.43v-1.91h-1.12a3.37 3.37 0 0 0-1.08.13l-.13-.7a4.2 4.2 0 0 0 1.21.16h2.81c.38-.42.5-.54.88-1 .54.48.7.64 1.24 1.13a.27.27 0 0 1 .11.16c0 .06-.07.09-.18.09H126v1.91Zm-9-.9a14.46 14.46 0 0 0 3.4-3.38 9.53 9.53 0 0 0 1.62-2.94q.54.14.81.18c1 .2 1.14.24 1.14.38s-.08.16-.76.32a7.15 7.15 0 0 0 3 2.45 12.49 12.49 0 0 0 3.35 1v.25c-.68.17-1 .45-1.2 1.26a12.21 12.21 0 0 1-3.1-1.94 11.76 11.76 0 0 1-2.32-2.75 15.27 15.27 0 0 1-5.84 5.38Zm2.7 1.32v2.73h2.34a17.91 17.91 0 0 0 .2-2.73Zm3.74 0a18 18 0 0 1-.25 2.73h3V120Zm22.66-5.23 1.17-1.22c.72.56 1 .74 1.66 1.37a.31.31 0 0 1 .07.16s-.07.11-.18.11h-7.49a10.57 10.57 0 0 0 2.57 2 13.38 13.38 0 0 0 4.92 1.64v.22c-.54.18-.7.36-1.12 1.23a13.41 13.41 0 0 1-3.81-2.09 15.23 15.23 0 0 1-2.69-2.54v3.55c0 .11 0 .14-.11.18a3.68 3.68 0 0 1-.93.09c-.11 0-.15 0-.16-.16 0-.27 0-1.12.1-2.54v-1.12a14.71 14.71 0 0 1-3.65 3.37 16.53 16.53 0 0 1-4 2l-.1-.24a18.66 18.66 0 0 0 4.79-3.42 12.54 12.54 0 0 0 1.8-2.12h-4.7a5.92 5.92 0 0 0-1.23.11l-.09-.67a5.33 5.33 0 0 0 1.1.14h5.94v-.86c0-.49 0-.83-.07-1.51l.83.11c.92.12 1.2.21 1.2.37s-.21.26-.81.4v1.49Zm-9.63 6.63c0-.56 0-1-.07-2a10.71 10.71 0 0 1 1.31.66h6.05l.72-.79c.45.31.58.4 1 .72.15.13.2.2.2.25s-.09.18-.47.49v7.06H149l1.08-1.35c.76.61 1 .81 1.71 1.47a.34.34 0 0 1 .07.18c0 .06-.07.11-.16.11h-15.06a5.12 5.12 0 0 0-1.08.11l-.11-.67a5.46 5.46 0 0 0 1.19.15H139Zm7.58 1v-2h-6.43v2Zm-6.43.41v2.09h6.43v-2.09Zm0 2.5v2.4h6.43v-2.4Z" style="fill:#433f3f"/></svg>