<svg id="bg" xmlns="http://www.w3.org/2000/svg" viewBox="0 0 216 216"><defs><style>.cls-3{fill:#fff}.cls-2{fill:#74c7d1}.cls-3{stroke:#74c7d1;stroke-linecap:round;stroke-width:1.5px;stroke-miterlimit:10}</style></defs><circle cx="108" cy="108" r="108" style="fill:#fff"/><path class="cls-2" d="M108 9.5A98.5 98.5 0 1 1 9.5 108 98.62 98.62 0 0 1 108 9.5m0-1.5a100 100 0 1 0 100 100A100 100 0 0 0 108 8Z"/><path class="cls-2" d="M84 152.6v.86a1 1 0 0 0 .14.47.54.54 0 0 0 .31.22 3.53 3.53 0 0 0 .59.07v.46h-3.41v-.46a3.82 3.82 0 0 0 .6-.07.62.62 0 0 0 .34-.21.92.92 0 0 0 .15-.45v-3.73a3.44 3.44 0 0 0-.07-.67 2.12 2.12 0 0 0-.09-.27.36.36 0 0 0-.17-.15.82.82 0 0 0-.31-.08 3.33 3.33 0 0 0-.48 0v-.46l2.11-.49.17 1.3H84a4.05 4.05 0 0 1 1.23-1 3.18 3.18 0 0 1 1.42-.32A2.66 2.66 0 0 1 88 148a1.77 1.77 0 0 1 .78 1 3.35 3.35 0 0 1 2.64-1.29 3 3 0 0 1 1.11.2 1.78 1.78 0 0 1 .76.55 1.73 1.73 0 0 1 .33.79 6.65 6.65 0 0 1 .1 1.33v2.91a1.19 1.19 0 0 0 .14.49.51.51 0 0 0 .32.22 3.53 3.53 0 0 0 .59.07v.46h-3.39v-.46a2.32 2.32 0 0 0 .59-.07.56.56 0 0 0 .33-.22.92.92 0 0 0 .15-.45 5.39 5.39 0 0 0 0-.78v-1.63a8.78 8.78 0 0 0-.08-1.26 2.39 2.39 0 0 0-.26-.83 1.06 1.06 0 0 0-.48-.46 1.51 1.51 0 0 0-.7-.15 2 2 0 0 0-1.08.32 2.36 2.36 0 0 0-.78.85 1.83 1.83 0 0 0-.11.26 1.73 1.73 0 0 0-.08.27v3.37a1.05 1.05 0 0 0 .14.49.53.53 0 0 0 .33.22 3.82 3.82 0 0 0 .6.07v.46h-3.43v-.46a3.52 3.52 0 0 0 .58-.07.62.62 0 0 0 .34-.21 1 1 0 0 0 .14-.45v-2.42a8.83 8.83 0 0 0-.08-1.27 2.33 2.33 0 0 0-.25-.83 1 1 0 0 0-.46-.46 1.65 1.65 0 0 0-.7-.14 2.07 2.07 0 0 0-1.1.32 2.19 2.19 0 0 0-.78.85l-.11.26a1.76 1.76 0 0 0-.07.27 1.86 1.86 0 0 0 0 .36v.52Zm17.89.87a3.45 3.45 0 0 1-2.75 1.34 3.86 3.86 0 0 1-1.39-.25 3.16 3.16 0 0 1-1.07-.72 3.39 3.39 0 0 1-.7-1.1 4.09 4.09 0 0 1-.24-1.43 3.92 3.92 0 0 1 .26-1.47 3.33 3.33 0 0 1 .73-1.15 3.41 3.41 0 0 1 1.13-.76 3.77 3.77 0 0 1 1.44-.27 2.67 2.67 0 0 1 2 .68 2.65 2.65 0 0 1 .69 2 .27.27 0 0 1-.07.22 1 1 0 0 1-.34 0h-4.32a1.45 1.45 0 0 0 0 .25v.33a4.31 4.31 0 0 0 .16 1.23 2.68 2.68 0 0 0 .47.94 2.1 2.1 0 0 0 .72.61 2.14 2.14 0 0 0 1 .21 2.18 2.18 0 0 0 1-.24 3.58 3.58 0 0 0 1-.78ZM99.74 150h.42a.89.89 0 0 0 .23 0 .19.19 0 0 0 .1-.12.45.45 0 0 0 0-.18 1.27 1.27 0 0 0-.38-1 1.49 1.49 0 0 0-1-.36q-1.41 0-1.74 1.68Zm9.1 3.59a2.93 2.93 0 0 1-1 .94 2.55 2.55 0 0 1-1.24.28 3.4 3.4 0 0 1-1.36-.27 3 3 0 0 1-1.06-.74 3.27 3.27 0 0 1-.7-1.14 4 4 0 0 1-.26-1.44 3.9 3.9 0 0 1 .26-1.42 3.32 3.32 0 0 1 .7-1.13 3.07 3.07 0 0 1 1.07-.74 3.39 3.39 0 0 1 1.35-.27 2.75 2.75 0 0 1 1.11.21 3.14 3.14 0 0 1 1 .66v-2.56c0-.33 0-.56-.06-.68a.56.56 0 0 0-.36-.4 2.88 2.88 0 0 0-1-.12v-.39l2.66-.49v8.98a3.57 3.57 0 0 0 .08.82.88.88 0 0 0 .09.26.44.44 0 0 0 .17.16 1.07 1.07 0 0 0 .3.09 3.48 3.48 0 0 0 .49 0v.45l-2.16.14Zm-.26-2.88a5.24 5.24 0 0 0-.07-1 1.37 1.37 0 0 0-.28-.61 2 2 0 0 0-.76-.6 2.35 2.35 0 0 0-.92-.2 1.57 1.57 0 0 0-1.42.78 3.84 3.84 0 0 0-.49 2.1 5.25 5.25 0 0 0 .13 1.24 3 3 0 0 0 .36 1 1.75 1.75 0 0 0 .6.61 1.59 1.59 0 0 0 .82.22 2 2 0 0 0 .48-.06 2.18 2.18 0 0 0 .47-.16 2.26 2.26 0 0 0 .42-.26 1.29 1.29 0 0 0 .32-.34 2 2 0 0 0 .26-.69 6.33 6.33 0 0 0 .08-1.11Zm5.71 1.9a5.86 5.86 0 0 0 0 .81 1 1 0 0 0 .18.49.72.72 0 0 0 .36.24 2.61 2.61 0 0 0 .63.07v.46h-3.73v-.46a2.15 2.15 0 0 0 .63-.08.88.88 0 0 0 .39-.23.93.93 0 0 0 .18-.46 5.11 5.11 0 0 0 0-.75v-2.94a2.79 2.79 0 0 0-.07-.67.53.53 0 0 0-.3-.41 2.41 2.41 0 0 0-.88-.11v-.46l2.55-.49Zm-1.5-7.59a.82.82 0 0 1 .81-.81.78.78 0 0 1 .57.24.82.82 0 0 1 0 1.14.78.78 0 0 1-.57.24.82.82 0 0 1-.81-.81Zm9.54 8.58a3.1 3.1 0 0 1-1.2.89 4.08 4.08 0 0 1-1.6.32 3.27 3.27 0 0 1-1.27-.25 2.88 2.88 0 0 1-1-.72 3.37 3.37 0 0 1-.64-1.11 4.39 4.39 0 0 1-.23-1.44 4.23 4.23 0 0 1 .26-1.51 3.4 3.4 0 0 1 .74-1.14 3.06 3.06 0 0 1 1.14-.73 4.14 4.14 0 0 1 1.48-.25 5.25 5.25 0 0 1 .92.08 3 3 0 0 1 .72.24 1.51 1.51 0 0 1 .48.36.74.74 0 0 1 .16.46.51.51 0 0 1-.16.41.75.75 0 0 1-.47.14.67.67 0 0 1-.39-.1 1.54 1.54 0 0 1-.4-.43 2.08 2.08 0 0 0-.51-.43 1.35 1.35 0 0 0-.61-.12 1.57 1.57 0 0 0-1.4.72 3.75 3.75 0 0 0-.47 2.1 4.06 4.06 0 0 0 .52 2.27 1.74 1.74 0 0 0 1.54.77 2.53 2.53 0 0 0 1-.21 3.41 3.41 0 0 0 1-.7Zm4.93-3.33v-.53q0-1.59-1.35-1.59a2 2 0 0 0-.38 0 .71.71 0 0 0-.26.13.92.92 0 0 0-.19.26 3.13 3.13 0 0 0-.16.42 1.28 1.28 0 0 1-.28.5.57.57 0 0 1-.39.12.58.58 0 0 1-.66-.65 1.08 1.08 0 0 1 .67-1 4.15 4.15 0 0 1 1.88-.34 2.86 2.86 0 0 1 1.85.46 2 2 0 0 1 .54 1.57v2.91c0 1 .2 1.48.59 1.48a1.34 1.34 0 0 0 .35 0 .49.49 0 0 0 .29-.25l.18.32a1.29 1.29 0 0 1-.57.5 2 2 0 0 1-.87.2 1 1 0 0 1-.86-.36 1.73 1.73 0 0 1-.28-1h-.06a2.69 2.69 0 0 1-.94 1 2.53 2.53 0 0 1-1.32.37 1.86 1.86 0 0 1-1.29-.42 1.43 1.43 0 0 1-.47-1.12 1.73 1.73 0 0 1 .11-.6 1.82 1.82 0 0 1 .36-.54 3.29 3.29 0 0 1 .65-.52 8.93 8.93 0 0 1 1-.51Zm0 .56a11.92 11.92 0 0 0-1.25.56 3.85 3.85 0 0 0-.83.55 1.79 1.79 0 0 0-.45.54 1.24 1.24 0 0 0-.13.56.91.91 0 0 0 .28.7 1 1 0 0 0 .76.28 1.29 1.29 0 0 0 .63-.17 2 2 0 0 0 .51-.46 2.49 2.49 0 0 0 .35-.69 2.63 2.63 0 0 0 .13-.84Zm5.38 1.82a7.58 7.58 0 0 0 0 .79 1.08 1.08 0 0 0 .16.47.72.72 0 0 0 .36.24 2.35 2.35 0 0 0 .6.07v.46h-3.59v-.46a2.15 2.15 0 0 0 .63-.08.78.78 0 0 0 .37-.23.85.85 0 0 0 .18-.43 5 5 0 0 0 0-.74v-6.78a5.09 5.09 0 0 0 0-.64.54.54 0 0 0-.31-.4 2.39 2.39 0 0 0-.86-.11v-.44l2.45-.48Zm-53.18 17.96a5.61 5.61 0 0 0 .05.81 1 1 0 0 0 .17.49.76.76 0 0 0 .36.24 2.61 2.61 0 0 0 .63.07v.46h-3.73v-.46a2.27 2.27 0 0 0 .64-.08.84.84 0 0 0 .38-.23.93.93 0 0 0 .18-.46 4.91 4.91 0 0 0 0-.75v-2.94a3.22 3.22 0 0 0-.08-.67.54.54 0 0 0-.29-.41 2.47 2.47 0 0 0-.89-.11v-.46l2.55-.49ZM78 163a.75.75 0 0 1 .24-.57.78.78 0 0 1 .57-.24.81.81 0 0 1 0 1.62.78.78 0 0 1-.57-.24.75.75 0 0 1-.24-.57Zm5.74 7.64v.84a1 1 0 0 0 .14.46.53.53 0 0 0 .32.22 4.91 4.91 0 0 0 .6.08v.44h-3.39v-.44a5.09 5.09 0 0 0 .58-.08.58.58 0 0 0 .33-.21.85.85 0 0 0 .15-.44V169a11.23 11.23 0 0 0-.08-1.88.84.84 0 0 0-.09-.28.37.37 0 0 0-.18-.17.82.82 0 0 0-.3-.08h-.47v-.42l2.08-.49.16 1.29a3.5 3.5 0 0 1 1.16-.95 3.06 3.06 0 0 1 1.44-.34 2.94 2.94 0 0 1 1.09.19 1.75 1.75 0 0 1 .76.54 1.94 1.94 0 0 1 .31.77 7.41 7.41 0 0 1 .09 1.31v3.01a1.14 1.14 0 0 0 .14.46.53.53 0 0 0 .32.22 4.65 4.65 0 0 0 .56.08v.44h-3.25v-.44a3.67 3.67 0 0 0 .58-.07.53.53 0 0 0 .32-.22 1 1 0 0 0 .14-.45 7.31 7.31 0 0 0 0-.77V169a8.48 8.48 0 0 0-.08-1.24A2.26 2.26 0 0 0 87 167a1 1 0 0 0-.46-.45 1.6 1.6 0 0 0-.69-.14 1.94 1.94 0 0 0-1.07.31 2.1 2.1 0 0 0-.76.83c0 .09-.08.17-.11.25a1.63 1.63 0 0 0-.07.28 3.09 3.09 0 0 0 0 .35v.52Zm6.67-4.03v-.48a5 5 0 0 0 1.07-.81 2.65 2.65 0 0 0 .6-1h.38V166h1.74v.61h-1.74v3.95a5.69 5.69 0 0 0 0 .77 1.75 1.75 0 0 0 .15.5.63.63 0 0 0 .28.26.89.89 0 0 0 .43.08 1.07 1.07 0 0 0 .55-.13 1.7 1.7 0 0 0 .45-.47l.32.25a1.39 1.39 0 0 1-.63.74 2.33 2.33 0 0 1-1.11.25 1.9 1.9 0 0 1-1.31-.41 1.51 1.51 0 0 1-.44-1.18v-4.61Zm11.18 4.86a3.45 3.45 0 0 1-2.75 1.34 3.86 3.86 0 0 1-1.39-.25 3.16 3.16 0 0 1-1.07-.72 3.39 3.39 0 0 1-.7-1.1 4.09 4.09 0 0 1-.24-1.43 3.92 3.92 0 0 1 .26-1.47 3.33 3.33 0 0 1 .73-1.15 3.51 3.51 0 0 1 1.13-.76 3.77 3.77 0 0 1 1.44-.27 2.67 2.67 0 0 1 2 .68 2.65 2.65 0 0 1 .69 2 .27.27 0 0 1-.07.22 1 1 0 0 1-.34 0H97a1.45 1.45 0 0 0 0 .25v.33a4.31 4.31 0 0 0 .16 1.23 2.68 2.68 0 0 0 .47.94 2.1 2.1 0 0 0 .72.61 2.14 2.14 0 0 0 .95.21 2.18 2.18 0 0 0 1-.24 3.58 3.58 0 0 0 1-.78ZM99.44 168h.42a.89.89 0 0 0 .23 0 .19.19 0 0 0 .1-.12.45.45 0 0 0 0-.18 1.27 1.27 0 0 0-.38-1 1.49 1.49 0 0 0-1-.36q-1.41 0-1.74 1.68Zm5.69 2.61v.85a1 1 0 0 0 .14.47.53.53 0 0 0 .32.22 3.26 3.26 0 0 0 .58.07v.46h-3.46v-.46a2.35 2.35 0 0 0 .6-.07.62.62 0 0 0 .34-.21.92.92 0 0 0 .15-.45v-3.69a1.74 1.74 0 0 0-.13-.72.46.46 0 0 0-.34-.28 3.65 3.65 0 0 0-.65-.05v-.45l2.27-.5.18 1.61h.06a3.16 3.16 0 0 1 .42-.71 2.83 2.83 0 0 1 1.18-.91 1.65 1.65 0 0 1 .66-.13 1 1 0 0 1 .65.2.67.67 0 0 1 .24.54.63.63 0 0 1-.19.49.85.85 0 0 1-.56.17.92.92 0 0 1-.35-.05 1.17 1.17 0 0 1-.25-.11l-.21-.11a.54.54 0 0 0-.22 0 1 1 0 0 0-.7.45 3.39 3.39 0 0 0-.54 1.13 6.23 6.23 0 0 0-.17.86 7.74 7.74 0 0 0-.06 1Zm4.67-3.21a6.65 6.65 0 0 0-.28-.62 1.21 1.21 0 0 0-.26-.34.72.72 0 0 0-.32-.15h-.42v-.45H112v.45h-.43a.9.9 0 0 0-.27.06.24.24 0 0 0-.13.13.55.55 0 0 0 0 .24 1.42 1.42 0 0 0 .06.42l.12.38 1.38 3.78 1.18-2.8a7.67 7.67 0 0 0 .39-1 2.38 2.38 0 0 0 .12-.69.45.45 0 0 0-.15-.4 1.41 1.41 0 0 0-.68-.11v-.45h2.59v.45a.7.7 0 0 0-.38.11 1.22 1.22 0 0 0-.3.26 1.84 1.84 0 0 0-.21.38c-.08.16-.15.33-.22.5s-.15.35-.21.52a2.66 2.66 0 0 1-.17.4l-1.91 4.41H112Zm9.54 3.21a5.61 5.61 0 0 0 0 .81 1.17 1.17 0 0 0 .17.49.75.75 0 0 0 .37.24 2.46 2.46 0 0 0 .62.07v.46h-3.73v-.46a2.27 2.27 0 0 0 .64-.08.84.84 0 0 0 .38-.23.93.93 0 0 0 .18-.46 4.91 4.91 0 0 0 0-.75v-2.94a3.44 3.44 0 0 0-.07-.67.53.53 0 0 0-.3-.41 2.45 2.45 0 0 0-.88-.11v-.46l2.54-.49Zm-1.49-7.61a.78.78 0 0 1 .23-.57.81.81 0 0 1 1.15 0 .81.81 0 0 1-.57 1.38.78.78 0 0 1-.58-.24.78.78 0 0 1-.23-.57Zm9.75 8.47a3.43 3.43 0 0 1-2.74 1.34 3.88 3.88 0 0 1-1.4-.25 3.16 3.16 0 0 1-1.07-.72 3.21 3.21 0 0 1-.69-1.1 3.87 3.87 0 0 1-.25-1.43 4.13 4.13 0 0 1 .26-1.47 3.33 3.33 0 0 1 .73-1.15 3.45 3.45 0 0 1 1.14-.76 3.68 3.68 0 0 1 1.43-.27 2.67 2.67 0 0 1 1.95.68 2.65 2.65 0 0 1 .69 2c0 .12 0 .19-.07.22a1 1 0 0 1-.33 0H123a1.45 1.45 0 0 0 0 .25v.33a4.31 4.31 0 0 0 .16 1.23 2.86 2.86 0 0 0 .47.94 2.13 2.13 0 0 0 .73.61 2.06 2.06 0 0 0 .94.21 2.18 2.18 0 0 0 1-.24 3.46 3.46 0 0 0 1-.78Zm-2.15-3.47h.42a.89.89 0 0 0 .23 0 .21.21 0 0 0 .11-.12.82.82 0 0 0 0-.18 1.24 1.24 0 0 0-.38-1 1.47 1.47 0 0 0-1-.36q-1.39 0-1.74 1.68Zm6.26 4.81h-.48l-1.69-5.41a4.65 4.65 0 0 0-.23-.58 1.08 1.08 0 0 0-.24-.36.84.84 0 0 0-.34-.17 2.14 2.14 0 0 0-.48 0v-.45h3.44v.45a1.53 1.53 0 0 0-.71.12.42.42 0 0 0-.21.4 1.25 1.25 0 0 0 0 .31l.1.43.89 3.11 1.91-4.82h.4l1.73 4.82h.05l.78-2.1c.11-.29.2-.53.26-.73s.13-.36.17-.49.06-.24.08-.33a1.13 1.13 0 0 0 0-.25.41.41 0 0 0-.17-.38 1.75 1.75 0 0 0-.7-.09v-.45H139v.45a.81.81 0 0 0-.33.06.73.73 0 0 0-.28.23 2.44 2.44 0 0 0-.28.48c-.09.21-.21.48-.35.82l-2 5h-.48l-1.59-4.8Z"/><path class="cls-3" d="m124.17 93.57-1.28-6.31a6.3 6.3 0 0 0-2.15-3.56 5.15 5.15 0 0 0-2.09-1.09l-5.4-1.54a1.66 1.66 0 0 1-.33-.15 1.18 1.18 0 0 1-.51-.84l-.26-2.08c1.51-1.18 3.34-10 3.34-10s.41-8.94-7.62-8.91-7.6 9-7.6 9 2 8.76 3.46 9.93l-.24 2.13a1.15 1.15 0 0 1-.5.84 1.26 1.26 0 0 1-.33.16l-5.37 1.58a4.94 4.94 0 0 0-2.1 1.11 6.17 6.17 0 0 0-2.12 3.57l-1.24 6.32"/><path style="stroke-linejoin:round;stroke:#74c7d1;stroke-linecap:round;stroke-width:1.5px;fill:#fff" d="m103.03 80.95 9.94-.03"/><path class="cls-3" d="m104.53 45.88 3.45 3.56m3.43-3.58-3.43 3.58M103 40.38s-.63 5.95-2.21 7.27-1.45 1.44-1.45 1.44h7.76l-.61-9.49Zm9.69 0s.62 5.95 2.2 7.27 1.45 1.44 1.45 1.44h-7.76l.61-9.49Z"/><path class="cls-3" d="m119.21 54.63-.89-4.38a4.28 4.28 0 0 0-1.49-2.46 3.51 3.51 0 0 0-1.45-.76L111.64 46a.94.94 0 0 1-.23-.1.85.85 0 0 1-.36-.58l-.17-1.48a6.45 6.45 0 0 0 2.18-3.46c.66-.06 1.17-.8 1.17-1.74a1.66 1.66 0 0 0-1-1.71s.29-6.2-5.28-6.17-5.26 6.22-5.26 6.22a1.68 1.68 0 0 0-1 1.71c0 .93.52 1.67 1.19 1.73a6.33 6.33 0 0 0 2.2 3.44l-.16 1.48a.85.85 0 0 1-.35.58 1 1 0 0 1-.23.11l-3.72 1.09a3.52 3.52 0 0 0-1.46.77 4.36 4.36 0 0 0-1.47 2.48l-.86 4.38"/><path class="cls-3" d="M106.25 34a4.58 4.58 0 0 1-1.35 2.15 4 4 0 0 1-1.82.92m3.17-3.26a7.31 7.31 0 0 0 3.14 2.67 6.23 6.23 0 0 0 3.25.52M108 84.92c6.06 0 11.41-5.53 11.41-5.53-2.42-3-3.17-7.08-3.18-11.74S113 59.07 108 59.07"/><path class="cls-3" d="M108 84.92c-6.06 0-11.41-5.53-11.41-5.53 2.42-3 3.17-7.08 3.18-11.74s3.23-8.58 8.23-8.58"/><path d="M88 118.29v10.33c0 .13 0 .17-.07.2a1.68 1.68 0 0 1-.8.15c-.25 0-.32-.06-.34-.24v-16.22c.58.36.74.47 1.3.79h3.6c.31-.34.39-.47.68-.79.45.34.6.45 1 .83.13.11.18.18.18.23s-.13.22-.56.4v4.99c0 .21-.22.27-.94.27-.14 0-.18 0-.19-.18v-.76Zm3.91-4.57H88v1.74h3.91Zm0 2.16H88v2h3.91Zm0 10.53c0 .14 0 .18-.18.22s-.57.07-.77.07-.25-.06-.27-.22v-6.34c.63.4.83.51 1.4.92h4.29l.68-.77c.4.32.52.43.9.77.13.11.18.18.18.24s-.14.25-.56.46c0 2.85 0 2.85.06 4.27 0 .11 0 .15-.16.18a4.37 4.37 0 0 1-.83.09c-.2 0-.27 0-.27-.23v-.89h-4.5Zm0-1.64h4.47v-3.29h-4.5Zm4.47-6.48v.65c0 .2-.18.25-.85.25-.2 0-.27 0-.27-.2v-6.48l1.12.79h3.91c.28-.29.55-.56.81-.79l1 .83c.13.11.18.18.18.23s-.09.2-.57.51v13.07a1.2 1.2 0 0 1-.46 1.11 5.28 5.28 0 0 1-1.64.58c-.07-.54-.18-.74-.53-.92a7.43 7.43 0 0 0-2.16-.52v-.29c1.52.14 2 .16 3.25.2.23 0 .27 0 .27-.27v-8.77Zm4.09-4.57h-4.12v1.74h4.09Zm0 2.16h-4.12v2h4.09Zm13.08.12a5.81 5.81 0 0 0 1.43.16h2.77a13 13 0 0 1 .86-1.13c.74.59.74.59 1.55 1.26a.24.24 0 0 1 .09.16c0 .07-.09.12-.23.12h-5a6.77 6.77 0 0 0-1.3.11Zm.56-2.36a7.43 7.43 0 0 0 1.33.14h1.91q.44-.48.87-1c.63.5.81.66 1.42 1.19a.37.37 0 0 1 .07.14c0 .07-.07.11-.2.11h-3.94a11 11 0 0 0-1.32.09Zm.06 7.2a5.84 5.84 0 0 0 1.4.15h1.69c.33-.36.63-.69.92-1 .56.49.72.63 1.22 1.13a.45.45 0 0 1 .13.2c0 .07-.07.11-.2.11h-3.76a12.14 12.14 0 0 0-1.28.07Zm.1-2.41a7.31 7.31 0 0 0 1.3.14h1.62l.94-1a10.44 10.44 0 0 1 1.37 1.19.21.21 0 0 1 .07.14s-.07.11-.17.11h-3.83a7.72 7.72 0 0 0-1.17.09Zm1.17 10.06c0 .24-.19.31-.79.31-.25 0-.36-.07-.36-.23v-6.11a12.7 12.7 0 0 1 1.33.94h2.13l.68-.78c.43.33.56.44 1 .78.13.11.18.16.18.23s-.07.16-.52.47v4.09c0 .14 0 .2-.12.23a2.15 2.15 0 0 1-.71.09c-.21 0-.32-.07-.32-.21v-.71h-2.47Zm0-1.31h2.47v-3.37h-2.47Zm3.62-7.54a14.17 14.17 0 0 0 3.08-3.61 12.08 12.08 0 0 0 1.55-3.4l1 .22c.74.18.94.27.94.41s-.11.2-.54.27a8.92 8.92 0 0 0 5.49 4.63l-.07.25a1.47 1.47 0 0 0-1.23 1.12 10.07 10.07 0 0 1-2.75-2.58 14.46 14.46 0 0 1-1.75-3.17 14.93 14.93 0 0 1-5.51 6Zm.24 8.53a17 17 0 0 0 5.43-2.7 14.89 14.89 0 0 0 3.5-3.33c1.26.59 1.65.83 1.65 1s-.16.23-.23.22h-.13a3.17 3.17 0 0 1-.43 0 18.58 18.58 0 0 1-5.44 3.84 23.85 23.85 0 0 1-4.25 1.35Zm.83-6.39a17.09 17.09 0 0 0 3.34-2.7 9.87 9.87 0 0 0 1.39-1.64c.31.16.56.29.7.38.67.32.81.43.81.56s-.2.19-.59.19h-.18a20 20 0 0 1-5.31 3.48Zm0 2.93a22 22 0 0 0 4.62-3 9.57 9.57 0 0 0 1.77-1.93c1 .45 1.56.79 1.56.94s-.14.19-.37.19h-.44a17.75 17.75 0 0 1-7 4.07Z" style="fill:#433f3f"/></svg>