<svg xmlns="http://www.w3.org/2000/svg" viewBox="0 0 86 126"><path d="M29.16 6a1 1 0 0 1-1 1 1 1 0 0 1-1-1V2a1 1 0 1 1 2 0Zm.05 10a1 1 0 0 1-2 0v-4a1 1 0 1 1 2 0Zm1.97-6.06a1 1 0 0 1-1-1 1 1 0 0 1 1-1h4a1 1 0 0 1 0 2Zm-10 .06a1 1 0 0 1 0-2h4a1 1 0 1 1 0 2Zm51.95 24a1 1 0 0 1-1 1 1 1 0 0 1-1-1v-4a1 1 0 0 1 1-1 1 1 0 0 1 1 1Zm.05 10a1 1 0 0 1-1 1 1 1 0 0 1-1-1v-4a1 1 0 0 1 1-1 1 1 0 0 1 1 1Zm1.97-6.06a1 1 0 0 1 0-2h4a1 1 0 1 1 0 2Zm-10 .06a1 1 0 0 1 0-2h4a1 1 0 1 1 0 2ZM44.33 65.21a1 1 0 0 1-1 1 1 1 0 0 1-1-1v-4a1 1 0 0 1 1-1 1 1 0 0 1 1 1Zm.05 10a1 1 0 0 1-1 1 1 1 0 0 1-1-1v-4a1 1 0 1 1 2 0Zm1.97-6.01a1 1 0 0 1-1-1 1 1 0 0 1 1-1h4a1 1 0 0 1 1 1 1 1 0 0 1-1 1Zm-10 .05a1 1 0 0 1-1-1 1 1 0 0 1 1-1h4a1 1 0 0 1 1 1 1 1 0 0 1-1 1ZM78.13 109a1 1 0 0 1-1 1 1 1 0 0 1-1-1v-4a1 1 0 0 1 1-1 1 1 0 0 1 1 1Zm.05 10a1 1 0 0 1-1 1 1 1 0 0 1-1-1v-4a1 1 0 0 1 1-1 1 1 0 0 1 1 1Zm1.97-6a1 1 0 0 1 0-2h4a1 1 0 1 1 0 2Zm-10 .08a1 1 0 0 1 0-2h4a1 1 0 1 1 0 2ZM9.84 34.07a1 1 0 0 1-1 1 1 1 0 0 1-1-1v-4a1 1 0 0 1 1-1 1 1 0 0 1 1 1Zm.05 10a1 1 0 0 1-1 1 1 1 0 0 1-1-1v-4a1 1 0 0 1 1-1 1 1 0 0 1 1 1Zm1.97-6.01a1 1 0 1 1 0-2h4a1 1 0 0 1 0 2Zm-10 .05a1 1 0 1 1 0-2h4a1 1 0 0 1 0 2ZM44.41 114a1 1 0 0 1-1 1 1 1 0 0 1-1-1v-4a1 1 0 0 1 1-1 1 1 0 0 1 1 1Zm.05 10a1 1 0 0 1-1 1 1 1 0 0 1-1-1v-4a1 1 0 0 1 1-1 1 1 0 0 1 1 1Zm1.97-6a1 1 0 1 1 0-2h4a1 1 0 0 1 0 2Zm-10 .08a1 1 0 1 1 0-2h4a1 1 0 0 1 0 2Z" style="fill:#74c7d1"/></svg>