<svg xmlns="http://www.w3.org/2000/svg" viewBox="0 0 60 84" style="enable-background:new 0 0 60 84" xml:space="preserve"><path d="M50.3 78.2c0-.6.4-1 1-1s1 .4 1 1v4c0 .6-.4 1-1 1s-1-.4-1-1v-4zm0-10c0-.6.4-1 1-1s1 .4 1 1v4c0 .6-.4 1-1 1s-1-.4-1-1v-4zm-2 6c.6 0 1 .4 1 1s-.4 1-1 1h-4c-.6 0-1-.4-1-1s.4-1 1-1h4zm10-.1c.6 0 1 .4 1 1s-.4 1-1 1h-4c-.6 0-1-.4-1-1s.4-1 1-1h4zm-9-62.2c0-.6.4-1 1-1s1 .4 1 1v4c0 .6-.4 1-1 1s-1-.4-1-1v-4zm0-10c0-.6.4-1 1-1s1 .4 1 1v4c0 .6-.4 1-1 1s-1-.4-1-1v-4zm-2 6c.6 0 1 .4 1 1s-.4 1-1 1h-4c-.6 0-1-.4-1-1s.4-1 1-1h4zm10-.1c.6 0 1 .4 1 1s-.4 1-1 1h-4c-.6 0-1-.4-1-1s.4-1 1-1h4zM7.7 73.7c0-.6.4-1 1-1s1 .4 1 1v4c0 .6-.4 1-1 1s-1-.4-1-1v-4zm0-10c0-.6.4-1 1-1s1 .4 1 1v4c0 .6-.4 1-1 1s-1-.4-1-1v-4zm-2 6c.6 0 1 .4 1 1s-.4 1-1 1h-4c-.6 0-1-.4-1-1s.4-1 1-1h4zm10-.1c.6 0 1 .4 1 1s-.4 1-1 1h-4c-.6 0-1-.4-1-1s.4-1 1-1h4zm11.1-41.7c0-.6.4-1 1-1s1 .4 1 1v4c0 .6-.4 1-1 1s-1-.4-1-1v-4zm-.1-10c0-.6.4-1 1-1s1 .4 1 1v4c0 .6-.4 1-1 1s-1-.4-1-1v-4zm-2 6c.6 0 1 .4 1 1s-.4 1-1 1h-4c-.6 0-1-.4-1-1s.4-1 1-1h4zm10-.1c.6 0 1 .4 1 1s-.4 1-1 1h-4c-.6 0-1-.4-1-1s.4-1 1-1h4z" style="fill:#b35d9b"/></svg>