<svg id="bg" xmlns="http://www.w3.org/2000/svg" viewBox="0 0 148 138"><defs><style>.cls-1{fill:#a6c2e1}.cls-2{fill:#908cc1}.cls-3{fill:#b35d9b}.cls-4{fill:#eadb88}.cls-5{fill:#e2915a}.cls-6{fill:#da6669}.cls-8{fill:#7d7d7d}</style></defs><path class="cls-1" d="M56.18 18.09v-.16a7.62 7.62 0 0 1 1.43-2.22 4.35 4.35 0 0 0-2.53 1.6.83.83 0 0 0-.08.12c-.17.34-4.13 8.43-.91 16.43A21.18 21.18 0 0 0 69.9 46.49h.21a4 4 0 0 0 2.22-.26c.91-.51.66-.64.45-.67h-.16c-8-.77-14.55-5.41-17.28-12.22-2.63-6.54 0-13.36.69-15a2.64 2.64 0 0 0 .15-.25Z"/><path class="cls-2" d="M51.69 20.87c.24-.82.47-1.46.47-1.46a3 3 0 0 0-1.72 1.46 3.27 3.27 0 0 0-.25.48c-.16.47-3.82 11.72 3.07 21.55 6.19 8.85 16.51 10 18.91 10.2h.48a.55.55 0 0 0 .26-.06A3.59 3.59 0 0 0 75 51.76a15.26 15.26 0 0 1-3.33 0c-3-.32-12-1.9-17.36-9.59-5.68-8.12-3.67-17.54-3.05-19.86.12-.51.43-1.44.43-1.44Z"/><path class="cls-3" d="M64.55 58.11a26.62 26.62 0 0 1-13.71-8.79c-8.35-9.86-3.25-23.15-3.2-23.28v-.1a8.41 8.41 0 0 1 .68-1.52 11.17 11.17 0 0 0-2.15 2.81 5.89 5.89 0 0 0-.73 1.8c-1 4.84-1.77 13.83 4.4 21.11 8 9.41 17.49 10 19.57 10h.4a29.56 29.56 0 0 0 3.32-.21l-1.94-1.21c-.55-.38-2.19.5-6.64-.61Z"/><path class="cls-4" d="M85.17 46.35a.66.66 0 0 0-.87.35 17.69 17.69 0 0 1-3.25 4.3 41.38 41.38 0 0 1-6.14 4.44 1.52 1.52 0 1 0 1.27 2.76c1.36-.72 6.17-6.67 6.17-6.67a17.54 17.54 0 0 0 3.13-4.34.66.66 0 0 0-.31-.84Z"/><path class="cls-5" d="M88.28 49.91a.66.66 0 0 0-.92.18 50.35 50.35 0 0 1-3.82 4.73q-.27.27-.6.66l-1.23 1.3A23.08 23.08 0 0 1 77 60.3a1.52 1.52 0 0 0 .73 2.86 1.51 1.51 0 0 0 1.11-.49 64.53 64.53 0 0 0 5.19-6.44 53.33 53.33 0 0 0 4.4-5.39.66.66 0 0 0-.15-.93Z"/><path class="cls-6" d="M90.2 54.44a.65.65 0 0 0-.92.18s-.9 1.32-2.32 3a34.68 34.68 0 0 1-5.13 3.92 1.52 1.52 0 0 0 .83 2.8H83l.19-.06h.12l.15-.08h.06c1.6-1.11 5.13-6.44 5.13-6.44 1-1.29 1.64-2.2 1.7-2.29a.67.67 0 0 0-.15-1.03Z"/><path class="cls-3" d="M98.77 40.76v-.26a21.06 21.06 0 0 0-.81-3.62 5.89 5.89 0 0 0-.96-2.19 1.59 1.59 0 0 0-2.83 1 1.6 1.6 0 0 0 .6 1.25 11.06 11.06 0 0 1 .8.81l.08.09A7.82 7.82 0 0 1 96.94 40a19.56 19.56 0 0 1 1.15 7.55 14 14 0 0 0 .68-6.79Z"/><path class="cls-2" d="M95.76 47.73c0-3.86-2.34-8.15-2.34-8.15-.11-.24-.22-.46-.33-.68a1.62 1.62 0 0 0-1.48-1 1.58 1.58 0 0 0-1.16 2.68l.34.32a16.68 16.68 0 0 1 2.1 2.9c.08.15.27.51.5 1 .11.24.22.49.32.75l.12.29v.1a24.86 24.86 0 0 1 .71 2.48 19.54 19.54 0 0 1 .46 2.5l.12 1.58c.81-1.63.64-4.77.64-4.77Z"/><path class="cls-1" d="M92.58 49.8a17.93 17.93 0 0 0-3.61-6 1.57 1.57 0 0 0-1.14-.48 1.59 1.59 0 0 0-.71 3 9.76 9.76 0 0 1 1.5.86A8.58 8.58 0 0 1 91 50a9.8 9.8 0 0 1 .77 3.1 7.88 7.88 0 0 1-.53 3.12A2.45 2.45 0 0 0 92.27 55a4.18 4.18 0 0 0 .33-1 8.69 8.69 0 0 0-.02-4.2Z"/><path class="cls-6" d="M103.05 25.81v-.06c-.08-.82-.2-1.66-.36-2.51a26.8 26.8 0 0 0-2.89-7.91A30.88 30.88 0 0 0 86.37 3.26L86 3.1c-.82-.38-1.53-.67-2.1-.88A32.45 32.45 0 0 0 77.5 1h-.37c-9.28-.83-13.6 2.17-13.6 2.17a32.51 32.51 0 0 1 6.73-1.31A42.11 42.11 0 0 1 82.39 3.1a29.9 29.9 0 0 1 15.45 11.63 26 26 0 0 1 1.62 3.12c.64 1.56 1.26 3.75 1.34 4a36.23 36.23 0 0 1-.19 16.21c0 .23-.1.46-.16.69a10 10 0 0 1 .11 3.65 8 8 0 0 0 .49-.94.55.55 0 0 1 0-.1c0-.12.11-.25.16-.39.06-.14.11-.29.17-.45a20.13 20.13 0 0 0 .85-3 35.6 35.6 0 0 0 .82-11.71Z"/><path class="cls-4" d="M92.38 18.27A20.5 20.5 0 0 0 76 5.69a31.27 31.27 0 0 0-25 7.88 10.36 10.36 0 0 0-1.5 1.53c-.1.11-.15.18-.16.18a.25.25 0 0 0 0 .07 22.94 22.94 0 0 0-3 5.31 24.62 24.62 0 0 1 3.38-4.12l.14-.15a44.16 44.16 0 0 1 3.92-3.46l.07-.05a28.69 28.69 0 0 1 2.91-2A30.52 30.52 0 0 1 75.85 7a19.15 19.15 0 0 1 15.31 11.79c0 .06 2.55 6.24-.44 15.11a27.05 27.05 0 0 1-1 2.69c0 .11-.09.21-.13.31 1.19-.64 1.7-.48 1.7-.48l.59-1.72c.13-.38.24-.71.3-.9 2.82-9.07.32-15.26.2-15.53Z"/><path class="cls-5" d="M98 21a17.54 17.54 0 0 0-.84-2.71A24.47 24.47 0 0 0 80.17 3.91 35.72 35.72 0 0 0 61.52 5l-.29.1h-.09A24.27 24.27 0 0 0 54 9.16a15.88 15.88 0 0 0-2.6 2.58 35 35 0 0 1 14-6.53 26 26 0 0 1 6-.79 36.61 36.61 0 0 1 8.4.76h.2a11.16 11.16 0 0 1 1.15.28 23.26 23.26 0 0 1 14.32 12.41 21.67 21.67 0 0 1 1.49 5 35 35 0 0 1 .38 8.7 4.78 4.78 0 0 1-.21 1s1.12.63 1.27 1.31c0 0 .1-.51.17-1.19V32A36 36 0 0 0 98 21Z"/><path d="M88.14 17.62c-2-5.11-6.2-8.21-12.56-9.22-10.52-1.68-18.39 2.89-23.14 7a39 39 0 0 0-4.93 5.15 9.28 9.28 0 0 0-.76 1 18.49 18.49 0 0 0-1.59 4.25 22.93 22.93 0 0 0-.39 2.75 12.72 12.72 0 0 1 2-4.72c3-4.51 12.83-16.63 28.59-14.12 5.86.93 9.74 3.75 11.53 8.39 3 7.84-.75 18.92-3.55 22.42l-.62.77A22 22 0 0 1 77 45.91a1.52 1.52 0 0 0 .73 2.86h.21a.65.65 0 0 0 .29-.08 1.45 1.45 0 0 0 .59-.37 11 11 0 0 0 .91-.83 32.35 32.35 0 0 0 9-16.6c.87-4.32 1-9.16-.59-13.27Z" style="fill:#8bb89e"/><path class="cls-8" d="m24.69 91.56-.07 10.85a.57.57 0 0 0 .63.54.59.59 0 0 0 .64-.54s-.07-7.54-.07-11.09v-2.49h3a.57.57 0 1 0 0-1.13h-3c0-2.37.05-4.65.05-4.65a.59.59 0 0 0-.64-.58.57.57 0 0 0-.63.58l.05 4.65h-3.64a.57.57 0 1 0 0 1.13h3.66v.52a23.85 23.85 0 0 1-2.42 4.25 6.3 6.3 0 0 1-2.38 2 1 1 0 0 0 .36 1.91 1.1 1.1 0 0 0 .44-.11 1.06 1.06 0 0 0 .23-.16 29 29 0 0 0 3.79-5.68Z"/><path class="cls-8" d="M26.52 91.44A.57.57 0 0 0 26 92a.36.36 0 0 0 .19.33 13.53 13.53 0 0 1 2.37 2.07.54.54 0 0 0 .42.21.66.66 0 0 0 .61-.66c-.04-.82-2.81-2.51-3.07-2.51Zm22.85 5.87a.51.51 0 0 0 .54-.54v-8.25c0-.77.33-1.15 1.06-1.17h.75v15a.54.54 0 0 0 .59.56.53.53 0 0 0 .56-.56v-15h.82c.77 0 1 .42 1.06 1.17v6.37c0 .66-.21.87-.63.87a3.32 3.32 0 0 1-.73-.12h-.07c-.24 0-.35.26-.35.54 0 .49.28.73 1.29.73s1.57-.64 1.57-1.81v-6.75a1.74 1.74 0 0 0-1.88-2h-1V83.1a.56.56 0 0 0-.59-.56.54.54 0 0 0-.58.56v3.31h-.89a1.76 1.76 0 0 0-2 1.93v8.41a.54.54 0 0 0 .48.56Zm5.48 4.86a.59.59 0 0 0 .61.61 7.38 7.38 0 0 0 5.73-5.49v-.14a.56.56 0 0 0-.61-.52.5.5 0 0 0-.54.37 5.9 5.9 0 0 1-4.79 4.61.55.55 0 0 0-.4.56Zm3.21-10.31a.61.61 0 0 0-.63.52.36.36 0 0 0 .12.28 7.05 7.05 0 0 1 1.5 2 .46.46 0 0 0 .42.3.66.66 0 0 0 .61-.68 4.54 4.54 0 0 0-2.02-2.42Zm1.55-1.24h5.27c1.4-.08 2.06-.76 2.11-1.81 0-.59.05-1.27.05-2s0-1.39-.07-2a1.92 1.92 0 0 0-2.07-1.66h-5.37c-1.41 0-2.12.84-2.14 1.81v3.8c.04 1.08.67 1.78 2.22 1.86Zm.17-6.39h2.68c3.4 0 3.4 0 3.4 2.18h-7.33c0-1.55.19-2.16 1.25-2.18Zm6.11 3.07c0 1.67 0 2.31-1.2 2.33s-1.91.07-2.82.07c-2.56 0-3.24 0-3.29-1.06V87.3Z"/><path class="cls-8" d="M68.21 96.07a.47.47 0 0 0 .49-.5.52.52 0 0 0-.51-.54h-3.31a12.33 12.33 0 0 0 1.73-2.7.72.72 0 0 0-.68-.63.45.45 0 0 0-.44.3 28.66 28.66 0 0 1-1.76 3h-1v-3.54a.57.57 0 0 0-.59-.57.56.56 0 0 0-.59.57V95h-4.82a.52.52 0 0 0 0 1h6c0 .68-.07 2.63-.07 4.44 0 1.65.89 2 2.56 2 2.7 0 3.31-.91 3.31-3.35V99a.42.42 0 0 0 0-.12 1 1 0 0 0-2 .16 1 1 0 0 0 .23.61 1.35 1.35 0 0 1 .31.6.91.91 0 0 1-.23.92 3.12 3.12 0 0 1-1.82.33c-1.17 0-1.24-.38-1.24-1.71 0-1.06 0-2.45.09-3.71Zm28.02 4.79a15.22 15.22 0 0 1-9-10.83h8.17a.59.59 0 0 0 .62-.62.57.57 0 0 0-.62-.58h-8.33c.05-.4.21-3.11.21-5.2a.56.56 0 0 0-.07-.3 1 1 0 0 0-.92-.65 1 1 0 0 0-1 1 1.55 1.55 0 0 0 0 .21 25.53 25.53 0 0 1 .38 5h-8.3a.58.58 0 0 0-.61.58.6.6 0 0 0 .61.62h8.24a13.93 13.93 0 0 1-5.79 9.54 4.8 4.8 0 0 1-2.91 1 1 1 0 0 0 0 2h.12c.43 0 7.45-2.7 9.52-10.92 1.73 6.64 8.1 10.66 9.3 10.66a.8.8 0 0 0 .77-.82.6.6 0 0 0-.39-.69Zm28 .14h-.07c-1.86.14-4.4.4-6.79.4-4.28 0-6.32-.77-7.92-2.79v-4.65c0-1.91-1.43-1.93-2.8-1.93h-1.36a.6.6 0 0 0-.24.05 1 1 0 1 0 .68 1.83s1.51-1 2.21-.5a.92.92 0 0 1 .29.77v4.35a12.29 12.29 0 0 1-3.45 2.72.62.62 0 0 0-.35.54.71.71 0 0 0 .68.68 10.52 10.52 0 0 0 3.73-3c1.72 1.91 3.17 3.08 9.33 3.08 2.23 0 4.48-.14 6-.3a.7.7 0 0 0 .7-.66.62.62 0 0 0-.64-.59Z"/><path class="cls-8" d="M112.6 84.51c2.09-.07 5.73-.1 7.45-.12.33 0 .52.07.52.21 0 .4-2.47 1.69-2.92 1.9a7.13 7.13 0 0 0-2.06-1 .55.55 0 0 0-.52.51.35.35 0 0 0 .21.31 7.54 7.54 0 0 1 2.16 1.29h-3c-1.48 0-2.25.82-2.28 2v9.51a.58.58 0 0 0 .59.54.54.54 0 0 0 .56-.54V95.2h3.76v4a.53.53 0 0 0 .56.52.54.54 0 0 0 .57-.52v-4h3.85v1.97c0 .92-.47 1.18-1 1.18a3.87 3.87 0 0 1-.87-.12h-.12c-.26 0-.44.28-.44.56 0 .61.82.68 1.43.68a2.09 2.09 0 0 0 2.28-2.23c0-.33-.07-2.8-.07-2.84a9.26 9.26 0 0 1 0-1v-3.76a2 2 0 0 0-2.19-2h-2.61a.33.33 0 0 0 0-.16.55.55 0 0 0-.07-.28 22.36 22.36 0 0 0 3-1.77 1.3 1.3 0 0 0 .63-1c0-.54-.59-1-1.62-1h-7.8a.51.51 0 0 0-.47.55.45.45 0 0 0 .47.53Zm4.51 9.79h-3.76v-2.46h3.76Zm0-3.38h-3.78v-1.13a1.18 1.18 0 0 1 1.27-1.24h2.49Zm1.11 3.38v-2.46h3.82v2.46Zm2.51-5.75c1.31 0 1.31 1 1.31 2.37h-3.82v-2.39c.84 0 1.68 0 2.53.02ZM9.26 119.42a.67.67 0 0 0-.06-.3 1 1 0 0 0-.93-.69 1 1 0 0 0-1 1 1 1 0 0 0 .08.4 7 7 0 0 1 .52 2.58c0 1.34.07 2.7.07 3.75 0 3.71-1 7.14-5.5 9.61a.72.72 0 0 0-.42.65.63.63 0 0 0 .65.64 1.15 1.15 0 0 0 .57-.17c4.88-2.79 6.08-6.78 6.08-10.78 0-1.66-.07-3.76-.07-5.61Zm-6.58 8.81v-3.17c0-1.88 0-3.93-.1-5.24a.65.65 0 0 0-.68-.64.63.63 0 0 0-.68.64c.07 1.39.12 3.32.12 5.15 0 1.2 0 2.35-.07 3.29A.64.64 0 0 0 2 129a.73.73 0 0 0 .68-.77Zm29.62-5.57h-3.59v-3.22a.6.6 0 0 0-.07-.27 1 1 0 0 0-.91-.63 1 1 0 0 0-1 1 .92.92 0 0 0 .07.38 5.66 5.66 0 0 1 .53 2.19v.69h-3.54a2.3 2.3 0 0 0-2.45 2.19v3.55a.52.52 0 0 0 .07.29 1 1 0 0 0 .92.67 1 1 0 0 0 1-1 1 1 0 0 0-.2-.57 2.84 2.84 0 0 1-.45-1.7v-.95c0-.63.28-1.27 1.38-1.34.75 0 2.37-.07 4-.07 1.46 0 2.89 0 3.83.07s1.31.38 1.31 1.27c0 2.47-1.43 8.17-9 10a.66.66 0 1 0 .12 1.31c.45 0 9.84-2 10.38-11.46v-.14a2.21 2.21 0 0 0-2.4-2.26Zm27.39.09h-3.32c-3.54 0-7.65.07-10.47.12a.77.77 0 0 0-.59.24 1 1 0 0 0-.37.75 1 1 0 0 0 1 1 1 1 0 0 0 .43-.1h.08a5 5 0 0 1 1.54-.51 20.4 20.4 0 0 1 2.21-.25h9.11c.54 0 .77.23.77.51a.93.93 0 0 1-.3.61 40 40 0 0 1-6 4.75 17.19 17.19 0 0 0-3.78-2.39h-.22a.7.7 0 0 0-.14 0 1 1 0 1 0 0 2 .7.7 0 0 0 .14 0 2.89 2.89 0 0 1 2.06.63l.19.14a14.6 14.6 0 0 1 3.53 3.51.72.72 0 0 0 .61.4.79.79 0 0 0 .75-.77c0-.43-.66-1.37-2.07-2.59a40.84 40.84 0 0 0 6.42-5.19 1.71 1.71 0 0 0 .49-1.17c-.03-.96-.76-1.66-2.07-1.69Zm28.58 3.53h-6.44V122c2.43-.54 3.26-.88 3.54-1.15l.07-.09a1 1 0 1 0-1.56-1.16s-.3.7-1.85 1.17l-.3.07-.23.06a28.17 28.17 0 0 1-5.78.76h-.54c-.49 0-.73.28-.73.58s.24.59.75.59a31.63 31.63 0 0 0 5.29-.54v4c-2.86 0-5.8 0-7.7.07a.6.6 0 0 0-.66.59.57.57 0 0 0 .61.56c2-.07 4.91-.07 7.7-.07a8.47 8.47 0 0 1-6.39 8 .73.73 0 0 0-.56.71.62.62 0 0 0 .7.63 1.26 1.26 0 0 0 .5-.1 9.84 9.84 0 0 0 7-9.2v-.05c2.61 0 5 0 6.44.05a.6.6 0 0 0 .68-.57.62.62 0 0 0-.54-.63Zm28.11-3.1a2.45 2.45 0 0 0-2.61-2.61c-1.85 0-3.66-.07-5.42-.07 0-.92.05-2.16.05-3.13a1 1 0 0 0-2 0 1.06 1.06 0 0 0 .09.4s.5.61.55 2.77c-1.68 0-3.32 0-4.93.07a2.46 2.46 0 0 0-2.73 2.39l-.14 13.67a.59.59 0 0 0 .65.56.6.6 0 0 0 .66-.56v-4.35c0-2.93 0-5.89.07-8.78 0-1.29.56-1.88 2-1.9s2.84 0 4.39 0c-.23 3.31-1.59 6.27-4.86 7.8a.6.6 0 0 0-.38.54.71.71 0 0 0 .71.68c.45 0 3.38-1.55 4.86-5l.14.09a16.61 16.61 0 0 1 4.77 4.18.66.66 0 0 0 .54.31.78.78 0 0 0 .73-.78c0-1.06-5.05-4.74-5.73-4.74h-.1a12.47 12.47 0 0 0 .59-3.13h4.86c1.57 0 1.91.75 2 2 .1 3.38.1 7 .1 10.38a1.46 1.46 0 0 1-.9 1.56 2.36 2.36 0 0 1-2.33-.49 1 1 0 0 0-.71-.3 1 1 0 0 0-1 1 1 1 0 0 0 .39.76.64.64 0 0 0 .2.14 5.78 5.78 0 0 0 2.15.26c2.67 0 3.47-1.3 3.47-2.73v-2.32c-.08-2.64-.08-6-.13-8.67Zm15.17 1.22h3.08a.55.55 0 1 0 0-1.1h-3v-3.83c2-.53 2.62-.81 2.85-1.06a1 1 0 0 0-.67-1.71 1 1 0 0 0-.91.6c0 .1-.43.81-2.61 1.37a24.57 24.57 0 0 1-3.07.51.54.54 0 0 0-.52.56.55.55 0 0 0 .59.57 22.39 22.39 0 0 0 3.1-.54v3.52h-3.55a.55.55 0 1 0 0 1.1h3.58v.66a21.1 21.1 0 0 1-1.94 3.07.61.61 0 0 1-.07.1 6.71 6.71 0 0 1-2.19 1.89 2.11 2.11 0 0 1-.29.12 1 1 0 0 0-.79 1 1 1 0 0 0 1 1 .92.92 0 0 0 .41-.1.73.73 0 0 0 .29-.19 25 25 0 0 0 3.62-4.81l-.1 9.58a.58.58 0 0 0 .64.54.58.58 0 0 0 .63-.54s-.07-6.39-.07-9.91Z"/><path class="cls-8" d="M135.31 128.74c0-.75-2.75-2.42-3.08-2.42a.59.59 0 0 0-.56.52.38.38 0 0 0 .19.33 11.76 11.76 0 0 1 2.42 2 .5.5 0 0 0 .42.21.66.66 0 0 0 .61-.64Zm10.9-.65a.68.68 0 0 0-.19 0l-3 .87v-11.42a.61.61 0 0 0-1.22 0v11.77l-7 1.93a.53.53 0 0 0-.42.51.58.58 0 0 0 .57.61.55.55 0 0 0 .18 0l6.7-1.88v6.23c0 .35.3.51.61.51a.54.54 0 0 0 .61-.51v-6.58l3.32-.94a.54.54 0 0 0 .42-.54.54.54 0 0 0-.58-.56ZM39.32 96.73a1 1 0 0 0-.89 1.41s.5 1.67-.11 2.26-1.48.64-2.72.64c-2.23 0-2.61-.44-2.61-1.9 0-2.42.14-14.44.14-15.45a.6.6 0 0 0-.66-.59.62.62 0 0 0-.65.59v16c0 1.9 1.29 2.54 4 2.54 2.51 0 4.53-.31 4.53-4.25v-.25a1 1 0 0 0-1.03-1ZM106.39 86a3.36 3.36 0 0 1 1.38.32 2.68 2.68 0 0 1 .61.49 5 5 0 0 1 .48.59.52.52 0 0 0 .45.26.8.8 0 0 0 .71-.78.68.68 0 0 0-.17-.44c-.38-.47-2.7-2.42-3.33-2.42h-.11a1 1 0 0 0 0 2Z"/><path class="cls-8" d="M136.7 121.33h.06a1.78 1.78 0 0 1 .89.08 2.61 2.61 0 0 1 .77.58c.14.15.27.3.38.44a.62.62 0 0 0 .49.29.7.7 0 0 0 .64-.71c0-.7-2.08-2.27-2.85-2.57a.64.64 0 0 0-.2 0 .8.8 0 0 0-.15 0 1 1 0 1 0 0 2Zm-.34 5.12h.14a2.16 2.16 0 0 1 1.06.11l.16.07.27.16c.21.19.42.39.6.58a.57.57 0 0 0 .47.21.67.67 0 0 0 .64-.68.75.75 0 0 0-.24-.52c-.05 0-2.21-1.92-3.08-1.92a1 1 0 0 0 0 2Z"/></svg>