<svg id="bg" xmlns="http://www.w3.org/2000/svg" viewBox="0 0 101.92 53.48"><defs><style>.cls-2{fill:#fff}</style></defs><path style="fill:#e2915a" d="M0 53.48V.58L96.19 0l5.73 53.48H0z"/><path class="cls-2" d="M44.13 30.2a7.62 7.62 0 0 1-.57 2.94 7.39 7.39 0 0 1-4 4 7.26 7.26 0 0 1-2.9.59 6.15 6.15 0 0 1-2.89-.73 7 7 0 0 1-2.31-2A9.93 9.93 0 0 1 30 32a13.91 13.91 0 0 1-.57-4 16.29 16.29 0 0 1 .7-4.8A13.81 13.81 0 0 1 32 19.26a9.39 9.39 0 0 1 2.82-2.67 6.52 6.52 0 0 1 3.45-1 7.65 7.65 0 0 1 1.89.22 6.18 6.18 0 0 1 1.54.6 3.29 3.29 0 0 1 1 .91 1.87 1.87 0 0 1 .38 1.12 1.42 1.42 0 0 1-.4 1.07 1.53 1.53 0 0 1-1.11.39 1.34 1.34 0 0 1-1.16-.48 7.55 7.55 0 0 1-.66-1.05 4.62 4.62 0 0 0-.75-1.03 2.15 2.15 0 0 0-1.54-.47 2.76 2.76 0 0 0-1.8.67 5.88 5.88 0 0 0-1.42 1.85 10.8 10.8 0 0 0-1 2.8 17.56 17.56 0 0 0-.33 3.5h.08a6.17 6.17 0 0 1 2-1.91 4.8 4.8 0 0 1 2.48-.61 6.35 6.35 0 0 1 2.63.54 6.43 6.43 0 0 1 2.1 1.47 6.72 6.72 0 0 1 1.4 2.21 7.56 7.56 0 0 1 .53 2.81Zm-11.2-.68q0 6.94 3.89 7A3.14 3.14 0 0 0 39.69 35a9 9 0 0 0 .94-4.66 8.29 8.29 0 0 0-.89-4.26 2.92 2.92 0 0 0-2.64-1.46 3.38 3.38 0 0 0-2.26.85 8.47 8.47 0 0 0-1.91 2.71Z"/><circle class="cls-2" cx="62.91" cy="26.69" r="9"/><path d="m60.73 22.34 4.35 4.35m-4.35 4.35 4.35-4.35" style="fill:none;stroke:#e2915a;stroke-linecap:round;stroke-linejoin:round"/></svg>