<svg id="bg" xmlns="http://www.w3.org/2000/svg" viewBox="0 0 52.9 101.19"><defs><style>.cls-2{fill:#fff}</style></defs><path style="fill:#908cc1" d="M52.9 101.19H0V6.89L52.9 0v101.19z"/><path class="cls-2" d="M26.9 46.76a11.69 11.69 0 0 0 .1 1.75 2.1 2.1 0 0 0 .4 1 1.64 1.64 0 0 0 .89.52 7.28 7.28 0 0 0 1.52.16v1.11h-8.57v-1.07a6.39 6.39 0 0 0 1.5-.18 1.88 1.88 0 0 0 .9-.5 1.93 1.93 0 0 0 .42-1 11.58 11.58 0 0 0 .1-1.61V33.99a7.33 7.33 0 0 0-.1-1.4 1 1 0 0 0-.84-.75 11.81 11.81 0 0 0-2.1-.14v-1.07a17.19 17.19 0 0 0 2.9-.37 24.54 24.54 0 0 0 2.9-.8Z"/><circle class="cls-2" cx="24.81" cy="68.83" r="9"/><path d="m22.63 64.48 4.35 4.35m-4.35 4.35 4.35-4.35" style="fill:none;stroke:#908cc1;stroke-linecap:round;stroke-linejoin:round"/></svg>