<svg id="bg" xmlns="http://www.w3.org/2000/svg" viewBox="0 0 101.92 53.48"><defs><style>.cls-2{fill:#fff}</style></defs><path style="fill:#8bb89e" d="M0 53.48V.58L96.19 0l5.73 53.48H0z"/><path class="cls-2" d="M29 31.4 38.9 16h.86v15.46a9 9 0 0 0 1.39-.13 1.53 1.53 0 0 0 .78-.36 1.32 1.32 0 0 0 .35-.76 7.52 7.52 0 0 0 .09-1.3h1v6.24h-1a6.88 6.88 0 0 0-.09-1.23 1.29 1.29 0 0 0-.35-.74 1.46 1.46 0 0 0-.78-.37 10.73 10.73 0 0 0-1.39-.12v.59a13.88 13.88 0 0 0 .09 1.72 2.46 2.46 0 0 0 .32 1.05 1.25 1.25 0 0 0 .67.52 3.93 3.93 0 0 0 1.14.14v1.06h-7.87v-1.02a6.82 6.82 0 0 0 1.5-.14 1.64 1.64 0 0 0 .88-.51 2.15 2.15 0 0 0 .42-1 10.33 10.33 0 0 0 .09-1.63v-.67h-8Zm8-10h-.14l-6.44 10H37Z"/><circle class="cls-2" cx="62.91" cy="26.74" r="9"/><path d="m60.73 22.39 4.35 4.35m-4.35 4.35 4.35-4.35" style="fill:none;stroke:#8bb89e;stroke-linecap:round;stroke-linejoin:round"/></svg>