<svg id="bg" xmlns="http://www.w3.org/2000/svg" viewBox="0 0 101.92 53.48"><defs><style>.cls-2{fill:#fff}</style></defs><path style="fill:#eadb88" d="M0 53.48V.58L96.19 0l5.73 53.48H0z"/><path class="cls-2" d="M34.32 24.06v.09a3.54 3.54 0 0 1 1.24-.52 6.43 6.43 0 0 1 1.62-.21 5.44 5.44 0 0 1 4.13 1.85 6.64 6.64 0 0 1 1.22 2.05 7.23 7.23 0 0 1 .47 2.57 7.7 7.7 0 0 1-.6 3.11 7.9 7.9 0 0 1-1.74 2.52 8.16 8.16 0 0 1-2.6 1.69 8.46 8.46 0 0 1-3.24.62 7.61 7.61 0 0 1-2.18-.3 5.69 5.69 0 0 1-1.72-.79 3.81 3.81 0 0 1-1.12-1.22 3.13 3.13 0 0 1-.41-1.52 1.79 1.79 0 0 1 .35-1.17 1.21 1.21 0 0 1 1-.42 1.16 1.16 0 0 1 .89.31 2.12 2.12 0 0 1 .46.78c.11.32.21.66.31 1a4.17 4.17 0 0 0 .4 1 2.21 2.21 0 0 0 .76.79 2.58 2.58 0 0 0 1.36.31 3.83 3.83 0 0 0 2-.52 4.32 4.32 0 0 0 1.45-1.49 7.8 7.8 0 0 0 .91-2.32 13 13 0 0 0 .32-3 7.29 7.29 0 0 0-.65-3.5 2.37 2.37 0 0 0-2.2-1.12 2.85 2.85 0 0 0-1.92.63 4.51 4.51 0 0 0-1.22 2 1.76 1.76 0 0 1-.31.65.49.49 0 0 1-.36.14c-.41 0-.62-.19-.62-.56a.71.71 0 0 1 0-.23l3-11.56a6.62 6.62 0 0 0 1.4.38 12.57 12.57 0 0 0 1.87.12 9.32 9.32 0 0 0 3.73-.53h.17A4.08 4.08 0 0 1 41 18.18a4.65 4.65 0 0 1-2.9.87h-2.47Z"/><circle class="cls-2" cx="62.91" cy="26.64" r="9"/><path d="m60.73 22.29 4.35 4.35m-4.35 4.35 4.35-4.35" style="fill:none;stroke:#eadb88;stroke-linecap:round;stroke-linejoin:round"/></svg>