<svg id="bg" xmlns="http://www.w3.org/2000/svg" viewBox="0 0 464 480"><defs><style>.cls-4{fill:#959090}.cls-12{fill:none;stroke:#959090;stroke-miterlimit:10}</style></defs><path style="fill:#fff" d="M.52.13v479.74h463.49v-371.1L355.27.03.52.13z"/><path style="fill:#d9d9ce;opacity:.5" d="M.52.13h353.79L463.48 109.3v370.57H329.96v-73.9h76.8l-5.73-53.48h5.73l-5.73-53.48h5.73l-5.73-53.47h5.73l-5.73-53.48h-3.07l-.26-84.93-44.49-44.67-35.22.17v-3.72L265.1 65.8v-6.89l-52.9 6.89v40.13h-45.23l-32.67 27.58v59.42l62.08.88.21 134.76h-31.77l.15 6.04-58.37.2.19-171.4H.52V.13z"/><path style="fill:#85bbbe;opacity:.2" d="M329.97 406.25h133.88v73.33H329.97z"/><path class="cls-4" d="M168.09 152.64a1.28 1.28 0 0 0 .34 0h.14c.11 0 .19.07.42.3s.26.31.26.38 0 .12-.12.17a1.21 1.21 0 0 0-.38.37 10.23 10.23 0 0 1-2.4 2.5 16.9 16.9 0 0 0 5.45 1.64 2.39 2.39 0 0 0-.38.62c-.12.28-.12.28-.39.22a16.54 16.54 0 0 1-5.45-2 16.68 16.68 0 0 1-5.35 1.89c-.26.06-.28.06-.39-.21a2 2 0 0 0-.36-.57 16.06 16.06 0 0 0 5.37-1.65 8.75 8.75 0 0 1-2.21-2.85h-1.22c-.1 0-.11 0-.11-.11v-.6c0-.1 0-.12.11-.12h1.92Zm3.24-.88v1.34c0 .08 0 .12-.11.12h-.64c-.1 0-.11 0-.11-.12v-1.92h-9.92v1.92c0 .1 0 .12-.11.12h-.63c-.1 0-.12 0-.12-.12v-2.6c0-.08 0-.11.12-.11h7.71a11.85 11.85 0 0 0 1-1.84 3.28 3.28 0 0 0 .18-.62c.29.1.56.19.76.28s.15.1.15.15a.36.36 0 0 1-.14.23 1.47 1.47 0 0 0-.27.39 12.66 12.66 0 0 1-.82 1.41h2.81c.07 0 .11 0 .11.11v.64Zm-1.19-4.54a2.52 2.52 0 0 0-.55.06c-1.23.23-2.3.4-4 .58s-3.1.27-4.63.33c-.22 0-.22 0-.32-.27a1.76 1.76 0 0 0-.29-.55c1.79 0 3.37-.11 5.12-.28a27.28 27.28 0 0 0 3-.43 5.64 5.64 0 0 0 1.05-.32 6.62 6.62 0 0 1 .69.54c.08.09.11.14.11.2s-.05.14-.18.14Zm-7.93 1.23h.22a6.7 6.7 0 0 1 .73 1.38c0 .08 0 .11-.14.18l-.39.14c-.2.07-.23.06-.27-.07a5.47 5.47 0 0 0-.64-1.33c-.07-.1-.05-.11.12-.18Zm1.31 5a7.17 7.17 0 0 0 2.08 2.4 8.8 8.8 0 0 0 2.39-2.4Zm1.75-5.14c.14-.06.17 0 .23.06a6.86 6.86 0 0 1 .6 1.54c0 .1 0 .11-.15.17l-.41.12c-.18.06-.21.06-.24-.07a7 7 0 0 0-.54-1.5c-.06-.1-.06-.12.14-.19ZM176 153v-1.81a16 16 0 0 1-1.44 2c-.07.08-.13.13-.17.13s-.08-.05-.14-.14a2.18 2.18 0 0 0-.39-.56 15.34 15.34 0 0 0 3.09-5.35 3.58 3.58 0 0 0 .23-1 6.59 6.59 0 0 1 .88.33c.1 0 .15.08.15.15s0 .13-.12.2-.17.21-.28.51c-.3.7-.61 1.43-1 2.16v9.06c0 .07 0 .12-.11.12h-.69c-.1 0-.11 0-.11-.12v-2.17Zm10.35-2.6c0 .1 0 .12-.11.12h-1.94v6.9c0 .67-.08.77-.38 1a4.13 4.13 0 0 1-2 .24c-.28 0-.28 0-.35-.27a2.26 2.26 0 0 0-.28-.66c.51 0 1.15.07 1.59.07s.57-.12.57-.54v-6.76h-5.15c-.07 0-.12 0-.12-.12v-.61c0-.1 0-.11.12-.11h5.15v-1.64a10.5 10.5 0 0 0-.08-1.7 8.52 8.52 0 0 1 .92.08c.11 0 .18.07.18.13a.61.61 0 0 1-.1.26 5.08 5.08 0 0 0-.06 1.21v1.66h1.94c.07 0 .11 0 .11.11Zm-6.88 1.71c.1-.07.11-.07.18 0a12.43 12.43 0 0 1 1.77 2.54c0 .08 0 .11-.11.21l-.41.26c-.18.12-.21.12-.27 0a11.48 11.48 0 0 0-1.65-2.56c-.08-.08-.07-.1.1-.21Zm44.74 151.64h-1.61l-1.25-5.85c-.26-1.22-.43-2.21-.64-3.38h-.24c-.18 1.17-.35 2.18-.62 3.35l-1.31 5.88h-1.61l-2.3-10.32h1.26l1.18 5.77c.24 1.15.4 2.24.57 3.39h.24c.21-1.13.39-2.23.63-3.33l1.27-5.83h1.7l1.25 5.91c.22 1.09.39 2 .61 3.25h.24c.24-1.23.36-2.13.6-3.29l1.24-5.87h1.2Zm11.05-7.22a2.49 2.49 0 0 0-2.51-2.27c-1.75 0-3 1.5-3 4.34s1.3 4.34 3 4.34a2.5 2.5 0 0 0 2.62-2.31l1.16.39a3.62 3.62 0 0 1-3.79 2.93c-2.48 0-4.32-1.95-4.32-5.34s1.85-5.36 4.32-5.36a3.62 3.62 0 0 1 3.72 2.95Zm-24.73-64.23 3.39 5.36h-1.4l-2.33-3.75a7.57 7.57 0 0 0-.42-.67c-.14.22-.26.44-.4.67l-2.3 3.75h-1.32l3.36-5.32-3.12-5h1.39l2.06 3.36.44.74c.17-.25.31-.51.47-.77l2.07-3.33h1.32Zm11.41-1.47c.13-.06.17-.05.21 0a11.33 11.33 0 0 1 .93 2.27c0 .08 0 .14-.14.18l-.33.1c-.18.05-.21 0-.25-.09l-.12-.44-1.24.15v5.75s0 .11-.11.11h-.63c-.1 0-.12 0-.12-.11v-5.65l-1.43.11a1.81 1.81 0 0 0-.53.11.44.44 0 0 1-.17.06c-.07 0-.12-.07-.14-.17s-.07-.44-.11-.77a6.54 6.54 0 0 0 .9 0h.14c.36-.48.71-1 1-1.43a19.46 19.46 0 0 0-2-2.2c-.09-.09-.07-.11 0-.25l.22-.3c.1-.12.14-.12.21 0s.38.35.55.53a15.62 15.62 0 0 0 .94-1.63 4.33 4.33 0 0 0 .36-.89 3.71 3.71 0 0 1 .75.35c.09.05.14.1.14.17s-.05.11-.12.15a.79.79 0 0 0-.23.29c-.49.82-.86 1.4-1.32 2.08.32.33.63.68 1 1.06.38-.57.72-1.16 1.07-1.76a4 4 0 0 0 .4-.93c.27.11.55.24.76.35a.2.2 0 0 1 .13.17c0 .08-.05.13-.13.18a2.48 2.48 0 0 0-.48.63c-.78 1.25-1.57 2.41-2.34 3.43.73 0 1.47-.08 2.29-.15a8.25 8.25 0 0 0-.51-1.15c0-.08 0-.11.14-.18Zm-2.55 3.82a2.66 2.66 0 0 0-.12.53 14.81 14.81 0 0 1-.62 2.52c0 .16-.07.21-.13.21s-.09 0-.21-.11a1.79 1.79 0 0 0-.47-.21 9.14 9.14 0 0 0 .68-2.53 4.46 4.46 0 0 0 0-.86 5.27 5.27 0 0 1 .7.14c.12 0 .19.09.19.14a.25.25 0 0 1-.02.17Zm2.62-.56c.14 0 .16 0 .2.06a11.71 11.71 0 0 1 .57 2.14c0 .1 0 .11-.18.18l-.29.11c-.2.07-.21.07-.23-.05a10.82 10.82 0 0 0-.5-2.17c0-.1 0-.13.15-.19Zm2.68-.53a.74.74 0 0 0 .26 0 .33.33 0 0 1 .12-.05c.08 0 .14 0 .35.24s.26.28.26.35a.18.18 0 0 1-.11.18.8.8 0 0 0-.25.38 7.3 7.3 0 0 1-2.43 3.38c-.09.08-.15.12-.2.12s-.12-.07-.21-.19a1.65 1.65 0 0 0-.41-.34 6.59 6.59 0 0 0 2.63-3.32H223c-.11 0-.11 0-.11-.11v-.55c0-.1 0-.11.11-.11h1Zm2.13-1.28a11.86 11.86 0 0 0 1 2.33 13.34 13.34 0 0 0 1.25-1.29 3.25 3.25 0 0 0 .36-.55 3.35 3.35 0 0 1 .57.41c.09.07.14.11.14.2s-.06.12-.15.16a2.12 2.12 0 0 0-.53.47 13.77 13.77 0 0 1-1.26 1.17 8.25 8.25 0 0 0 2.35 2.17 1.78 1.78 0 0 0-.41.49c-.08.15-.12.2-.18.2a.35.35 0 0 1-.19-.11 9.28 9.28 0 0 1-3-4.26c0 1.54.1 2.58.1 3.91a1 1 0 0 1-.43.94 2.65 2.65 0 0 1-1.39.18c-.27 0-.25 0-.34-.28a1.32 1.32 0 0 0-.26-.53h1c.5 0 .62-.14.62-.52v-5.13h-2.39c-.08 0-.12 0-.12-.11v-4.43c0-.07 0-.11.12-.11h2.03a7.24 7.24 0 0 0 .26-.73 3.34 3.34 0 0 0 .17-.8l.79.14c.14 0 .18.08.18.15s0 .12-.12.19a.9.9 0 0 0-.18.28c-.11.31-.21.54-.31.77h2.83c.08 0 .12 0 .12.11v4.47c0 .07 0 .11-.12.11h-1.66Zm1.79-4h-4.24v1.27h4.24Zm0 1.93h-4.24v1.37h4.24Zm16.48 8.03c0 .09 0 .11-.1.11h-12.04c-.07 0-.11 0-.11-.11v-.58c0-.1 0-.11.11-.11h5.47v-1.81h-4c-.11 0-.12 0-.12-.11v-.58c0-.09 0-.11.12-.11h4v-.1a6.61 6.61 0 0 0-.08-1.36l.9.07c.09 0 .16.07.16.11a.7.7 0 0 1-.08.27 3 3 0 0 0-.07.93v.14h4.24c.11 0 .11 0 .11.11v.58c0 .1 0 .11-.11.11h-4.24v1.81h5.74c.08 0 .1 0 .1.11Zm-.46-9.42v1.4c0 .08 0 .12-.11.12h-.65c-.1 0-.11 0-.11-.12v-1.86h-9.71v1.86c0 .1 0 .12-.11.12h-.64c-.1 0-.12 0-.12-.12v-2.52c0-.07 0-.11.12-.11h5.08v-.24a5.4 5.4 0 0 0-.1-1.15l.93.07c.09 0 .16.06.16.13a.61.61 0 0 1-.08.25 2.16 2.16 0 0 0-.07.7v.24h5.3c.09 0 .11 0 .11.11v.62Zm-3.63 2.11c.11-.09.14-.07.22 0a17.42 17.42 0 0 1 2.31 2.25c.07.08.06.1-.07.21l-.36.32c-.1.09-.14.09-.23 0-.25-.31-.47-.6-.72-.87-2.37.27-4.61.43-7.15.56-.39 0-.52 0-.59.1a.21.21 0 0 1-.15 0c-.06 0-.1 0-.13-.14s-.12-.5-.18-.78a13.35 13.35 0 0 0 1.42 0h.85a16.29 16.29 0 0 0 1.15-2.15h-2.44c-.07 0-.11 0-.11-.11v-.56c0-.1 0-.11.11-.11h8.03c.07 0 .11 0 .11.11v.56c0 .1 0 .11-.11.11h-4.67a18.33 18.33 0 0 1-1.16 2.1c1.53-.08 3-.19 4.46-.33-.3-.3-.62-.58-1-.87-.08-.07-.08-.11.07-.23Zm-50.41 128.35H189l-1.25-5.86c-.26-1.21-.43-2.21-.64-3.37h-.24c-.18 1.16-.35 2.17-.62 3.35l-1.31 5.88h-1.61L181 349h1.26l1.18 5.77c.24 1.15.4 2.24.57 3.39h.24c.21-1.14.39-2.23.63-3.34l1.27-5.82h1.7l1.25 5.91c.22 1.09.39 2 .61 3.25h.29c.24-1.24.36-2.13.6-3.29l1.2-5.87h1.2Zm11.05-7.23a2.5 2.5 0 0 0-2.51-2.27c-1.75 0-3 1.5-3 4.34s1.3 4.35 3 4.35a2.51 2.51 0 0 0 2.62-2.31l1.16.39a3.62 3.62 0 0 1-3.79 2.93c-2.48 0-4.32-2-4.32-5.34s1.85-5.37 4.32-5.37a3.62 3.62 0 0 1 3.72 3ZM224.2 33.5a2.15 2.15 0 0 0 1.24 1.34 7.32 7.32 0 0 0 2.8.38 59.06 59.06 0 0 0 6-.32 1.69 1.69 0 0 0-.27.67c0 .28 0 .28-.32.3-1.84.12-3.67.18-5.1.18a9.29 9.29 0 0 1-3.43-.46 2.6 2.6 0 0 1-1.35-1.38 15.12 15.12 0 0 1-1.4 1.36 1.1 1.1 0 0 0-.26.32c-.05.09-.1.12-.16.12s-.11 0-.17-.12a4.42 4.42 0 0 1-.44-.78 4.26 4.26 0 0 0 .87-.52 8.58 8.58 0 0 0 1.19-1.11V30h-1.92c-.05 0-.11 0-.11-.13v-.57c0-.09 0-.1.11-.1h2.64c.12 0 .11 0 .11.1v1.33Zm-1.89-9.12c.13-.08.16-.08.24 0a10.34 10.34 0 0 1 1.58 1.95c.06.09.06.11-.09.22l-.34.25c-.17.13-.21.13-.27 0a9.82 9.82 0 0 0-1.54-2c-.08-.07-.07-.1.09-.2Zm8.74 2.55h1.89c.08 0 .12 0 .12.11v6.1c0 .45 0 .7-.31.89s-.5.26-1.37.27c-.26 0-.28 0-.33-.24a1.21 1.21 0 0 0-.26-.57 9.26 9.26 0 0 0 1 0c.35 0 .49-.13.49-.51v-1.26h-2.66v2.34c0 .09 0 .11-.1.11h-.6c-.1 0-.11 0-.11-.11v-2.34h-2.41v2.49c0 .08 0 .11-.11.11h-.6c-.1 0-.12 0-.12-.11v-7.2c0-.09 0-.11.12-.11h3.22a10.23 10.23 0 0 0-1.6-1.09c-.1-.06-.11-.12 0-.23l.28-.22c.12-.1.14-.09.24 0a13.55 13.55 0 0 1 1.51 1.11 23.05 23.05 0 0 0 2-1.52h-5.84c-.07 0-.11 0-.11-.11v-.53c0-.11 0-.13.11-.13h5.98a.91.91 0 0 0 .34 0 .35.35 0 0 1 .17-.06c.08 0 .19.09.39.28s.29.34.29.44-.05.15-.18.19a1.42 1.42 0 0 0-.49.31 22.49 22.49 0 0 1-2.1 1.56h1.13Zm-2.22.66h-2.43V29h2.43Zm0 2.06h-2.43v1.41h2.43Zm3.41-2.06h-2.66V29h2.66Zm0 2.06h-2.66v1.41h2.66Zm7.58 4.35a18.64 18.64 0 0 0 2-.72 2 2 0 0 0 0 .49c0 .29 0 .29-.25.39-1.11.43-2.5.88-4 1.3a1.41 1.41 0 0 0-.53.23.29.29 0 0 1-.19.08c-.05 0-.09 0-.14-.13-.11-.25-.21-.51-.29-.75a7.81 7.81 0 0 0 .87-.14v-3.38a7.1 7.1 0 0 0-.09-1.43c.31 0 .59.06.84.09.1 0 .16 0 .16.11a.72.72 0 0 1-.07.25 2.91 2.91 0 0 0-.07 1v3.21l1-.3v-5.8h-1.78c-.08 0-.12 0-.12-.11v-3.87c0-.08 0-.11.12-.11h3.95c.07 0 .12 0 .12.11v3.88c0 .07 0 .11-.12.11h-1.41v2.09h1.43c.07 0 .12 0 .12.11v.55c0 .1 0 .11-.12.11h-1.43Zm.73-8.88H238v2.62h2.57Zm6.59.12a.64.64 0 0 0 .33-.06.21.21 0 0 1 .13 0c.1 0 .17 0 .35.24s.24.27.24.35a.23.23 0 0 1-.13.2c-.1.05-.12.12-.24.32a13.55 13.55 0 0 1-1.82 2.59 10.75 10.75 0 0 0 3.46 1.9 1.65 1.65 0 0 0-.3.53c-.05.17-.1.23-.17.23a1 1 0 0 1-.22-.07 11.65 11.65 0 0 1-3.29-2.08 13.37 13.37 0 0 1-3.28 2.18.68.68 0 0 1-.2.07s-.09-.06-.16-.23a1.56 1.56 0 0 0-.37-.43 11.32 11.32 0 0 0 3.46-2.12 9.51 9.51 0 0 1-1.39-2 8.5 8.5 0 0 1-1.09 1.31c-.1.1-.14.14-.19.14s-.1-.05-.2-.15a1.31 1.31 0 0 0-.41-.3 8.78 8.78 0 0 0 2.35-3.47 3.15 3.15 0 0 0 .18-.74 4.86 4.86 0 0 1 .84.21c.1 0 .13.07.13.14a.24.24 0 0 1-.12.18 1.07 1.07 0 0 0-.25.37c-.11.26-.22.49-.33.73Zm.71 8.68v2.34c0 .07 0 .1-.11.1h-.6c-.1 0-.12 0-.12-.1v-.73h-3.4v.72c0 .08 0 .09-.11.09h-.6c-.1 0-.12 0-.12-.09v-4.82c0-.08 0-.12.12-.12h4.83c.09 0 .11 0 .11.12v1.33Zm-.8-1.89h-3.4v2.77h3.4ZM244 26l-.12.21a8.24 8.24 0 0 0 1.48 2.17 9.23 9.23 0 0 0 1.71-2.38Z"/><path style="fill:#908cc1" d="M265.1 160.09h-52.9V65.8l52.9-6.89v101.18z"/><path style="fill:#3c648b" d="M317.99 160.09H265.1V65.8l52.89-6.89v101.18z"/><path style="fill:#8bb89e" d="M304.84 245.54v-52.9l96.19-.58 5.73 53.48H304.84z"/><path style="fill:#eadb88" d="M304.84 299.01v-52.89l96.19-.58 5.73 53.47H304.84z"/><path style="fill:#e2915a" d="M304.84 352.35v-52.9l96.19-.58 5.73 53.48H304.84z"/><path style="fill:#da6669" d="M304.84 405.68v-52.89l96.19-.59 5.73 53.48H304.84z"/><path style="fill:#a6c2e1" d="m397.7 107.13.26 84.93h-79.97V62.63l35.22-.17 44.49 44.67z"/><path class="cls-4" d="M41.44 127.31h2.44c.9 0 1.67 0 2.58-.06.14 0 .19 0 .19.17v.64c0 .14 0 .18-.19.18H38c-.69 0-1.65 0-2.27.07-.15 0-.2 0-.22-.21a6 6 0 0 1-.07-.82c.91.07 1.69.07 2.56.07h2.45V122h-1.4c-.84 0-1.47 0-2.13.07-.13 0-.14 0-.17-.21a6.31 6.31 0 0 1-.06-.83c.76.06 1.38.07 2.32.07h6.08c.12 0 .14 0 .14.14v.67c0 .14 0 .18-.16.18h-3.63Zm8.92-6.87a.18.18 0 0 1 .26 0 13.29 13.29 0 0 1 2.52 1.87c.1.09.11.15 0 .26a5.18 5.18 0 0 1-.48.61c-.08.09-.12.11-.22 0a14.48 14.48 0 0 0-2.66-2.07c.22-.25.43-.5.58-.67Zm1.27 7.43a23.86 23.86 0 0 0 4-2.61 21.78 21.78 0 0 0 3.79-3.77 4.5 4.5 0 0 0 .23.93c.09.18.07.29-.09.49a27 27 0 0 1-3.41 3.22 29.07 29.07 0 0 1-4.2 2.73 4.48 4.48 0 0 0-.77.55.23.23 0 0 1-.38 0 5.45 5.45 0 0 1-.69-.95 7.81 7.81 0 0 0 1.52-.59ZM65.81 123a20 20 0 0 1 4.57 2c.11.06.14.13.09.23a3.92 3.92 0 0 1-.33.68c-.09.11-.14.14-.27.06A15.56 15.56 0 0 0 65.8 124v6.11c0 .14 0 .18-.18.18a4.33 4.33 0 0 1-.72 0c-.15 0-.19 0-.19-.2v-9.07a11.71 11.71 0 0 0-.15-2.24 5.23 5.23 0 0 1 1.16.18c.22 0 .17.21.1.42a5.55 5.55 0 0 0-.1 1.55Zm10.61.52c-.78 0-1.4 0-2 .07-.13 0-.18 0-.21-.18a5 5 0 0 1-.1-.88 23.21 23.21 0 0 0 2.32.1h5a1.61 1.61 0 0 0 .69-.1c.16-.08.23-.1.37 0a2.52 2.52 0 0 1 .52.51c.14.18.13.26 0 .38a1 1 0 0 0-.32.47 12.22 12.22 0 0 1-5.91 6.32c-.17.08-.27.08-.38 0a2.56 2.56 0 0 0-.78-.43 11.53 11.53 0 0 0 6.09-6.24Zm1.14-2.91c-.75 0-1.38 0-2 .06-.13 0-.16 0-.17-.2a7.13 7.13 0 0 1-.07-.84 20.26 20.26 0 0 0 2.28.1h2.17c.89 0 1.5 0 2.18-.07.12 0 .15 0 .15.17v.63c0 .2 0 .19-.18.18h-2.09Zm9.5-.17a.17.17 0 0 1 .25 0 13.29 13.29 0 0 1 2.52 1.87c.1.09.11.15 0 .26a5.18 5.18 0 0 1-.48.61c-.08.09-.12.11-.22 0a14.48 14.48 0 0 0-2.66-2.07c.22-.25.43-.5.59-.67Zm1.26 7.43a23.86 23.86 0 0 0 4-2.61 21.78 21.78 0 0 0 3.79-3.77 4.5 4.5 0 0 0 .23.93c.09.18.07.29-.09.49a27 27 0 0 1-3.41 3.22 29.07 29.07 0 0 1-4.2 2.73 4.48 4.48 0 0 0-.77.55.23.23 0 0 1-.38 0 5 5 0 0 1-.68-.95 8 8 0 0 0 1.51-.59Zm17.95-7.36c.48 0 .63 0 .8-.11s.18 0 .28 0a3.48 3.48 0 0 1 .57.58c.09.11.06.21-.07.32a1.8 1.8 0 0 0-.4.52 25.51 25.51 0 0 1-2.08 3 28.25 28.25 0 0 1 4 3.51c.13.12.13.16 0 .3a6 6 0 0 1-.51.5c-.09.09-.15.09-.25 0a25.71 25.71 0 0 0-3.86-3.55 21.5 21.5 0 0 1-5 3.9c-.16.09-.24.1-.35 0a2.7 2.7 0 0 0-.73-.51 18.17 18.17 0 0 0 5.15-3.79 17.56 17.56 0 0 0 2.66-3.76h-4.21c-.79 0-1.39 0-2 .09-.13 0-.14-.05-.17-.16a5.54 5.54 0 0 1-.08-.89c.68.05 1.3.05 2.17.05Z"/><path class="cls-12" d="m311.02 59.81 6.9-.9v101.18h-25.68M265.03 65.8l26.62-3.47m-33.46-2.52 6.91-.9v101.18h-25.69m166.53 77.82.82 7.63h-5.44m-96.48-28.06v-25.42h96.19l2.7 25.21m2.21 74.12.82 7.62h-5.44m-96.48-28.06v-25.41h96.19l2.7 25.21m2.21 74.12.82 7.62h-5.44m-96.48-28.06v-25.42h96.19l2.7 25.21m2.21 74.12.82 7.63H304.84m0-28.06v-25.42h96.19l2.7 25.21m-5.77-185.64-.26-84.93-6.3-6.33m-73.41-38.17 35.22-.17 21.39 21.47m-44.63 322.04v73.9"/><path class="cls-12" d="M.52.13v479.74h463.49v-371.1L355.27.03.52.13z"/><path class="cls-12" d="M212.2 105.93h-45.23l-32.67 27.58v59.42h120.72v186.81h-91.01v-25.33h-18.14v-19.6h19.1V226.62h-26.61m58.02 67.42v34.53m0-135.64v78.02m-5.4 57.62h63.83m-33.87 50.98v-50.98"/><path class="cls-12" d="M145.87 334.81H106.6v144.77m223.36-61.05h-159.9v61.05m0-99.15v38.1m-63.27-136.27v25.92H.52m80.05-144.77h26.22v90.84M.52 163.4h46.45m165.23-3.31V65.8l26.62-3.47m16.2 208.62h-58.64"/><path d="M6.52 169.4h94.27v63.2H6.52zm0 68.91h94.27v63.2H6.52zm0 76.88h43.75v7.93H6.52zm50.52 0h43.75v7.93H57.04zm-50.52 9.3h43.75v7.93H6.52zm50.52 0h43.75v7.93H57.04zM6.52 333.8h43.75v7.93H6.52zm50.52 0h43.75v7.93H57.04zm-50.52 9.3h43.75v7.93H6.52zm50.52 0h43.75v7.93H57.04zm-50.52 9.3h43.75v7.93H6.52zm50.52 0h43.75v7.93H57.04zm-50.52 9.31h43.75v7.93H6.52zm50.52 0h43.75v7.93H57.04zm-50.52 9.3h43.75v7.93H6.52zm50.52 0h43.75v7.93H57.04zm-50.52 9.3h43.75v7.93H6.52zm50.52 0h43.75v7.93H57.04zm-50.52 9.31h43.75v7.93H6.52zm50.52 0h43.75v7.93H57.04zM6.52 426.83h43.75v7.93H6.52zm50.52 0h43.75v7.93H57.04zm-50.52-9.3h43.75v7.93H6.52zm50.52 0h43.75v7.93H57.04zM6.52 398.92h43.75v7.93H6.52zm50.52 0h43.75v7.93H57.04zm-50.52 9.3h43.75v7.93H6.52zm50.52 0h43.75v7.93H57.04z" style="fill:#e5e5e5"/><path class="cls-4" d="M22.18 206.27h2.44c.9 0 1.67 0 2.58-.05.14 0 .19 0 .19.17v.61c0 .14 0 .18-.19.18h-8.49c-.69 0-1.65 0-2.27.07-.15 0-.2 0-.22-.21a6.15 6.15 0 0 1-.08-.83c.92.07 1.7.07 2.57.07h2.45V201h-1.37c-.84 0-1.47 0-2.13.07-.13 0-.14-.05-.17-.21a6.44 6.44 0 0 1-.06-.83c.76.06 1.38.07 2.32.07h6.07c.13 0 .14 0 .14.14v.67c0 .14 0 .18-.15.18-.9 0-1.6-.05-2.42-.05h-1.21Zm10.11.66a21.92 21.92 0 0 0 3.85-1.81 16.34 16.34 0 0 0 3.67-2.78 4.86 4.86 0 0 0 .13 1 .25.25 0 0 1-.09.32 20 20 0 0 1-3.5 2.46c-1.08.63-2.16 1.11-3.43 1.7a2.4 2.4 0 0 0-.74.4.28.28 0 0 1-.4 0 4.12 4.12 0 0 1-.53-.56.29.29 0 0 1 0-.33 2.14 2.14 0 0 0 .07-.72v-4.52a17 17 0 0 0-.12-3.09 6.07 6.07 0 0 1 1.19.22c.17.06.18.17.09.39a13 13 0 0 0-.15 2.55Zm11.13-3.64 2-2c.33-.33.53-.45.82-.45a1.25 1.25 0 0 1 .86.38 53.16 53.16 0 0 0 6.43 4.6.17.17 0 0 1 .08.26 4.28 4.28 0 0 1-.43.7c-.07.1-.14.13-.25.05a88.334 88.334 0 0 1-6.35-4.77.46.46 0 0 0-.28-.15.35.35 0 0 0-.3.09c-.63.63-1.4 1.44-2.35 2.46a4.72 4.72 0 0 0-.6.76.19.19 0 0 1-.32 0 7.28 7.28 0 0 1-.82-.74 9.82 9.82 0 0 0 1.51-1.19Zm6.41-3.6a.11.11 0 0 1 .17 0 7 7 0 0 1 1.59 1.69.11.11 0 0 1 0 .16l-.41.33c-.07.06-.14 0-.18 0a6 6 0 0 0-1.63-1.8Zm1.19-.92c.06-.05.1-.06.16 0a8.29 8.29 0 0 1 1.6 1.64c0 .07 0 .11-.05.17l-.37.33a.1.1 0 0 1-.17 0 6.75 6.75 0 0 0-1.61-1.76Zm6.98 5.42a11.36 11.36 0 0 0-1.89.14c-.13 0-.2-.06-.24-.2a10.27 10.27 0 0 1-.14-1.06 26.29 26.29 0 0 0 3.1.12h7.37c.16 0 .21 0 .21.17v.73c0 .23-.05.18-.21.16h-3Zm18.35-4.4c.48 0 .63-.06.74-.16a.28.28 0 0 1 .38 0 2.84 2.84 0 0 1 .6.56.23.23 0 0 1 0 .37 1.07 1.07 0 0 0-.34.42 19.51 19.51 0 0 1-2.23 3.72 14 14 0 0 1 1.69 1.54c.08.08 0 .15 0 .25a2.1 2.1 0 0 1-.46.48c-.11.08-.15.07-.22 0a16.26 16.26 0 0 0-1.57-1.54 17.19 17.19 0 0 1-4.94 3.78c-.16.09-.26.12-.38 0a2.46 2.46 0 0 0-.79-.45 16.65 16.65 0 0 0 5.27-3.93 14.7 14.7 0 0 0-2.2-1.43 3.78 3.78 0 0 1 .49-.56.17.17 0 0 1 .23-.05 20.9 20.9 0 0 1 2.08 1.32 15.24 15.24 0 0 0 2.05-3.49l-4.13.09a15.9 15.9 0 0 1-3.05 3.29c-.14.11-.24.14-.36 0a2.76 2.76 0 0 0-.68-.39 14.3 14.3 0 0 0 4-4.53 4.81 4.81 0 0 0 .56-1.38 3.81 3.81 0 0 1 1 .47c.16.12.12.28 0 .4a1.53 1.53 0 0 0-.41.47c-.15.27-.28.48-.5.81Zm7.04 4.4a11.36 11.36 0 0 0-1.89.14c-.13 0-.2-.06-.24-.2a8.1 8.1 0 0 1-.14-1.06 26.2 26.2 0 0 0 3.1.12h7.36c.17 0 .21 0 .21.17a4.45 4.45 0 0 1 0 .73c0 .15 0 .18-.21.16h-3ZM21.8 271.75h2.43c.9 0 1.67 0 2.58-.05.14 0 .2 0 .2.16v.65c0 .14 0 .18-.2.18h-8.49c-.68 0-1.65 0-2.27.07-.15 0-.19 0-.22-.21a6.29 6.29 0 0 1-.07-.83c.91.07 1.69.07 2.56.07h2.45v-5.27H19.4c-.84 0-1.47 0-2.13.07-.12 0-.14 0-.17-.21s-.05-.56-.05-.82c.76.05 1.37.07 2.31.07h6.09c.12 0 .14 0 .14.14v.67c0 .14 0 .18-.15.18-.9 0-1.6-.06-2.43-.06H21.8Zm10.1.66a22.75 22.75 0 0 0 3.86-1.81 16.3 16.3 0 0 0 3.67-2.79 4.74 4.74 0 0 0 .12 1 .28.28 0 0 1-.08.33 21.39 21.39 0 0 1-3.5 2.46c-1.08.63-2.16 1.11-3.44 1.7a2.68 2.68 0 0 0-.74.4.27.27 0 0 1-.39 0 3.17 3.17 0 0 1-.53-.56.3.3 0 0 1 0-.34 1.87 1.87 0 0 0 .07-.71v-4.53a16.23 16.23 0 0 0-.14-3.18 6.77 6.77 0 0 1 1.19.23c.17.05.18.17.1.39a12.41 12.41 0 0 0-.16 2.55Zm11.1-3.64 2-2c.34-.34.54-.45.83-.45a1.24 1.24 0 0 1 .85.38 54 54 0 0 0 6.43 4.6.17.17 0 0 1 .09.26 4.27 4.27 0 0 1-.44.7c-.07.1-.14.13-.25 0a83.15 83.15 0 0 1-6.34-4.76.48.48 0 0 0-.29-.15.34.34 0 0 0-.26.12c-.63.63-1.4 1.45-2.35 2.47a5.54 5.54 0 0 0-.61.75.19.19 0 0 1-.32.06 8.29 8.29 0 0 1-.81-.74 9.85 9.85 0 0 0 1.47-1.24Zm6.42-3.6a.11.11 0 0 1 .17 0 6.91 6.91 0 0 1 1.58 1.69.11.11 0 0 1 0 .16l-.4.33a.12.12 0 0 1-.19 0 6 6 0 0 0-1.58-1.82Zm1.19-.93c.06 0 .1-.05.15 0a8 8 0 0 1 1.6 1.64v.17l-.38.33c-.06.06-.11.06-.17 0a6.71 6.71 0 0 0-1.61-1.75Zm7.03 5.42a11.73 11.73 0 0 0-1.9.14c-.12 0-.19-.05-.23-.19a6.67 6.67 0 0 1-.14-1.07 25.82 25.82 0 0 0 3.09.13h7.37c.17 0 .21 0 .21.16v.73c0 .22 0 .19-.21.17h-3ZM76 265.27c.47 0 .63-.06.74-.16a.29.29 0 0 1 .38 0 3.88 3.88 0 0 1 .6.56.24.24 0 0 1-.06.38 1.16 1.16 0 0 0-.33.42 20.51 20.51 0 0 1-2.23 3.71 15.89 15.89 0 0 1 1.68 1.55c.08.08 0 .15 0 .25a1.91 1.91 0 0 1-.47.47c-.11.09-.15.07-.22 0a15.17 15.17 0 0 0-1.57-1.54 16.92 16.92 0 0 1-4.86 3.82c-.15.09-.25.11-.38 0a2.41 2.41 0 0 0-.78-.45 16.37 16.37 0 0 0 5.26-3.94 15 15 0 0 0-2.2-1.43 3.84 3.84 0 0 1 .5-.56.17.17 0 0 1 .22 0 20.33 20.33 0 0 1 2.09 1.32 15.57 15.57 0 0 0 2-3.49l-4.13.09a16.37 16.37 0 0 1-3 3.25c-.14.11-.24.14-.37 0a2.27 2.27 0 0 0-.67-.39 14.6 14.6 0 0 0 4-4.53 4.81 4.81 0 0 0 .57-1.39 3.78 3.78 0 0 1 1 .48c.17.11.13.28 0 .39a1.51 1.51 0 0 0-.4.48c-.16.27-.28.48-.51.81Zm7 4.39a11.51 11.51 0 0 0-1.89.14c-.12 0-.19-.05-.24-.19a10.13 10.13 0 0 1-.14-1.07 26.09 26.09 0 0 0 3.1.13h7.37c.17 0 .21 0 .21.16v.73c0 .22 0 .19-.21.17h-3Z"/><path style="stroke-linecap:round;stroke-linejoin:round;stroke:#908cc1;fill:none" d="m234.84 123.39 4.35 4.35"/><path d="m354.95 147.92 4.35 4.35m-4.35 4.35 4.35-4.35" style="stroke-linecap:round;stroke-linejoin:round;stroke:#a6c2e1;fill:none"/><path class="cls-4" d="M43.9 365.51a1.59 1.59 0 0 0 .31 0 .34.34 0 0 1 .17-.05c.08 0 .15.06.35.26s.25.3.25.37a.29.29 0 0 1-.11.19 1 1 0 0 0-.25.44 22.07 22.07 0 0 1-1.38 3c1.32 1.54 1.52 2.37 1.52 3.28s-.52 1.79-1.94 1.87c-.28 0-.28 0-.32-.26a1.2 1.2 0 0 0-.24-.55c1.11.07 1.68-.18 1.68-1.09s-.19-1.56-1.54-3.15a24 24 0 0 0 1.52-3.49h-2.05v11.18c0 .07 0 .11-.11.11h-.65c-.1 0-.11 0-.11-.11v-11.82c0-.08 0-.11.11-.11h1Zm2.44 4.23c.66-.18 1.36-.42 2.18-.71 0 .14 0 .28-.05.43s0 .28-.28.38c-.95.35-1.74.62-2.68.91a1.14 1.14 0 0 0-.51.25.28.28 0 0 1-.17.1c-.06 0-.11-.07-.16-.18s-.19-.48-.26-.73c.33 0 .71-.11 1.11-.2v-3.23a8.2 8.2 0 0 0-.1-1.63 6.15 6.15 0 0 1 .87.09c.11 0 .16.07.16.12a.37.37 0 0 1-.05.2 2.93 2.93 0 0 0-.1 1.11v.4h1.99c.07 0 .11 0 .11.12v.56c0 .08 0 .09-.11.09h-1.95Zm5.48 5.16v2.52c0 .07 0 .11-.11.11h-.61c-.1 0-.12 0-.12-.11v-.53h-4.53v.56c0 .1 0 .11-.11.11h-.6c-.1 0-.12 0-.12-.11v-5.42c0-.07 0-.1.12-.1h1.82a5.51 5.51 0 0 0 .29-.66 3.59 3.59 0 0 0 .21-.81 4.39 4.39 0 0 1 .83.21c.08 0 .14.07.14.14s0 .11-.11.16a.67.67 0 0 0-.21.28l-.35.68h3.36c.08 0 .11 0 .11.1v1.48Zm-.82-2.27h-4.55V374H51Zm0 2h-4.55v1.55H51Zm-1.17-5.39c0 .39.07.47.26.53a3.65 3.65 0 0 0 .82.07 1.75 1.75 0 0 0 1.13-.24c.17-.15.28-.46.31-1.26a1.79 1.79 0 0 0 .49.28c.24.09.22.11.21.37-.1.76-.28 1-.55 1.23a2.79 2.79 0 0 1-1.65.33 4.26 4.26 0 0 1-1.29-.12c-.28-.1-.5-.28-.5-.87v-3.08a7.38 7.38 0 0 0-.09-1.42 6.8 6.8 0 0 1 .83.09c.13 0 .18.05.18.11a.41.41 0 0 1 0 .21c-.09.15-.1.32-.1 1v.91a10.53 10.53 0 0 0 1.68-.89 2.06 2.06 0 0 0 .46-.42 5.2 5.2 0 0 1 .55.47.22.22 0 0 1 .08.17c0 .06 0 .11-.17.14a1.63 1.63 0 0 0-.31.11 20.41 20.41 0 0 1-2.29 1.15Zm5.61-1.11a9.33 9.33 0 0 0-.1-1.73 6.31 6.31 0 0 1 .8.22 10.57 10.57 0 0 0 2.34-.84 3.24 3.24 0 0 0 .79-.56 3 3 0 0 1 .59.6.29.29 0 0 1 .07.18c0 .07-.08.11-.19.13a3 3 0 0 0-.63.27 12.91 12.91 0 0 1-2.86 1v1.49h3.08c.07 0 .11 0 .11.11v.58c0 .09 0 .11-.11.11h-3.08v1.81h3.04c.09 0 .11 0 .11.11v.39c0 .11 0 .13-.11.13h-3.04v2.14a26 26 0 0 0 3.47-.88 2.18 2.18 0 0 0 0 .5c0 .3 0 .3-.28.38-1.08.32-2.08.58-3.14.8v2.28c0 .05 0 .12-.11.12h-.65c-.1 0-.11 0-.11-.12v-2.11h-.24a1.43 1.43 0 0 0-.52.17.32.32 0 0 1-.17.08s-.11-.05-.14-.18-.12-.52-.18-.81a8.06 8.06 0 0 0 1.25-.13Zm9.42 2.87a.58.58 0 0 0 .28-.06.32.32 0 0 1 .16 0c.11 0 .21.07.39.26s.27.33.27.4 0 .11-.14.18a1.34 1.34 0 0 0-.28.45 10.9 10.9 0 0 1-1.81 2.66 11.21 11.21 0 0 0 3.37 1.81 1.91 1.91 0 0 0-.39.54c-.08.16-.11.23-.18.23a.82.82 0 0 1-.21-.07 12.11 12.11 0 0 1-3.17-2 11.63 11.63 0 0 1-3.64 2.08c-.25.08-.28.08-.4-.16a1.87 1.87 0 0 0-.4-.5 10.6 10.6 0 0 0 3.87-2 8.71 8.71 0 0 1-1.75-3.08h-.66c-.1 0-.11 0-.11-.11v-.56c0-.1 0-.11.11-.11h1.67Zm-.07-2.54c0 .31 0 .46.14.55s.19.08.52.08.62-.07.72-.24a3 3 0 0 0 .16-1.17 1.58 1.58 0 0 0 .49.3c.21.09.21.12.2.34a2 2 0 0 1-.39 1.22 1.9 1.9 0 0 1-1.28.29 1.81 1.81 0 0 1-1-.15c-.28-.18-.36-.46-.36-1v-2.37h-2c0 2.09-.47 3.1-1.61 4-.1.08-.15.14-.21.14s-.11-.06-.21-.16a1.69 1.69 0 0 0-.47-.33 3.64 3.64 0 0 0 1.7-3.42v-.93c0-.09 0-.11.11-.11h3.36c.07 0 .11 0 .11.11v1.2Zm-3.19 3.24a7.92 7.92 0 0 0 1.54 2.58 8.37 8.37 0 0 0 1.7-2.58Z"/><path class="cls-12" d="M434.63 405.97h-27.87M.52 89.76h86.61V70.01h54.5v-10m0-26V.13"/><path class="cls-4" d="M378 446.08c.16.07.18.11.14.21a8.25 8.25 0 0 1-1.59 2.51.17.17 0 0 1-.12.08.45.45 0 0 1-.19-.08l-.35-.2c-.19-.11-.21-.15-.12-.22a7.1 7.1 0 0 0 1.61-2.39c0-.11.1-.12.28-.05Zm9.2-7.08c0 .1 0 .12-.11.12h-5.17v1.68h4c.11 0 .11 0 .11.1v4.12c0 .09 0 .11-.11.11h-8.26c-.13 0-.11 0-.11-.11v-4.12c0-.08 0-.1.11-.1h3.42v-2.65a10 10 0 0 0-.1-1.71 7.69 7.69 0 0 1 .95.09c.1 0 .17 0 .17.11a.68.68 0 0 1-.05.25 3.52 3.52 0 0 0-.1 1.14v.29h5.17c.07 0 .11 0 .11.11Zm-2.12 2.55h-6.62v2.71h6.62Zm-4.89 4.45c.16 0 .19 0 .21.11a13.8 13.8 0 0 1 .49 2.42c0 .1 0 .16-.16.17h-.47c-.19 0-.22 0-.22-.09a13.58 13.58 0 0 0-.42-2.46c0-.09 0-.12.17-.15Zm2.69-.07c.12 0 .16 0 .2.1a11.29 11.29 0 0 1 .91 2.41c0 .11 0 .14-.14.18l-.43.1c-.21 0-.24 0-.27-.06a10.76 10.76 0 0 0-.81-2.42c0-.1 0-.13.14-.19Zm2.74-.17c.15-.08.19-.07.26 0a11 11 0 0 1 1.7 2.57c.05.1 0 .12-.13.21l-.39.18c-.2.1-.23.1-.27 0a11.48 11.48 0 0 0-1.61-2.62c-.07-.08 0-.11.13-.2Zm4.68-5.49c.07-.1.1-.1.21 0a8.26 8.26 0 0 1 1.78 1.36c.07.07.07.1 0 .23l-.29.37c-.11.14-.14.16-.22.07a9.72 9.72 0 0 0-1.73-1.42c-.09-.06-.08-.09 0-.22Zm1.05 7.67a4.66 4.66 0 0 0-.28.62c0 .08-.05.15-.12.15a.53.53 0 0 1-.2-.08 7.5 7.5 0 0 1-.61-.46 8.92 8.92 0 0 0 .7-1.07 22.11 22.11 0 0 0 1.23-3.05 2.15 2.15 0 0 0 .43.42c.21.17.23.18.14.42a27.33 27.33 0 0 1-1.29 3.05Zm-.42-11.09c.12-.13.13-.14.23-.07a9.87 9.87 0 0 1 1.65 1.41c.07.07.07.11 0 .23l-.31.36c-.11.13-.15.14-.21.07a8.67 8.67 0 0 0-1.62-1.48c-.1-.07-.07-.09 0-.21Zm11.46 1.51c0 .1 0 .11-.11.11h-9c-.1 0-.11 0-.11-.11v-.56c0-.1 0-.11.11-.11h3.9v-.13a4.87 4.87 0 0 0-.1-1.25c.34 0 .63.05.9.09.11 0 .18.05.18.11a.5.5 0 0 1-.1.27 2.27 2.27 0 0 0-.07.78v.13h4.25c.1 0 .11 0 .11.11Zm-.59 7.23v2.11a1.05 1.05 0 0 1-.32.91c-.21.16-.52.24-1.54.26-.28 0-.28 0-.34-.27a1.49 1.49 0 0 0-.26-.57h1c.37 0 .59-.13.59-.51v-6.48h-6.46v7.8c0 .1 0 .1-.11.1h-.64c-.1 0-.12 0-.12-.1v-8.4c0-.07 0-.12.12-.12h4.73a9.28 9.28 0 0 0 .52-1.2 3 3 0 0 0 .14-.59 3.62 3.62 0 0 1 .75.22c.1 0 .16.09.16.14s0 .11-.1.16a.65.65 0 0 0-.2.25 9.54 9.54 0 0 1-.5 1h2.46c.13 0 .11 0 .11.12v2Zm-1.37-2.48c0 .1 0 .11-.11.11h-2.26v1.18h1.49c.09 0 .1 0 .1.11v3.1c0 .09 0 .1-.1.1H399c-.1 0-.12 0-.12-.1v-.38h-2.32v.62c0 .1 0 .11-.11.11H396c-.1 0-.11 0-.11-.11v-3.36c0-.11 0-.11.11-.11h1.39v-1.18h-2.16c-.07 0-.11 0-.11-.11v-.46c0-.12 0-.13.11-.13h2.16a6.43 6.43 0 0 0-.09-1.14l.79.07c.09 0 .15 0 .15.12a.51.51 0 0 1-.06.22 2.87 2.87 0 0 0-.07.73h2.26c.09 0 .11 0 .11.13Zm-4.59-4.47c.15-.06.18 0 .23.06a7.19 7.19 0 0 1 .54 1.21c0 .1 0 .15-.13.19l-.35.12c-.18.07-.2.07-.24-.05a6.68 6.68 0 0 0-.5-1.24c-.06-.09 0-.12.12-.18Zm3.06 6.36h-2.32v1.53h2.32Zm18.04 3.38c0 .09 0 .11-.1.11H404.8c-.07 0-.12 0-.12-.11v-.58c0-.1 0-.11.12-.11h5.47v-1.81h-4c-.11 0-.12 0-.12-.11v-.58c0-.1 0-.11.12-.11h4v-.1a6.61 6.61 0 0 0-.08-1.36l.9.07c.09 0 .16.07.16.11a.7.7 0 0 1-.08.27 2.61 2.61 0 0 0-.07.92v.09h4.24c.11 0 .11 0 .11.11v.58c0 .09 0 .11-.11.11h-4.24v1.81h5.73c.08 0 .1 0 .1.11Zm-.46-9.42v1.4c0 .08 0 .12-.12.12h-.64c-.1 0-.11 0-.11-.12v-1.86h-9.71v1.86c0 .1 0 .12-.11.12h-.65c-.09 0-.11 0-.11-.12v-2.52c0-.07 0-.11.11-.11h5.09v-.24a5.4 5.4 0 0 0-.1-1.15l.93.07c.09 0 .16.06.16.13a.61.61 0 0 1-.08.25 1.9 1.9 0 0 0-.07.7v.24h5.29c.08 0 .12 0 .12.11v.62Zm-3.64 2.1c.11-.08.14-.07.22 0a17.52 17.52 0 0 1 2.31 2.26c.07.08.06.1-.07.21l-.36.32c-.1.09-.14.09-.23 0-.25-.31-.47-.6-.73-.87-2.36.27-4.6.43-7.14.56-.39 0-.52 0-.59.1a.23.23 0 0 1-.15.05c-.06 0-.1-.05-.13-.14s-.12-.5-.18-.78a13.35 13.35 0 0 0 1.42 0h.85a16.78 16.78 0 0 0 1.15-2.14h-2.44c-.07 0-.11 0-.11-.11V440c0-.1 0-.11.11-.11h8.03c.07 0 .11 0 .11.11v.56c0 .09 0 .11-.11.11h-4.67a20 20 0 0 1-1.16 2.1c1.53-.08 3-.19 4.45-.33-.29-.3-.61-.58-.95-.87-.08-.07-.08-.11.07-.23Z"/></svg>