<svg xmlns="http://www.w3.org/2000/svg" viewBox="0 0 70 164"><path d="M62.63 5.74a1 1 0 0 1-1 1 1 1 0 0 1-1-1v-4a1 1 0 0 1 1-1 1 1 0 0 1 1 1Zm.05 10a1 1 0 0 1-1 1 1 1 0 0 1-1-1v-4a1 1 0 0 1 1-1 1 1 0 0 1 1 1Zm1.97-6.01a1 1 0 0 1 0-2h4a1 1 0 1 1 0 2Zm-10 .05a1 1 0 0 1 0-2h4a1 1 0 1 1 0 2Zm-34.24 91.07a1 1 0 1 1-2 0v-4a1 1 0 0 1 1-1 1 1 0 0 1 1 1Zm.05 10a1 1 0 0 1-1 1 1 1 0 0 1-1-1v-4a1 1 0 0 1 1-1 1 1 0 0 1 1 1Zm1.97-6.01a1 1 0 0 1 0-2h4a1 1 0 0 1 1 1 1 1 0 0 1-1 1Zm-10 .05a1 1 0 0 1 0-2h4a1 1 0 0 1 1 1 1 1 0 0 1-1 1Zm46.79 47.36a1 1 0 0 1-1 1 1 1 0 0 1-1-1v-4a1 1 0 1 1 2 0Zm.05 10a1 1 0 0 1-1 1 1 1 0 0 1-1-1v-4a1 1 0 1 1 2 0Zm1.97-6.01a1 1 0 0 1-1-1 1 1 0 0 1 1-1h4a1 1 0 0 1 0 2Zm-10 .05a1 1 0 0 1-1-1 1 1 0 0 1 1-1h4a1 1 0 0 1 0 2ZM33.83 51a1 1 0 0 1-1 1 1 1 0 0 1-1-1v-4a1 1 0 0 1 1-1 1 1 0 0 1 1 1Zm.05 10a1 1 0 0 1-1 1 1 1 0 0 1-1-1v-4a1 1 0 1 1 2 0Zm1.97-6a1 1 0 0 1-1-1 1 1 0 0 1 1-1h4a1 1 0 0 1 0 2Zm-10 0a1 1 0 0 1-1-1 1 1 0 0 1 1-1h4a1 1 0 0 1 0 2ZM9.34 37.86a1 1 0 1 1-2 0v-4a1 1 0 0 1 1-1 1 1 0 0 1 1 1Zm.05 10a1 1 0 1 1-2 0v-4a1 1 0 0 1 1-1 1 1 0 0 1 1 1Zm1.97-6.01a1 1 0 0 1-1-1 1 1 0 0 1 1-1h4a1 1 0 0 1 0 2Zm-10 .05a1 1 0 0 1-1-1 1 1 0 0 1 1-1h4a1 1 0 0 1 0 2Z" style="fill:#8bb89e"/></svg>