<svg id="bg" xmlns="http://www.w3.org/2000/svg" viewBox="0 0 22 22"><defs><style>.cls-1{fill:#74c7d1;}</style></defs><title>access_ico_subway</title><path class="cls-1" d="M14.71,18v0H7.31v0H6.89L4.45,21.11h1.8l.54-.8h8.42l.54.8h1.8L15.11,18Zm-7.4,1.56.55-.82h6.28l.55.82Z"/><path class="cls-1" d="M11,.89C5.34.89,3.71,3,3.71,4.51V14.72a2.5,2.5,0,0,0,2.5,2.5h9.58a2.5,2.5,0,0,0,2.5-2.5V4.51C18.29,3,16.66.89,11,.89ZM8.36,3.14h5.28a.64.64,0,0,1,0,1.28H8.36a.64.64,0,1,1,0-1.28ZM7.22,15A.79.79,0,1,1,8,14.25.79.79,0,0,1,7.22,15Zm3.23-4.7H6.21V6.47h4.24ZM14.78,15a.79.79,0,1,1,.79-.79A.79.79,0,0,1,14.78,15Zm1.2-4.7H11.56V6.47H16Z"/></svg>