<svg id="bg" xmlns="http://www.w3.org/2000/svg" viewBox="0 0 27 22"><defs><style>.cls-1{fill:#fff;}.cls-2{fill:#959595;}.cls-3{fill:none;stroke:#da6669;stroke-linecap:round;stroke-linejoin:round;stroke-width:2px;}</style></defs><title>beginner_ico_check</title><rect class="cls-1" x="2.58" y="0.5" width="21" height="21" rx="2.5"/><path class="cls-2" d="M21.08,1a2,2,0,0,1,2,2V19a2,2,0,0,1-2,2h-16a2,2,0,0,1-2-2V3a2,2,0,0,1,2-2h16m0-1h-16a3,3,0,0,0-3,3V19a3,3,0,0,0,3,3h16a3,3,0,0,0,3-3V3a3,3,0,0,0-3-3Z"/><polyline class="cls-3" points="25.92 1 13.08 13.84 6.66 7.42"/></svg>