<svg id="bg" xmlns="http://www.w3.org/2000/svg" viewBox="0 0 64 50"><defs><style>.cls-1{fill:none;stroke:#da6669;stroke-linecap:round;stroke-linejoin:round;stroke-width:1.5px;}</style></defs><title>charm_ico_03_parts02</title><path class="cls-1" d="M35.22,37.14h2.37a10.37,10.37,0,0,0,6.34-2.23l1.73-1.34a.81.81,0,0,0,.19-1,3.17,3.17,0,0,0-1-1.06,2.59,2.59,0,0,0-2.76,0,6.7,6.7,0,0,1-6.07.28A18.41,18.41,0,0,0,33,30,11.22,11.22,0,0,0,21,31.7h0"/><path class="cls-1" d="M21.08,41.2s5.36-1.19,14.73-.58a12.26,12.26,0,0,0,7.13-1.79l14.24-8.6a.71.71,0,0,0,.2-1l0,0c-.51-.75-1.67-1.78-4-1.08a5.51,5.51,0,0,0-.76.31L45.43,32"/><polyline class="cls-1" points="15.67 42.97 20.94 42.97 20.94 29.37 15.67 29.37"/><polyline class="cls-1" points="6.52 46.57 15.67 46.57 15.67 25.4 6.52 25.4"/></svg>