<svg id="bg" xmlns="http://www.w3.org/2000/svg" viewBox="0 0 64 50"><defs><style>.cls-1{fill:none;stroke:#da6669;stroke-linecap:round;stroke-linejoin:round;stroke-width:1.5px;}</style></defs><title>charm_ico_03</title><path class="cls-1" d="M35.22,37.14h2.37a10.34,10.34,0,0,0,6.34-2.23l1.73-1.34a.81.81,0,0,0,.19-1,3.18,3.18,0,0,0-1-1.06,2.61,2.61,0,0,0-2.76,0,6.69,6.69,0,0,1-6.07.28,18.41,18.41,0,0,0-3-1.76,11.22,11.22,0,0,0-12,1.67h0"/><path class="cls-1" d="M21.08,41.2s5.36-1.19,14.73-.58a12.28,12.28,0,0,0,7.13-1.79l14.24-8.6a.7.7,0,0,0,.18-1c-.51-.75-1.67-1.78-4-1.08a5.51,5.51,0,0,0-.76.31L45.43,32"/><polyline class="cls-1" points="15.67 42.97 20.94 42.97 20.94 29.37 15.67 29.37"/><polyline class="cls-1" points="6.52 46.57 15.67 46.57 15.67 25.4 6.52 25.4"/><path class="cls-1" d="M36.55,26.51c-1.06-1.06-5.17-5.43-7.24-7.93s-4.26-5.47-4.26-9.32a5.7,5.7,0,0,1,5.61-5.83,6,6,0,0,1,5.92,4.51h0a6,6,0,0,1,5.92-4.51,5.7,5.7,0,0,1,5.61,5.83c0,3.85-2.1,6.7-4.26,9.32s-6.21,6.87-7.27,7.93Z"/></svg>