<svg id="bg" xmlns="http://www.w3.org/2000/svg" viewBox="0 0 64 50"><defs><style>.cls-1{fill:none;stroke:#74c7d1;stroke-width:1.5px;}</style></defs><title>charm_ico_02_parts01</title><path class="cls-1" d="M32,46.44A21.44,21.44,0,1,0,10.56,25h0A21.44,21.44,0,0,0,32,46.44Z"/><path class="cls-1" d="M32,43A18,18,0,1,0,14,25,18,18,0,0,0,32,43Z"/><line class="cls-1" x1="32" y1="8.98" x2="32" y2="12.31"/><line class="cls-1" x1="40.01" y1="11.13" x2="38.35" y2="14.01"/><line class="cls-1" x1="45.87" y1="16.99" x2="42.99" y2="18.65"/><line class="cls-1" x1="48.02" y1="25" x2="44.69" y2="25"/><line class="cls-1" x1="45.87" y1="33.01" x2="42.99" y2="31.35"/><line class="cls-1" x1="40.01" y1="38.87" x2="38.35" y2="35.99"/><line class="cls-1" x1="32" y1="41.02" x2="32" y2="37.69"/><line class="cls-1" x1="23.99" y1="38.87" x2="25.65" y2="35.99"/><line class="cls-1" x1="18.13" y1="33.01" x2="21.01" y2="31.35"/><line class="cls-1" x1="15.98" y1="25" x2="19.31" y2="25"/><line class="cls-1" x1="18.13" y1="16.99" x2="21.01" y2="18.65"/><line class="cls-1" x1="23.99" y1="11.13" x2="25.65" y2="14.01"/></svg>