<?xml version="1.0" encoding="utf-8"?>
<!-- Generator: Adobe Illustrator 23.0.3, SVG Export Plug-In . SVG Version: 6.00 Build 0)  -->
<svg version="1.1" id="bg" xmlns="http://www.w3.org/2000/svg" xmlns:xlink="http://www.w3.org/1999/xlink" x="0px" y="0px"
	 viewBox="0 0 64 50" style="enable-background:new 0 0 64 50;" xml:space="preserve">
<style type="text/css">
	.st0{fill:none;stroke:#74C7D1;stroke-width:1.5;}
</style>
<title>charm_ico_02</title>
<path class="st0" d="M32,46.4c11.8,0,21.4-9.6,21.4-21.4S43.8,3.6,32,3.6S10.6,13.2,10.6,25c0,0,0,0,0,0
	C10.6,36.8,20.2,46.4,32,46.4z"/>
<path class="st0" d="M32,43c9.9,0,18-8.1,18-18S41.9,7,32,7s-18,8.1-18,18S22.1,43,32,43z"/>
<line class="st0" x1="32" y1="9" x2="32" y2="12.3"/>
<line class="st0" x1="40" y1="11.1" x2="38.3" y2="14"/>
<line class="st0" x1="45.9" y1="17" x2="43" y2="18.6"/>
<line class="st0" x1="48" y1="25" x2="44.7" y2="25"/>
<line class="st0" x1="45.9" y1="33" x2="43" y2="31.4"/>
<line class="st0" x1="40" y1="38.9" x2="38.3" y2="36"/>
<line class="st0" x1="32" y1="41" x2="32" y2="37.7"/>
<line class="st0" x1="24" y1="38.9" x2="25.6" y2="36"/>
<line class="st0" x1="18.1" y1="33" x2="21" y2="31.4"/>
<line class="st0" x1="16" y1="25" x2="19.3" y2="25"/>
<line class="st0" x1="18.1" y1="17" x2="21" y2="18.6"/>
<line class="st0" x1="24" y1="11.1" x2="25.6" y2="14"/>
<path class="st0" d="M31.3,24.3c-0.4,0.4-0.3,1,0.1,1.4c0.4,0.4,1,0.3,1.4-0.1c0.4-0.4,0.3-1-0.1-1.4C32.3,23.9,31.6,23.9,31.3,24.3
	C31.3,24.3,31.3,24.3,31.3,24.3z"/>
<line class="st0" x1="32" y1="14.8" x2="32" y2="24.2"/>
<line class="st0" x1="35.9" y1="31" x2="31.6" y2="24.6"/>
</svg>
