<svg id="bg" xmlns="http://www.w3.org/2000/svg" viewBox="0 0 64 50"><defs><style>.cls-1{fill:none;stroke:#e2915a;stroke-linecap:round;stroke-linejoin:round;stroke-width:1.5px;}</style></defs><title>charm_ico_01_parts02</title><path class="cls-1" d="M19,42.24c0-.89,1-15,1-15l7.15-6.19"/><line class="cls-1" x1="31.01" y1="34.75" x2="29.31" y2="42.24"/><path class="cls-1" d="M45.05,42.24c0-.89-1-15-1-15L36.9,21.05"/><polyline class="cls-1" points="36.91 21.09 29.25 30.45 31.01 34.76 32 34.76 32.99 34.76 34.76 30.45 27.1 21.09"/><line class="cls-1" x1="32.99" y1="34.75" x2="34.7" y2="42.24"/><line class="cls-1" x1="36.91" y1="36.66" x2="40.73" y2="36.66"/><path class="cls-1" d="M38.05,14a6.09,6.09,0,1,0-12.17-.49,4,4,0,0,0,0,.49,6.09,6.09,0,0,0,12.17.49A4,4,0,0,0,38.05,14Z"/></svg>