<?xml version="1.0" encoding="utf-8"?>
<!-- Generator: Adobe Illustrator 23.0.3, SVG Export Plug-In . SVG Version: 6.00 Build 0)  -->
<svg version="1.1" id="bg" xmlns="http://www.w3.org/2000/svg" xmlns:xlink="http://www.w3.org/1999/xlink" x="0px" y="0px"
	 viewBox="0 0 64 50" style="enable-background:new 0 0 64 50;" xml:space="preserve">
<style type="text/css">
	.st0{fill:none;stroke:#E2915A;stroke-width:1.5;stroke-linecap:round;stroke-linejoin:round;}
</style>
<title>charm_ico_01</title>
<g>
	<path class="st0" d="M19,42.2c0-0.9,1-15,1-15l7.1-6.2"/>
	<line class="st0" x1="31" y1="34.8" x2="29.3" y2="42.2"/>
	<path class="st0" d="M45,42.2c0-0.9-1-15-1-15l-7.2-6.2"/>
	<polyline class="st0" points="36.9,21.1 29.3,30.5 31,34.8 32,34.8 33,34.8 34.8,30.5 27.1,21.1 	"/>
	<line class="st0" x1="33" y1="34.8" x2="34.7" y2="42.2"/>
	<line class="st0" x1="36.9" y1="36.7" x2="40.7" y2="36.7"/>
	<path class="st0" d="M38,14c0.1-3.4-2.5-6.2-5.8-6.3c-3.4-0.1-6.2,2.5-6.3,5.8c0,0.2,0,0.3,0,0.5c-0.1,3.4,2.5,6.2,5.8,6.3
		c3.4,0.1,6.2-2.5,6.3-5.8C38.1,14.3,38.1,14.2,38,14z"/>
</g>
<g>
	<line class="st0" x1="43.9" y1="27.4" x2="48.8" y2="24.7"/>
	<line class="st0" x1="52" y1="27.8" x2="48.8" y2="24.7"/>
	<path class="st0" d="M61.3,42.3c0-0.6-1.1-14.9-1.1-14.9l-4.8-2.7"/>
	<polyline class="st0" points="55.3,24.7 52,27.8 52,36.7 	"/>
	<path class="st0" d="M56.7,17.9c-0.1-2.6-2.2-4.6-4.8-4.5c-2.6,0.1-4.6,2.2-4.5,4.8c0.1,2.5,2.1,4.5,4.6,4.5
		C54.7,22.7,56.7,20.5,56.7,17.9z"/>
	<line class="st0" x1="20.1" y1="27.4" x2="15.3" y2="24.7"/>
	<line class="st0" x1="12" y1="27.8" x2="15.3" y2="24.7"/>
	<path class="st0" d="M2.7,42.3c0-0.6,1.1-14.9,1.1-14.9l4.8-2.7"/>
	<polyline class="st0" points="8.7,24.7 12,27.8 12,36.7 	"/>
	<path class="st0" d="M7.2,17.9c0-2.6,2-4.8,4.6-4.8c2.6,0.1,4.7,2.4,4.6,5c-0.1,2.5-2.1,4.5-4.6,4.6C9.2,22.7,7.2,20.5,7.2,17.9
		C7.2,17.9,7.2,17.9,7.2,17.9z"/>
</g>
</svg>
