<svg id="bg" xmlns="http://www.w3.org/2000/svg" viewBox="0 0 64 50"><defs><style>.cls-1{fill:none;stroke:#8bb89e;stroke-width:1.5px;}</style></defs><title>charm_ico_04</title><rect class="cls-1" x="20.25" y="1.87" width="23.49" height="46.25" rx="1.47"/><line class="cls-1" x1="43.56" y1="40.56" x2="20.44" y2="40.56"/><line class="cls-1" x1="20.44" y1="8.59" x2="43.56" y2="8.59"/><line class="cls-1" x1="28.08" y1="5.16" x2="35.92" y2="5.16"/><line class="cls-1" x1="31.04" y1="44.3" x2="32.96" y2="44.3"/><path class="cls-1" d="M36.31,30.66a6.85,6.85,0,1,1,1.17-9.81"/><path class="cls-1" d="M34.33,22s-2.81-.64-4.44.89c-2,1.85-1.54,4.71.3,5.24a2.09,2.09,0,0,0,2.7-1.47C33.1,26,34.33,22,34.33,22Z"/><path class="cls-1" d="M34.14,22.68s-1.21,4.23-.37,5c2.44,2.23,8.07-3.55,2.59-7.93"/></svg>