<svg id="bg" xmlns="http://www.w3.org/2000/svg" viewBox="0 0 200 200"><defs><style>.cls-1,.cls-4,.cls-5,.cls-6{fill:#fff;}.cls-2{opacity:0.9;}.cls-3{fill:#e2915a;}.cls-4,.cls-6{stroke:#e2915a;stroke-linecap:round;stroke-linejoin:round;stroke-width:1.5px;}.cls-5,.cls-6{fill-rule:evenodd;}.cls-7{fill:#433f3f;}</style></defs><title>flow_head_01</title><circle class="cls-1" cx="100" cy="100" r="108"/><g class="cls-2"><circle class="cls-1" cx="100" cy="100" r="99.25"/><path class="cls-3" d="M100,1.5A98.5,98.5,0,1,1,1.5,100,98.62,98.62,0,0,1,100,1.5M100,0A100,100,0,1,0,200,100,100,100,0,0,0,100,0Z"/></g><path class="cls-3" d="M61.1,139.18a2.51,2.51,0,0,1-.62,1.73,3.4,3.4,0,0,1-2,.92l2.87,3.46a2.22,2.22,0,0,0,.77.62,4.35,4.35,0,0,0,1,.27v.5H60.63l-3.18-4.08a2.29,2.29,0,0,0-.32-.35,1.21,1.21,0,0,0-.31-.21,1.93,1.93,0,0,0-.38-.09l-.51,0v2.71a4.11,4.11,0,0,0,.06.78.79.79,0,0,0,.24.48,1.12,1.12,0,0,0,.55.23,7.69,7.69,0,0,0,.94.05v.5H53.13v-.5a3.56,3.56,0,0,0,.74-.07,1,1,0,0,0,.43-.22.79.79,0,0,0,.21-.45,4.76,4.76,0,0,0,.05-.74v-6.06a4.9,4.9,0,0,0,0-.73.81.81,0,0,0-.19-.44.68.68,0,0,0-.39-.22,4.71,4.71,0,0,0-.68-.09v-.49h4.08a5,5,0,0,1,2.78.66A2.12,2.12,0,0,1,61.1,139.18Zm-5.17,2.1h.92a3.17,3.17,0,0,0,1.93-.47,1.84,1.84,0,0,0,.63-1.57,2,2,0,0,0-.5-1.51,2.3,2.3,0,0,0-1.57-.45H56.15a.19.19,0,0,0-.22.22Z"/><path class="cls-3" d="M69.49,145.47a3.45,3.45,0,0,1-2.75,1.34,3.66,3.66,0,0,1-1.39-.26,3,3,0,0,1-1.07-.71,3.39,3.39,0,0,1-.7-1.1,4.09,4.09,0,0,1-.24-1.43,3.92,3.92,0,0,1,.26-1.47,3.33,3.33,0,0,1,.73-1.15,3.36,3.36,0,0,1,1.13-.76,3.77,3.77,0,0,1,1.44-.27,2.67,2.67,0,0,1,1.95.68,2.65,2.65,0,0,1,.69,2,.27.27,0,0,1-.07.22,1,1,0,0,1-.34,0H64.86a1.45,1.45,0,0,0,0,.25c0,.1,0,.21,0,.33a4.31,4.31,0,0,0,.16,1.23,2.68,2.68,0,0,0,.47.94,2.1,2.1,0,0,0,.72.61,2.14,2.14,0,0,0,1,.21,2.18,2.18,0,0,0,1-.24,3.58,3.58,0,0,0,1-.78ZM67.34,142h.42a.58.58,0,0,0,.23-.06.16.16,0,0,0,.1-.11.45.45,0,0,0,0-.18,1.27,1.27,0,0,0-.38-1,1.49,1.49,0,0,0-1-.36q-1.41,0-1.74,1.68Z"/><path class="cls-3" d="M71.27,146.68H71v-2.24h.33c.33,1.22,1,1.84,1.84,1.84A1.27,1.27,0,0,0,74,146a1,1,0,0,0,.3-.77.81.81,0,0,0-.06-.33.77.77,0,0,0-.22-.29,3.45,3.45,0,0,0-.45-.34l-.77-.5c-.3-.18-.56-.35-.77-.5a3.86,3.86,0,0,1-.55-.48,1.57,1.57,0,0,1-.44-1.15,2.12,2.12,0,0,1,.15-.81,1.86,1.86,0,0,1,.41-.63,1.82,1.82,0,0,1,.61-.41,1.92,1.92,0,0,1,.77-.15,2.81,2.81,0,0,1,.73.11,2.49,2.49,0,0,1,.66.29l.26-.27h.25v1.87h-.34a3,3,0,0,0-.63-1.13,1.1,1.1,0,0,0-.83-.34,1,1,0,0,0-.71.24.8.8,0,0,0-.26.65.89.89,0,0,0,.3.7,2.79,2.79,0,0,0,.39.32l.58.37,1,.62a4,4,0,0,1,.64.54,2,2,0,0,1,.36.55,1.67,1.67,0,0,1,.12.65,1.82,1.82,0,0,1-.6,1.45,2.29,2.29,0,0,1-1.57.53,2.67,2.67,0,0,1-1.74-.59Z"/><path class="cls-3" d="M82.84,145.47a3.44,3.44,0,0,1-2.75,1.34,3.66,3.66,0,0,1-1.39-.26,3,3,0,0,1-1.07-.71,3.21,3.21,0,0,1-.69-1.1,3.87,3.87,0,0,1-.25-1.43,4.13,4.13,0,0,1,.26-1.47,3.33,3.33,0,0,1,.73-1.15,3.36,3.36,0,0,1,1.13-.76,3.77,3.77,0,0,1,1.44-.27,2.67,2.67,0,0,1,2,.68,2.65,2.65,0,0,1,.69,2c0,.12,0,.19-.07.22a1,1,0,0,1-.33,0H78.21a1.45,1.45,0,0,0,0,.25c0,.1,0,.21,0,.33a4.31,4.31,0,0,0,.16,1.23,2.68,2.68,0,0,0,.47.94,2,2,0,0,0,.73.61,2.06,2.06,0,0,0,.94.21,2.18,2.18,0,0,0,1-.24,3.3,3.3,0,0,0,1-.78ZM80.69,142h.42a.58.58,0,0,0,.23-.06.2.2,0,0,0,.11-.11.82.82,0,0,0,0-.18,1.27,1.27,0,0,0-.38-1,1.49,1.49,0,0,0-1-.36q-1.4,0-1.74,1.68Z"/><path class="cls-3" d="M86.39,144.61c0,.36,0,.64,0,.85a1.09,1.09,0,0,0,.14.47.53.53,0,0,0,.32.22,3.39,3.39,0,0,0,.58.07v.46H84v-.46a2.73,2.73,0,0,0,.6-.07.62.62,0,0,0,.34-.21.92.92,0,0,0,.15-.45c0-.2,0-.46,0-.79v-1.52c0-.59,0-1.05,0-1.38a1.74,1.74,0,0,0-.13-.72.44.44,0,0,0-.34-.28,3.56,3.56,0,0,0-.65-.05v-.45l2.27-.5.19,1.61h0a3.16,3.16,0,0,1,.42-.71,2.86,2.86,0,0,1,.55-.55,2.49,2.49,0,0,1,.63-.36,1.65,1.65,0,0,1,.66-.13,1,1,0,0,1,.66.2.66.66,0,0,1,.24.54.63.63,0,0,1-.2.49.83.83,0,0,1-.56.17.92.92,0,0,1-.35-.05l-.25-.11-.21-.11a.38.38,0,0,0-.21,0,1,1,0,0,0-.71.45,3.3,3.3,0,0,0-.54,1.13,4.89,4.89,0,0,0-.16.86,7.74,7.74,0,0,0-.06,1Z"/><path class="cls-3" d="M91.05,141.4a4.22,4.22,0,0,0-.28-.62,1.21,1.21,0,0,0-.26-.34.67.67,0,0,0-.32-.15l-.42,0v-.45h3.44v.45l-.43,0a.77.77,0,0,0-.26.06.26.26,0,0,0-.14.13.49.49,0,0,0,0,.24,1.35,1.35,0,0,0,.06.41l.12.39,1.38,3.77h0l1.19-2.79c.18-.43.31-.78.39-1a2.72,2.72,0,0,0,.11-.69.45.45,0,0,0-.15-.4,1.41,1.41,0,0,0-.68-.11v-.45H97.4v.45a.7.7,0,0,0-.38.11,1.22,1.22,0,0,0-.3.26,1.84,1.84,0,0,0-.21.38c-.08.16-.15.33-.22.5s-.14.35-.21.51a4,4,0,0,1-.16.41L94,146.82h-.75Z"/><path class="cls-3" d="M102,142.27v-.53q0-1.59-1.35-1.59a1.92,1.92,0,0,0-.38,0,.71.71,0,0,0-.26.13.92.92,0,0,0-.19.26,2.18,2.18,0,0,0-.16.42,1.43,1.43,0,0,1-.28.5.58.58,0,0,1-.4.12.57.57,0,0,1-.65-.65,1.07,1.07,0,0,1,.67-1,4.15,4.15,0,0,1,1.88-.34,2.88,2.88,0,0,1,1.85.46,2,2,0,0,1,.54,1.57v2.91c0,1,.2,1.48.59,1.48a1,1,0,0,0,.35-.05.51.51,0,0,0,.29-.24l.18.32a1.27,1.27,0,0,1-.58.5,2,2,0,0,1-.87.2,1,1,0,0,1-.85-.37,1.67,1.67,0,0,1-.28-1h-.06a2.69,2.69,0,0,1-.94,1,2.53,2.53,0,0,1-1.32.37,1.86,1.86,0,0,1-1.29-.42,1.43,1.43,0,0,1-.47-1.12,1.73,1.73,0,0,1,.11-.6,1.5,1.5,0,0,1,.36-.54,3,3,0,0,1,.65-.52,8.93,8.93,0,0,1,1-.51Zm0,.56a12.18,12.18,0,0,0-1.26.56,4,4,0,0,0-.82.55,1.79,1.79,0,0,0-.45.54,1.25,1.25,0,0,0-.14.56.92.92,0,0,0,.29.7,1.05,1.05,0,0,0,.75.28,1.24,1.24,0,0,0,.63-.17,1.89,1.89,0,0,0,.52-.46,2.79,2.79,0,0,0,.35-.69,3,3,0,0,0,.13-.84Z"/><path class="cls-3" d="M105.22,140.61v-.48a5,5,0,0,0,1.08-.81,2.79,2.79,0,0,0,.6-1h.38V140H109v.61h-1.74v3.95a5.69,5.69,0,0,0,0,.77,1.56,1.56,0,0,0,.15.5.59.59,0,0,0,.28.26.88.88,0,0,0,.42.08,1,1,0,0,0,.56-.14,1.52,1.52,0,0,0,.45-.46l.32.25a1.33,1.33,0,0,1-.63.73,2.22,2.22,0,0,1-1.11.26,1.9,1.9,0,0,1-1.31-.41,1.52,1.52,0,0,1-.45-1.18v-4.61Z"/><path class="cls-3" d="M112.58,144.61a5.61,5.61,0,0,0,0,.81,1.17,1.17,0,0,0,.17.49.75.75,0,0,0,.37.24,3,3,0,0,0,.62.07v.46h-3.73v-.46a2.71,2.71,0,0,0,.64-.08.84.84,0,0,0,.38-.23.93.93,0,0,0,.18-.46,5,5,0,0,0,0-.75V143c0-.5,0-.92,0-1.24a3.44,3.44,0,0,0-.07-.67.57.57,0,0,0-.3-.41,2.26,2.26,0,0,0-.89-.11v-.46l2.55-.49ZM111.09,137a.74.74,0,0,1,.23-.57.78.78,0,0,1,.57-.24.82.82,0,0,1,.81.81.76.76,0,0,1-.24.57.75.75,0,0,1-.57.24.78.78,0,0,1-.57-.24A.75.75,0,0,1,111.09,137Z"/><path class="cls-3" d="M118.28,139.66a3.67,3.67,0,0,1,1.4.27,3.57,3.57,0,0,1,1.16.73,3.35,3.35,0,0,1,1.09,2.52,3.66,3.66,0,0,1-.29,1.46,3.56,3.56,0,0,1-.8,1.14,3.82,3.82,0,0,1-1.16.76,3.67,3.67,0,0,1-1.4.27,3.62,3.62,0,0,1-1.39-.27,3.58,3.58,0,0,1-1.15-.75,3.44,3.44,0,0,1-.78-1.15,3.66,3.66,0,0,1-.29-1.46,3.53,3.53,0,0,1,.29-1.42,3.48,3.48,0,0,1,1.93-1.84A3.62,3.62,0,0,1,118.28,139.66Zm0,.62a1.82,1.82,0,0,0-.88.21,2,2,0,0,0-.68.59,3.13,3.13,0,0,0-.43.92,4.46,4.46,0,0,0-.15,1.19,4.66,4.66,0,0,0,.15,1.23,3.07,3.07,0,0,0,.43.93,2.09,2.09,0,0,0,.67.59,1.86,1.86,0,0,0,.89.21,1.89,1.89,0,0,0,.89-.21,2,2,0,0,0,.69-.6,2.82,2.82,0,0,0,.44-.94,4.12,4.12,0,0,0,.16-1.21,4,4,0,0,0-.16-1.18,2.91,2.91,0,0,0-.44-.92,2.05,2.05,0,0,0-.69-.59A1.78,1.78,0,0,0,118.28,140.28Z"/><path class="cls-3" d="M125.36,144.64q0,.53,0,.84a.9.9,0,0,0,.13.46.56.56,0,0,0,.33.22,4.7,4.7,0,0,0,.59.08v.44H123v-.44a4.5,4.5,0,0,0,.58-.08.59.59,0,0,0,.33-.21.85.85,0,0,0,.15-.44,5.39,5.39,0,0,0,0-.78V143a12.83,12.83,0,0,0-.08-1.89,1.51,1.51,0,0,0-.1-.28.35.35,0,0,0-.18-.16.72.72,0,0,0-.29-.08,3.25,3.25,0,0,0-.47,0v-.42l2.08-.49.15,1.29h.06a3.37,3.37,0,0,1,1.15-.95,3.1,3.1,0,0,1,1.45-.34,3,3,0,0,1,1.09.19,1.66,1.66,0,0,1,.75.54,1.81,1.81,0,0,1,.31.77,7.41,7.41,0,0,1,.09,1.31v2.17c0,.35,0,.63,0,.84a1,1,0,0,0,.13.46.53.53,0,0,0,.32.22,4.87,4.87,0,0,0,.57.08v.44h-3.37v-.44a2.6,2.6,0,0,0,.58-.08.52.52,0,0,0,.32-.21.85.85,0,0,0,.15-.45c0-.19,0-.45,0-.77V143a8.74,8.74,0,0,0-.08-1.25,2.28,2.28,0,0,0-.25-.81,1,1,0,0,0-.46-.45,1.6,1.6,0,0,0-.69-.14,1.91,1.91,0,0,0-1.07.31,2.13,2.13,0,0,0-.77.83c0,.09-.08.17-.11.25a1.76,1.76,0,0,0-.07.27c0,.11,0,.23,0,.36s0,.31,0,.52Z"/><path class="cls-3" d="M142.22,144c.21-.26.4-.51.58-.76s.33-.48.46-.7a3.79,3.79,0,0,0,.3-.61,1.23,1.23,0,0,0,.1-.44.31.31,0,0,0-.18-.3,1.53,1.53,0,0,0-.61-.09v-.45h3v.45a3.48,3.48,0,0,0-.49,0,1.42,1.42,0,0,0-.65.32,1.6,1.6,0,0,0-.26.34l-1.85,2.71a4.61,4.61,0,0,0,1.14,1.12,2.11,2.11,0,0,0,1.17.38,1.26,1.26,0,0,0,.3,0,.55.55,0,0,0,.24-.12.74.74,0,0,0,.21-.22,2.47,2.47,0,0,0,.2-.37l.33.09a1.82,1.82,0,0,1-.64,1.12,2.07,2.07,0,0,1-1.28.38,3,3,0,0,1-.62-.07,2.44,2.44,0,0,1-.59-.24,4.45,4.45,0,0,1-.64-.45,8.3,8.3,0,0,1-.74-.67,4.85,4.85,0,0,1-1.5,1.05,4.3,4.3,0,0,1-1.74.38,3.25,3.25,0,0,1-1.1-.18,2.49,2.49,0,0,1-.86-.48,1.93,1.93,0,0,1-.57-.73,2,2,0,0,1-.21-.91,2.31,2.31,0,0,1,.7-1.63,8,8,0,0,1,2.25-1.51,4.92,4.92,0,0,1-.61-1.14,3.46,3.46,0,0,1-.18-1.12,3.11,3.11,0,0,1,.16-1,2.43,2.43,0,0,1,.46-.82,2.14,2.14,0,0,1,.71-.52,2.18,2.18,0,0,1,.93-.19,2.38,2.38,0,0,1,.81.14,2,2,0,0,1,.64.4,1.77,1.77,0,0,1,.43.62,1.94,1.94,0,0,1,.15.78,2.21,2.21,0,0,1-.48,1.36,6.53,6.53,0,0,1-1.56,1.38ZM139,142a3.83,3.83,0,0,0-1.27,1.09,2.2,2.2,0,0,0-.46,1.31,1.59,1.59,0,0,0,.46,1.18,1.61,1.61,0,0,0,1.19.46,2.91,2.91,0,0,0,1.17-.27,4.83,4.83,0,0,0,1.19-.77Zm.74-1.23a3.29,3.29,0,0,0,.91-1,2.13,2.13,0,0,0,.29-1.08,1.51,1.51,0,0,0-.28-1,.86.86,0,0,0-.72-.36c-.58,0-.86.44-.86,1.31a3.57,3.57,0,0,0,.66,2.08Z"/><path class="cls-3" d="M66.7,157.18a2.51,2.51,0,0,1-.62,1.73,3.4,3.4,0,0,1-2,.92L67,163.29a2.25,2.25,0,0,0,.78.62,4.13,4.13,0,0,0,1,.27v.5h-2.5l-3.19-4.08a1.87,1.87,0,0,0-.32-.35,1.21,1.21,0,0,0-.31-.21A1.77,1.77,0,0,0,62,160l-.51,0v2.71a4.11,4.11,0,0,0,.06.78.84.84,0,0,0,.24.48,1.12,1.12,0,0,0,.55.23,7.69,7.69,0,0,0,.94.05v.5H58.73v-.5a3.56,3.56,0,0,0,.74-.07.92.92,0,0,0,.43-.22.79.79,0,0,0,.21-.45,3.78,3.78,0,0,0,0-.74v-6.06a4.9,4.9,0,0,0,0-.73.89.89,0,0,0-.18-.44.71.71,0,0,0-.4-.22,4.52,4.52,0,0,0-.68-.09v-.49H63a4.93,4.93,0,0,1,2.77.66A2.1,2.1,0,0,1,66.7,157.18Zm-5.17,2.1h.92a3.17,3.17,0,0,0,1.93-.47,1.84,1.84,0,0,0,.63-1.57,2,2,0,0,0-.5-1.51,2.27,2.27,0,0,0-1.56-.45h-1.2a.19.19,0,0,0-.22.22Z"/><path class="cls-3" d="M75.09,163.47a3.43,3.43,0,0,1-2.74,1.34,3.68,3.68,0,0,1-1.4-.26,3,3,0,0,1-1.07-.71,3.21,3.21,0,0,1-.69-1.1,3.87,3.87,0,0,1-.25-1.43,4.13,4.13,0,0,1,.26-1.47,3.3,3.3,0,0,1,1.87-1.91,3.68,3.68,0,0,1,1.43-.27,2.67,2.67,0,0,1,2,.68,2.65,2.65,0,0,1,.69,2c0,.12,0,.19-.07.22a1,1,0,0,1-.33,0H70.46a1.45,1.45,0,0,0,0,.25c0,.1,0,.21,0,.33a4.31,4.31,0,0,0,.16,1.23,2.86,2.86,0,0,0,.47.94,2.13,2.13,0,0,0,.73.61,2.06,2.06,0,0,0,.94.21,2.18,2.18,0,0,0,1-.24,3.46,3.46,0,0,0,1-.78ZM72.94,160h.42a.58.58,0,0,0,.23-.06.17.17,0,0,0,.11-.11.82.82,0,0,0,0-.18,1.24,1.24,0,0,0-.38-1,1.47,1.47,0,0,0-1-.36q-1.4,0-1.74,1.68Z"/><path class="cls-3" d="M82.33,163.6a3.06,3.06,0,0,1-1.21.89,4,4,0,0,1-1.6.32,3.13,3.13,0,0,1-1.27-.26,2.78,2.78,0,0,1-1-.71,3.2,3.2,0,0,1-.64-1.11,4.14,4.14,0,0,1-.23-1.44,4.23,4.23,0,0,1,.26-1.51,3.38,3.38,0,0,1,.73-1.14,3.19,3.19,0,0,1,1.15-.73,4.09,4.09,0,0,1,1.47-.25,5.28,5.28,0,0,1,.93.08,3.38,3.38,0,0,1,.72.24,1.36,1.36,0,0,1,.47.36.75.75,0,0,1,.17.46.52.52,0,0,1-.17.41.73.73,0,0,1-.47.14.71.71,0,0,1-.39-.1,1.92,1.92,0,0,1-.4-.43,1.88,1.88,0,0,0-.5-.43,1.4,1.4,0,0,0-.62-.12,1.57,1.57,0,0,0-1.39.71,3.81,3.81,0,0,0-.48,2.11,4,4,0,0,0,.53,2.27,1.75,1.75,0,0,0,1.54.77,2.52,2.52,0,0,0,1-.21,3.31,3.31,0,0,0,1-.7Z"/><path class="cls-3" d="M89.51,163.47a3.45,3.45,0,0,1-2.75,1.34,3.66,3.66,0,0,1-1.39-.26,3,3,0,0,1-1.07-.71,3.39,3.39,0,0,1-.7-1.1,4.09,4.09,0,0,1-.24-1.43,3.92,3.92,0,0,1,.26-1.47,3.33,3.33,0,0,1,.73-1.15,3.26,3.26,0,0,1,1.13-.76,3.77,3.77,0,0,1,1.44-.27,2.67,2.67,0,0,1,2,.68,2.65,2.65,0,0,1,.69,2,.27.27,0,0,1-.07.22,1,1,0,0,1-.34,0H84.88a1.45,1.45,0,0,0,0,.25c0,.1,0,.21,0,.33a4.31,4.31,0,0,0,.16,1.23,2.68,2.68,0,0,0,.47.94,2.1,2.1,0,0,0,.72.61,2.14,2.14,0,0,0,.95.21,2.18,2.18,0,0,0,1-.24,3.58,3.58,0,0,0,1-.78ZM87.36,160h.42a.58.58,0,0,0,.23-.06.16.16,0,0,0,.1-.11.45.45,0,0,0,0-.18,1.27,1.27,0,0,0-.38-1,1.49,1.49,0,0,0-1.05-.36q-1.41,0-1.74,1.68Z"/><path class="cls-3" d="M92.9,158.72h0a4.06,4.06,0,0,1,.9-.78,2.14,2.14,0,0,1,1.12-.28,3.32,3.32,0,0,1,1.35.27,3.11,3.11,0,0,1,1.08.74,3.49,3.49,0,0,1,.71,1.14,4.19,4.19,0,0,1,.25,1.44,4,4,0,0,1-.26,1.45,3.27,3.27,0,0,1-.72,1.12,3.13,3.13,0,0,1-1.08.73,3.49,3.49,0,0,1-1.35.26,2.85,2.85,0,0,1-1.08-.2A2.81,2.81,0,0,1,93,164v1.9a5.92,5.92,0,0,0,0,.83,1,1,0,0,0,.21.48.92.92,0,0,0,.45.24,4.72,4.72,0,0,0,.77.07v.46h-4v-.46a3.24,3.24,0,0,0,.63-.07.78.78,0,0,0,.38-.24.93.93,0,0,0,.18-.46,4,4,0,0,0,.06-.76v-4.86c0-.51,0-.92,0-1.24a4.5,4.5,0,0,0-.07-.66.57.57,0,0,0-.3-.42,2.26,2.26,0,0,0-.89-.11v-.45l2.5-.49Zm.39.38a1.92,1.92,0,0,0-.25.62,3.94,3.94,0,0,0-.09.93v1c0,.24,0,.44,0,.61a2.34,2.34,0,0,0,.06.43,1.59,1.59,0,0,0,.1.33,2,2,0,0,0,.17.27,2.09,2.09,0,0,0,.72.64,1.67,1.67,0,0,0,.87.23,1.72,1.72,0,0,0,1.45-.75,3.54,3.54,0,0,0,.55-2.12,4.71,4.71,0,0,0-.15-1.23,3.18,3.18,0,0,0-.42-.95,2.05,2.05,0,0,0-.66-.62,1.73,1.73,0,0,0-.85-.22,1.69,1.69,0,0,0-.86.22A1.73,1.73,0,0,0,93.29,159.1Z"/><path class="cls-3" d="M99.52,158.61v-.48a5,5,0,0,0,1.07-.81,2.65,2.65,0,0,0,.6-1h.38V158h1.74v.61h-1.74v3.95a4.32,4.32,0,0,0,.05.77,1.88,1.88,0,0,0,.14.5.63.63,0,0,0,.28.26.89.89,0,0,0,.43.08A1,1,0,0,0,103,164a1.52,1.52,0,0,0,.45-.46l.32.25a1.33,1.33,0,0,1-.63.73,2.22,2.22,0,0,1-1.11.26,1.9,1.9,0,0,1-1.31-.41,1.55,1.55,0,0,1-.44-1.18v-4.61Z"/><path class="cls-3" d="M106.87,162.61a5.61,5.61,0,0,0,0,.81,1.17,1.17,0,0,0,.17.49.75.75,0,0,0,.37.24,3.13,3.13,0,0,0,.62.07v.46h-3.73v-.46a2.71,2.71,0,0,0,.64-.08.84.84,0,0,0,.38-.23.93.93,0,0,0,.18-.46,5,5,0,0,0,0-.75V161c0-.5,0-.92,0-1.24a3.44,3.44,0,0,0-.07-.67.53.53,0,0,0-.3-.41,2.24,2.24,0,0,0-.88-.11v-.46l2.54-.49ZM105.38,155a.78.78,0,0,1,.23-.57.81.81,0,0,1,1.15,0,.78.78,0,0,1,.23.57.79.79,0,0,1-.23.57.81.81,0,0,1-1.15,0A.79.79,0,0,1,105.38,155Z"/><path class="cls-3" d="M112.57,157.66a3.67,3.67,0,0,1,1.4.27,3.72,3.72,0,0,1,1.17.73,3.56,3.56,0,0,1,.79,1.11,3.45,3.45,0,0,1,.29,1.41,3.53,3.53,0,0,1-1.08,2.6,4,4,0,0,1-1.17.76,3.67,3.67,0,0,1-1.4.27,3.62,3.62,0,0,1-1.39-.27,3.58,3.58,0,0,1-1.15-.75,3.44,3.44,0,0,1-.78-1.15,3.65,3.65,0,0,1-.28-1.46,3.53,3.53,0,0,1,.28-1.42,3.48,3.48,0,0,1,1.93-1.84A3.62,3.62,0,0,1,112.57,157.66Zm0,.62a1.84,1.84,0,0,0-.88.21,2.12,2.12,0,0,0-.68.59,3.13,3.13,0,0,0-.43.92,4.92,4.92,0,0,0-.14,1.19,5.14,5.14,0,0,0,.14,1.23,3.07,3.07,0,0,0,.43.93,2.09,2.09,0,0,0,.67.59,2,2,0,0,0,1.78,0,2,2,0,0,0,.69-.6,3,3,0,0,0,.45-.94,4.5,4.5,0,0,0,.15-1.21,4.38,4.38,0,0,0-.15-1.18,3.16,3.16,0,0,0-.45-.92,2.05,2.05,0,0,0-.69-.59A1.75,1.75,0,0,0,112.57,158.28Z"/><path class="cls-3" d="M119.65,162.64q0,.53,0,.84a.89.89,0,0,0,.14.46.53.53,0,0,0,.32.22,4.7,4.7,0,0,0,.59.08v.44h-3.4v-.44a4.57,4.57,0,0,0,.57-.08.62.62,0,0,0,.34-.21,1,1,0,0,0,.14-.44,5.39,5.39,0,0,0,0-.78V161a12.83,12.83,0,0,0-.08-1.89,1.51,1.51,0,0,0-.1-.28.37.37,0,0,0-.17-.16.82.82,0,0,0-.3-.08,3.18,3.18,0,0,0-.47,0v-.42l2.08-.49.16,1.29h0a3.46,3.46,0,0,1,1.15-.95,3.13,3.13,0,0,1,1.45-.34,2.94,2.94,0,0,1,1.09.19,1.66,1.66,0,0,1,.75.54,1.81,1.81,0,0,1,.32.77,7.41,7.41,0,0,1,.09,1.31v2.17q0,.53,0,.84a1,1,0,0,0,.14.46.48.48,0,0,0,.31.22,5.2,5.2,0,0,0,.57.08v.44h-3.37v-.44a2.52,2.52,0,0,0,.58-.08A.58.58,0,0,0,123,164a1,1,0,0,0,.14-.45c0-.19,0-.45,0-.77V161a7.49,7.49,0,0,0-.08-1.25,2.28,2.28,0,0,0-.25-.81,1,1,0,0,0-.46-.45,1.6,1.6,0,0,0-.69-.14,1.91,1.91,0,0,0-1.07.31,2,2,0,0,0-.76.83,2.19,2.19,0,0,0-.19.52c0,.11,0,.23,0,.36s0,.31,0,.52Z"/><path class="cls-3" d="M128.77,162.61a5.86,5.86,0,0,0,0,.81,1,1,0,0,0,.18.49.68.68,0,0,0,.36.24,3.13,3.13,0,0,0,.62.07v.46h-3.73v-.46a2.64,2.64,0,0,0,.64-.08.75.75,0,0,0,.57-.69,5.2,5.2,0,0,0,0-.75V161c0-.5,0-.92,0-1.24a2.79,2.79,0,0,0-.07-.67.53.53,0,0,0-.3-.41,2.2,2.2,0,0,0-.88-.11v-.46l2.55-.49Zm-1.5-7.59a.78.78,0,0,1,.23-.57.81.81,0,0,1,1.15,0,.78.78,0,0,1,.23.57.79.79,0,0,1-.23.57.81.81,0,0,1-1.15,0A.79.79,0,0,1,127.27,155Z"/><path class="cls-3" d="M131.35,164.68h-.28v-2.24h.32c.34,1.22,1,1.84,1.85,1.84a1.24,1.24,0,0,0,.82-.26.92.92,0,0,0,.31-.77.81.81,0,0,0-.06-.33.89.89,0,0,0-.22-.29,3.67,3.67,0,0,0-.46-.34l-.77-.5-.77-.5a3.74,3.74,0,0,1-.54-.48,1.57,1.57,0,0,1-.44-1.15,2.33,2.33,0,0,1,.14-.81,1.92,1.92,0,0,1,1.79-1.19,2.69,2.69,0,0,1,.73.11,2.49,2.49,0,0,1,.66.29l.26-.27h.25v1.87h-.34a3.12,3.12,0,0,0-.62-1.13,1.12,1.12,0,0,0-.83-.34,1,1,0,0,0-.71.24.8.8,0,0,0-.27.65,1.12,1.12,0,0,0,.07.38,1.28,1.28,0,0,0,.23.32,2.94,2.94,0,0,0,.4.32l.58.37c.37.23.69.44,1,.62a3.62,3.62,0,0,1,.64.54,1.84,1.84,0,0,1,.37.55,1.67,1.67,0,0,1,.12.65,1.82,1.82,0,0,1-.6,1.45,2.32,2.32,0,0,1-1.58.53,2.71,2.71,0,0,1-1.74-.59Z"/><path class="cls-3" d="M136.66,158.61v-.48a5,5,0,0,0,1.08-.81,2.62,2.62,0,0,0,.59-1h.38V158h1.74v.61h-1.74v3.95a5.51,5.51,0,0,0,0,.77,1.56,1.56,0,0,0,.15.5.57.57,0,0,0,.27.26.89.89,0,0,0,.43.08,1,1,0,0,0,.55-.14,1.52,1.52,0,0,0,.45-.46l.32.25a1.33,1.33,0,0,1-.63.73,2.22,2.22,0,0,1-1.11.26,1.9,1.9,0,0,1-1.31-.41,1.55,1.55,0,0,1-.44-1.18v-4.61Z"/><path class="cls-4" d="M95.3,65V80.42a1.41,1.41,0,0,1-1.4,1.41H74.21a1.41,1.41,0,0,1-1.4-1.41V38.94a1.4,1.4,0,0,1,1.4-1.4H93.9a1.4,1.4,0,0,1,1.4,1.4V52.59"/><line class="cls-4" x1="95.13" y1="74.58" x2="72.98" y2="74.58"/><line class="cls-4" x1="72.98" y1="43.97" x2="95.13" y2="43.97"/><line class="cls-4" x1="80.3" y1="40.68" x2="87.81" y2="40.68"/><line class="cls-4" x1="83.14" y1="78.16" x2="84.97" y2="78.16"/><path class="cls-4" d="M88.18,65.1a6.57,6.57,0,1,1,1.12-9.39"/><path class="cls-4" d="M86.29,56.8s-2.69-.61-4.26.85c-1.87,1.77-1.47,4.51.29,5a2,2,0,0,0,2.59-1.41C85.11,60.68,86.29,56.8,86.29,56.8Z"/><path class="cls-4" d="M86.1,57.46s-1.15,4-.35,4.78c2.34,2.13,7.73-3.4,2.48-7.59"/><path class="cls-5" d="M126.43,76.07c0-2.67,0-5.85-.07-6.53a.51.51,0,0,0-.13-.29L117.5,59a2.6,2.6,0,0,0-3.63-.29,2.79,2.79,0,0,0-.37.4c-.16.21-.65,1-.48,1.21l-.3-.36a2.67,2.67,0,0,0-3.84-.52,2.43,2.43,0,0,0-.52.59c-.13.21-.47,1.12-.31,1.31l-.46-.54a2.58,2.58,0,0,0-3.63-.29,2.47,2.47,0,0,0-.5.57,2.57,2.57,0,0,0-.19,1.48l-5.2-6.11a2.58,2.58,0,0,0-3.93,3.33l12.54,14.76-.47-.07a17.15,17.15,0,0,0-5.88.24,3.46,3.46,0,0,0-1.48.66,1.57,1.57,0,0,0-.24,2.1.61.61,0,0,0,.31.26l18.33,6.07c.19.06,3,3.1,3,3.1l9-7.42C129.31,79.34,126.42,76.23,126.43,76.07Z"/><path class="cls-6" d="M113,60.29c-.17-.21.32-1,.48-1.21a2.79,2.79,0,0,1,.37-.4,2.6,2.6,0,0,1,3.63.29l8.73,10.28a.51.51,0,0,1,.13.29c.1.68.1,3.86.07,6.53,0,.16,2.88,3.27,2.76,3.38"/><path class="cls-6" d="M108.05,61.31c-.16-.19.18-1.1.31-1.31a2.43,2.43,0,0,1,.52-.59,2.67,2.67,0,0,1,3.84.52l2.74,3.21"/><path class="cls-6" d="M103.27,62.53a2.57,2.57,0,0,1,.19-1.48,2.47,2.47,0,0,1,.5-.57,2.58,2.58,0,0,1,3.63.29l4.26,5"/><path class="cls-6" d="M120.21,86.87s-2.77-3-3-3.1L98.92,77.7a.61.61,0,0,1-.31-.26,1.57,1.57,0,0,1,.24-2.1,3.46,3.46,0,0,1,1.48-.66,17.15,17.15,0,0,1,5.88-.24l.47.07L94.14,59.75a2.58,2.58,0,0,1,3.93-3.33l5.86,6.89h0a.6.6,0,0,1,.08.08l4.46,5.25"/><path class="cls-7" d="M68.65,105.48c.34-.39.47-.52.87-.92.68.51.88.65,1.49,1.16.22.16.29.23.29.32s-.16.22-.38.22h-.07a4,4,0,0,0-.61,0c-1.21.88-3.14,2.14-4,2.63a1.29,1.29,0,0,1,.54,1,1.51,1.51,0,0,1-.34,1h4.27a11.25,11.25,0,0,1,.81-.87c.79.56,1,.74,1.69,1.3a.45.45,0,0,1,.2.25.2.2,0,0,0,0,.06.5.5,0,0,1-.13.19,1,1,0,0,1-.45.11h-.36a2.55,2.55,0,0,1-.4,0,21.57,21.57,0,0,1-4.28,2.68l-.18-.21a16,16,0,0,0,3.08-3.12H66v3.1c0,.68,0,2.14,0,4.41a1.36,1.36,0,0,1-.65,1.31,4.37,4.37,0,0,1-1.49.49,1.31,1.31,0,0,0-1-1.12A16.51,16.51,0,0,0,60.3,119l0-.28c2.34.14,2.46.14,4,.18.31,0,.4-.08.4-.33v-7.31H59c-.78,0-1.39,0-2,.09l-.14-.68a9.76,9.76,0,0,0,2.18.18h7c-.08-.09-.36-.47-.85-1.14a15.71,15.71,0,0,0-3-2.82l.18-.24a18.94,18.94,0,0,1,3.49,1.93,22.74,22.74,0,0,0,2.72-2.68H60.89A18,18,0,0,0,59,106l-.16-.65a10,10,0,0,0,2,.16Z"/><path class="cls-7" d="M76.81,119.94a18,18,0,0,0,1.2-5.76c1.61.39,1.66.41,1.66.57s-.16.26-.56.35a21.11,21.11,0,0,1-2,5Zm.34-12.87a8.13,8.13,0,0,1,1.48.77,12.88,12.88,0,0,0,1.47-3.6l1,.34c.85.27,1,.34,1,.51s-.13.19-.88.27a17.12,17.12,0,0,1-1.75,2.08l-.54.62a5,5,0,0,1,.7.54,1.19,1.19,0,0,1,.31.64,2,2,0,0,1-.25.83.37.37,0,0,1-.29.2c-.13,0-.2-.09-.34-.4-.08-.14-.45-.79-.63-1.06A7.27,7.27,0,0,0,77,107.26Zm3,5.6c-.63.12-.76.16-2.11.36,0,.46-.18.68-.32.68s-.27-.2-.58-1.73h.51L79,112a15.66,15.66,0,0,0,1.51-2.22,17,17,0,0,0,1.69-3.35c.36.13.74.25.92.33.72.25.9.36.9.48s-.22.27-.81.29a34.65,34.65,0,0,1-3.69,4.43c.75,0,1.28-.07,3.13-.27a6.93,6.93,0,0,0-.81-1.4l.2-.19a12.44,12.44,0,0,1,1.67,1.66,1.45,1.45,0,0,1,.44.88c0,.47-.35,1-.65,1s-.24-.11-.38-.67c-.07-.23-.15-.45-.31-.86l-1.58.37v3.77l0,4.21v.11c0,.18-.27.27-.88.27-.18,0-.25-.06-.27-.2,0-2.52,0-2.83,0-4.39Zm2,1.26c1.27,1.56,1.89,2.64,1.89,3.29s-.42,1.37-.78,1.37a.24.24,0,0,1-.25-.18,4.51,4.51,0,0,1-.14-1,13.25,13.25,0,0,0-1-3.39Zm9.18-6a7.25,7.25,0,0,1,.86-.81,10.21,10.21,0,0,1,1,.81c.15.12.2.21.2.29s-.18.28-.57.45a58.17,58.17,0,0,1-.42,6.86,19.51,19.51,0,0,1-.77,3.54c-.38,1-1.07,1.43-2.58,1.53-.11-.59-.25-.81-.72-1a11.31,11.31,0,0,0-2.23-.56l0-.27c2.1.2,3,.27,3.64.27.37,0,.5-.09.7-.52.59-1.3,1-5.15,1-9.4v-.76H86.08a16.68,16.68,0,0,1-2,3.06l-.21-.16a18.92,18.92,0,0,0,1.78-4.41,16.53,16.53,0,0,0,.56-2.61c1.69.43,2,.54,2,.72s-.2.23-.72.31c-.56,1.36-.78,1.85-1.17,2.68Zm-5.49,2.74a16,16,0,0,1,2.34,2.08c.57.65.74.94.74,1.37,0,.6-.4,1.35-.72,1.35-.13,0-.22-.12-.31-.39a13.77,13.77,0,0,0-2.25-4.2Z"/><path class="cls-7" d="M102.14,112.56a1.65,1.65,0,1,1-1.64-1.64A1.64,1.64,0,0,1,102.14,112.56Z"/><path class="cls-7" d="M118.26,109.46a12.81,12.81,0,0,0,1.62-3.37c1.88.6,1.88.6,1.88.76s-.18.23-.81.31a13.42,13.42,0,0,1-2.18,2.3h2.77l.85-.94c.63.51.83.65,1.49,1.21a.44.44,0,0,1,.18.27.14.14,0,0,1-.07.09c-.09.09-.09.09-1.12.2l-.41.43a10,10,0,0,1-1.44,1.41l-.2-.11a16.09,16.09,0,0,0,.83-2.15H109.71a4.68,4.68,0,0,1-.66,2.17c-.27.41-.58.7-.76.7s-.25-.13-.36-.38a2.08,2.08,0,0,1-.22-.76c0-.21.06-.3.31-.48a4.87,4.87,0,0,0,1.08-1.32,3.43,3.43,0,0,0,.34-1.62h.29a6.48,6.48,0,0,1,0,.79,4.63,4.63,0,0,1,0,.49h2.5a.67.67,0,0,1-.2-.38,13.19,13.19,0,0,0-.57-1.55,1.75,1.75,0,0,0-.36-.59c-.74,0-1.16,0-2.38.09l0-.32a60.87,60.87,0,0,0,8.39-1.34,17.78,17.78,0,0,0,3.89-1.29c1.59,1,1.59,1,1.59,1.2s-.13.18-.25.18h-.26l-.57-.08a32.66,32.66,0,0,1-6.52,1.26c.27.2,1.08.87,1.39,1.17s.43.49.43.65a2.39,2.39,0,0,1-.2.7,1.12,1.12,0,0,1-.23.31Zm5.59,9.44a1.82,1.82,0,0,0-1.46,1.33A15.87,15.87,0,0,1,119,119a19.54,19.54,0,0,1-3.08-1.74,19.86,19.86,0,0,1-8.09,3.25l-.09-.25a23,23,0,0,0,7.33-3.71,9.72,9.72,0,0,1-2.81-4h-.61a13.34,13.34,0,0,0-1.49.09L110,112a9.12,9.12,0,0,0,1.6.12h7.15c.27-.34.36-.45.66-.79.64.47.83.61,1.48,1.15a1.19,1.19,0,0,1,.15.26l-.09.12c-.11.09-.2.11-1,.27a17.29,17.29,0,0,1-3.28,3.55,19.46,19.46,0,0,0,7.21,2Zm-7.94-9.44a.68.68,0,0,1-.24-.43,11.17,11.17,0,0,0-1.08-2.34c-1.22.11-2,.18-3,.23.3.24,1,.79,1.15,1a1,1,0,0,1,.36.63,1.71,1.71,0,0,1-.38.94Zm-3.19,3.1a5,5,0,0,0,1.06,1.76,11.82,11.82,0,0,0,1.89,1.77,14,14,0,0,0,3-3.53Z"/><path class="cls-7" d="M126.74,113.76a27,27,0,0,0,3-5.52,16.29,16.29,0,0,0,1.24-3.93c.72.18,1.7.45,2,.56.1,0,.16.11.16.18s-.18.29-.88.4a23.51,23.51,0,0,1-2.43,4.79c1.29.19,1.53.25,1.53.41s-.08.18-.6.38v4.88c0,2.39,0,2.39,0,4.43,0,.23-.18.32-.69.36h-.34c-.2,0-.3-.09-.3-.23v0c.05-2,.07-3.15.07-4.44v-5.31a16.56,16.56,0,0,1-2.54,3.24Zm6-3.94c-.34,0-.67,0-1.44.09l-.13-.63a13.88,13.88,0,0,0,1.57.13h5.92v-3a12.35,12.35,0,0,0-.11-1.92c1.61.18,2.13.3,2.13.52s-.24.29-.78.47v4h.53a14.69,14.69,0,0,1,1-1.34c.72.6.94.78,1.61,1.43a.27.27,0,0,1,.08.16c0,.09-.1.16-.21.16h-3V115c0,1.17,0,2.94.06,4a1.18,1.18,0,0,1-.49,1,4.4,4.4,0,0,1-1.91.58c-.19-.89-.32-.94-3.18-1.5v-.25c.54,0,1,0,1.3.07,1.51.07,1.64.09,2.56.11.3,0,.41-.11.41-.36v-8.86Zm.23,1.73a13.73,13.73,0,0,1,2.58,2c.65.63.81.88.81,1.28s-.45,1.22-.72,1.22-.33-.14-.45-.48a11.18,11.18,0,0,0-2.38-3.82Z"/></svg>