<svg id="bg" xmlns="http://www.w3.org/2000/svg" viewBox="0 0 86 126"><defs><style>.cls-1{fill:#74c7d1;}</style></defs><title>about_deco_02</title><path class="cls-1" d="M29.16,6a1,1,0,0,1-1,1,1,1,0,0,1-1-1l0-4a1,1,0,1,1,2,0Z"/><path class="cls-1" d="M29.21,16a1,1,0,0,1-2,0l0-4a1,1,0,1,1,2,0Z"/><path class="cls-1" d="M31.18,9.94a1,1,0,0,1-1-1,1,1,0,0,1,1-1l4,0a1,1,0,0,1,0,2Z"/><path class="cls-1" d="M21.18,10a1,1,0,0,1,0-2l4,0a1,1,0,1,1,0,2Z"/><path class="cls-1" d="M73.13,34a1,1,0,0,1-1,1,1,1,0,0,1-1-1l0-4a1,1,0,0,1,1-1,1,1,0,0,1,1,1Z"/><path class="cls-1" d="M73.18,44a1,1,0,0,1-1,1,1,1,0,0,1-1-1l0-4a1,1,0,0,1,1-1,1,1,0,0,1,1,1Z"/><path class="cls-1" d="M75.15,37.94a1,1,0,0,1,0-2l4,0a1,1,0,1,1,0,2Z"/><path class="cls-1" d="M65.15,38a1,1,0,0,1,0-2l4,0a1,1,0,1,1,0,2Z"/><path class="cls-1" d="M44.33,65.21a1,1,0,0,1-1,1,1,1,0,0,1-1-1l0-4a1,1,0,0,1,1-1,1,1,0,0,1,1,1Z"/><path class="cls-1" d="M44.38,75.21a1,1,0,0,1-1,1,1,1,0,0,1-1-1l0-4a1,1,0,1,1,2,0Z"/><path class="cls-1" d="M46.35,69.2a1,1,0,0,1-1-1,1,1,0,0,1,1-1l4,0a1,1,0,0,1,1,1,1,1,0,0,1-1,1Z"/><path class="cls-1" d="M36.35,69.25a1,1,0,0,1-1-1,1,1,0,0,1,1-1l4,0a1,1,0,0,1,1,1,1,1,0,0,1-1,1Z"/><path class="cls-1" d="M78.13,109a1,1,0,0,1-1,1,1,1,0,0,1-1-1l0-4a1,1,0,0,1,1-1,1,1,0,0,1,1,1Z"/><path class="cls-1" d="M78.18,119a1,1,0,0,1-1,1,1,1,0,0,1-1-1l0-4a1,1,0,0,1,1-1,1,1,0,0,1,1,1Z"/><path class="cls-1" d="M80.15,113a1,1,0,0,1,0-2l4,0a1,1,0,1,1,0,2Z"/><path class="cls-1" d="M70.15,113.08a1,1,0,0,1,0-2l4,0a1,1,0,1,1,0,2Z"/><path class="cls-1" d="M9.84,34.07a1,1,0,0,1-1,1,1,1,0,0,1-1-1l0-4a1,1,0,0,1,1-1,1,1,0,0,1,1,1Z"/><path class="cls-1" d="M9.89,44.07a1,1,0,0,1-1,1,1,1,0,0,1-1-1l0-4a1,1,0,0,1,1-1,1,1,0,0,1,1,1Z"/><path class="cls-1" d="M11.86,38.06a1,1,0,1,1,0-2l4,0a1,1,0,0,1,0,2Z"/><path class="cls-1" d="M1.86,38.11a1,1,0,1,1,0-2l4,0a1,1,0,0,1,0,2Z"/><path class="cls-1" d="M44.41,114a1,1,0,0,1-1,1,1,1,0,0,1-1-1l0-4a1,1,0,0,1,1-1,1,1,0,0,1,1,1Z"/><path class="cls-1" d="M44.46,124a1,1,0,0,1-1,1,1,1,0,0,1-1-1l0-4a1,1,0,0,1,1-1,1,1,0,0,1,1,1Z"/><path class="cls-1" d="M46.43,118a1,1,0,1,1,0-2l4,0a1,1,0,0,1,0,2Z"/><path class="cls-1" d="M36.43,118.08a1,1,0,1,1,0-2l4,0a1,1,0,0,1,0,2Z"/></svg>