<?xml version="1.0" encoding="utf-8"?>
<!-- Generator: Adobe Illustrator 23.0.3, SVG Export Plug-In . SVG Version: 6.00 Build 0)  -->
<svg version="1.1" id="bg" xmlns="http://www.w3.org/2000/svg" xmlns:xlink="http://www.w3.org/1999/xlink" x="0px" y="0px"
	 viewBox="0 0 60 84" style="enable-background:new 0 0 60 84;" xml:space="preserve">
<style type="text/css">
	.st0{fill:#B35D9B;}
</style>
<title>about_deco_01</title>
<g>
	<path class="st0" d="M50.3,78.2c0-0.6,0.4-1,1-1s1,0.4,1,1v4c0,0.6-0.4,1-1,1s-1-0.4-1-1V78.2z"/>
	<path class="st0" d="M50.3,68.2c0-0.6,0.4-1,1-1s1,0.4,1,1v4c0,0.6-0.4,1-1,1s-1-0.4-1-1V68.2z"/>
	<path class="st0" d="M48.3,74.2c0.6,0,1,0.4,1,1s-0.4,1-1,1h-4c-0.6,0-1-0.4-1-1s0.4-1,1-1H48.3z"/>
	<path class="st0" d="M58.3,74.1c0.6,0,1,0.4,1,1s-0.4,1-1,1h-4c-0.6,0-1-0.4-1-1s0.4-1,1-1H58.3z"/>
</g>
<g>
	<path class="st0" d="M49.3,11.9c0-0.6,0.4-1,1-1s1,0.4,1,1v4c0,0.6-0.4,1-1,1l0,0c-0.6,0-1-0.4-1-1V11.9z"/>
	<path class="st0" d="M49.3,1.9c0-0.6,0.4-1,1-1s1,0.4,1,1v4c0,0.6-0.4,1-1,1s-1-0.4-1-1V1.9z"/>
	<path class="st0" d="M47.3,7.9c0.6,0,1,0.4,1,1s-0.4,1-1,1h-4c-0.6,0-1-0.4-1-1s0.4-1,1-1H47.3z"/>
	<path class="st0" d="M57.3,7.8c0.6,0,1,0.4,1,1c0,0.6-0.4,1-1,1c0,0,0,0,0,0h-4c-0.6,0-1-0.4-1-1s0.4-1,1-1L57.3,7.8z"/>
</g>
<g>
	<path class="st0" d="M7.7,73.7c0-0.6,0.4-1,1-1c0.6,0,1,0.4,1,1v4c0,0.6-0.4,1-1,1s-1-0.4-1-1L7.7,73.7z"/>
	<path class="st0" d="M7.7,63.7c0-0.6,0.4-1,1-1c0,0,0,0,0,0c0.6,0,1,0.4,1,1v4c0,0.6-0.4,1-1,1s-1-0.4-1-1L7.7,63.7z"/>
	<path class="st0" d="M5.7,69.7c0.6,0,1,0.4,1,1s-0.4,1-1,1h-4c-0.6,0-1-0.4-1-1s0.4-1,1-1H5.7z"/>
	<path class="st0" d="M15.7,69.6c0.6,0,1,0.4,1,1s-0.4,1-1,1h-4c-0.6,0-1-0.4-1-1s0.4-1,1-1H15.7z"/>
</g>
<g>
	<path class="st0" d="M26.8,27.9c0-0.6,0.4-1,1-1s1,0.4,1,1v4c0,0.6-0.4,1-1,1s-1-0.4-1-1V27.9z"/>
	<path class="st0" d="M26.7,17.9c0-0.6,0.4-1,1-1s1,0.4,1,1v4c0,0.6-0.4,1-1,1s-1-0.4-1-1V17.9z"/>
	<path class="st0" d="M24.7,23.9c0.6,0,1,0.4,1,1s-0.4,1-1,1h-4c-0.6,0-1-0.4-1-1s0.4-1,1-1H24.7z"/>
	<path class="st0" d="M34.7,23.8c0.6,0,1,0.4,1,1s-0.4,1-1,1h-4c-0.6,0-1-0.4-1-1s0.4-1,1-1H34.7z"/>
</g>
</svg>
