<?xml version="1.0" encoding="utf-8"?>
<!-- Generator: Adobe Illustrator 23.0.3, SVG Export Plug-In . SVG Version: 6.00 Build 0)  -->
<svg version="1.1" id="bg" xmlns="http://www.w3.org/2000/svg" xmlns:xlink="http://www.w3.org/1999/xlink" x="0px" y="0px"
	 viewBox="0 0 42 90" style="enable-background:new 0 0 42 90;" xml:space="preserve">
<style type="text/css">
	.st0{fill:#DA6669;}
</style>
<title>about_deco_03</title>
<path class="st0" d="M7.7,12.5c0-0.6,0.4-1,1-1c0.6,0,1,0.4,1,1v4c0,0.6-0.4,1-1,1s-1-0.4-1-1L7.7,12.5z"/>
<path class="st0" d="M7.7,2.5c0-0.6,0.4-1,1-1l0,0c0.6,0,1,0.4,1,1v4c0,0.6-0.4,1-1,1s-1-0.4-1-1L7.7,2.5z"/>
<path class="st0" d="M5.7,8.5c0.6,0,1,0.4,1,1s-0.4,1-1,1h-4c-0.6,0-1-0.4-1-1s0.4-1,1-1H5.7z"/>
<path class="st0" d="M15.7,8.5c0.6,0,1,0.4,1,1c0,0.6-0.4,1-1,1h-4c-0.6,0-1-0.4-1-1s0.4-1,1-1H15.7z"/>
<path class="st0" d="M8.8,83.5c0-0.6,0.4-1,1-1s1,0.4,1,1v4c0,0.6-0.4,1-1,1s-1-0.4-1-1V83.5z"/>
<path class="st0" d="M8.7,73.5c0-0.6,0.4-1,1-1s1,0.4,1,1v4c0,0.6-0.4,1-1,1s-1-0.4-1-1V73.5z"/>
<path class="st0" d="M6.7,79.5c0.6,0,1,0.4,1,1s-0.4,1-1,1h-4c-0.6,0-1-0.4-1-1s0.4-1,1-1H6.7z"/>
<path class="st0" d="M16.7,79.5c0.6,0,1,0.4,1,1s-0.4,1-1,1h-4c-0.6,0-1-0.4-1-1s0.4-1,1-1H16.7z"/>
<path class="st0" d="M32.3,36.3c0-0.6,0.4-1,1-1s1,0.4,1,1v4c0,0.6-0.4,1-1,1s-1-0.4-1-1V36.3z"/>
<path class="st0" d="M32.3,26.3c0-0.6,0.4-1,1-1s1,0.4,1,1v4c0,0.6-0.4,1-1,1s-1-0.4-1-1V26.3z"/>
<path class="st0" d="M30.3,32.3c0.6,0,1,0.4,1,1s-0.4,1-1,1h-4c-0.6,0-1-0.4-1-1s0.4-1,1-1H30.3z"/>
<path class="st0" d="M40.3,32.2c0.6,0,1,0.4,1,1s-0.4,1-1,1h-4c-0.6,0-1-0.4-1-1s0.4-1,1-1H40.3z"/>
</svg>
