<svg id="レイヤー_1" data-name="レイヤー 1" xmlns="http://www.w3.org/2000/svg" viewBox="0 0 10 14"><defs><style>.cls-1{fill:#fff;}</style></defs><title>ico_tel_wh</title><path class="cls-1" d="M5.6,13.16c2.26,1.19,3.24.13,3.24.13l.91-.91a.16.16,0,0,0,0-.21l-2-2.6a.18.18,0,0,0-.19-.07,1.61,1.61,0,0,0-1.38,1.25.31.31,0,0,1-.44.16A5.53,5.53,0,0,1,3.06,8.16h0a5.54,5.54,0,0,1-.84-3.78.31.31,0,0,1,.38-.27,1.6,1.6,0,0,0,1.8-.48.17.17,0,0,0,0-.2L3.33.38a.17.17,0,0,0-.19-.1L1.88.55S.45.78.22,3.32A11.89,11.89,0,0,0,1.47,8.76S3.34,12,5.6,13.16Z"/></svg>