<svg id="bg" xmlns="http://www.w3.org/2000/svg" viewBox="0 0 148 138"><defs><style>.cls-1{fill:#a6c2e1;}.cls-2{fill:#908cc1;}.cls-3{fill:#b35d9b;}.cls-4{fill:#eadb88;}.cls-5{fill:#e2915a;}.cls-6{fill:#da6669;}.cls-7{fill:#8bb89e;}.cls-8{fill:#7d7d7d;}</style></defs><title>logo_02</title><path class="cls-1" d="M56.18,18.09l0-.08,0-.08a7.62,7.62,0,0,1,1.43-2.22,4.35,4.35,0,0,0-2.53,1.6h0a.83.83,0,0,0-.08.12c-.17.34-4.13,8.43-.91,16.43A21.18,21.18,0,0,0,69.9,46.49h0l.21,0a4,4,0,0,0,2.22-.26c.91-.51.66-.64.45-.67h-.16c-8-.77-14.55-5.41-17.28-12.22-2.63-6.54,0-13.36.69-15A2.64,2.64,0,0,0,56.18,18.09Z"/><path class="cls-2" d="M51.69,20.87h0c.24-.82.47-1.46.47-1.46a3,3,0,0,0-1.72,1.46h0a3.27,3.27,0,0,0-.25.48h0c-.16.47-3.82,11.72,3.07,21.55,6.19,8.85,16.51,10,18.91,10.2h0l.48,0h0a.55.55,0,0,0,.26-.06A3.59,3.59,0,0,0,75,51.76a15.26,15.26,0,0,1-3.33,0c-3-.32-12-1.9-17.36-9.59-5.68-8.12-3.67-17.54-3.05-19.86C51.38,21.8,51.69,20.87,51.69,20.87Z"/><path class="cls-3" d="M64.55,58.11a26.62,26.62,0,0,1-13.71-8.79c-8.35-9.86-3.25-23.15-3.2-23.28l0-.1a8.41,8.41,0,0,1,.68-1.52,11.17,11.17,0,0,0-2.15,2.81h0a5.89,5.89,0,0,0-.73,1.8c-1,4.84-1.77,13.83,4.4,21.11,8,9.41,17.49,10,19.57,10h.4a29.56,29.56,0,0,0,3.32-.21l-1.94-1.21C70.64,58.34,69,59.22,64.55,58.11Z"/><path class="cls-4" d="M85.17,46.35a.66.66,0,0,0-.87.35A17.69,17.69,0,0,1,81.05,51a41.38,41.38,0,0,1-6.14,4.44h0a1.52,1.52,0,1,0,1.27,2.76l0,0c1.36-.72,6.17-6.67,6.17-6.67h0a17.54,17.54,0,0,0,3.13-4.34A.66.66,0,0,0,85.17,46.35Z"/><path class="cls-5" d="M88.28,49.91a.66.66,0,0,0-.92.18,50.35,50.35,0,0,1-3.82,4.73q-.27.27-.6.66l-1.23,1.3A23.08,23.08,0,0,1,77,60.3h0a1.52,1.52,0,0,0,.73,2.86,1.51,1.51,0,0,0,1.11-.49h0a64.53,64.53,0,0,0,5.19-6.44h0a53.33,53.33,0,0,0,4.4-5.39A.66.66,0,0,0,88.28,49.91Z"/><path class="cls-6" d="M90.2,54.44a.65.65,0,0,0-.92.18s-.9,1.32-2.32,3a34.68,34.68,0,0,1-5.13,3.92h0a1.52,1.52,0,0,0,.83,2.8H83l.19-.06.12,0,0,0,.15-.08.06,0c1.6-1.11,5.13-6.44,5.13-6.44h0c1-1.29,1.64-2.2,1.7-2.29A.67.67,0,0,0,90.2,54.44Z"/><path class="cls-3" d="M98.77,40.76c0-.1,0-.19,0-.26a21.06,21.06,0,0,0-.81-3.62h0A5.89,5.89,0,0,0,97,34.69a1.59,1.59,0,0,0-2.83,1,1.6,1.6,0,0,0,.6,1.25h0a11.06,11.06,0,0,1,.8.81h0l.08.09A7.82,7.82,0,0,1,96.94,40a19.56,19.56,0,0,1,1.15,7.55A14,14,0,0,0,98.77,40.76Z"/><path class="cls-2" d="M95.76,47.73c0-3.86-2.34-8.15-2.34-8.15h0c-.11-.24-.22-.46-.33-.68a1.62,1.62,0,0,0-1.48-1,1.58,1.58,0,0,0-1.16,2.68v0l.34.32a16.68,16.68,0,0,1,2.1,2.9c.08.15.27.51.5,1h0c.11.24.22.49.32.75l.12.29,0,.1a24.86,24.86,0,0,1,.71,2.48A19.54,19.54,0,0,1,95,50.92h0l.12,1.58C95.93,50.87,95.76,47.73,95.76,47.73Z"/><path class="cls-1" d="M92.58,49.8a17.93,17.93,0,0,0-3.61-6h0a1.57,1.57,0,0,0-1.14-.48,1.59,1.59,0,0,0-.71,3h0a9.76,9.76,0,0,1,1.5.86A8.58,8.58,0,0,1,91,50a9.8,9.8,0,0,1,.77,3.1,7.88,7.88,0,0,1-.53,3.12A2.45,2.45,0,0,0,92.27,55h0a4.18,4.18,0,0,0,.33-1A8.69,8.69,0,0,0,92.58,49.8Z"/><path class="cls-6" d="M103.05,25.81v-.06c-.08-.82-.2-1.66-.36-2.51a26.8,26.8,0,0,0-2.89-7.91A30.88,30.88,0,0,0,86.37,3.26L86,3.1c-.82-.38-1.53-.67-2.1-.88A32.45,32.45,0,0,0,77.5,1l-.37,0c-9.28-.83-13.6,2.17-13.6,2.17a32.51,32.51,0,0,1,6.73-1.31A42.11,42.11,0,0,1,82.39,3.1,29.9,29.9,0,0,1,97.84,14.73a26,26,0,0,1,1.62,3.12c.64,1.56,1.26,3.75,1.34,4a36.23,36.23,0,0,1-.19,16.21c0,.23-.1.46-.16.69a10,10,0,0,1,.11,3.65,8,8,0,0,0,.49-.94h0a.55.55,0,0,1,0-.1c0-.12.11-.25.16-.39h0v0c.06-.14.11-.29.17-.45h0a20.13,20.13,0,0,0,.85-3A35.6,35.6,0,0,0,103.05,25.81Z"/><path class="cls-4" d="M92.38,18.27A20.5,20.5,0,0,0,76,5.69,31.27,31.27,0,0,0,51,13.57h0a10.36,10.36,0,0,0-1.5,1.53c-.1.11-.15.18-.16.18a.25.25,0,0,0,0,.07,22.94,22.94,0,0,0-3,5.31,24.62,24.62,0,0,1,3.38-4.12h0l.14-.15,0,0h0a44.16,44.16,0,0,1,3.92-3.46l.07-.05a28.69,28.69,0,0,1,2.91-2A30.52,30.52,0,0,1,75.85,7,19.15,19.15,0,0,1,91.16,18.79c0,.06,2.55,6.24-.44,15.11a0,0,0,0,0,0,0,27.05,27.05,0,0,1-1,2.69h0c0,.11-.09.21-.13.31,1.19-.64,1.7-.48,1.7-.48l.59-1.72v0h0c.13-.38.24-.71.3-.9h0v0h0C95,24.73,92.5,18.54,92.38,18.27Z"/><path class="cls-5" d="M98,21a17.54,17.54,0,0,0-.84-2.71A24.47,24.47,0,0,0,80.17,3.91,35.72,35.72,0,0,0,61.52,5h0l-.29.1-.09,0A24.27,24.27,0,0,0,54,9.16h0a15.88,15.88,0,0,0-2.6,2.58,35,35,0,0,1,14-6.53h0a26,26,0,0,1,6-.79h0a36.61,36.61,0,0,1,8.4.76l.2,0a11.16,11.16,0,0,1,1.15.28h0A23.26,23.26,0,0,1,95.47,17.87a21.67,21.67,0,0,1,1.49,5,35,35,0,0,1,.38,8.7,4.78,4.78,0,0,1-.21,1s1.12.63,1.27,1.31c0,0,.1-.51.17-1.19h0l0-.31c0-.1,0-.2,0-.3V32h0A36,36,0,0,0,98,21Z"/><path class="cls-7" d="M88.14,17.62c-2-5.11-6.2-8.21-12.56-9.22-10.52-1.68-18.39,2.89-23.14,7a39,39,0,0,0-4.93,5.15,9.28,9.28,0,0,0-.76,1h0a18.49,18.49,0,0,0-1.59,4.25,22.93,22.93,0,0,0-.39,2.75,12.72,12.72,0,0,1,2-4.72c3-4.51,12.83-16.63,28.59-14.12,5.86.93,9.74,3.75,11.53,8.39,3,7.84-.75,18.92-3.55,22.42l-.62.77A22,22,0,0,1,77,45.91h0a1.52,1.52,0,0,0,.73,2.86l.21,0h0a.65.65,0,0,0,.29-.08,1.45,1.45,0,0,0,.59-.37,11,11,0,0,0,.91-.83,32.35,32.35,0,0,0,9-16.6v0C89.6,26.57,89.73,21.73,88.14,17.62Z"/><path class="cls-8" d="M24.69,91.56l-.07,10.85a.57.57,0,0,0,.63.54.59.59,0,0,0,.64-.54s-.07-7.54-.07-11.09V88.83l3,0a.57.57,0,1,0,0-1.13l-3,0c0-2.37.05-4.65.05-4.65a.59.59,0,0,0-.64-.58.57.57,0,0,0-.63.58l.05,4.65-3.64,0a.57.57,0,1,0,0,1.13l3.66,0v.52a23.85,23.85,0,0,1-2.42,4.25,6.3,6.3,0,0,1-2.38,2h0a1,1,0,0,0,.36,1.91,1.1,1.1,0,0,0,.44-.11,1.06,1.06,0,0,0,.23-.16l0,0,0,0A29,29,0,0,0,24.69,91.56Z"/><path class="cls-8" d="M26.52,91.44A.57.57,0,0,0,26,92a.36.36,0,0,0,.19.33,13.53,13.53,0,0,1,2.37,2.07.54.54,0,0,0,.42.21.66.66,0,0,0,.61-.66C29.55,93.13,26.78,91.44,26.52,91.44Z"/><path class="cls-8" d="M49.37,97.31a.51.51,0,0,0,.54-.54c0-1.22,0-2.77,0-4.25s0-2.94,0-4c0-.77.33-1.15,1.06-1.17.24,0,.49,0,.75,0l0,15a.54.54,0,0,0,.59.56.53.53,0,0,0,.56-.56l0-15c.28,0,.56,0,.82,0,.77,0,1,.42,1.06,1.17,0,1.76,0,6.23,0,6.37,0,.66-.21.87-.63.87a3.32,3.32,0,0,1-.73-.12h-.07c-.24,0-.35.26-.35.54,0,.49.28.73,1.29.73s1.57-.64,1.57-1.81V95c0-.68,0-1.22,0-1.72,0-.8,0-3.52,0-4.93a1.74,1.74,0,0,0-1.88-2h-1V83.1a.56.56,0,0,0-.59-.56.54.54,0,0,0-.58.56l0,3.31h-.89a1.76,1.76,0,0,0-2,1.93c0,1.17,0,2.63,0,4.13s0,3,0,4.28A.54.54,0,0,0,49.37,97.31Z"/><path class="cls-8" d="M54.85,102.17a.59.59,0,0,0,.61.61,7.38,7.38,0,0,0,5.73-5.49c0-.05,0-.1,0-.14a.56.56,0,0,0-.61-.52.5.5,0,0,0-.54.37,5.9,5.9,0,0,1-4.79,4.61A.55.55,0,0,0,54.85,102.17Z"/><path class="cls-8" d="M58.06,91.86a.61.61,0,0,0-.63.52.36.36,0,0,0,.12.28,7.05,7.05,0,0,1,1.5,2,.46.46,0,0,0,.42.3.66.66,0,0,0,.61-.68A4.54,4.54,0,0,0,58.06,91.86Z"/><path class="cls-8" d="M59.61,90.62c.85,0,1.7,0,2.56,0s1.79,0,2.71,0c1.4-.08,2.06-.76,2.11-1.81,0-.59.05-1.27.05-2s0-1.39-.07-2a1.92,1.92,0,0,0-2.07-1.66c-1,0-2,0-3,0-.82,0-1.6,0-2.37,0-1.41,0-2.12.84-2.14,1.81,0,.68,0,1.47,0,2.25,0,.56,0,1.1,0,1.55C57.43,89.84,58.06,90.54,59.61,90.62Zm.17-6.39c.87,0,1.76,0,2.68,0,3.4,0,3.4,0,3.4,2.18H58.53C58.53,84.86,58.72,84.25,59.78,84.23Zm6.11,3.07c0,1.67,0,2.31-1.2,2.33s-1.91.07-2.82.07c-2.56,0-3.24,0-3.29-1.06,0-.4,0-.84,0-1.34Z"/><path class="cls-8" d="M68.21,96.07a.47.47,0,0,0,.49-.5.52.52,0,0,0-.51-.54l-3.31,0a12.33,12.33,0,0,0,1.73-2.7.72.72,0,0,0-.68-.63.45.45,0,0,0-.44.3,28.66,28.66,0,0,1-1.76,3h-1l0-3.54a.57.57,0,0,0-.59-.57.56.56,0,0,0-.59.57l0,3.54-4.82,0a.52.52,0,0,0,0,1l6,0c0,.68-.07,2.63-.07,4.44,0,1.65.89,2,2.56,2,2.7,0,3.31-.91,3.31-3.35V99a.42.42,0,0,0,0-.12,1,1,0,0,0-2,.16,1,1,0,0,0,.23.61h0a1.35,1.35,0,0,1,.31.6.91.91,0,0,1-.23.92,3.12,3.12,0,0,1-1.82.33c-1.17,0-1.24-.38-1.24-1.71,0-1.06,0-2.45.09-3.71Z"/><path class="cls-8" d="M96.23,100.86a15.22,15.22,0,0,1-9-10.83l8.17,0a.59.59,0,0,0,.62-.62.57.57,0,0,0-.62-.58H87.07c.05-.4.21-3.11.21-5.2h0v0a.56.56,0,0,0-.07-.3,1,1,0,0,0-.92-.65,1,1,0,0,0-1,1,1.55,1.55,0,0,0,0,.21h0a25.53,25.53,0,0,1,.38,5H77.37a.58.58,0,0,0-.61.58.6.6,0,0,0,.61.62l8.24,0a13.93,13.93,0,0,1-5.79,9.54,4.8,4.8,0,0,1-2.91,1,1,1,0,0,0,0,2l.12,0h0c.43,0,7.45-2.7,9.52-10.92,1.73,6.64,8.1,10.66,9.3,10.66a.8.8,0,0,0,.77-.82A.6.6,0,0,0,96.23,100.86Z"/><path class="cls-8" d="M124.23,101h-.07c-1.86.14-4.4.4-6.79.4-4.28,0-6.32-.77-7.92-2.79,0-1.72,0-3.27,0-4.65,0-1.91-1.43-1.93-2.8-1.93h-1.36a.6.6,0,0,0-.24.05,1,1,0,1,0,.68,1.83h0s1.51-1,2.21-.5a.92.92,0,0,1,.29.77v1.06c0,1,0,2.09,0,3.29a12.29,12.29,0,0,1-3.45,2.72.62.62,0,0,0-.35.54.71.71,0,0,0,.68.68,10.52,10.52,0,0,0,3.73-3c1.72,1.91,3.17,3.08,9.33,3.08,2.23,0,4.48-.14,6-.3a.7.7,0,0,0,.7-.66A.62.62,0,0,0,124.23,101Z"/><path class="cls-8" d="M112.6,84.51h0c2.09-.07,5.73-.1,7.45-.12.33,0,.52.07.52.21,0,.4-2.47,1.69-2.92,1.9a7.13,7.13,0,0,0-2.06-1,.55.55,0,0,0-.52.51.35.35,0,0,0,.21.31,7.54,7.54,0,0,1,2.16,1.29h-3c-1.48,0-2.25.82-2.28,2,0,1.64,0,3.45,0,5.31,0,1.38,0,2.79,0,4.2a.58.58,0,0,0,.59.54.54.54,0,0,0,.56-.54c0-1.31,0-2.65,0-3.92h3.76v4a.53.53,0,0,0,.56.52.54.54,0,0,0,.57-.52v-4h3.85c0,1.06,0,1.81,0,1.88v.09c0,.92-.47,1.18-1,1.18a3.87,3.87,0,0,1-.87-.12l-.12,0c-.26,0-.44.28-.44.56,0,.61.82.68,1.43.68a2.09,2.09,0,0,0,2.28-2.23c0-.33-.07-2.8-.07-2.84a9.26,9.26,0,0,1,0-1c0-.92,0-2.14,0-3.08v-.68a2,2,0,0,0-2.19-2h-2.61a.33.33,0,0,0,0-.16.55.55,0,0,0-.07-.28,22.36,22.36,0,0,0,3-1.77,1.3,1.3,0,0,0,.63-1c0-.54-.59-1-1.62-1-2.37,0-5.24,0-7.8,0a.51.51,0,0,0-.47.55A.45.45,0,0,0,112.6,84.51Zm4.51,9.79h-3.76V91.84h3.76Zm0-3.38h-3.78c0-.4,0-.77,0-1.13a1.18,1.18,0,0,1,1.27-1.24c.75,0,1.6,0,2.49,0Zm1.11,3.38V91.84h3.82c0,.8,0,1.66,0,2.46Zm2.51-5.75c1.31,0,1.31,1,1.31,2.37h-3.82V88.53C119.06,88.53,119.9,88.53,120.75,88.55Z"/><path class="cls-8" d="M9.26,119.42a.67.67,0,0,0-.06-.3,1,1,0,0,0-.93-.69,1,1,0,0,0-1,1,1,1,0,0,0,.08.4h0a7,7,0,0,1,.52,2.58h0c0,1.34.07,2.7.07,3.75,0,3.71-1,7.14-5.5,9.61a.72.72,0,0,0-.42.65.63.63,0,0,0,.65.64,1.15,1.15,0,0,0,.57-.17c4.88-2.79,6.08-6.78,6.08-10.78,0-1.66-.07-3.76-.07-5.61Z"/><path class="cls-8" d="M2.68,128.23c0-.85,0-2,0-3.17,0-1.88,0-3.93-.1-5.24a.65.65,0,0,0-.68-.64.63.63,0,0,0-.68.64v0c.07,1.39.12,3.32.12,5.15,0,1.2,0,2.35-.07,3.29v0A.64.64,0,0,0,2,129,.73.73,0,0,0,2.68,128.23Z"/><path class="cls-8" d="M32.3,122.66c-1.08,0-2.33,0-3.59,0v-3.22s0,0,0,0,0,0,0,0v0a.6.6,0,0,0-.07-.27,1,1,0,0,0-.91-.63,1,1,0,0,0-1,1,.92.92,0,0,0,.07.38h0a5.66,5.66,0,0,1,.53,2.19v.69c-1.22,0-2.44,0-3.54,0a2.3,2.3,0,0,0-2.45,2.19v0c0,.59,0,1.3,0,2v1.55a.52.52,0,0,0,.07.29,1,1,0,0,0,.92.67,1,1,0,0,0,1-1,1,1,0,0,0-.2-.57h0a2.84,2.84,0,0,1-.45-1.7c0-.41,0-.76,0-.95,0-.63.28-1.27,1.38-1.34.75,0,2.37-.07,4-.07,1.46,0,2.89,0,3.83.07s1.31.38,1.31,1.27c0,2.47-1.43,8.17-9,10a.66.66,0,1,0,.12,1.31c.45,0,9.84-2,10.38-11.46v-.14A2.21,2.21,0,0,0,32.3,122.66Z"/><path class="cls-8" d="M59.69,122.75c-1,0-2.12,0-3.32,0-3.54,0-7.65.07-10.47.12a.77.77,0,0,0-.59.24,1,1,0,0,0-.37.75,1,1,0,0,0,1,1,1,1,0,0,0,.43-.1h0l.08,0h0a5,5,0,0,1,1.54-.51A20.4,20.4,0,0,1,50.2,124c2.54,0,5.29,0,7.37,0h1.74c.54,0,.77.23.77.51a.93.93,0,0,1-.3.61,40,40,0,0,1-6,4.75A17.19,17.19,0,0,0,50,127.48h0l-.22,0h0a.7.7,0,0,0-.14,0,1,1,0,1,0,0,2,.7.7,0,0,0,.14,0v0a2.89,2.89,0,0,1,2.06.63l.19.14a14.6,14.6,0,0,1,3.53,3.51.72.72,0,0,0,.61.4.79.79,0,0,0,.75-.77c0-.43-.66-1.37-2.07-2.59a40.84,40.84,0,0,0,6.42-5.19,1.71,1.71,0,0,0,.49-1.17C61.73,123.48,61,122.78,59.69,122.75Z"/><path class="cls-8" d="M88.27,126.28c-1.2,0-3.71,0-6.44,0,0-1,0-2.14,0-3.12V122c2.43-.54,3.26-.88,3.54-1.15l.07-.09,0,0a1,1,0,1,0-1.56-1.16h0s-.3.7-1.85,1.17l-.3.07-.23.06a28.17,28.17,0,0,1-5.78.76h-.54c-.49,0-.73.28-.73.58s.24.59.75.59a31.63,31.63,0,0,0,5.29-.54c0,.92,0,2.61,0,4-2.86,0-5.8,0-7.7.07a.6.6,0,0,0-.66.59.57.57,0,0,0,.61.56h0c2-.07,4.91-.07,7.7-.07a8.47,8.47,0,0,1-6.39,8,.73.73,0,0,0-.56.71.62.62,0,0,0,.7.63,1.26,1.26,0,0,0,.5-.1,9.84,9.84,0,0,0,7-9.2v-.05c2.61,0,5,0,6.44.05h0a.6.6,0,0,0,.68-.57A.62.62,0,0,0,88.27,126.28Z"/><path class="cls-8" d="M116.38,123.18a2.45,2.45,0,0,0-2.61-2.61c-1.85,0-3.66-.07-5.42-.07,0-.92.05-2.16.05-3.13,0,0,0,0,0,0h0a1,1,0,0,0-2,0,1.06,1.06,0,0,0,.09.4h0s.5.61.55,2.77c-1.68,0-3.32,0-4.93.07A2.46,2.46,0,0,0,99.38,123l-.14,13.67a.59.59,0,0,0,.65.56.6.6,0,0,0,.66-.56v-4.35c0-2.93,0-5.89.07-8.78,0-1.29.56-1.88,2-1.9s2.84,0,4.39,0c-.23,3.31-1.59,6.27-4.86,7.8a.6.6,0,0,0-.38.54.71.71,0,0,0,.71.68c.45,0,3.38-1.55,4.86-5l.14.09a16.61,16.61,0,0,1,4.77,4.18.66.66,0,0,0,.54.31.78.78,0,0,0,.73-.78c0-1.06-5.05-4.74-5.73-4.74h-.1a12.47,12.47,0,0,0,.59-3.13c1.65,0,3.29,0,4.86,0s1.91.75,2,2c.1,3.38.1,7,.1,10.38a1.46,1.46,0,0,1-.9,1.56,2.36,2.36,0,0,1-2.33-.49h0a1,1,0,0,0-.71-.3,1,1,0,0,0-1,1,1,1,0,0,0,.39.76.64.64,0,0,0,.2.14l0,0a5.78,5.78,0,0,0,2.15.26c2.67,0,3.47-1.3,3.47-2.73v-.12l0-2.2C116.43,129.21,116.43,125.85,116.38,123.18Z"/><path class="cls-8" d="M131.55,124.4l3.08,0a.55.55,0,1,0,0-1.1l-3,0c0-1.88,0-3.55,0-3.83,2-.53,2.62-.81,2.85-1.06a1,1,0,0,0-.67-1.71,1,1,0,0,0-.91.6h0c0,.1-.43.81-2.61,1.37a24.57,24.57,0,0,1-3.07.51.54.54,0,0,0-.52.56.55.55,0,0,0,.59.57,22.39,22.39,0,0,0,3.1-.54l0,3.52-3.55,0a.55.55,0,1,0,0,1.1l3.58,0v.66a21.1,21.1,0,0,1-1.94,3.07.61.61,0,0,1-.07.1,6.71,6.71,0,0,1-2.19,1.89,2.11,2.11,0,0,1-.29.12v0a1,1,0,0,0-.79,1,1,1,0,0,0,1,1,.92.92,0,0,0,.41-.1.73.73,0,0,0,.29-.19,25,25,0,0,0,3.62-4.81l-.1,9.58a.58.58,0,0,0,.64.54.58.58,0,0,0,.63-.54s-.07-6.39-.07-9.91Z"/><path class="cls-8" d="M135.31,128.74c0-.75-2.75-2.42-3.08-2.42a.59.59,0,0,0-.56.52.38.38,0,0,0,.19.33,11.76,11.76,0,0,1,2.42,2,.5.5,0,0,0,.42.21A.66.66,0,0,0,135.31,128.74Z"/><path class="cls-8" d="M146.21,128.09a.68.68,0,0,0-.19,0l-3,.87,0-11.42a.61.61,0,0,0-1.22,0v11.77l-7,1.93a.53.53,0,0,0-.42.51.58.58,0,0,0,.57.61.55.55,0,0,0,.18,0l6.7-1.88v6.23c0,.35.3.51.61.51a.54.54,0,0,0,.61-.51l0-6.58,3.32-.94a.54.54,0,0,0,.42-.54A.54.54,0,0,0,146.21,128.09Z"/><path class="cls-8" d="M39.32,96.73a1,1,0,0,0-.89,1.41h0s.5,1.67-.11,2.26-1.48.64-2.72.64c-2.23,0-2.61-.44-2.61-1.9,0-2.42.14-14.44.14-15.45a.6.6,0,0,0-.66-.59.62.62,0,0,0-.65.59c0,.72,0,15,0,16,0,1.9,1.29,2.54,4,2.54,2.51,0,4.53-.31,4.53-4.25v-.25A1,1,0,0,0,39.32,96.73Z"/><path class="cls-8" d="M106.39,86h0a3.36,3.36,0,0,1,1.38.32,2.68,2.68,0,0,1,.61.49,5,5,0,0,1,.48.59.52.52,0,0,0,.45.26.8.8,0,0,0,.71-.78.68.68,0,0,0-.17-.44c-.38-.47-2.7-2.42-3.33-2.42h-.11a1,1,0,0,0,0,2Z"/><path class="cls-8" d="M136.7,121.33l.06,0h0a1.78,1.78,0,0,1,.89.08,2.61,2.61,0,0,1,.77.58c.14.15.27.3.38.44a.62.62,0,0,0,.49.29.7.7,0,0,0,.64-.71c0-.7-2.08-2.27-2.85-2.57h0a.64.64,0,0,0-.2,0h0a.8.8,0,0,0-.15,0,1,1,0,1,0,0,2Z"/><path class="cls-8" d="M136.36,126.45l.07,0v0h.07a2.16,2.16,0,0,1,1.06.11l0,0,.16.07.27.16h0c.21.19.42.39.6.58a.57.57,0,0,0,.47.21.67.67,0,0,0,.64-.68.75.75,0,0,0-.24-.52c-.05,0-2.21-1.92-3.08-1.92h0a1,1,0,0,0,0,2Z"/></svg>