<svg id="bg" xmlns="http://www.w3.org/2000/svg" viewBox="0 0 420 80"><defs><style>.cls-1{fill:#a6c2e1;}.cls-2{fill:#908cc1;}.cls-3{fill:#b35d9b;}.cls-4{fill:#eadb88;}.cls-5{fill:#e2915a;}.cls-6{fill:#da6669;}.cls-7{fill:#8bb89e;}.cls-8{fill:#7d7d7d;}</style></defs><title>logo_01</title><path class="cls-1" d="M15.47,23a.25.25,0,0,0,0-.09.36.36,0,0,0,0-.09,8.89,8.89,0,0,1,1.67-2.6,5.12,5.12,0,0,0-3,1.88h0l-.09.14c-.2.4-4.83,9.85-1.06,19.22,3.06,7.61,9.94,13,18.44,14.79h0l.24.05A4.72,4.72,0,0,0,34.4,56c1.06-.59.77-.74.52-.78l-.16,0h0c-9.31-.9-17-6.33-20.23-14.3-3.08-7.65,0-15.64.82-17.56C15.37,23.28,15.42,23.17,15.47,23Z"/><path class="cls-2" d="M10.22,26.29h0c.29-.95.56-1.71.56-1.71a3.68,3.68,0,0,0-2,1.71h0a4.07,4.07,0,0,0-.28.57h0c-.18.55-4.46,13.72,3.6,25.23C19.3,62.45,31.39,63.85,34.19,64h0l.57,0h0A.81.81,0,0,0,35.1,64a4.3,4.3,0,0,0,2.41-1.54,18.6,18.6,0,0,1-3.9,0c-3.52-.38-14-2.23-20.32-11.23C6.64,41.73,9,30.7,9.71,28,9.86,27.39,10.22,26.29,10.22,26.29Z"/><path class="cls-3" d="M25.27,69.88a31,31,0,0,1-16-10.29C-.55,48.05,5.42,32.5,5.48,32.35a.27.27,0,0,0,0-.12,10.44,10.44,0,0,1,.8-1.78,13.68,13.68,0,0,0-2.52,3.29v0a6.48,6.48,0,0,0-.86,2.1C1.72,41.53.85,52.05,8.08,60.57c9.33,11,20.47,11.65,22.91,11.65h.46A36.3,36.3,0,0,0,35.33,72s-1.6-1-2.26-1.41S30.49,71.18,25.27,69.88Z"/><path class="cls-4" d="M49.41,56.12a.77.77,0,0,0-1,.41,20.59,20.59,0,0,1-3.8,5.08,48.52,48.52,0,0,1-7.19,5.2h0a1.77,1.77,0,0,0-1.12,1.65A1.77,1.77,0,0,0,38.89,70L39,70c1.59-.83,7.22-7.8,7.22-7.8h0a20.75,20.75,0,0,0,3.66-5.08A.77.77,0,0,0,49.41,56.12Z"/><path class="cls-5" d="M53.05,60.29A.78.78,0,0,0,52,60.5,58.9,58.9,0,0,1,47.5,66c-.21.21-.44.46-.7.77-.45.49-.93,1-1.44,1.52a26.93,26.93,0,0,1-5.49,4.12h0A1.78,1.78,0,1,0,42,75.24l0,0c1.72-1.51,6.07-7.53,6.07-7.53h0a62.54,62.54,0,0,0,5.15-6.32A.78.78,0,0,0,53.05,60.29Z"/><path class="cls-6" d="M55.29,65.59a.78.78,0,0,0-1.08.21s-1,1.54-2.71,3.55a40.43,40.43,0,0,1-6,4.58h0a1.75,1.75,0,0,0-.81,1.49,1.78,1.78,0,0,0,1.78,1.79h.12l.21,0,.06,0a.94.94,0,0,0,.22-.07l.14,0,.05,0,.17-.1.07-.05c1.87-1.3,6-7.53,6-7.53h0c1.21-1.51,1.93-2.58,2-2.68A.78.78,0,0,0,55.29,65.59Z"/><path class="cls-3" d="M65.33,49.58c0-.12,0-.22,0-.31A25,25,0,0,0,64.35,45h0a7.23,7.23,0,0,0-1.07-2.57,1.86,1.86,0,0,0-1.45-.69,1.87,1.87,0,0,0-1.17,3.33h0s.4.36.94,1h0l.09.11a8.81,8.81,0,0,1,1.49,2.55,22.33,22.33,0,0,1,1.34,8.83A16.32,16.32,0,0,0,65.33,49.58Z"/><path class="cls-2" d="M61.8,57.74c0-4.53-2.74-9.55-2.74-9.55v0a8.29,8.29,0,0,0-.39-.79,1.87,1.87,0,1,0-3.08,2h0s.24.22.39.39a18.65,18.65,0,0,1,2.47,3.38c.09.18.31.6.58,1.21h0c.13.28.26.58.37.88.05.11.09.22.14.34l0,.11a29.93,29.93,0,0,1,.85,2.91,25.88,25.88,0,0,1,.52,2.82h0l.13,1.84C62,61.41,61.8,57.74,61.8,57.74Z"/><path class="cls-1" d="M58.08,60.16c-.89-3.31-4-6.85-4.22-7v0h0a1.85,1.85,0,0,0-1.34-.56,1.87,1.87,0,0,0-.83,3.54h0a11.61,11.61,0,0,1,1.76,1,9.9,9.9,0,0,1,2.75,3.27A11.6,11.6,0,0,1,57.1,64a9,9,0,0,1-.63,3.64,2.79,2.79,0,0,0,1.25-1.34h0a4.87,4.87,0,0,0,.38-1.17A10,10,0,0,0,58.08,60.16Z"/><path class="cls-6" d="M70.34,32.08a.19.19,0,0,1,0-.08c-.1-.95-.25-1.93-.43-2.93a31.49,31.49,0,0,0-3.38-9.25A36.21,36.21,0,0,0,50.82,5.68l-.4-.18c-1-.45-1.8-.78-2.47-1A38.49,38.49,0,0,0,40.43,3L40,3C29.14,2,24.08,5.49,24.08,5.49,26.34,4.53,31.59,4,32,4a49.25,49.25,0,0,1,14.2,1.56,34.81,34.81,0,0,1,18.08,13.6,30.68,30.68,0,0,1,1.9,3.66c.75,1.82,1.48,4.39,1.57,4.72a42.43,42.43,0,0,1-.22,19l-.18.82s.58,2.9.12,4.26A11.26,11.26,0,0,0,68,50.45h0l.05-.11c.06-.14.13-.3.19-.46h0v0a5.19,5.19,0,0,0,.19-.52h0a26.21,26.21,0,0,0,1-3.47A41.91,41.91,0,0,0,70.34,32.08Z"/><path class="cls-4" d="M57.85,23.26A24,24,0,0,0,38.63,8.53a36.65,36.65,0,0,0-29.2,9.23h0a12,12,0,0,0-1.76,1.8l-.19.21-.05.08A26.91,26.91,0,0,0,4,26.07a29,29,0,0,1,4-4.83h0l.17-.17,0,0h0A51.53,51.53,0,0,1,12.73,17l.07-.05a35.25,35.25,0,0,1,3.41-2.3A35.76,35.76,0,0,1,38.5,10.08,22.44,22.44,0,0,1,56.41,23.86c0,.08,3,7.3-.51,17.69a.08.08,0,0,1,0,0c-.48,1.53-1.2,3.15-1.2,3.15h0c0,.12-.1.24-.16.36,1.4-.76,2-.56,2-.56l.7-2v0h0c.15-.43.28-.82.35-1.05h0v0h0C61,30.82,58,23.58,57.85,23.26Z"/><path class="cls-5" d="M64.37,26.42a22.41,22.41,0,0,0-1-3.17A28.62,28.62,0,0,0,43.55,6.45C33.8,4.63,26.46,6,21.73,7.66h0l-.34.13-.09,0a28.18,28.18,0,0,0-8.36,4.77h0a17.5,17.5,0,0,0-3,3A41,41,0,0,1,26.22,8h0a29.85,29.85,0,0,1,7-.92h0a41.89,41.89,0,0,1,9.82.89l.24,0a13.29,13.29,0,0,1,1.34.32h0A27.22,27.22,0,0,1,61.46,22.79a24.78,24.78,0,0,1,1.75,5.86,41.14,41.14,0,0,1,.44,10.18,5,5,0,0,1-.25,1.11s1.32.75,1.5,1.54c0,0,.11-.6.2-1.39h0l0-.37c0-.11,0-.23,0-.35v-.1s0,0,0,0A42.25,42.25,0,0,0,64.37,26.42Z"/><path class="cls-7" d="M52.89,22.49c-2.32-6-7.26-9.61-14.71-10.79-12.31-2-21.52,3.38-27.09,8.21a45.59,45.59,0,0,0-5.76,6,9.54,9.54,0,0,0-.89,1.14h0a21.42,21.42,0,0,0-1.86,5,28.84,28.84,0,0,0-.46,3.21,15,15,0,0,1,2.35-5.52C8,24.49,19.49,10.3,37.94,13.23c6.85,1.09,11.4,4.4,13.49,9.82,3.56,9.19-.88,22.16-4.15,26.25l-.73.9a25.53,25.53,0,0,1-6.68,5.4h0A1.78,1.78,0,0,0,40.72,59a2.13,2.13,0,0,0,.25,0h0a.65.65,0,0,0,.34-.09,1.83,1.83,0,0,0,.69-.43,10.28,10.28,0,0,0,1.06-1A37.76,37.76,0,0,0,53.54,38v0C54.59,33,54.75,27.31,52.89,22.49Z"/><path class="cls-8" d="M110.49,24.86c-.09.14-.13.2-.18.2a.36.36,0,0,1-.21-.1,11.34,11.34,0,0,1-5.21-7.72A10.53,10.53,0,0,1,99.55,25c-.1.05-.16.1-.21.1s-.1-.07-.2-.21a2.09,2.09,0,0,0-.52-.51,10,10,0,0,0,5.63-9.49,12.26,12.26,0,0,0-.09-1.67,7.18,7.18,0,0,1,1,.11c.11,0,.19.08.19.17a.69.69,0,0,1-.08.28,2,2,0,0,0-.13.78c0,.26,0,.49,0,.73.56,3.77,2.13,7,5.8,9A1.79,1.79,0,0,0,110.49,24.86Z"/><path class="cls-8" d="M116.38,14.37c.14.09.19.14.19.23a.35.35,0,0,1-.1.24,2.39,2.39,0,0,0-.28.74,23,23,0,0,0-.65,4.83,10.36,10.36,0,0,0,.21,2.41c.33-.78.63-1.39,1-2.37a3.6,3.6,0,0,0,.34.56.23.23,0,0,1,.07.14.51.51,0,0,1-.07.23c-.31.71-.6,1.4-.9,2.22a.89.89,0,0,0,0,.35c0,.13,0,.21,0,.31a.12.12,0,0,1-.09.13,3.77,3.77,0,0,1-.63.14.19.19,0,0,1-.16-.14,12.5,12.5,0,0,1-.63-4.06,24.91,24.91,0,0,1,.58-4.78,8.51,8.51,0,0,0,.19-1.55A5.25,5.25,0,0,1,116.38,14.37Zm2.9,6.67c.07,0,.09,0,.09.14,0,1.07.9,1.54,2.55,1.54a21.24,21.24,0,0,0,2.76-.19c.12,0,.14,0,.16.14s0,.46,0,.65,0,.14-.18.17a20.62,20.62,0,0,1-2.51.16c-1.57,0-2.47-.23-3.08-.89a2.25,2.25,0,0,1-.59-1.66ZM119,15.83c0-.13,0-.17.17-.2a23.17,23.17,0,0,1,3-.25c.81,0,1.61,0,2,.07.18,0,.21,0,.21.14s0,.45,0,.66,0,.14-.16.13c-.54-.06-1.45-.07-2.25-.07a17.25,17.25,0,0,0-2.93.29C119,16.22,119,16,119,15.83Z"/><path class="cls-8" d="M140.2,19.93c0,.09,0,.1-.12.1H138V22.4c0,.64,0,1.25,0,1.76s-.07.83-.37,1.06-.64.22-1.8.22c-.24,0-.25,0-.31-.24a1.94,1.94,0,0,0-.29-.63c.49,0,.82.06,1.24.06s.67-.1.67-.55V20h-9.24c-.1,0-.11,0-.11-.1v-.56c0-.11,0-.12.11-.12s.5,0,1.81,0h8.53c1.3,0,1.73,0,1.8,0s.12,0,.12.12Zm-.56-4.73c0,1.2,0,1.39,0,1.46s0,.11-.11.11h-.62c-.09,0-.11,0-.11-.11v-2h-9.68v2c0,.09,0,.11-.11.11h-.61c-.1,0-.12,0-.12-.11s0-.26,0-1.46v-.45c0-.43,0-.63,0-.71s0-.11.12-.11.56,0,1.93,0h3.09v-.26a3.66,3.66,0,0,0-.09-.94c.39,0,.64,0,.91.05.11,0,.18.06.18.12a.58.58,0,0,1-.09.26,1.49,1.49,0,0,0-.07.55V14h3.34c1.36,0,1.85,0,1.93,0s.11,0,.11.11,0,.28,0,.64Zm-5.1,1.46c.93,1,2.28,1.43,4.31,1.71a1.24,1.24,0,0,0-.33.44c-.13.27-.15.26-.41.2a6.6,6.6,0,0,1-4.33-2.21c-.64,1.24-2,1.86-3.95,2.2-.28,0-.28,0-.42-.24a1.07,1.07,0,0,0-.32-.38c2-.24,3.33-.74,3.92-1.72h-1.08c-1.36,0-1.82,0-1.89,0s-.11,0-.11-.11v-.49c0-.1,0-.11.11-.11s.53,0,1.89,0h1.35a4.1,4.1,0,0,0,.07-1.05,6.22,6.22,0,0,1,.79.1c.13,0,.2.07.2.14s0,.09-.08.16a2.79,2.79,0,0,0-.19.65h2c1.34,0,1.81,0,1.88,0s.11,0,.11.11v.49c0,.1,0,.11-.11.11s-.54,0-1.88,0Zm.22,5.85c0,1.4,0,1.6,0,1.68s0,.11-.11.11h-.59c-.1,0-.11,0-.11-.11v-.38h-3.16v.62c0,.1,0,.11-.11.11h-.59c-.11,0-.12,0-.12-.11s0-.31,0-1.78V22c0-.67,0-.92,0-1s0-.12.12-.12.41,0,1.46,0h1.65c1,0,1.38,0,1.45,0s.11,0,.11.12,0,.29,0,.8ZM134,21.6h-3.16v1.54H134Z"/><path class="cls-8" d="M145.71,13.81c.12.07.18.13.18.21a.39.39,0,0,1-.06.19,1.36,1.36,0,0,0-.25.54,22,22,0,0,0-.42,3.22,10.27,10.27,0,0,0,.06,1.59c.29-.59.71-1.39,1-2a1.77,1.77,0,0,0,.28.57.31.31,0,0,1,0,.38,14.27,14.27,0,0,0-.88,1.85,1,1,0,0,0-.1.45c0,.12,0,.17-.1.19s-.43.07-.67.1c-.07,0-.11,0-.14-.14a8.35,8.35,0,0,1-.35-2.62A25.71,25.71,0,0,1,144.6,15a7.1,7.1,0,0,0,.13-1.55A4.14,4.14,0,0,1,145.71,13.81Zm4.43-.14c.21,0,.23.14.21.28a1.94,1.94,0,0,0,0,.66c.11,1.56.16,2.72.16,3.71a7.58,7.58,0,0,1-1.14,4.6A7.34,7.34,0,0,1,147,25a.28.28,0,0,1-.37,0,2.13,2.13,0,0,0-.71-.39,6.54,6.54,0,0,0,2.43-1.92,6.46,6.46,0,0,0,1.15-4.24c0-1-.05-2.3-.14-3.34a5.64,5.64,0,0,0-.28-1.47A4.84,4.84,0,0,1,150.14,13.67Z"/><path class="cls-8" d="M154.88,16.64c.08-.11.12-.11.21-.07A11.41,11.41,0,0,1,157,18c.07.07.06.1,0,.23l-.29.39c-.1.14-.14.14-.23.06a9.49,9.49,0,0,0-1.87-1.52c-.1-.05-.09-.1,0-.21Zm1,7.85a3.4,3.4,0,0,0-.23.61c0,.1,0,.17-.12.17a.36.36,0,0,1-.21-.07c-.23-.14-.41-.27-.67-.46a5.82,5.82,0,0,0,.68-1.16,29.47,29.47,0,0,0,1.16-3.25,3.39,3.39,0,0,0,.45.4c.23.17.23.17.16.42C156.67,22.34,156.26,23.48,155.83,24.49Zm-.17-11.32c.1-.11.13-.13.21-.07a11.56,11.56,0,0,1,1.88,1.55c.07.07.07.1,0,.23l-.29.38c-.1.12-.16.15-.23.08a11.46,11.46,0,0,0-1.88-1.63c-.09-.05-.08-.09,0-.21Zm7.84,4.2a7,7,0,0,0,3.79,2.69,2.92,2.92,0,0,0-.4.5c-.08.16-.11.23-.18.23a.61.61,0,0,1-.22-.09,7.72,7.72,0,0,1-3.83-3.33H161.1a9.37,9.37,0,0,1-3.21,3.21.5.5,0,0,1-.21.1c-.07,0-.12-.06-.2-.17a1.81,1.81,0,0,0-.43-.44,8.61,8.61,0,0,0,3.12-2.7h-.55c-1.42,0-1.91,0-2,0s-.12,0-.12-.11v-.58c0-.1,0-.11.12-.11s.56,0,2,0h1a8.65,8.65,0,0,0,.69-1.89c-.7.11-1.44.21-2.3.29-.25,0-.25,0-.33-.21a2.23,2.23,0,0,0-.32-.56,25.15,25.15,0,0,0,5.51-.83,3.18,3.18,0,0,0,1.06-.42,5.69,5.69,0,0,1,.65.52.24.24,0,0,1,.12.2c0,.07-.09.12-.23.12a5.71,5.71,0,0,0-.73.17c-.85.23-1.65.41-2.5.56a12.83,12.83,0,0,1-.73,2H165c1.43,0,1.92,0,2,0s.11,0,.11.11v.58c0,.09,0,.11-.11.11s-.56,0-2,0Zm-3.88,3.57c.16.07.2.09.16.2a10.37,10.37,0,0,1-1.54,3c-.07.08-.1.1-.24,0l-.39-.27c-.13-.08-.16-.11-.09-.19a8.12,8.12,0,0,0,1.5-2.88c0-.11.06-.12.23-.05Zm1.24-.25a7.08,7.08,0,0,0-.1-1.47,7.48,7.48,0,0,1,.9.13c.09,0,.15.07.15.12a.35.35,0,0,1-.06.17,2,2,0,0,0-.09.77v1.81c0,.71,0,1.24,0,1.9,0,.48,0,.72-.35.93s-.55.19-1.47.19c-.28,0-.28,0-.35-.26a1.86,1.86,0,0,0-.27-.61,7.92,7.92,0,0,0,1.11.09c.38,0,.52-.1.52-.48Zm2.2.14c.14-.06.16-.06.21,0a16.19,16.19,0,0,1,1.15,2.91c0,.1,0,.13-.16.18l-.38.14c-.18.07-.22.07-.25-.05a13,13,0,0,0-1-2.89c-.05-.1,0-.12.13-.19Zm1.93,0c.13-.07.15-.09.22,0a14.2,14.2,0,0,1,1.67,2.8c.06.11,0,.14-.11.22l-.37.21c-.15.1-.19.1-.23,0a13.64,13.64,0,0,0-1.59-2.86c-.05-.08,0-.11.1-.19Z"/><path class="cls-8" d="M171.68,17.23a9.72,9.72,0,0,1,3-.67c1.38,0,2.59,1,2.59,3.14a5,5,0,0,1-1.15,3.23,8.22,8.22,0,0,1-2.48,2c-.28.15-.38.12-.48,0a1.75,1.75,0,0,0-.7-.48,7.45,7.45,0,0,0,3-2.28,4.18,4.18,0,0,0,.8-2.55c0-1.68-.89-2.16-1.74-2.16a6.77,6.77,0,0,0-2.05.49,11.22,11.22,0,0,0-1.26.58c-.19.11-.31.21-.44.21s-.2-.12-.27-.23a6.77,6.77,0,0,1-.45-.9A6.52,6.52,0,0,0,171.68,17.23Zm4.66-3c.11,0,.16.07.14.18a3.73,3.73,0,0,1-.17.66c0,.11-.05.17-.15.16a16.32,16.32,0,0,1-3.82-1c-.05,0-.06-.07-.05-.2a4.25,4.25,0,0,1,.23-.77A14.36,14.36,0,0,0,176.34,14.19Z"/><path class="cls-8" d="M188.79,15.56c.42,0,.55,0,.7-.15s.21,0,.36.06a3.33,3.33,0,0,1,.56.46c.17.17.14.31,0,.42a1.3,1.3,0,0,0-.36.49,18.72,18.72,0,0,1-2.71,4.37A17.58,17.58,0,0,1,183,24.84a.22.22,0,0,1-.3-.05,2.1,2.1,0,0,0-.79-.4,15.59,15.59,0,0,0,4.64-3.71,15.76,15.76,0,0,0,2.63-4.29l-4,.11a20.13,20.13,0,0,1-2.78,3,.29.29,0,0,1-.43,0,2,2,0,0,0-.72-.3,14.76,14.76,0,0,0,3.66-4.07,4.13,4.13,0,0,0,.7-1.75,3.32,3.32,0,0,1,1,.49.2.2,0,0,1,0,.36,1.65,1.65,0,0,0-.42.48c-.21.33-.36.6-.56.88Z"/><path class="cls-8" d="M195.77,15.89a10.75,10.75,0,0,0-.15-2,9.33,9.33,0,0,1,1.15.23c.18.06.18.21.12.34a3.85,3.85,0,0,0-.14,1.47v2.36c0,.73,0,1.25,0,1.85,0,.17,0,.23-.21.23h-.65c-.14,0-.2-.06-.19-.21,0-.61,0-1.24,0-1.92Zm5.87,2.52a6.6,6.6,0,0,1-1.22,4.35,7.23,7.23,0,0,1-3.07,2.06.31.31,0,0,1-.39-.07,2.41,2.41,0,0,0-.7-.52,6.93,6.93,0,0,0,3.27-1.91,5.75,5.75,0,0,0,1.12-3.83V16.08a11.34,11.34,0,0,0-.16-2.45,6.86,6.86,0,0,1,1.19.22c.17.06.17.22.1.36a5.25,5.25,0,0,0-.14,1.83Z"/><path class="cls-8" d="M209.37,22.61c-1,0-1.85,0-2.61.07-.15,0-.2,0-.22-.2s-.06-.56-.07-.93c.93.07,1.83.08,2.9.08h4.56c1.17,0,2.27,0,3.17-.06.17,0,.21.05.21.19s0,.46,0,.67,0,.21-.21.21c-.9,0-2.09,0-3.13,0Zm1.2-5.86c-.78,0-1.48,0-2.17.06-.14,0-.18,0-.2-.21s0-.6,0-.91c.87.07,1.61.08,2.41.08h2.25c.95,0,1.77,0,2.54,0,.11,0,.15,0,.15.17a4.21,4.21,0,0,1,0,.71c0,.15,0,.18-.17.18-.78,0-1.64,0-2.49,0Z"/><path class="cls-8" d="M221.17,17.47c.11-.06.17,0,.25.07a8,8,0,0,1,1.15,2c.05.14.05.17-.07.25A3.17,3.17,0,0,1,222,20c-.13.06-.19,0-.23-.11a8.65,8.65,0,0,0-1.2-2.08C220.79,17.67,221,17.55,221.17,17.47Zm7.48,0a.2.2,0,0,1,0,.34,2,2,0,0,0-.4.67,17.51,17.51,0,0,1-2.06,3.62,11.34,11.34,0,0,1-2.83,2.66.24.24,0,0,1-.31,0,1.77,1.77,0,0,0-.73-.35,11.55,11.55,0,0,0,3.14-2.79,13.36,13.36,0,0,0,1.9-3.44,4.66,4.66,0,0,0,.24-1.15A3.83,3.83,0,0,1,228.65,17.48Zm-4.74-.66c.1,0,.17,0,.24.09a8.41,8.41,0,0,1,1,1.95c0,.11,0,.16-.1.22s-.35.18-.56.27-.14,0-.19-.13a8.31,8.31,0,0,0-1.08-2.07C223.56,17,223.75,16.89,223.91,16.82Z"/><path class="cls-8" d="M239.71,15.56c.42,0,.54,0,.7-.15s.21,0,.36.06a3.78,3.78,0,0,1,.56.46c.17.17.14.31,0,.42a1.3,1.3,0,0,0-.36.49,19.06,19.06,0,0,1-2.71,4.37,17.58,17.58,0,0,1-4.37,3.63.24.24,0,0,1-.31-.05,2,2,0,0,0-.78-.4,15.59,15.59,0,0,0,4.64-3.71,15.76,15.76,0,0,0,2.63-4.29l-4,.11a19.59,19.59,0,0,1-2.77,3,.29.29,0,0,1-.43,0,2,2,0,0,0-.72-.3,14.93,14.93,0,0,0,3.66-4.07,4.13,4.13,0,0,0,.7-1.75,3.32,3.32,0,0,1,1.05.49.2.2,0,0,1,0,.36,1.65,1.65,0,0,0-.42.48c-.21.33-.36.6-.56.88Z"/><path class="cls-8" d="M243.64,22.26a.2.2,0,0,1,.15-.08s.08,0,.15.08a9.54,9.54,0,0,1,2.69,2.52.27.27,0,0,1,.07.17.2.2,0,0,1-.09.17l-.51.42c-.07.05-.11.08-.14.08s-.1,0-.15-.11a10.22,10.22,0,0,0-2.58-2.62c-.07,0-.1-.07-.1-.1s0-.07.07-.14Z"/><path class="cls-8" d="M252.71,20.91c0-.47,0-1.05,0-1.55a11.86,11.86,0,0,1-1.31,1.34c-.08.09-.14.13-.19.13s-.1-.06-.16-.17a1.47,1.47,0,0,0-.33-.49,11.34,11.34,0,0,0,2.81-3.44,2.93,2.93,0,0,0,.28-.7,5,5,0,0,1,.72.4c.1.07.14.11.14.18a.2.2,0,0,1-.11.17,1,1,0,0,0-.31.37c-.2.36-.45.74-.73,1.15v5.08c0,1.23,0,1.75,0,1.82s0,.1-.11.1h-.68c-.1,0-.11,0-.11-.1s0-.59,0-1.82Zm1.83-7.28a.7.7,0,0,0-.3.27,12.25,12.25,0,0,1-2.55,2.64c-.1.07-.16.12-.2.12s-.1-.06-.18-.19a1.91,1.91,0,0,0-.42-.43,9.59,9.59,0,0,0,2.55-2.48,3.18,3.18,0,0,0,.35-.69,4.93,4.93,0,0,1,.77.42c.08.07.11.1.11.19S254.63,13.59,254.54,13.63Zm8.69,6.61c0,.1,0,.11-.11.11s-.54,0-1.73,0v1.89c0,.63,0,1.23,0,1.79A1,1,0,0,1,261,25c-.26.18-.71.25-1.85.25-.25,0-.25,0-.33-.28a2,2,0,0,0-.28-.62,13,13,0,0,0,1.54.06c.29,0,.47-.13.47-.52V20.33H257c-1.38,0-1.86,0-1.93,0s-.1,0-.1-.11v-.57c0-.1,0-.11.1-.11s.55,0,1.93,0h3.6v-.3a5.6,5.6,0,0,0-.08-1.15,5.24,5.24,0,0,1,.9.1c.11,0,.16.05.16.11a.56.56,0,0,1-.07.24,2.16,2.16,0,0,0-.07.7v.3c1.19,0,1.64,0,1.73,0s.11,0,.11.11Zm.15-2.52c0,.1,0,.11-.11.11s-.55,0-1.95,0H257c-1.4,0-1.88,0-1.95,0s-.1,0-.1-.11v-.57c0-.1,0-.12.1-.12s.55,0,1.95,0h1.51V15.23h-1c-1.32,0-1.75,0-1.83,0s-.11,0-.11-.13v-.56c0-.1,0-.11.11-.11s.51,0,1.83,0h1v-.44a7.44,7.44,0,0,0-.1-1.36c.38,0,.65,0,.91.07.1,0,.15.06.15.11a1.14,1.14,0,0,1-.05.26,4,4,0,0,0-.07.92v.44h1.33c1.32,0,1.75,0,1.82,0s.11,0,.11.11v.56c0,.11,0,.13-.11.13s-.5,0-1.82,0h-1.33v1.83h2c1.4,0,1.88,0,1.95,0s.11,0,.11.12Zm-6.64,3.4c.12-.07.13-.07.21,0a9.67,9.67,0,0,1,1.47,1.77c.06.08.05.13-.08.21l-.38.28c-.17.13-.19.13-.26,0a8.2,8.2,0,0,0-1.42-1.82c-.08-.08-.07-.11.09-.21Z"/><path class="cls-8" d="M273,15.47c.11,0,.16,0,.17.09a5.73,5.73,0,0,1,.07.58c0,.14,0,.18-.14.21a23.44,23.44,0,0,1-2.54.57,63.72,63.72,0,0,1-2.68,7.55c-.06.13-.12.13-.21.09s-.48-.21-.66-.31a.13.13,0,0,1-.06-.18,44,44,0,0,0,2.62-7c-.91.09-1.88.15-2.83.16-.17,0-.2,0-.22-.14s-.07-.49-.12-.77a7.79,7.79,0,0,0,.89,0,20.56,20.56,0,0,0,2.52-.17c.19-.74.31-1.24.4-1.76a6.11,6.11,0,0,0,.12-1.32,6.21,6.21,0,0,1,1.12.32.17.17,0,0,1,.11.16.35.35,0,0,1-.11.22,1.3,1.3,0,0,0-.23.55c-.17.57-.29,1.15-.45,1.68A16.65,16.65,0,0,0,273,15.47Zm-.7,6.41c.11,0,.14,0,.16.14.09,1.26.88,1.68,2.64,1.68a15.81,15.81,0,0,0,2.08-.18c.11,0,.15,0,.16.1a4.63,4.63,0,0,1,.06.67c0,.14,0,.17-.15.18a12.92,12.92,0,0,1-1.84.14c-1.51,0-2.45-.19-3.08-.77a2.4,2.4,0,0,1-.69-1.89A4.8,4.8,0,0,1,272.31,21.88Zm.35-3.6c0-.12,0-.17.18-.21a11.4,11.4,0,0,1,2.46-.29,13.92,13.92,0,0,1,1.73.14c.17,0,.2.07.21.15a4.1,4.1,0,0,1,0,.62c0,.17-.06.21-.19.18a10.9,10.9,0,0,0-1.79-.15,12.37,12.37,0,0,0-2.58.3C272.68,18.79,272.66,18.45,272.66,18.28Z"/><path class="cls-8" d="M286.72,15.45c.12,0,.17,0,.18.09a5.48,5.48,0,0,1,.07.6c0,.12,0,.15-.13.17-.75.15-1.51.28-2.33.4a34.33,34.33,0,0,1-2.82,5.91c-.07.12-.14.1-.22.05a3.53,3.53,0,0,1-.56-.42c-.09-.07-.09-.13,0-.24a24.76,24.76,0,0,0,2.63-5.21c-.6.05-1.16.09-1.76.09-.21,0-.42,0-.74,0-.13,0-.14,0-.17-.17a4.23,4.23,0,0,1-.08-.7c.44,0,.81.05,1.1.05a18.06,18.06,0,0,0,1.91-.11c.16-.53.29-1,.42-1.64a4.44,4.44,0,0,0,.11-1.09,5.92,5.92,0,0,1,1.09.28c.09,0,.13.08.13.15a.29.29,0,0,1-.11.21,1.3,1.3,0,0,0-.2.44c-.15.5-.31,1-.45,1.51A18,18,0,0,0,286.72,15.45Zm.85,3.39a4.24,4.24,0,0,0-.08-.89,4.12,4.12,0,0,1,.95.18c.1,0,.16.08.16.17a.75.75,0,0,1-.09.25,2.41,2.41,0,0,0-.05.66,25.5,25.5,0,0,0,.16,2.57,12.56,12.56,0,0,1,2.65,1.4c.11.07.1.12.06.23A4.66,4.66,0,0,1,291,24c-.07.1-.14.09-.22,0a8.34,8.34,0,0,0-2.13-1.33c0,1.41-.7,2.18-2.51,2.18-1.06,0-2.17-.54-2.17-1.71s1-1.76,2.38-1.76a6.78,6.78,0,0,1,1.4.17C287.66,20.72,287.59,19.6,287.57,18.84Zm-1.19,3.35c-1.12,0-1.62.43-1.62.95s.52.94,1.44.94c1.15,0,1.57-.6,1.57-1.32a2.56,2.56,0,0,0,0-.33A4.71,4.71,0,0,0,286.38,22.19Zm2.38-6.28c.07-.11.12-.12.24-.08a9.69,9.69,0,0,1,2.75,1.32c.1.08.1.14,0,.25a3.39,3.39,0,0,1-.32.56c-.07.1-.11.08-.19,0a9.48,9.48,0,0,0-2.86-1.43C288.54,16.32,288.65,16.08,288.76,15.91Z"/><path class="cls-8" d="M296.8,15.12q.12.06.12.15a1,1,0,0,1-.06.25,5.17,5.17,0,0,0-.11,1.29A22.77,22.77,0,0,0,297,20c.21,1.65.81,2.86,1.48,2.86s1.1-.9,1.5-2.2a1.92,1.92,0,0,0,.46.7.31.31,0,0,1,.12.35c-.4,1.13-1.15,2.2-2.09,2.2-1.18,0-2.06-1.63-2.37-3.83a31.78,31.78,0,0,1-.25-3.9,5.86,5.86,0,0,0-.11-1.35A3.74,3.74,0,0,1,296.8,15.12Zm6.68,1.07a.18.18,0,0,1,.21,0A8.49,8.49,0,0,1,306.42,21a.16.16,0,0,1-.1.18,3.23,3.23,0,0,1-.64.33.14.14,0,0,1-.19-.12,8.17,8.17,0,0,0-2.63-4.86A6.62,6.62,0,0,1,303.48,16.19Z"/><path class="cls-8" d="M317.18,23c0,.52,0,.8.14,1s.73.21,1.64.21a2.88,2.88,0,0,0,1.47-.24c.31-.21.39-.65.42-1.64a1.73,1.73,0,0,0,.56.28c.25.07.25.07.24.31-.07.95-.24,1.41-.59,1.66a3.72,3.72,0,0,1-2.34.45c-1.3,0-1.86-.08-2.13-.39s-.28-.57-.28-1.41V19.84h-2a5.59,5.59,0,0,1-1.1,3.53,6.26,6.26,0,0,1-3,1.87,1.22,1.22,0,0,1-.21.06c-.09,0-.11-.07-.2-.22a1.8,1.8,0,0,0-.45-.51,6.12,6.12,0,0,0,3.13-1.65,4.72,4.72,0,0,0,1-3.08h-1.75c-1.36,0-1.81,0-1.89,0s-.11,0-.11-.12v-.59c0-.1,0-.11.11-.11s.53,0,1.89,0h7.63c1.36,0,1.82,0,1.89,0s.12,0,.12.11v.59c0,.11,0,.12-.12.12s-.53,0-1.89,0h-2.17Zm3.92-7.31c0,1.23,0,1.41,0,1.5s0,.11-.11.11h-.64c-.1,0-.12,0-.12-.11V15.16h-9.49v2.06c0,.09,0,.11-.12.11H310c-.1,0-.11,0-.11-.11s0-.26,0-1.5v-.46c0-.49,0-.7,0-.77s0-.12.11-.12.56,0,1.93,0H315v-.19a6.47,6.47,0,0,0-.1-1.45,7.57,7.57,0,0,1,.91.09c.1,0,.17.05.17.11a.51.51,0,0,1-.09.25,4.32,4.32,0,0,0-.05,1v.19h3.25c1.37,0,1.86,0,1.93,0s.11,0,.11.12,0,.28,0,.67ZM319,17.38c0,.1,0,.12-.09.12s-.51,0-1.83,0H314c-1.32,0-1.75,0-1.82,0s-.12,0-.12-.12v-.57c0-.11,0-.13.12-.13s.5,0,1.82,0h3.13c1.32,0,1.76,0,1.83,0s.09,0,.09.13Z"/><path class="cls-8" d="M336.66,18.51c-.07.15-.1.21-.17.21a.5.5,0,0,1-.22-.09,13.48,13.48,0,0,1-5.93-4.78,14.36,14.36,0,0,1-5.7,4.88.46.46,0,0,1-.21.08c-.07,0-.11-.07-.2-.21a1.49,1.49,0,0,0-.42-.47,12.93,12.93,0,0,0,5.76-4.72,2.61,2.61,0,0,0,.38-.83,8.06,8.06,0,0,1,.88.2c.14,0,.18.08.18.15a.17.17,0,0,1-.09.15.51.51,0,0,0-.13.12,13.23,13.23,0,0,0,6.26,4.72A2.24,2.24,0,0,0,336.66,18.51Zm-.37,6.06c0,.1,0,.11-.11.11s-.53,0-1.87,0h-7.79c-1.36,0-1.81,0-1.89,0s-.12,0-.12-.11V24c0-.09,0-.11.12-.11s.53,0,1.89,0h3.36V21.53h-1.5c-1.39,0-1.83,0-1.92,0s-.11,0-.11-.11v-.59c0-.1,0-.11.11-.11s.53,0,1.92,0h1.5V18.69h-1.21c-1.34,0-1.77,0-1.84,0s-.12,0-.12-.12V18c0-.1,0-.11.12-.11s.5,0,1.84,0H332c1.33,0,1.78,0,1.87,0s.09,0,.09.11v.6c0,.1,0,.12-.09.12s-.54,0-1.87,0h-1.3v2.08h1.72c1.37,0,1.84,0,1.91,0s.12,0,.12.11v.59c0,.1,0,.11-.12.11s-.54,0-1.91,0h-1.72v2.34h3.59c1.34,0,1.8,0,1.87,0s.11,0,.11.11Z"/><path class="cls-8" d="M350,18.06a.63.63,0,0,0,.35-.06.34.34,0,0,1,.17-.05c.07,0,.16,0,.44.26s.28.27.28.38,0,.14-.16.21a1.61,1.61,0,0,0-.51.46A10.72,10.72,0,0,1,348.8,21c-.1.08-.16.12-.2.12s-.11-.05-.24-.15a3.21,3.21,0,0,0-.6-.34,9.1,9.1,0,0,0,2-1.73h-3.9V22c0,.78,0,1.4,0,1.91s-.11.83-.37,1-.71.28-2,.26c-.29,0-.29,0-.36-.29a3.22,3.22,0,0,0-.28-.69,13.22,13.22,0,0,0,1.45.09c.48,0,.63-.12.63-.55V18.9H341.4c-1.33,0-1.79,0-1.86,0s-.12,0-.12-.12v-.67c0-.1,0-.11.12-.11s.53,0,1.86,0h4.4a15,15,0,0,0-3-2.13c-.11-.06-.1-.06,0-.21l.28-.32c.1-.12.13-.1.2-.06a17.73,17.73,0,0,1,1.78,1.11,18.77,18.77,0,0,0,3.09-2.08h-5.5c-1.42,0-1.9,0-2,0s-.1,0-.1-.11v-.65c0-.09,0-.11.1-.11s.56,0,2,0h5.87a.88.88,0,0,0,.33,0,.6.6,0,0,1,.2-.07c.08,0,.21.08.43.31s.31.35.31.46-.06.14-.2.2a1.63,1.63,0,0,0-.49.29A19.57,19.57,0,0,1,345.81,17c.3.24.58.49.84.73.09.07.06.07-.07.2l-.19.18Z"/><path class="cls-8" d="M358.1,17.34c.16-.07.2-.05.25,0a13.52,13.52,0,0,1,1.12,2.52c0,.13,0,.17-.15.23l-.32.09c-.17.06-.2.05-.23-.05-.08-.27-.16-.55-.26-.81l-1.35.14v3.75c0,1.53,0,2,0,2.05s0,.09-.11.09h-.63c-.1,0-.11,0-.11-.09s0-.52,0-2.05V19.56l-1.54.11a1.22,1.22,0,0,0-.53.11.32.32,0,0,1-.15.06c-.07,0-.11-.07-.14-.19a6.32,6.32,0,0,1-.14-.77c.29,0,.63.05.88.05h.17c.36-.48.71-1,1-1.46a18.35,18.35,0,0,0-2.06-2.16c-.1-.08-.08-.11,0-.25l.24-.29c.11-.13.14-.13.22,0l.54.52a18,18,0,0,0,.92-1.58,3.14,3.14,0,0,0,.36-.95,5.71,5.71,0,0,1,.79.35c.11,0,.15.12.15.18a.21.21,0,0,1-.12.15.7.7,0,0,0-.24.3c-.5.84-.87,1.41-1.35,2.08a13.2,13.2,0,0,1,.94,1c.33-.52.63-1,.91-1.5a5.33,5.33,0,0,0,.56-1.19,5,5,0,0,1,.77.39c.1.06.13.1.13.17s-.06.12-.14.18a2.2,2.2,0,0,0-.49.62c-.77,1.23-1.57,2.39-2.34,3.41.77,0,1.64-.09,2.47-.16a9.91,9.91,0,0,0-.55-1.08c-.06-.1,0-.13.14-.2ZM355.47,21a1,1,0,0,0-.1.4,11.76,11.76,0,0,1-.69,2.73c0,.14-.07.2-.12.2a.52.52,0,0,1-.21-.11,1.44,1.44,0,0,0-.48-.21,9.7,9.7,0,0,0,.76-2.76,3.14,3.14,0,0,0,0-.67,5.09,5.09,0,0,1,.68.11c.14,0,.2.08.2.14S355.5,21,355.47,21Zm2.94-.42c.15-.05.18,0,.24.08a16.68,16.68,0,0,1,.8,2.65c0,.11,0,.15-.17.21l-.34.1c-.19.05-.21,0-.24-.07a17.52,17.52,0,0,0-.72-2.69c-.05-.12,0-.16.14-.2Zm5.74-5.4c1.1,0,1.43,0,1.52,0s.12,0,.12.12c0,.35,0,.72,0,1.07a43.88,43.88,0,0,1-.44,6.79c-.24,1.37-.66,2.1-1.76,2.12a12.36,12.36,0,0,1-1.3-.07c-.28,0-.29,0-.35-.34a2,2,0,0,0-.22-.63,10.35,10.35,0,0,0,1.82.19c.6,0,.83-.67,1-1.58a42.42,42.42,0,0,0,.39-6.88h-4.09a11.08,11.08,0,0,1-1.18,1.83c-.08.11-.14.15-.19.15s-.11,0-.21-.14a1.72,1.72,0,0,0-.45-.34,9.78,9.78,0,0,0,2-3.57,5.36,5.36,0,0,0,.27-1.23,6.74,6.74,0,0,1,.87.22c.12,0,.19.1.19.17s0,.13-.12.25a1.76,1.76,0,0,0-.35.68c-.13.39-.3.79-.48,1.21Zm-3.27,3c.12-.08.15-.07.21,0a12,12,0,0,1,1.8,2.66c.06.11,0,.14-.11.23l-.39.22c-.18.11-.21.11-.27,0a10.83,10.83,0,0,0-1.69-2.67c-.07-.09-.07-.12.1-.23Z"/><path class="cls-8" d="M376.05,18.06c0,.11,0,.12-.11.12s-.52,0-1.86,0h-1.21v1.51h.87c1.23,0,1.64,0,1.72,0s.12,0,.12.11,0,.46,0,1.39v.46c0,.74,0,1.19,0,1.54a.94.94,0,0,1-.29.84c-.2.16-.48.21-1.14.21-.26,0-.26,0-.32-.26a1.59,1.59,0,0,0-.24-.55,6.85,6.85,0,0,0,.77,0c.28,0,.41-.1.41-.42V20.38h-1.88v2.27c0,1.75,0,2.54,0,2.61s0,.11-.11.11h-.65c-.09,0-.11,0-.11-.11s0-.84,0-2.59V20.38h-1.85v2.24c0,1,0,1.39,0,1.47s0,.1-.11.1h-.63c-.1,0-.11,0-.11-.1s0-.47,0-1.48V21c0-.91,0-1.2,0-1.29s0-.11.11-.11.49,0,1.72,0h.84V18.16h-1.43c-1.34,0-1.79,0-1.86,0s-.11,0-.11-.12V17.5c0-.1,0-.12.11-.12s.52,0,1.86,0h1.43V15.75h-1.71a6.59,6.59,0,0,1-.66,1.14c-.07.13-.11.19-.17.19s-.09,0-.18-.1a1.75,1.75,0,0,0-.5-.24,6.85,6.85,0,0,0,1.3-2.7,3.64,3.64,0,0,0,.07-.52,3.6,3.6,0,0,1,.74.21c.13,0,.16.07.16.12A.26.26,0,0,1,371,14a1,1,0,0,0-.15.33c-.06.21-.13.43-.21.67h1.4v-.76A5.18,5.18,0,0,0,372,13a7,7,0,0,1,.91.08c.09,0,.16.05.16.12a.51.51,0,0,1-.07.23,2.15,2.15,0,0,0-.09.82V15h.86c1.1,0,1.47,0,1.54,0s.1,0,.1.11v.56c0,.1,0,.11-.1.11s-.44,0-1.54,0h-.86v1.66h1.21c1.34,0,1.78,0,1.86,0s.11,0,.11.12Zm.84-2a11.22,11.22,0,0,0-.09-1.89l.89.07c.1,0,.16.06.16.11a.7.7,0,0,1-.09.24,7,7,0,0,0-.05,1.44v3.81c0,1.22,0,1.73,0,1.81s0,.11-.11.11H377c-.1,0-.12,0-.12-.11s0-.59,0-1.81Zm2.75-1.22a9.23,9.23,0,0,0-.1-1.69,8.49,8.49,0,0,1,.93.08c.11,0,.16.06.16.11a.61.61,0,0,1-.08.27,4.35,4.35,0,0,0-.07,1.22v6.88c0,.77,0,1.58,0,2.11s-.1.93-.39,1.14-.62.26-1.86.26c-.27,0-.27,0-.32-.28a3,3,0,0,0-.28-.66,8.24,8.24,0,0,0,1.27.09c.55,0,.73-.1.73-.67Z"/><path class="cls-8" d="M387.38,23.66a2,2,0,1,1-2-1.95A2,2,0,0,1,387.38,23.66Zm-3.23,0a1.26,1.26,0,0,0,1.25,1.25,1.25,1.25,0,0,0,0-2.5A1.26,1.26,0,0,0,384.15,23.66Z"/><path class="cls-8" d="M104.32,54l-.09,13a.69.69,0,0,0,.76.65.71.71,0,0,0,.77-.65s-.09-9-.09-13.3v-3l3.61.05a.68.68,0,0,0,0-1.35l-3.58,0c0-2.85.06-5.58.06-5.58a.71.71,0,0,0-.77-.7.69.69,0,0,0-.76.7l.06,5.58-4.37,0a.68.68,0,0,0,0,1.35l4.4-.05v.62a28.14,28.14,0,0,1-2.91,5.1,7.37,7.37,0,0,1-2.85,2.36h0A1.19,1.19,0,0,0,99,61.09a1.15,1.15,0,0,0,.52-.14.91.91,0,0,0,.27-.18l0,0,.06,0A34.08,34.08,0,0,0,104.32,54Z"/><path class="cls-8" d="M106.52,53.84a.68.68,0,0,0-.68.62.44.44,0,0,0,.23.4,15.8,15.8,0,0,1,2.84,2.48.63.63,0,0,0,.51.25.8.8,0,0,0,.73-.79C110.15,55.87,106.83,53.84,106.52,53.84Z"/><path class="cls-8" d="M133.92,60.89a.62.62,0,0,0,.65-.65c0-1.47,0-3.33,0-5.1s0-3.52,0-4.73c0-.93.4-1.39,1.27-1.41.28,0,.59,0,.9,0l0,18a.66.66,0,0,0,.71.68.65.65,0,0,0,.67-.68l0-18c.34,0,.68,0,1,0,.93,0,1.24.5,1.27,1.41.05,2.11.05,7.46.05,7.63,0,.79-.25,1-.76,1a3.67,3.67,0,0,1-.87-.14h-.08c-.29,0-.43.31-.43.65,0,.59.34.87,1.55.87s1.89-.76,1.89-2.17v-.17c0-.81-.06-1.46-.06-2,0-1,0-4.23,0-5.92a2.1,2.1,0,0,0-2.26-2.34h-1.24v-4a.66.66,0,0,0-.7-.67.66.66,0,0,0-.71.67l0,4h-1.07a2.09,2.09,0,0,0-2.36,2.31c0,1.41,0,3.16,0,5s0,3.61,0,5.13A.64.64,0,0,0,133.92,60.89Z"/><path class="cls-8" d="M140.49,66.72a.71.71,0,0,0,.73.73,8.84,8.84,0,0,0,6.87-6.59c0-.06,0-.12,0-.17a.66.66,0,0,0-.73-.62.6.6,0,0,0-.65.45c-.62,3-2.73,4.79-5.75,5.52A.67.67,0,0,0,140.49,66.72Z"/><path class="cls-8" d="M144.35,54.35a.74.74,0,0,0-.76.62.44.44,0,0,0,.14.34,8.39,8.39,0,0,1,1.8,2.34A.55.55,0,0,0,146,58a.8.8,0,0,0,.73-.81C146.77,56.41,144.82,54.35,144.35,54.35Z"/><path class="cls-8" d="M146.21,52.86c1,0,2,0,3.07,0s2.14,0,3.24,0c1.69-.09,2.48-.9,2.53-2.17,0-.71.06-1.52.06-2.34s0-1.66-.09-2.37a2.3,2.3,0,0,0-2.48-2c-1.18,0-2.36,0-3.55,0-1,0-1.91,0-2.84,0-1.69.06-2.54,1-2.56,2.17,0,.82-.06,1.78-.06,2.71,0,.67,0,1.32,0,1.86C143.59,51.93,144.35,52.77,146.21,52.86Zm.19-7.67c1,0,2.12,0,3.21,0,4.09,0,4.09,0,4.09,2.62h-8.79C144.91,46,145.14,45.22,146.4,45.19Zm7.33,3.69c0,2-.06,2.77-1.44,2.79-1.21.06-2.28.09-3.38.09-3.07,0-3.89-.06-3.94-1.27,0-.48-.06-1-.06-1.61Z"/><path class="cls-8" d="M156.52,59.39a.56.56,0,0,0,.59-.59.63.63,0,0,0-.62-.65l-4,0a14.72,14.72,0,0,0,2.08-3.24.88.88,0,0,0-.82-.76.55.55,0,0,0-.53.37,34.37,34.37,0,0,1-2.11,3.63h-1.22l0-4.25a.67.67,0,0,0-.7-.68.66.66,0,0,0-.71.68l0,4.25-5.77,0a.62.62,0,0,0,0,1.24l7.24,0c0,.82-.09,3.16-.09,5.33,0,2,1.07,2.45,3.07,2.45,3.24,0,4-1.1,4-4v-.22a.47.47,0,0,0,0-.14,1.17,1.17,0,0,0-1.15-1,1.19,1.19,0,0,0-1.19,1.19,1.17,1.17,0,0,0,.28.74h0a1.68,1.68,0,0,1,.36.72,1.1,1.1,0,0,1-.27,1.11,3.85,3.85,0,0,1-2.18.39c-1.41,0-1.5-.45-1.5-2.06,0-1.26.06-2.93.12-4.45Z"/><path class="cls-8" d="M190.12,65.14a18.23,18.23,0,0,1-10.73-13l9.8.06a.72.72,0,1,0,0-1.44H179.13c.06-.47.26-3.73.26-6.23h0v0a.8.8,0,0,0-.08-.36,1.19,1.19,0,0,0-2.3.41,1.84,1.84,0,0,0,.05.25h0a30.67,30.67,0,0,1,.47,6h-10a.72.72,0,1,0,0,1.44l9.89-.06a16.71,16.71,0,0,1-6.95,11.44A5.78,5.78,0,0,1,167,64.81a1.19,1.19,0,0,0,0,2.38c.05,0,.09,0,.14,0h0c.51,0,8.93-3.24,11.41-13.1,2.09,8,9.72,12.79,11.16,12.79a1,1,0,0,0,.93-1A.73.73,0,0,0,190.12,65.14Z"/><path class="cls-8" d="M223.7,65.36h-.09c-2.22.17-5.26.48-8.14.48-5.13,0-7.58-.93-9.49-3.35,0-2.06.05-3.91.05-5.58,0-2.28-1.71-2.31-3.35-2.31h-1.63a.65.65,0,0,0-.29.07,1.17,1.17,0,0,0-.87,1.12A1.19,1.19,0,0,0,201.08,57a1.14,1.14,0,0,0,.49-.12h0s1.8-1.15,2.65-.6a1.13,1.13,0,0,1,.34.93v1.26c0,1.19,0,2.51-.06,3.95a14.4,14.4,0,0,1-4.14,3.26.76.76,0,0,0-.42.65.86.86,0,0,0,.82.82c.39,0,2.5-1.32,4.48-3.55,2.05,2.28,3.8,3.69,11.18,3.69a70.91,70.91,0,0,0,7.21-.37.84.84,0,0,0,.85-.78A.76.76,0,0,0,223.7,65.36Z"/><path class="cls-8" d="M209.75,45.53h0c2.51-.08,6.87-.11,8.93-.14.4,0,.62.09.62.25,0,.48-3,2-3.49,2.29a8.35,8.35,0,0,0-2.48-1.19.67.67,0,0,0-.62.62.42.42,0,0,0,.25.37,8.77,8.77,0,0,1,2.59,1.55H212c-1.77,0-2.7,1-2.73,2.39,0,2,0,4.15,0,6.37,0,1.66,0,3.35,0,5a.69.69,0,0,0,.71.65.65.65,0,0,0,.67-.65c0-1.58,0-3.18,0-4.7h4.51v4.76a.64.64,0,0,0,.68.62.63.63,0,0,0,.67-.62V58.38h4.62c0,1.27,0,2.17,0,2.25v.11c0,1.1-.57,1.41-1.27,1.41a4.26,4.26,0,0,1-1-.14c-.06,0-.09,0-.15,0-.3,0-.53.34-.53.68,0,.73,1,.82,1.72.82a2.5,2.5,0,0,0,2.73-2.68c0-.39-.08-3.35-.08-3.41,0-.28,0-.7,0-1.18,0-1.1,0-2.56,0-3.69V51.7a2.43,2.43,0,0,0-2.62-2.42h-3.13a.51.51,0,0,0,.06-.2.75.75,0,0,0-.09-.34,25.75,25.75,0,0,0,3.61-2.11,1.57,1.57,0,0,0,.76-1.21c0-.65-.71-1.18-2-1.18-2.84,0-6.28,0-9.35,0a.6.6,0,0,0-.56.65A.53.53,0,0,0,209.75,45.53Zm5.41,11.75h-4.51v-3h4.51Zm0-4.06h-4.54c0-.48,0-.93,0-1.35a1.41,1.41,0,0,1,1.52-1.49c.9,0,1.92,0,3,0Zm1.32,4.06v-3h4.6c0,1,0,2,0,3Zm3-6.9c1.58,0,1.58,1.15,1.58,2.84h-4.6V50.35C217.5,50.35,218.51,50.35,219.53,50.38Z"/><path class="cls-8" d="M121.87,60.19a1.19,1.19,0,0,0-1.08,1.69h0s.6,2-.13,2.71-1.79.77-3.27.77c-2.68,0-3.13-.53-3.13-2.28,0-2.9.17-17.32.17-18.53a.72.72,0,0,0-.79-.71.76.76,0,0,0-.79.71c0,.87,0,17.94,0,19.18,0,2.28,1.55,3,4.82,3,3,0,5.43-.36,5.43-5.1v-.29A1.19,1.19,0,0,0,121.87,60.19Z"/><path class="cls-8" d="M202.31,47.26h0a4.18,4.18,0,0,1,1.67.39,3.11,3.11,0,0,1,.72.58,6,6,0,0,1,.58.71.61.61,0,0,0,.54.31.94.94,0,0,0,.84-.93.81.81,0,0,0-.19-.53c-.45-.57-3.24-2.91-4-2.91l-.07,0-.07,0a1.19,1.19,0,0,0,0,2.38Z"/><path class="cls-8" d="M253,46.58a.8.8,0,0,0-.07-.36,1.18,1.18,0,0,0-2.3.36,1.25,1.25,0,0,0,.1.48h0a8.43,8.43,0,0,1,.61,3.09h0c0,1.6.09,3.24.09,4.49,0,4.45-1.24,8.57-6.6,11.52a.9.9,0,0,0-.5.79.76.76,0,0,0,.79.76,1.37,1.37,0,0,0,.67-.19c5.86-3.36,7.3-8.14,7.3-12.93,0-2-.09-4.51-.09-6.74Z"/><path class="cls-8" d="M245.1,57.14c0-1,0-2.39,0-3.8,0-2.26,0-4.71-.11-6.28a.78.78,0,0,0-.81-.76.75.75,0,0,0-.82.76v0c.08,1.67.14,4,.14,6.17,0,1.44,0,2.82-.09,3.95v.05a.77.77,0,0,0,.79.79A.9.9,0,0,0,245.1,57.14Z"/><path class="cls-8" d="M280.62,50.47c-1.3,0-2.79,0-4.31,0V46.58s0,0,0-.06,0,0,0-.05v-.06a.66.66,0,0,0-.08-.32,1.19,1.19,0,0,0-1.1-.76,1.2,1.2,0,0,0-1.19,1.19,1.19,1.19,0,0,0,.1.46h0a6.83,6.83,0,0,1,.63,2.63v.82c-1.46,0-2.93,0-4.25.05a2.74,2.74,0,0,0-2.93,2.62v.06c0,.7,0,1.55,0,2.34v1.86a.71.71,0,0,0,.08.34,1.18,1.18,0,0,0,1.11.8,1.19,1.19,0,0,0,1.19-1.19,1.14,1.14,0,0,0-.24-.67v0a3.48,3.48,0,0,1-.53-2c0-.48,0-.91,0-1.14,0-.76.34-1.52,1.67-1.6.9-.06,2.84-.09,4.81-.09,1.75,0,3.47,0,4.6.09s1.57.45,1.57,1.52c0,3-1.72,9.8-10.82,12A.79.79,0,1,0,271.1,67c.53,0,11.8-2.42,12.45-13.74v-.17C283.55,51.65,282.53,50.52,280.62,50.47Z"/><path class="cls-8" d="M313.46,50.58c-1.18,0-2.53,0-4,0-4.25,0-9.18.08-12.56.14a.9.9,0,0,0-.71.29,1.17,1.17,0,0,0,.74,2.09,1.14,1.14,0,0,0,.52-.13h0l.09-.05h0a5.44,5.44,0,0,1,1.85-.61,21.86,21.86,0,0,1,2.65-.17c3,0,6.34-.07,8.84-.07H313c.65,0,.93.29.93.62a1.14,1.14,0,0,1-.37.74,49.14,49.14,0,0,1-7.18,5.69,20.06,20.06,0,0,0-4.55-2.84h0a1.22,1.22,0,0,0-.27-.06h0a.75.75,0,0,0-.16,0,1.19,1.19,0,1,0,0,2.38,1,1,0,0,0,.17,0v0a3.44,3.44,0,0,1,2.46.76l.23.17a17.54,17.54,0,0,1,4.24,4.21.84.84,0,0,0,.73.48,1,1,0,0,0,.9-.93c0-.51-.79-1.63-2.48-3.1a48,48,0,0,0,7.69-6.23,2,2,0,0,0,.59-1.4C315.91,51.45,315,50.61,313.46,50.58Z"/><path class="cls-8" d="M347.74,54.8c-1.43,0-4.45,0-7.72,0,0-1.19,0-2.57,0-3.75V49.68C343,49,344,48.62,344.3,48.29l.09-.11,0,0a1.14,1.14,0,0,0,.27-.72,1.19,1.19,0,0,0-1.19-1.19,1.14,1.14,0,0,0-.95.52h0s-.35.84-2.22,1.4l-.35.09-.28.06a33.46,33.46,0,0,1-6.93.92h-.65c-.59,0-.87.33-.87.7s.28.7.9.7a38.55,38.55,0,0,0,6.34-.64c0,1.09.05,3.12.05,4.76-3.43,0-6.95,0-9.24.08a.73.73,0,0,0-.79.71.69.69,0,0,0,.74.67h0c2.46-.08,5.89-.08,9.24-.08a10.15,10.15,0,0,1-7.66,9.6.89.89,0,0,0-.67.85.75.75,0,0,0,.84.76,1.73,1.73,0,0,0,.59-.11A11.82,11.82,0,0,0,340,56.18v0c3.12,0,6,0,7.72,0h0c.54,0,.82-.33.82-.67A.75.75,0,0,0,347.74,54.8Z"/><path class="cls-8" d="M381.46,51.08A2.94,2.94,0,0,0,378.33,48c-2.22,0-4.39-.09-6.5-.09,0-1.09.05-2.59.05-3.74,0,0,0,0,0,0s0,0,0,0a1.19,1.19,0,1,0-2.38,0,1.3,1.3,0,0,0,.11.48h0s.6.72.66,3.31c-2,0-4,.06-5.91.09-2.17,0-3.27,1.32-3.3,2.9l-.16,16.39a.79.79,0,0,0,1.57,0V62c0-3.52,0-7.07.09-10.53,0-1.55.67-2.26,2.42-2.28s3.41,0,5.27,0c-.28,4-1.92,7.52-5.83,9.35a.7.7,0,0,0-.45.65.83.83,0,0,0,.84.81c.54,0,4.06-1.85,5.83-5.94a.48.48,0,0,0,.17.11,19.94,19.94,0,0,1,5.72,5,.8.8,0,0,0,.65.37.93.93,0,0,0,.87-.94c0-1.26-6.05-5.69-6.87-5.69h-.11a14.91,14.91,0,0,0,.7-3.74c2,0,3.94,0,5.83,0s2.28.9,2.34,2.36c.11,4.06.11,8.4.11,12.45A1.74,1.74,0,0,1,379,65.91a2.83,2.83,0,0,1-2.79-.58h0a1.18,1.18,0,0,0-.85-.37,1.2,1.2,0,0,0-1.19,1.19,1.18,1.18,0,0,0,.46.92,1.08,1.08,0,0,0,.25.17h.05a6.88,6.88,0,0,0,2.57.31c3.21,0,4.17-1.54,4.17-3.26v-.14l-.06-2.65C381.52,58.32,381.52,54.3,381.46,51.08Z"/><path class="cls-8" d="M399.66,52.55l3.69,0a.65.65,0,0,0,.67-.68.64.64,0,0,0-.67-.65l-3.67,0c0-2.25.06-4.25.06-4.59,2.34-.63,3.14-1,3.41-1.27a1.16,1.16,0,0,0,.39-.86,1.19,1.19,0,0,0-2.28-.48h0c-.05.12-.5,1-3.12,1.64a26.8,26.8,0,0,1-3.69.61.68.68,0,0,0,.09,1.35,26.52,26.52,0,0,0,3.72-.64l0,4.22-4.26,0a.65.65,0,0,0-.68.65.66.66,0,0,0,.68.68l4.28,0v.79A24.48,24.48,0,0,1,396,57l-.09.11a8.25,8.25,0,0,1-2.62,2.28,2.55,2.55,0,0,1-.35.13l0,0a1.17,1.17,0,0,0-1,1.14,1.17,1.17,0,0,0,1.69,1.07,1.16,1.16,0,0,0,.34-.22,30.2,30.2,0,0,0,4.34-5.78l-.11,11.49a.68.68,0,0,0,.76.65.69.69,0,0,0,.76-.65s-.08-7.66-.08-11.88Z"/><path class="cls-8" d="M404.16,57.76c0-.9-3.29-2.9-3.69-2.9a.7.7,0,0,0-.67.62.44.44,0,0,0,.22.39,13.59,13.59,0,0,1,2.9,2.43.62.62,0,0,0,.51.25A.79.79,0,0,0,404.16,57.76Z"/><path class="cls-8" d="M417.23,57a.64.64,0,0,0-.22,0l-3.61,1,0-13.69a.73.73,0,0,0-1.46,0V58.47l-8.43,2.31a.64.64,0,0,0-.5.62.7.7,0,0,0,.67.73.61.61,0,0,0,.23,0l8-2.25v7.46a.74.74,0,0,0,1.46,0l0-7.89,4-1.12a.68.68,0,0,0-.15-1.33Z"/><path class="cls-8" d="M405.83,48.87l.07,0h0A2.16,2.16,0,0,1,407,49a3.13,3.13,0,0,1,.93.71c.16.17.32.35.45.52a.73.73,0,0,0,.59.34.83.83,0,0,0,.76-.84c0-.84-2.49-2.73-3.41-3.09h0a.87.87,0,0,0-.23-.06h0a1.16,1.16,0,0,0-.18,0,1.19,1.19,0,0,0,0,2.38Z"/><path class="cls-8" d="M405.42,55l.08,0v0h.09a2.8,2.8,0,0,1,1.27.15h0l.19.1a2.23,2.23,0,0,1,.32.19h0a7.93,7.93,0,0,1,.72.69.7.7,0,0,0,.57.25.81.81,0,0,0,.76-.82.89.89,0,0,0-.28-.62c-.06,0-2.65-2.3-3.69-2.3h-.07a1.19,1.19,0,1,0,0,2.37Z"/></svg>