<svg id="bg" xmlns="http://www.w3.org/2000/svg" viewBox="0 0 52.9 101.19"><defs><style>.cls-1{fill:#3c648b;}.cls-2{fill:#fff;}.cls-3{fill:none;stroke:#3c648b;stroke-linecap:round;stroke-linejoin:round;}</style></defs><title>map_btn_02</title><polygon class="cls-1" points="52.9 101.19 0 101.19 0 6.89 52.9 0 52.9 101.19"/><path class="cls-2" d="M22.72,48.55h5.57a5,5,0,0,0,1.17-.12,2.09,2.09,0,0,0,.9-.49,3.45,3.45,0,0,0,.7-1,11.41,11.41,0,0,0,.62-1.61h1l-1.06,6h-13v-.93c2.13-1.9,3.88-3.57,5.25-5a31.49,31.49,0,0,0,3.23-3.85,11.88,11.88,0,0,0,1.63-3.15,10.1,10.1,0,0,0,.44-2.93,5.3,5.3,0,0,0-1-3.44,3.39,3.39,0,0,0-2.78-1.26,3.61,3.61,0,0,0-2.73,1.09,3.91,3.91,0,0,0-1,2.83,3.39,3.39,0,0,0,.82,2.4,2.91,2.91,0,0,0,2.26.9A1.72,1.72,0,0,1,24,39.05a2.51,2.51,0,0,1-1.46.4,3.44,3.44,0,0,1-1.44-.3,3.61,3.61,0,0,1-1.15-.87A4,4,0,0,1,19.15,37a5.09,5.09,0,0,1-.27-1.7,5.17,5.17,0,0,1,.53-2.32,5.63,5.63,0,0,1,1.46-1.83,6.88,6.88,0,0,1,2.2-1.22,8.18,8.18,0,0,1,2.75-.45,7.88,7.88,0,0,1,2.72.45,6.47,6.47,0,0,1,2.13,1.26,5.48,5.48,0,0,1,1.38,1.92,5.89,5.89,0,0,1,.49,2.45,8,8,0,0,1-.77,3.4,14.5,14.5,0,0,1-2.11,3.27,27.52,27.52,0,0,1-3.14,3.17c-1.19,1-2.47,2.06-3.83,3.06Z"/><circle class="cls-2" cx="26.45" cy="68.83" r="9"/><line class="cls-3" x1="24.27" y1="64.48" x2="28.62" y2="68.83"/><line class="cls-3" x1="24.27" y1="73.18" x2="28.62" y2="68.83"/></svg>