<svg id="bg" xmlns="http://www.w3.org/2000/svg" viewBox="0 0 79.97 129.6"><defs><style>.cls-1{fill:#a6c2e1;}.cls-2{fill:#fff;}.cls-3{fill:none;stroke:#a6c2e1;stroke-linecap:round;stroke-linejoin:round;}</style></defs><title>map_btn_03</title><polygon class="cls-1" points="79.71 44.67 79.97 129.6 0 129.6 0 97.63 0 0.17 35.21 0 79.71 44.67"/><path class="cls-2" d="M42.52,67.28a5.92,5.92,0,0,0-.94-3.59,3.08,3.08,0,0,0-2.64-1.28,5,5,0,0,1-.94.37,3.82,3.82,0,0,1-.94.14,1.5,1.5,0,0,1-.92-.27.81.81,0,0,1-.37-.69.64.64,0,0,1,.34-.58,1.77,1.77,0,0,1,.9-.2,5.25,5.25,0,0,1,.82.08,6,6,0,0,1,.88.23,2.81,2.81,0,0,0,2.43-1.35,6.33,6.33,0,0,0,.91-3.58c0-2.61-1.11-3.92-3.31-3.92a3.68,3.68,0,0,0-2.34.67,2.23,2.23,0,0,0-.85,1.85,2.16,2.16,0,0,0,.56,1.54,1.93,1.93,0,0,0,1.46.59,1.35,1.35,0,0,1-.69.77,2.7,2.7,0,0,1-1.27.29,2.86,2.86,0,0,1-1.14-.22,2.67,2.67,0,0,1-.89-.63,3.11,3.11,0,0,1-.61-.94,3,3,0,0,1-.22-1.18,3.12,3.12,0,0,1,.43-1.62,3.92,3.92,0,0,1,1.22-1.25,6,6,0,0,1,1.89-.79,10.77,10.77,0,0,1,5.2.08,6.62,6.62,0,0,1,2.1,1,4.59,4.59,0,0,1,1.34,1.57,4.32,4.32,0,0,1,.48,2,4.87,4.87,0,0,1-.34,1.79,5.6,5.6,0,0,1-.9,1.53,5.12,5.12,0,0,1-1.33,1.16,5.87,5.87,0,0,1-1.63.7v.17a7.31,7.31,0,0,1,1.93.81,6.15,6.15,0,0,1,1.54,1.26,5.81,5.81,0,0,1,1,1.65,5.45,5.45,0,0,1,.36,2,5.32,5.32,0,0,1-.56,2.42A5.94,5.94,0,0,1,44,71.82a7.11,7.11,0,0,1-2.34,1.27,9.13,9.13,0,0,1-3,.47A9,9,0,0,1,36,73.18a7,7,0,0,1-2.12-1,4.86,4.86,0,0,1-1.4-1.57,4,4,0,0,1-.5-2,3.78,3.78,0,0,1,.25-1.4,3.69,3.69,0,0,1,.69-1.13,3,3,0,0,1,1-.76A3,3,0,0,1,35.16,65a2.82,2.82,0,0,1,1.4.35,1.46,1.46,0,0,1,.75.89,2.17,2.17,0,0,0-1.73.77,2.87,2.87,0,0,0-.67,2,3,3,0,0,0,1,2.32,3.86,3.86,0,0,0,2.66.9A3.52,3.52,0,0,0,41.51,71,5.79,5.79,0,0,0,42.52,67.28Z"/><circle class="cls-2" cx="39.13" cy="89.81" r="9"/><line class="cls-3" x1="36.96" y1="85.46" x2="41.31" y2="89.81"/><line class="cls-3" x1="36.96" y1="94.16" x2="41.31" y2="89.81"/></svg>