<svg id="bg" xmlns="http://www.w3.org/2000/svg" viewBox="0 0 464 480"><defs><style>.cls-1{fill:#fff;}.cls-2{fill:#d9d9ce;opacity:0.5;}.cls-3{fill:#85bbbe;opacity:0.2;}.cls-4{fill:#959090;}.cls-5{fill:#908cc1;}.cls-6{fill:#3c648b;}.cls-7{fill:#8bb89e;}.cls-8{fill:#eadb88;}.cls-9{fill:#e2915a;}.cls-10{fill:#da6669;}.cls-11{fill:#a6c2e1;}.cls-12,.cls-14,.cls-15{fill:none;}.cls-12{stroke:#959090;stroke-miterlimit:10;}.cls-13{fill:#e5e5e5;}.cls-14{stroke:#908cc1;}.cls-14,.cls-15{stroke-linecap:round;stroke-linejoin:round;}.cls-15{stroke:#a6c2e1;}</style></defs><title>map_img_01</title><polygon class="cls-1" points="0.52 0.13 0.52 479.87 464.01 479.87 464.01 108.77 355.27 0.03 0.52 0.13"/><polygon class="cls-2" points="0.52 0.13 354.31 0.13 463.48 109.3 463.48 479.87 329.96 479.87 329.96 405.97 406.76 405.97 401.03 352.49 406.76 352.49 401.03 299.01 406.76 299.01 401.03 245.54 406.76 245.54 401.03 192.06 397.96 192.06 397.7 107.13 353.21 62.46 317.99 62.63 317.99 58.91 265.1 65.8 265.1 58.91 212.2 65.8 212.2 105.93 166.97 105.93 134.3 133.51 134.3 192.93 196.38 193.81 196.59 328.57 164.82 328.57 164.97 334.61 106.6 334.81 106.79 163.41 0.52 163.41 0.52 0.13"/><rect class="cls-3" x="329.97" y="406.25" width="133.88" height="73.33"/><path class="cls-4" d="M168.09,152.64a1.28,1.28,0,0,0,.34,0l.14,0c.11,0,.19.07.42.3s.26.31.26.38,0,.12-.12.17a1.21,1.21,0,0,0-.38.37,10.23,10.23,0,0,1-2.4,2.5,16.9,16.9,0,0,0,5.45,1.64,2.39,2.39,0,0,0-.38.62c-.12.28-.12.28-.39.22a16.54,16.54,0,0,1-5.45-2,16.68,16.68,0,0,1-5.35,1.89c-.26.06-.28.06-.39-.21a2,2,0,0,0-.36-.57,16.06,16.06,0,0,0,5.37-1.65,8.75,8.75,0,0,1-2.21-2.85l-1.22,0c-.1,0-.11,0-.11-.11v-.6c0-.1,0-.12.11-.12s.53,0,1.92,0Zm3.24-.88c0,1.05,0,1.26,0,1.34s0,.12-.11.12h-.64c-.1,0-.11,0-.11-.12v-1.92h-9.92v1.92c0,.1,0,.12-.11.12h-.63c-.1,0-.12,0-.12-.12s0-.29,0-1.36v-.53c0-.43,0-.63,0-.71s0-.11.12-.11.56,0,1.91,0h5.8a11.85,11.85,0,0,0,1-1.84,3.28,3.28,0,0,0,.18-.62c.29.1.56.19.76.28s.15.1.15.15a.36.36,0,0,1-.14.23,1.47,1.47,0,0,0-.27.39,12.66,12.66,0,0,1-.82,1.41h.89c1.36,0,1.85,0,1.92,0s.11,0,.11.11,0,.28,0,.64Zm-1.19-4.54a2.52,2.52,0,0,0-.55.06c-1.23.23-2.3.4-4,.58s-3.1.27-4.63.33c-.22,0-.22,0-.32-.27a1.76,1.76,0,0,0-.29-.55c1.79,0,3.37-.11,5.12-.28a27.28,27.28,0,0,0,3-.43,5.64,5.64,0,0,0,1.05-.32,6.62,6.62,0,0,1,.69.54c.08.09.11.14.11.2S170.27,147.22,170.14,147.22Zm-7.93,1.23c.14,0,.17,0,.22,0a6.7,6.7,0,0,1,.73,1.38c0,.08,0,.11-.14.18l-.39.14c-.2.07-.23.06-.27-.07a5.47,5.47,0,0,0-.64-1.33c-.07-.1-.05-.11.12-.18Zm1.31,5a7.17,7.17,0,0,0,2.08,2.4,8.8,8.8,0,0,0,2.39-2.4Zm1.75-5.14c.14-.06.17,0,.23.06a6.86,6.86,0,0,1,.6,1.54c0,.1,0,.11-.15.17l-.41.12c-.18.06-.21.06-.24-.07a7,7,0,0,0-.54-1.5c-.06-.1-.06-.12.14-.19Z"/><path class="cls-4" d="M176,153c0-.54,0-1.13,0-1.81a16,16,0,0,1-1.44,2c-.07.08-.13.13-.17.13s-.08-.05-.14-.14a2.18,2.18,0,0,0-.39-.56,15.34,15.34,0,0,0,3.09-5.35,3.58,3.58,0,0,0,.23-1,6.59,6.59,0,0,1,.88.33c.1,0,.15.08.15.15s0,.13-.12.2-.17.21-.28.51c-.3.7-.61,1.43-1,2.16v6.89c0,1.47,0,2.1,0,2.17s0,.12-.11.12h-.69c-.1,0-.11,0-.11-.12s0-.7,0-2.17Zm10.35-2.6c0,.1,0,.12-.11.12s-.55,0-1.94,0h0v4.73c0,.77,0,1.5,0,2.17s-.08.77-.38,1a4.13,4.13,0,0,1-2,.24c-.28,0-.28,0-.35-.27a2.26,2.26,0,0,0-.28-.66c.51,0,1.15.07,1.59.07s.57-.12.57-.54V150.5h-3.22c-1.39,0-1.86,0-1.93,0s-.12,0-.12-.12v-.61c0-.1,0-.11.12-.11s.54,0,1.93,0h3.22v-1.64a10.5,10.5,0,0,0-.08-1.7,8.52,8.52,0,0,1,.92.08c.11,0,.18.07.18.13a.61.61,0,0,1-.1.26,5.08,5.08,0,0,0-.06,1.21v1.66h0c1.39,0,1.87,0,1.94,0s.11,0,.11.11Zm-6.88,1.71c.1-.07.11-.07.18,0a12.43,12.43,0,0,1,1.77,2.54c0,.08,0,.11-.11.21l-.41.26c-.18.12-.21.12-.27,0a11.48,11.48,0,0,0-1.65-2.56c-.08-.08-.07-.1.1-.21Z"/><path class="cls-4" d="M224.21,303.75H222.6l-1.25-5.85c-.26-1.22-.43-2.21-.64-3.38h-.24c-.18,1.17-.35,2.18-.62,3.35l-1.31,5.88h-1.61l-2.3-10.32h1.26l1.18,5.77c.24,1.15.4,2.24.57,3.39h.24c.21-1.13.39-2.23.63-3.33l1.27-5.83h1.7l1.25,5.91c.22,1.09.39,2,.61,3.25h.24c.24-1.23.36-2.13.6-3.29l1.24-5.87h1.2Z"/><path class="cls-4" d="M235.26,296.53a2.49,2.49,0,0,0-2.51-2.27c-1.75,0-3,1.5-3,4.34s1.3,4.34,3,4.34a2.5,2.5,0,0,0,2.62-2.31l1.16.39a3.62,3.62,0,0,1-3.79,2.93c-2.48,0-4.32-1.95-4.32-5.34s1.85-5.36,4.32-5.36a3.62,3.62,0,0,1,3.72,2.95Z"/><path class="cls-4" d="M210.53,232.3l3.39,5.36h-1.4l-2.33-3.75a7.57,7.57,0,0,0-.42-.67c-.14.22-.26.44-.4.67l-2.3,3.75h-1.32l3.36-5.32-3.12-5h1.39l2.06,3.36.44.74c.17-.25.31-.51.47-.77l2.07-3.33h1.32Z"/><path class="cls-4" d="M221.94,230.83c.13-.06.17-.05.21,0a11.33,11.33,0,0,1,.93,2.27c0,.08,0,.14-.14.18l-.33.1c-.18.05-.21,0-.25-.09l-.12-.44L221,233v3.75c0,1.53,0,2,0,2s0,.11-.11.11h-.63c-.1,0-.12,0-.12-.11s0-.5,0-2V233.1l-1.43.11a1.81,1.81,0,0,0-.53.11.44.44,0,0,1-.17.06c-.07,0-.12-.07-.14-.17s-.07-.44-.11-.77a6.54,6.54,0,0,0,.9,0h.14c.36-.48.71-1,1-1.43a19.46,19.46,0,0,0-2-2.2c-.09-.09-.07-.11,0-.25l.22-.3c.1-.12.14-.12.21,0s.38.35.55.53a15.62,15.62,0,0,0,.94-1.63,4.33,4.33,0,0,0,.36-.89,3.71,3.71,0,0,1,.75.35c.09.05.14.1.14.17s-.05.11-.12.15a.79.79,0,0,0-.23.29c-.49.82-.86,1.4-1.32,2.08.32.33.63.68,1,1.06.38-.57.72-1.16,1.07-1.76a4,4,0,0,0,.4-.93c.27.11.55.24.76.35a.2.2,0,0,1,.13.17c0,.08-.05.13-.13.18a2.48,2.48,0,0,0-.48.63c-.78,1.25-1.57,2.41-2.34,3.43.73,0,1.47-.08,2.29-.15a8.25,8.25,0,0,0-.51-1.15c0-.08,0-.11.14-.18Zm-2.55,3.82a2.66,2.66,0,0,0-.12.53,14.81,14.81,0,0,1-.62,2.52c0,.16-.07.21-.13.21s-.09,0-.21-.11a1.79,1.79,0,0,0-.47-.21,9.14,9.14,0,0,0,.68-2.53,4.46,4.46,0,0,0,0-.86,5.27,5.27,0,0,1,.7.14c.12,0,.19.09.19.14A.25.25,0,0,1,219.39,234.65Zm2.62-.56c.14,0,.16,0,.2.06a11.71,11.71,0,0,1,.57,2.14c0,.1,0,.11-.18.18l-.29.11c-.2.07-.21.07-.23-.05a10.82,10.82,0,0,0-.5-2.17c0-.1,0-.13.15-.19Zm2.68-.53a.74.74,0,0,0,.26,0,.33.33,0,0,1,.12-.05c.08,0,.14,0,.35.24s.26.28.26.35a.18.18,0,0,1-.11.18.8.8,0,0,0-.25.38,7.3,7.3,0,0,1-2.43,3.38c-.09.08-.15.12-.2.12s-.12-.07-.21-.19a1.65,1.65,0,0,0-.41-.34,6.59,6.59,0,0,0,2.63-3.32H224c-.59,0-.89,0-1,0s-.11,0-.11-.11v-.55c0-.1,0-.11.11-.11s.34,0,1,0Zm2.13-1.28a11.86,11.86,0,0,0,1,2.33,13.34,13.34,0,0,0,1.25-1.29,3.25,3.25,0,0,0,.36-.55,3.35,3.35,0,0,1,.57.41c.09.07.14.11.14.2s-.06.12-.15.16a2.12,2.12,0,0,0-.53.47,13.77,13.77,0,0,1-1.26,1.17,8.25,8.25,0,0,0,2.35,2.17,1.78,1.78,0,0,0-.41.49c-.08.15-.12.2-.18.2a.35.35,0,0,1-.19-.11,9.28,9.28,0,0,1-3-4.26c0,1.54.1,2.58.1,3.91a1,1,0,0,1-.43.94,2.65,2.65,0,0,1-1.39.18c-.27,0-.25,0-.34-.28a1.32,1.32,0,0,0-.26-.53l1,0c.5,0,.62-.14.62-.52v-5.13h-.71c-1.19,0-1.6,0-1.68,0s-.12,0-.12-.11,0-.39,0-1.3V229c0-.91,0-1.23,0-1.3s0-.11.12-.11.49,0,1.68,0h.35a7.24,7.24,0,0,0,.26-.73,3.34,3.34,0,0,0,.17-.8l.79.14c.14,0,.18.08.18.15s0,.12-.12.19a.9.9,0,0,0-.18.28c-.11.31-.21.54-.31.77h1.17c1.19,0,1.58,0,1.66,0s.12,0,.12.11,0,.39,0,1.3v1.87c0,.91,0,1.23,0,1.3s0,.11-.12.11-.47,0-1.66,0Zm1.79-4h-4.24v1.27h4.24Zm0,1.93h-4.24v1.37h4.24Z"/><path class="cls-4" d="M245.09,238.24c0,.09,0,.11-.1.11s-.51,0-1.83,0h-8.39c-1.3,0-1.75,0-1.82,0s-.11,0-.11-.11v-.58c0-.1,0-.11.11-.11s.52,0,1.82,0h3.65v-1.81h-2c-1.41,0-1.89,0-2,0s-.12,0-.12-.11v-.58c0-.09,0-.11.12-.11s.56,0,2,0h2v-.1a6.61,6.61,0,0,0-.08-1.36l.9.07c.09,0,.16.07.16.11a.7.7,0,0,1-.08.27,3,3,0,0,0-.07.93V235h2.24c1.42,0,1.89,0,2,0s.11,0,.11.11v.58c0,.1,0,.11-.11.11s-.56,0-2,0h-2.24v1.81h3.91c1.32,0,1.75,0,1.83,0s.1,0,.1.11Zm-.46-9.42c0,1.17,0,1.32,0,1.4s0,.12-.11.12h-.65c-.1,0-.11,0-.11-.12v-1.86h-9.71v1.86c0,.1,0,.12-.11.12h-.64c-.1,0-.12,0-.12-.12s0-.23,0-1.4v-.43c0-.42,0-.62,0-.69s0-.11.12-.11.56,0,1.93,0h3.15v-.24a5.4,5.4,0,0,0-.1-1.15l.93.07c.09,0,.16.06.16.13a.61.61,0,0,1-.08.25,2.16,2.16,0,0,0-.07.7v.24h3.38c1.34,0,1.83,0,1.92,0s.11,0,.11.11,0,.27,0,.62ZM241,230.93c.11-.09.14-.07.22,0a17.42,17.42,0,0,1,2.31,2.25c.07.08.06.1-.07.21l-.36.32c-.1.09-.14.09-.23,0-.25-.31-.47-.6-.72-.87-2.37.27-4.61.43-7.15.56-.39,0-.52,0-.59.1a.21.21,0,0,1-.15,0c-.06,0-.1,0-.13-.14s-.12-.5-.18-.78a13.35,13.35,0,0,0,1.42,0l.85,0a16.29,16.29,0,0,0,1.15-2.15h-.57c-1.32,0-1.8,0-1.87,0s-.11,0-.11-.11v-.56c0-.1,0-.11.11-.11s.55,0,1.87,0h4.3c1.31,0,1.79,0,1.86,0s.11,0,.11.11v.56c0,.1,0,.11-.11.11s-.55,0-1.86,0h-2.81a18.33,18.33,0,0,1-1.16,2.1c1.53-.08,3-.19,4.46-.33-.3-.3-.62-.58-1-.87-.08-.07-.08-.11.07-.23Z"/><path class="cls-4" d="M190.59,359.28H189l-1.25-5.86c-.26-1.21-.43-2.21-.64-3.37h-.24c-.18,1.16-.35,2.17-.62,3.35l-1.31,5.88h-1.61L181,349h1.26l1.18,5.77c.24,1.15.4,2.24.57,3.39h.24c.21-1.14.39-2.23.63-3.34l1.27-5.82h1.7l1.25,5.91c.22,1.09.39,2,.61,3.25H190c.24-1.24.36-2.13.6-3.29L191.8,349H193Z"/><path class="cls-4" d="M201.64,352.05a2.5,2.5,0,0,0-2.51-2.27c-1.75,0-3,1.5-3,4.34s1.3,4.35,3,4.35a2.51,2.51,0,0,0,2.62-2.31l1.16.39a3.62,3.62,0,0,1-3.79,2.93c-2.48,0-4.32-2-4.32-5.34s1.85-5.37,4.32-5.37a3.62,3.62,0,0,1,3.72,3Z"/><path class="cls-4" d="M224.2,33.5a2.15,2.15,0,0,0,1.24,1.34,7.32,7.32,0,0,0,2.8.38,59.06,59.06,0,0,0,6-.32,1.69,1.69,0,0,0-.27.67c0,.28,0,.28-.32.3-1.84.12-3.67.18-5.1.18a9.29,9.29,0,0,1-3.43-.46,2.6,2.6,0,0,1-1.35-1.38,15.12,15.12,0,0,1-1.4,1.36,1.1,1.1,0,0,0-.26.32c-.05.09-.1.12-.16.12s-.11,0-.17-.12a4.42,4.42,0,0,1-.44-.78,4.26,4.26,0,0,0,.87-.52,8.58,8.58,0,0,0,1.19-1.11V30h-1c-.7,0-.87,0-.92,0s-.11,0-.11-.13V29.3c0-.09,0-.1.11-.1s.22,0,.92,0h.72c.7,0,.88,0,1,0s.11,0,.11.1,0,.43,0,1.33Zm-1.89-9.12c.13-.08.16-.08.24,0a10.34,10.34,0,0,1,1.58,1.95c.06.09.06.11-.09.22l-.34.25c-.17.13-.21.13-.27,0a9.82,9.82,0,0,0-1.54-2c-.08-.07-.07-.1.09-.2Zm8.74,2.55c1.35,0,1.81,0,1.89,0s.12,0,.12.11,0,.6,0,1.8v2.24c0,1,0,1.61,0,2.06s0,.7-.31.89-.5.26-1.37.27c-.26,0-.28,0-.33-.24a1.21,1.21,0,0,0-.26-.57,9.26,9.26,0,0,0,1,0c.35,0,.49-.13.49-.51V31.72h-2.66v.66c0,1.13,0,1.59,0,1.68s0,.11-.1.11h-.6c-.1,0-.11,0-.11-.11s0-.55,0-1.68v-.66H226.4v.8c0,1.13,0,1.61,0,1.69s0,.11-.11.11h-.6c-.1,0-.12,0-.12-.11s0-.5,0-1.68V28.72c0-1.17,0-1.62,0-1.71s0-.11.12-.11.54,0,1.89,0h1.33a10.23,10.23,0,0,0-1.6-1.09c-.1-.06-.11-.12,0-.23l.28-.22c.12-.1.14-.09.24,0a13.55,13.55,0,0,1,1.51,1.11,23.05,23.05,0,0,0,2-1.52h-4c-1.34,0-1.77,0-1.84,0s-.11,0-.11-.11v-.53c0-.11,0-.13.11-.13s.5,0,1.84,0h4.14a.91.91,0,0,0,.34,0,.35.35,0,0,1,.17-.06c.08,0,.19.09.39.28s.29.34.29.44-.05.15-.18.19a1.42,1.42,0,0,0-.49.31,22.49,22.49,0,0,1-2.1,1.56h1.13Zm-2.22.66H226.4V29h2.43Zm0,2.06H226.4v1.41h2.43Zm3.41-2.06h-2.66V29h2.66Zm0,2.06h-2.66v1.41h2.66Z"/><path class="cls-4" d="M239.82,34a18.64,18.64,0,0,0,2-.72,2,2,0,0,0,0,.49c0,.29,0,.29-.25.39-1.11.43-2.5.88-4,1.3a1.41,1.41,0,0,0-.53.23.29.29,0,0,1-.19.08c-.05,0-.09,0-.14-.13-.11-.25-.21-.51-.29-.75a7.81,7.81,0,0,0,.87-.14V31.37a7.1,7.1,0,0,0-.09-1.43c.31,0,.59.06.84.09.1,0,.16,0,.16.11a.72.72,0,0,1-.07.25,2.91,2.91,0,0,0-.07,1v3.21l1-.3v-5.8h-.47c-.92,0-1.23,0-1.31,0s-.12,0-.12-.11,0-.36,0-1.19V25.72c0-.82,0-1.12,0-1.2s0-.11.12-.11.39,0,1.31,0h1.33c.94,0,1.24,0,1.31,0s.12,0,.12.11,0,.38,0,1.2v1.49c0,.83,0,1.12,0,1.19s0,.11-.12.11-.37,0-1.31,0h-.1v2.09h.48c.63,0,.88,0,.95,0s.12,0,.12.11v.55c0,.1,0,.11-.12.11s-.32,0-.95,0h-.48Zm.73-8.88H238v2.62h2.57Zm6.59.12a.64.64,0,0,0,.33-.06.21.21,0,0,1,.13,0c.1,0,.17,0,.35.24s.24.27.24.35a.23.23,0,0,1-.13.2c-.1.05-.12.12-.24.32A13.55,13.55,0,0,1,246,28.88a10.75,10.75,0,0,0,3.46,1.9,1.65,1.65,0,0,0-.3.53c-.05.17-.1.23-.17.23a1,1,0,0,1-.22-.07,11.65,11.65,0,0,1-3.29-2.08,13.37,13.37,0,0,1-3.28,2.18.68.68,0,0,1-.2.07s-.09-.06-.16-.23a1.56,1.56,0,0,0-.37-.43,11.32,11.32,0,0,0,3.46-2.12,9.51,9.51,0,0,1-1.39-2,8.5,8.5,0,0,1-1.09,1.31c-.1.1-.14.14-.19.14s-.1-.05-.2-.15a1.31,1.31,0,0,0-.41-.3A8.78,8.78,0,0,0,244,24.39a3.15,3.15,0,0,0,.18-.74,4.86,4.86,0,0,1,.84.21c.1,0,.13.07.13.14a.24.24,0,0,1-.12.18,1.07,1.07,0,0,0-.25.37c-.11.26-.22.49-.33.73Zm.71,8.68c0,2,0,2.27,0,2.34s0,.1-.11.1h-.6c-.1,0-.12,0-.12-.1v-.73h-3.4v.72c0,.08,0,.09-.11.09h-.6c-.1,0-.12,0-.12-.09s0-.4,0-2.33V32.9c0-1,0-1.39,0-1.47s0-.12.12-.12.44,0,1.51,0h1.8c1.08,0,1.43,0,1.52,0s.11,0,.11.12,0,.42,0,1.33Zm-.8-1.89h-3.4v2.77h3.4ZM244,26l-.12.21a8.24,8.24,0,0,0,1.48,2.17A9.23,9.23,0,0,0,247.07,26Z"/><polygon class="cls-5" points="265.1 160.09 212.2 160.09 212.2 65.8 265.1 58.91 265.1 160.09"/><polygon class="cls-6" points="317.99 160.09 265.1 160.09 265.1 65.8 317.99 58.91 317.99 160.09"/><polygon class="cls-7" points="304.84 245.54 304.84 192.64 401.03 192.06 406.76 245.54 304.84 245.54"/><polygon class="cls-8" points="304.84 299.01 304.84 246.12 401.03 245.54 406.76 299.01 304.84 299.01"/><polygon class="cls-9" points="304.84 352.35 304.84 299.45 401.03 298.87 406.76 352.35 304.84 352.35"/><polygon class="cls-10" points="304.84 405.68 304.84 352.79 401.03 352.2 406.76 405.68 304.84 405.68"/><polygon class="cls-11" points="397.7 107.13 397.96 192.06 317.99 192.06 317.99 160.09 317.99 62.63 353.21 62.46 397.7 107.13"/><path class="cls-4" d="M41.44,127.31h2.44c.9,0,1.67,0,2.58-.06.14,0,.19,0,.19.17v.64c0,.14,0,.18-.19.18-.79,0-1.7,0-2.57,0H38c-.69,0-1.65,0-2.27.07-.15,0-.2,0-.22-.21a6,6,0,0,1-.07-.82c.91.07,1.69.07,2.56.07h2.45V122H39.05c-.84,0-1.47,0-2.13.07-.13,0-.14,0-.17-.21a6.31,6.31,0,0,1-.06-.83c.76.06,1.38.07,2.32.07h3.62c.87,0,1.59,0,2.46,0,.12,0,.14,0,.14.14v.67c0,.14,0,.18-.16.18-.89,0-1.6,0-2.42,0H41.44Z"/><path class="cls-4" d="M50.36,120.44a.18.18,0,0,1,.26,0,13.29,13.29,0,0,1,2.52,1.87c.1.09.11.15,0,.26a5.18,5.18,0,0,1-.48.61c-.08.09-.12.11-.22,0a14.48,14.48,0,0,0-2.66-2.07C50,120.86,50.21,120.61,50.36,120.44Zm1.27,7.43a23.86,23.86,0,0,0,4-2.61,21.78,21.78,0,0,0,3.79-3.77,4.5,4.5,0,0,0,.23.93c.09.18.07.29-.09.49a27,27,0,0,1-3.41,3.22,29.07,29.07,0,0,1-4.2,2.73,4.48,4.48,0,0,0-.77.55.23.23,0,0,1-.38,0,5.45,5.45,0,0,1-.69-.95A7.81,7.81,0,0,0,51.63,127.87Z"/><path class="cls-4" d="M65.81,123A20,20,0,0,1,70.38,125c.11.06.14.13.09.23a3.92,3.92,0,0,1-.33.68c-.09.11-.14.14-.27.06A15.56,15.56,0,0,0,65.8,124v3.25c0,.86,0,2,0,2.86,0,.14,0,.18-.18.18a4.33,4.33,0,0,1-.72,0c-.15,0-.19,0-.19-.2,0-.89,0-2,0-2.84v-6.23a11.71,11.71,0,0,0-.15-2.24,5.23,5.23,0,0,1,1.16.18c.22,0,.17.21.1.42a5.55,5.55,0,0,0-.1,1.55Z"/><path class="cls-4" d="M76.42,123.52c-.78,0-1.4,0-2,.07-.13,0-.18,0-.21-.18a5,5,0,0,1-.1-.88,23.21,23.21,0,0,0,2.32.1h5a1.61,1.61,0,0,0,.69-.1c.16-.08.23-.1.37,0a2.52,2.52,0,0,1,.52.51c.14.18.13.26,0,.38a1,1,0,0,0-.32.47,12.22,12.22,0,0,1-5.91,6.32c-.17.08-.27.08-.38,0a2.56,2.56,0,0,0-.78-.43,11.53,11.53,0,0,0,6.09-6.24Zm1.14-2.91c-.75,0-1.38,0-2,.06-.13,0-.16,0-.17-.2a7.13,7.13,0,0,1-.07-.84,20.26,20.26,0,0,0,2.28.1h2.17c.89,0,1.5,0,2.18-.07.12,0,.15,0,.15.17s0,.43,0,.63,0,.19-.18.18c-.65,0-1.24,0-2.09,0Z"/><path class="cls-4" d="M87.06,120.44a.17.17,0,0,1,.25,0,13.29,13.29,0,0,1,2.52,1.87c.1.09.11.15,0,.26a5.18,5.18,0,0,1-.48.61c-.08.09-.12.11-.22,0a14.48,14.48,0,0,0-2.66-2.07C86.69,120.86,86.9,120.61,87.06,120.44Zm1.26,7.43a23.86,23.86,0,0,0,4-2.61,21.78,21.78,0,0,0,3.79-3.77,4.5,4.5,0,0,0,.23.93c.09.18.07.29-.09.49a27,27,0,0,1-3.41,3.22,29.07,29.07,0,0,1-4.2,2.73,4.48,4.48,0,0,0-.77.55.23.23,0,0,1-.38,0,5,5,0,0,1-.68-.95A8,8,0,0,0,88.32,127.87Z"/><path class="cls-4" d="M106.27,120.51c.48,0,.63,0,.8-.11s.18,0,.28,0a3.48,3.48,0,0,1,.57.58c.09.11.06.21-.07.32a1.8,1.8,0,0,0-.4.52,25.51,25.51,0,0,1-2.08,3,28.25,28.25,0,0,1,4,3.51c.13.12.13.16,0,.3a6,6,0,0,1-.51.5c-.09.09-.15.09-.25,0a25.71,25.71,0,0,0-3.86-3.55,21.5,21.5,0,0,1-5,3.9c-.16.09-.24.1-.35,0a2.7,2.7,0,0,0-.73-.51,18.17,18.17,0,0,0,5.15-3.79,17.56,17.56,0,0,0,2.66-3.76h-4.21c-.79,0-1.39,0-2,.09-.13,0-.14-.05-.17-.16a5.54,5.54,0,0,1-.08-.89c.68.05,1.3.05,2.17.05Z"/><polyline class="cls-12" points="311.02 59.81 317.92 58.91 317.92 160.09 292.24 160.09"/><line class="cls-12" x1="265.03" y1="65.8" x2="291.65" y2="62.33"/><polyline class="cls-12" points="258.19 59.81 265.1 58.91 265.1 160.09 239.41 160.09"/><polyline class="cls-12" points="405.94 237.91 406.76 245.54 401.32 245.54"/><polyline class="cls-12" points="304.84 217.48 304.84 192.06 401.03 192.06 403.73 217.27"/><polyline class="cls-12" points="405.94 291.39 406.76 299.01 401.32 299.01"/><polyline class="cls-12" points="304.84 270.95 304.84 245.54 401.03 245.54 403.73 270.75"/><polyline class="cls-12" points="405.94 344.87 406.76 352.49 401.32 352.49"/><polyline class="cls-12" points="304.84 324.43 304.84 299.01 401.03 299.01 403.73 324.22"/><polyline class="cls-12" points="405.94 398.34 406.76 405.97 401.32 405.97 304.84 405.97"/><polyline class="cls-12" points="304.84 377.91 304.84 352.49 401.03 352.49 403.73 377.7"/><polyline class="cls-12" points="397.96 192.06 397.7 107.13 391.4 100.8"/><polyline class="cls-12" points="317.99 62.63 353.21 62.46 374.6 83.93"/><line class="cls-12" x1="329.97" y1="405.97" x2="329.97" y2="479.87"/><polygon class="cls-12" points="0.52 0.13 0.52 479.87 464.01 479.87 464.01 108.77 355.27 0.03 0.52 0.13"/><polyline class="cls-12" points="212.2 105.93 166.97 105.93 134.3 133.51 134.3 192.93 255.02 192.93 255.02 379.74 164.01 379.74 164.01 354.41 145.87 354.41 145.87 334.81 164.97 334.81 164.97 226.62 138.36 226.62"/><line class="cls-12" x1="196.38" y1="294.04" x2="196.38" y2="328.57"/><line class="cls-12" x1="196.38" y1="192.93" x2="196.38" y2="270.95"/><line class="cls-12" x1="190.98" y1="328.57" x2="254.81" y2="328.57"/><line class="cls-12" x1="220.94" y1="379.55" x2="220.94" y2="328.57"/><polyline class="cls-12" points="145.87 334.81 106.6 334.81 106.6 479.58"/><polyline class="cls-12" points="329.96 418.53 170.06 418.53 170.06 479.58"/><line class="cls-12" x1="170.06" y1="380.43" x2="170.06" y2="418.53"/><polyline class="cls-12" points="106.79 282.26 106.79 308.18 0.52 308.18"/><polyline class="cls-12" points="80.57 163.41 106.79 163.41 106.79 254.25"/><line class="cls-12" x1="0.52" y1="163.4" x2="46.97" y2="163.4"/><polyline class="cls-12" points="212.2 160.09 212.2 65.8 238.82 62.33"/><line class="cls-12" x1="255.02" y1="270.95" x2="196.38" y2="270.95"/><rect class="cls-13" x="6.52" y="169.4" width="94.27" height="63.2"/><rect class="cls-13" x="6.52" y="238.31" width="94.27" height="63.2"/><rect class="cls-13" x="6.52" y="315.19" width="43.75" height="7.93"/><rect class="cls-13" x="57.04" y="315.19" width="43.75" height="7.93"/><rect class="cls-13" x="6.52" y="324.49" width="43.75" height="7.93"/><rect class="cls-13" x="57.04" y="324.49" width="43.75" height="7.93"/><rect class="cls-13" x="6.52" y="333.8" width="43.75" height="7.93"/><rect class="cls-13" x="57.04" y="333.8" width="43.75" height="7.93"/><rect class="cls-13" x="6.52" y="343.1" width="43.75" height="7.93"/><rect class="cls-13" x="57.04" y="343.1" width="43.75" height="7.93"/><rect class="cls-13" x="6.52" y="352.4" width="43.75" height="7.93"/><rect class="cls-13" x="57.04" y="352.4" width="43.75" height="7.93"/><rect class="cls-13" x="6.52" y="361.71" width="43.75" height="7.93"/><rect class="cls-13" x="57.04" y="361.71" width="43.75" height="7.93"/><rect class="cls-13" x="6.52" y="371.01" width="43.75" height="7.93"/><rect class="cls-13" x="57.04" y="371.01" width="43.75" height="7.93"/><rect class="cls-13" x="6.52" y="380.31" width="43.75" height="7.93"/><rect class="cls-13" x="57.04" y="380.31" width="43.75" height="7.93"/><rect class="cls-13" x="6.52" y="389.62" width="43.75" height="7.93"/><rect class="cls-13" x="57.04" y="389.62" width="43.75" height="7.93"/><rect class="cls-13" x="6.52" y="426.83" width="43.75" height="7.93"/><rect class="cls-13" x="57.04" y="426.83" width="43.75" height="7.93"/><rect class="cls-13" x="6.52" y="417.53" width="43.75" height="7.93"/><rect class="cls-13" x="57.04" y="417.53" width="43.75" height="7.93"/><rect class="cls-13" x="6.52" y="398.92" width="43.75" height="7.93"/><rect class="cls-13" x="57.04" y="398.92" width="43.75" height="7.93"/><rect class="cls-13" x="6.52" y="408.22" width="43.75" height="7.93"/><rect class="cls-13" x="57.04" y="408.22" width="43.75" height="7.93"/><path class="cls-4" d="M22.18,206.27h2.44c.9,0,1.67,0,2.58-.05.14,0,.19,0,.19.17V207c0,.14,0,.18-.19.18-.79,0-1.7,0-2.57,0H18.71c-.69,0-1.65,0-2.27.07-.15,0-.2,0-.22-.21a6.15,6.15,0,0,1-.08-.83c.92.07,1.7.07,2.57.07h2.45V201H19.79c-.84,0-1.47,0-2.13.07-.13,0-.14-.05-.17-.21a6.44,6.44,0,0,1-.06-.83c.76.06,1.38.07,2.32.07h3.62c.87,0,1.59,0,2.45,0,.13,0,.14,0,.14.14v.67c0,.14,0,.18-.15.18-.9,0-1.6-.05-2.42-.05H22.18Z"/><path class="cls-4" d="M32.29,206.93a21.92,21.92,0,0,0,3.85-1.81,16.34,16.34,0,0,0,3.67-2.78,4.86,4.86,0,0,0,.13,1,.25.25,0,0,1-.09.32,20,20,0,0,1-3.5,2.46c-1.08.63-2.16,1.11-3.43,1.7a2.4,2.4,0,0,0-.74.4.28.28,0,0,1-.4,0,4.12,4.12,0,0,1-.53-.56.29.29,0,0,1,0-.33,2.14,2.14,0,0,0,.07-.72l0-4.52A17,17,0,0,0,31.2,199a6.07,6.07,0,0,1,1.19.22c.17.06.18.17.09.39a13,13,0,0,0-.15,2.55Z"/><path class="cls-4" d="M43.42,203.29l2-2c.33-.33.53-.45.82-.45a1.25,1.25,0,0,1,.86.38,53.16,53.16,0,0,0,6.43,4.6.17.17,0,0,1,.08.26,4.28,4.28,0,0,1-.43.7c-.07.1-.14.13-.25.05-2.23-1.53-4.37-3.13-6.35-4.77a.46.46,0,0,0-.28-.15A.35.35,0,0,0,46,202c-.63.63-1.4,1.44-2.35,2.46a4.72,4.72,0,0,0-.6.76.19.19,0,0,1-.32,0,7.28,7.28,0,0,1-.82-.74A9.82,9.82,0,0,0,43.42,203.29Zm6.41-3.6a.11.11,0,0,1,.17,0,7,7,0,0,1,1.59,1.69.11.11,0,0,1,0,.16l-.41.33c-.07.06-.14,0-.18,0a6,6,0,0,0-1.63-1.8Zm1.19-.92c.06-.05.1-.06.16,0a8.29,8.29,0,0,1,1.6,1.64c0,.07,0,.11-.05.17l-.37.33a.1.1,0,0,1-.17,0,6.75,6.75,0,0,0-1.61-1.76Z"/><path class="cls-4" d="M58,204.19a11.36,11.36,0,0,0-1.89.14c-.13,0-.2-.06-.24-.2a10.27,10.27,0,0,1-.14-1.06,26.29,26.29,0,0,0,3.1.12h4.3c1,0,2,0,3.07,0,.16,0,.21,0,.21.17s0,.5,0,.73-.05.18-.21.16c-1,0-2.09,0-3,0Z"/><path class="cls-4" d="M76.35,199.79c.48,0,.63-.06.74-.16a.28.28,0,0,1,.38,0,2.84,2.84,0,0,1,.6.56.23.23,0,0,1,0,.37,1.07,1.07,0,0,0-.34.42,19.51,19.51,0,0,1-2.23,3.72,14,14,0,0,1,1.69,1.54c.08.08,0,.15,0,.25a2.1,2.1,0,0,1-.46.48c-.11.08-.15.07-.22,0a16.26,16.26,0,0,0-1.57-1.54A17.19,17.19,0,0,1,70,209.21c-.16.09-.26.12-.38,0a2.46,2.46,0,0,0-.79-.45,16.65,16.65,0,0,0,5.27-3.93,14.7,14.7,0,0,0-2.2-1.43,3.78,3.78,0,0,1,.49-.56.17.17,0,0,1,.23-.05,20.9,20.9,0,0,1,2.08,1.32,15.24,15.24,0,0,0,2.05-3.49l-4.13.09A15.9,15.9,0,0,1,69.57,204c-.14.11-.24.14-.36,0a2.76,2.76,0,0,0-.68-.39,14.3,14.3,0,0,0,4-4.53,4.81,4.81,0,0,0,.56-1.38,3.81,3.81,0,0,1,1,.47c.16.12.12.28,0,.4a1.53,1.53,0,0,0-.41.47c-.15.27-.28.48-.5.81Z"/><path class="cls-4" d="M83.39,204.19a11.36,11.36,0,0,0-1.89.14c-.13,0-.2-.06-.24-.2a8.1,8.1,0,0,1-.14-1.06,26.2,26.2,0,0,0,3.1.12h4.3c1,0,2,0,3.06,0,.17,0,.21,0,.21.17a4.45,4.45,0,0,1,0,.73c0,.15,0,.18-.21.16-1,0-2.08,0-3,0Z"/><path class="cls-4" d="M21.8,271.75h2.43c.9,0,1.67,0,2.58-.05.14,0,.2,0,.2.16v.65c0,.14,0,.18-.2.18-.78,0-1.69,0-2.56,0H18.32c-.68,0-1.65,0-2.27.07-.15,0-.19,0-.22-.21a6.29,6.29,0,0,1-.07-.83c.91.07,1.69.07,2.56.07h2.45v-5.27H19.4c-.84,0-1.47,0-2.13.07-.12,0-.14,0-.17-.21s-.05-.56-.05-.82c.76.05,1.37.07,2.31.07H23c.87,0,1.58,0,2.45,0,.12,0,.14,0,.14.14v.67c0,.14,0,.18-.15.18-.9,0-1.6-.06-2.43-.06H21.8Z"/><path class="cls-4" d="M31.9,272.41a22.75,22.75,0,0,0,3.86-1.81,16.3,16.3,0,0,0,3.67-2.79,4.74,4.74,0,0,0,.12,1,.28.28,0,0,1-.08.33,21.39,21.39,0,0,1-3.5,2.46c-1.08.63-2.16,1.11-3.44,1.7a2.68,2.68,0,0,0-.74.4.27.27,0,0,1-.39,0,3.17,3.17,0,0,1-.53-.56.3.3,0,0,1,0-.34,1.87,1.87,0,0,0,.07-.71l0-4.53a16.23,16.23,0,0,0-.14-3.18,6.77,6.77,0,0,1,1.19.23c.17.05.18.17.1.39a12.41,12.41,0,0,0-.16,2.55Z"/><path class="cls-4" d="M43,268.77l2-2c.34-.34.54-.45.83-.45a1.24,1.24,0,0,1,.85.38,54,54,0,0,0,6.43,4.6.17.17,0,0,1,.09.26,4.27,4.27,0,0,1-.44.7c-.07.1-.14.13-.25,0-2.23-1.52-4.37-3.12-6.34-4.76a.48.48,0,0,0-.29-.15.34.34,0,0,0-.26.12c-.63.63-1.4,1.45-2.35,2.47a5.54,5.54,0,0,0-.61.75.19.19,0,0,1-.32.06,8.29,8.29,0,0,1-.81-.74A9.85,9.85,0,0,0,43,268.77Zm6.42-3.6a.11.11,0,0,1,.17,0,6.91,6.91,0,0,1,1.58,1.69.11.11,0,0,1,0,.16l-.4.33a.12.12,0,0,1-.19,0A6,6,0,0,0,49,265.53Zm1.19-.93c.06,0,.1-.05.15,0a8,8,0,0,1,1.6,1.64c0,.07,0,.11,0,.17l-.38.33c-.06.06-.11.06-.17,0a6.71,6.71,0,0,0-1.61-1.75Z"/><path class="cls-4" d="M57.64,269.66a11.73,11.73,0,0,0-1.9.14c-.12,0-.19-.05-.23-.19a6.67,6.67,0,0,1-.14-1.07,25.82,25.82,0,0,0,3.09.13h4.3c1,0,2,0,3.07,0,.17,0,.21,0,.21.16s0,.51,0,.73,0,.19-.21.17c-1,0-2.09,0-3,0Z"/><path class="cls-4" d="M76,265.27c.47,0,.63-.06.74-.16a.29.29,0,0,1,.38,0,3.88,3.88,0,0,1,.6.56.24.24,0,0,1-.06.38,1.16,1.16,0,0,0-.33.42,20.51,20.51,0,0,1-2.23,3.71,15.89,15.89,0,0,1,1.68,1.55c.08.08,0,.15,0,.25a1.91,1.91,0,0,1-.47.47c-.11.09-.15.07-.22,0a15.17,15.17,0,0,0-1.57-1.54,16.92,16.92,0,0,1-4.86,3.82c-.15.09-.25.11-.38,0a2.41,2.41,0,0,0-.78-.45,16.37,16.37,0,0,0,5.26-3.94,15,15,0,0,0-2.2-1.43,3.84,3.84,0,0,1,.5-.56.17.17,0,0,1,.22,0,20.33,20.33,0,0,1,2.09,1.32,15.57,15.57,0,0,0,2-3.49l-4.13.09a16.37,16.37,0,0,1-3,3.25c-.14.11-.24.14-.37,0a2.27,2.27,0,0,0-.67-.39,14.6,14.6,0,0,0,4-4.53,4.81,4.81,0,0,0,.57-1.39,3.78,3.78,0,0,1,1,.48c.17.11.13.28,0,.39a1.51,1.51,0,0,0-.4.48c-.16.27-.28.48-.51.81Z"/><path class="cls-4" d="M83,269.66a11.51,11.51,0,0,0-1.89.14c-.12,0-.19-.05-.24-.19a10.13,10.13,0,0,1-.14-1.07,26.09,26.09,0,0,0,3.1.13h4.3c1,0,2,0,3.07,0,.17,0,.21,0,.21.16s0,.51,0,.73,0,.19-.21.17c-1,0-2.09,0-3,0Z"/><line class="cls-14" x1="234.84" y1="123.39" x2="239.19" y2="127.74"/><line class="cls-15" x1="354.95" y1="147.92" x2="359.3" y2="152.27"/><line class="cls-15" x1="354.95" y1="156.62" x2="359.3" y2="152.27"/><path class="cls-4" d="M43.9,365.51a1.59,1.59,0,0,0,.31,0,.34.34,0,0,1,.17-.05c.08,0,.15.06.35.26s.25.3.25.37a.29.29,0,0,1-.11.19,1,1,0,0,0-.25.44,22.07,22.07,0,0,1-1.38,3c1.32,1.54,1.52,2.37,1.52,3.28s-.52,1.79-1.94,1.87c-.28,0-.28,0-.32-.26a1.2,1.2,0,0,0-.24-.55c1.11.07,1.68-.18,1.68-1.09s-.19-1.56-1.54-3.15a24,24,0,0,0,1.52-3.49H41.87v8.28c0,1.94,0,2.83,0,2.9s0,.11-.11.11h-.65c-.1,0-.11,0-.11-.11s0-.9,0-2.89v-6c0-2,0-2.85,0-2.93s0-.11.11-.11.38,0,1,0Zm2.44,4.23c.66-.18,1.36-.42,2.18-.71,0,.14,0,.28-.05.43s0,.28-.28.38c-.95.35-1.74.62-2.68.91A1.14,1.14,0,0,0,45,371a.28.28,0,0,1-.17.1c-.06,0-.11-.07-.16-.18s-.19-.48-.26-.73c.33,0,.71-.11,1.11-.2v-3.23a8.2,8.2,0,0,0-.1-1.63,6.15,6.15,0,0,1,.87.09c.11,0,.16.07.16.12a.37.37,0,0,1-.05.2,2.93,2.93,0,0,0-.1,1.11v.4h1.19c.6,0,.73,0,.8,0s.11,0,.11.12v.56c0,.08,0,.09-.11.09s-.2,0-.8,0H46.34Zm5.48,5.16c0,2.11,0,2.45,0,2.52s0,.11-.11.11h-.61c-.1,0-.12,0-.12-.11v-.53H46.45v.56c0,.1,0,.11-.11.11h-.6c-.1,0-.12,0-.12-.11s0-.41,0-2.54v-1.22c0-1.23,0-1.59,0-1.66s0-.1.12-.1.49,0,1.72,0h.1a5.51,5.51,0,0,0,.29-.66,3.59,3.59,0,0,0,.21-.81,4.39,4.39,0,0,1,.83.21c.08,0,.14.07.14.14s0,.11-.11.16a.67.67,0,0,0-.21.28l-.35.68H50c1.22,0,1.64,0,1.72,0s.11,0,.11.1,0,.43,0,1.48ZM51,372.63H46.45V374H51Zm0,2H46.45v1.55H51Zm-1.17-5.39c0,.39.07.47.26.53a3.65,3.65,0,0,0,.82.07,1.75,1.75,0,0,0,1.13-.24c.17-.15.28-.46.31-1.26a1.79,1.79,0,0,0,.49.28c.24.09.22.11.21.37-.1.76-.28,1-.55,1.23a2.79,2.79,0,0,1-1.65.33,4.26,4.26,0,0,1-1.29-.12c-.28-.1-.5-.28-.5-.87v-3.08a7.38,7.38,0,0,0-.09-1.42,6.8,6.8,0,0,1,.83.09c.13,0,.18.05.18.11a.41.41,0,0,1,0,.21c-.09.15-.1.32-.1,1v.91a10.53,10.53,0,0,0,1.68-.89,2.06,2.06,0,0,0,.46-.42,5.2,5.2,0,0,1,.55.47.22.22,0,0,1,.08.17c0,.06,0,.11-.17.14a1.63,1.63,0,0,0-.31.11,20.41,20.41,0,0,1-2.29,1.15Z"/><path class="cls-4" d="M55.44,368.13a9.33,9.33,0,0,0-.1-1.73,6.31,6.31,0,0,1,.8.22,10.57,10.57,0,0,0,2.34-.84,3.24,3.24,0,0,0,.79-.56,3,3,0,0,1,.59.6.29.29,0,0,1,.07.18c0,.07-.08.11-.19.13a3,3,0,0,0-.63.27,12.91,12.91,0,0,1-2.86,1v1.49h1.81c.92,0,1.2,0,1.27,0s.11,0,.11.11v.58c0,.09,0,.11-.11.11s-.35,0-1.27,0H56.25v1.81H58c.94,0,1.2,0,1.29,0s.11,0,.11.11V372c0,.11,0,.13-.11.13s-.35,0-1.29,0H56.25v2.14a26,26,0,0,0,3.47-.88,2.18,2.18,0,0,0,0,.5c0,.3,0,.3-.28.38-1.08.32-2.08.58-3.14.8,0,1.5,0,2.23,0,2.28s0,.12-.11.12h-.65c-.1,0-.11,0-.11-.12s0-.72,0-2.11l-.24,0a1.43,1.43,0,0,0-.52.17.32.32,0,0,1-.17.08s-.11-.05-.14-.18-.12-.52-.18-.81a8.06,8.06,0,0,0,1.25-.13ZM64.86,371a.58.58,0,0,0,.28-.06.32.32,0,0,1,.16,0c.11,0,.21.07.39.26s.27.33.27.4,0,.11-.14.18a1.34,1.34,0,0,0-.28.45,10.9,10.9,0,0,1-1.81,2.66,11.21,11.21,0,0,0,3.37,1.81,1.91,1.91,0,0,0-.39.54c-.08.16-.11.23-.18.23a.82.82,0,0,1-.21-.07,12.11,12.11,0,0,1-3.17-2,11.63,11.63,0,0,1-3.64,2.08c-.25.08-.28.08-.4-.16a1.87,1.87,0,0,0-.4-.5,10.6,10.6,0,0,0,3.87-2,8.71,8.71,0,0,1-1.75-3.08h-.66c-.1,0-.11,0-.11-.11v-.56c0-.1,0-.11.11-.11s.46,0,1.67,0Zm-.07-2.54c0,.31,0,.46.14.55s.19.08.52.08.62-.07.72-.24a3,3,0,0,0,.16-1.17,1.58,1.58,0,0,0,.49.3c.21.09.21.12.2.34a2,2,0,0,1-.39,1.22,1.9,1.9,0,0,1-1.28.29,1.81,1.81,0,0,1-1-.15c-.28-.18-.36-.46-.36-1v-2.37h-2c0,2.09-.47,3.1-1.61,4-.1.08-.15.14-.21.14s-.11-.06-.21-.16a1.69,1.69,0,0,0-.47-.33,3.64,3.64,0,0,0,1.7-3.42c0-.59,0-.84,0-.93s0-.11.11-.11.28,0,1.12,0h1.1c.82,0,1.07,0,1.14,0s.11,0,.11.11,0,.43,0,1.2ZM61.6,371.7a7.92,7.92,0,0,0,1.54,2.58,8.37,8.37,0,0,0,1.7-2.58Z"/><line class="cls-12" x1="434.63" y1="405.97" x2="406.76" y2="405.97"/><polyline class="cls-12" points="0.52 89.76 87.13 89.76 87.13 70.01 141.63 70.01 141.63 60.01"/><line class="cls-12" x1="141.63" y1="34.01" x2="141.63" y2="0.13"/><path class="cls-4" d="M378,446.08c.16.07.18.11.14.21a8.25,8.25,0,0,1-1.59,2.51.17.17,0,0,1-.12.08.45.45,0,0,1-.19-.08l-.35-.2c-.19-.11-.21-.15-.12-.22a7.1,7.1,0,0,0,1.61-2.39c0-.11.1-.12.28-.05Zm9.2-7.08c0,.1,0,.12-.11.12s-.55,0-1.94,0h-3.23v1.68h2c1.4,0,1.89,0,2,0s.11,0,.11.1,0,.38,0,1.23v1.66c0,.85,0,1.14,0,1.23s0,.11-.11.11-.58,0-2,0h-4.26c-1.38,0-1.87,0-2,0s-.11,0-.11-.11,0-.38,0-1.23v-1.66c0-.85,0-1.15,0-1.23s0-.1.11-.1.58,0,2,0h1.42v-2.65a10,10,0,0,0-.1-1.71,7.69,7.69,0,0,1,.95.09c.1,0,.17,0,.17.11a.68.68,0,0,1-.05.25,3.52,3.52,0,0,0-.1,1.14v.29h3.23c1.39,0,1.87,0,1.94,0s.11,0,.11.11Zm-2.12,2.55h-6.62v2.71h6.62ZM380.19,446c.16,0,.19,0,.21.11a13.8,13.8,0,0,1,.49,2.42c0,.1,0,.16-.16.17l-.47,0c-.19,0-.22,0-.22-.09a13.58,13.58,0,0,0-.42-2.46c0-.09,0-.12.17-.15Zm2.69-.07c.12,0,.16,0,.2.1a11.29,11.29,0,0,1,.91,2.41c0,.11,0,.14-.14.18l-.43.1c-.21,0-.24,0-.27-.06a10.76,10.76,0,0,0-.81-2.42c0-.1,0-.13.14-.19Zm2.74-.17c.15-.08.19-.07.26,0a11,11,0,0,1,1.7,2.57c.05.1,0,.12-.13.21l-.39.18c-.2.1-.23.1-.27,0a11.48,11.48,0,0,0-1.61-2.62c-.07-.08,0-.11.13-.2Z"/><path class="cls-4" d="M390.3,440.27c.07-.1.1-.1.21,0a8.26,8.26,0,0,1,1.78,1.36c.07.07.07.1,0,.23l-.29.37c-.11.14-.14.16-.22.07a9.72,9.72,0,0,0-1.73-1.42c-.09-.06-.08-.09,0-.22Zm1.05,7.67a4.66,4.66,0,0,0-.28.62c0,.08-.05.15-.12.15a.53.53,0,0,1-.2-.08,7.5,7.5,0,0,1-.61-.46,8.92,8.92,0,0,0,.7-1.07,22.11,22.11,0,0,0,1.23-3.05,2.15,2.15,0,0,0,.43.42c.21.17.23.18.14.42A27.33,27.33,0,0,1,391.35,447.94Zm-.42-11.09c.12-.13.13-.14.23-.07a9.87,9.87,0,0,1,1.65,1.41c.07.07.07.11,0,.23l-.31.36c-.11.13-.15.14-.21.07a8.67,8.67,0,0,0-1.62-1.48c-.1-.07-.07-.09,0-.21Zm11.46,1.51c0,.1,0,.11-.11.11s-.55,0-2,0h-5c-1.42,0-1.9,0-2,0s-.11,0-.11-.11v-.56c0-.1,0-.11.11-.11s.56,0,2,0h1.9v-.13a4.87,4.87,0,0,0-.1-1.25c.34,0,.63.05.9.09.11,0,.18.05.18.11a.5.5,0,0,1-.1.27,2.27,2.27,0,0,0-.07.78v.13h2.25c1.42,0,1.9,0,2,0s.11,0,.11.11Zm-.59,7.23c0,1,0,1.67,0,2.11a1.05,1.05,0,0,1-.32.91c-.21.16-.52.24-1.54.26-.28,0-.28,0-.34-.27a1.49,1.49,0,0,0-.26-.57c.35,0,.63,0,1,0s.59-.13.59-.51v-6.48h-6.46v5.7c0,1.39,0,2,0,2.1s0,.1-.11.1h-.64c-.1,0-.12,0-.12-.1s0-.67,0-2.1v-4.41c0-1.32,0-1.82,0-1.89s0-.12.12-.12.54,0,1.94,0h2.79a9.28,9.28,0,0,0,.52-1.2,3,3,0,0,0,.14-.59,3.62,3.62,0,0,1,.75.22c.1,0,.16.09.16.14s0,.11-.1.16a.65.65,0,0,0-.2.25,9.54,9.54,0,0,1-.5,1h.46c1.37,0,1.87,0,2,0s.11,0,.11.12,0,.65,0,2Zm-1.37-2.48c0,.1,0,.11-.11.11s-.46,0-1.6,0h-.66v1.18h.24c.88,0,1.16,0,1.25,0s.1,0,.1.11,0,.31,0,.77v.65c0,1.4,0,1.59,0,1.68s0,.1-.1.1H399c-.1,0-.12,0-.12-.1v-.38h-2.32v.62c0,.1,0,.11-.11.11H396c-.1,0-.11,0-.11-.11s0-.31,0-1.75v-.61c0-.64,0-.89,0-1s0-.11.11-.11.35,0,1.22,0h.17v-1.18h-.58c-1.12,0-1.51,0-1.58,0s-.11,0-.11-.11v-.46c0-.12,0-.13.11-.13s.46,0,1.58,0h.58a6.43,6.43,0,0,0-.09-1.14l.79.07c.09,0,.15,0,.15.12a.51.51,0,0,1-.06.22,2.87,2.87,0,0,0-.07.73h.66c1.14,0,1.51,0,1.6,0s.11,0,.11.13Zm-4.59-4.47c.15-.06.18,0,.23.06a7.19,7.19,0,0,1,.54,1.21c0,.1,0,.15-.13.19l-.35.12c-.18.07-.2.07-.24-.05a6.68,6.68,0,0,0-.5-1.24c-.06-.09,0-.12.12-.18ZM398.9,445h-2.32v1.53h2.32Z"/><path class="cls-4" d="M416.94,448.38c0,.09,0,.11-.1.11s-.52,0-1.83,0h-8.39c-1.31,0-1.75,0-1.82,0s-.12,0-.12-.11v-.58c0-.1,0-.11.12-.11s.51,0,1.82,0h3.65v-1.81h-2c-1.42,0-1.89,0-2,0s-.12,0-.12-.11v-.58c0-.1,0-.11.12-.11s.55,0,2,0h2v-.1a6.61,6.61,0,0,0-.08-1.36l.9.07c.09,0,.16.07.16.11a.7.7,0,0,1-.08.27,2.61,2.61,0,0,0-.07.92v.09h2.24c1.42,0,1.89,0,2,0s.11,0,.11.11v.58c0,.09,0,.11-.11.11s-.56,0-2,0H411.1v1.81H415c1.31,0,1.75,0,1.83,0s.1,0,.1.11Zm-.46-9.42c0,1.16,0,1.32,0,1.4s0,.12-.12.12h-.64c-.1,0-.11,0-.11-.12V438.5h-9.71v1.86c0,.1,0,.12-.11.12h-.65c-.09,0-.11,0-.11-.12s0-.24,0-1.4v-.43c0-.42,0-.62,0-.69s0-.11.11-.11.56,0,1.94,0h3.15v-.24a5.4,5.4,0,0,0-.1-1.15l.93.07c.09,0,.16.06.16.13a.61.61,0,0,1-.08.25,1.9,1.9,0,0,0-.07.7v.24h3.38c1.34,0,1.83,0,1.91,0s.12,0,.12.11,0,.27,0,.62Zm-3.64,2.1c.11-.08.14-.07.22,0a17.52,17.52,0,0,1,2.31,2.26c.07.08.06.1-.07.21l-.36.32c-.1.09-.14.09-.23,0-.25-.31-.47-.6-.73-.87-2.36.27-4.6.43-7.14.56-.39,0-.52,0-.59.1a.23.23,0,0,1-.15.05c-.06,0-.1-.05-.13-.14s-.12-.5-.18-.78a13.35,13.35,0,0,0,1.42,0c.28,0,.57,0,.85,0a16.78,16.78,0,0,0,1.15-2.14h-.58c-1.31,0-1.79,0-1.86,0s-.11,0-.11-.11V440c0-.1,0-.11.11-.11s.55,0,1.86,0h4.3c1.32,0,1.8,0,1.87,0s.11,0,.11.11v.56c0,.09,0,.11-.11.11s-.55,0-1.87,0h-2.8a20,20,0,0,1-1.16,2.1c1.53-.08,3-.19,4.45-.33-.29-.3-.61-.58-.95-.87-.08-.07-.08-.11.07-.23Z"/></svg>