<svg id="bg" xmlns="http://www.w3.org/2000/svg" viewBox="0 0 101.92 53.48"><defs><style>.cls-1{fill:#da6669;}.cls-2{fill:#fff;}.cls-3{fill:none;stroke:#da6669;stroke-linecap:round;stroke-linejoin:round;}</style></defs><title>map_btn_07</title><polygon class="cls-1" points="0 53.48 0 0.58 96.19 0 101.92 53.48 0 53.48"/><path class="cls-2" d="M41.37,18.55h-5.2a16.91,16.91,0,0,0-1.77.07,2.82,2.82,0,0,0-1.09.31,1.87,1.87,0,0,0-.69.68,7.5,7.5,0,0,0-.54,1.23l-.42,1.1H30.59l2-7.84h1.12a2.14,2.14,0,0,0-.08.4,4.21,4.21,0,0,0,0,.46.64.64,0,0,0,.42.65,5.57,5.57,0,0,0,1.71.17h8.2v.56c-.61,1.4-1.16,2.63-1.63,3.71S41.35,22.1,41,23s-.73,1.72-1,2.5l-1,2.38c-.33.81-.66,1.66-1,2.58l-1.16,3.08c-.32.84-.6,1.52-.85,2a7.44,7.44,0,0,1-.72,1.25,2,2,0,0,1-.65.63,1.53,1.53,0,0,1-.69.17,1.25,1.25,0,0,1-1.2-1.15,2.93,2.93,0,0,1,0-.49,4.46,4.46,0,0,1,.19-.7c.11-.29.26-.67.48-1.14s.5-1.06.87-1.79.81-1.62,1.36-2.67,1.19-2.33,2-3.82Z"/><circle class="cls-2" cx="62.91" cy="26.74" r="9"/><line class="cls-3" x1="60.73" y1="22.39" x2="65.08" y2="26.74"/><line class="cls-3" x1="60.73" y1="31.09" x2="65.08" y2="26.74"/></svg>