<svg id="bg" xmlns="http://www.w3.org/2000/svg" viewBox="0 0 70 164"><defs><style>.cls-1{fill:#8bb89e;}</style></defs><title>mv_deco_02</title><path class="cls-1" d="M62.63,5.74a1,1,0,0,1-1,1,1,1,0,0,1-1-1l0-4a1,1,0,0,1,1-1,1,1,0,0,1,1,1Z"/><path class="cls-1" d="M62.68,15.74a1,1,0,0,1-1,1,1,1,0,0,1-1-1l0-4a1,1,0,0,1,1-1,1,1,0,0,1,1,1Z"/><path class="cls-1" d="M64.65,9.73a1,1,0,0,1,0-2l4,0a1,1,0,1,1,0,2Z"/><path class="cls-1" d="M54.65,9.78a1,1,0,0,1,0-2l4,0a1,1,0,1,1,0,2Z"/><path class="cls-1" d="M20.41,100.85a1,1,0,1,1-2,0l0-4a1,1,0,0,1,1-1,1,1,0,0,1,1,1Z"/><path class="cls-1" d="M20.46,110.85a1,1,0,0,1-1,1,1,1,0,0,1-1-1l0-4a1,1,0,0,1,1-1,1,1,0,0,1,1,1Z"/><path class="cls-1" d="M22.43,104.84a1,1,0,0,1,0-2l4,0a1,1,0,0,1,1,1,1,1,0,0,1-1,1Z"/><path class="cls-1" d="M12.43,104.89a1,1,0,0,1,0-2l4,0a1,1,0,0,1,1,1,1,1,0,0,1-1,1Z"/><path class="cls-1" d="M59.22,152.25a1,1,0,0,1-1,1,1,1,0,0,1-1-1l0-4a1,1,0,1,1,2,0Z"/><path class="cls-1" d="M59.27,162.25a1,1,0,0,1-1,1,1,1,0,0,1-1-1l0-4a1,1,0,1,1,2,0Z"/><path class="cls-1" d="M61.24,156.24a1,1,0,0,1-1-1,1,1,0,0,1,1-1l4,0a1,1,0,0,1,0,2Z"/><path class="cls-1" d="M51.24,156.29a1,1,0,0,1-1-1,1,1,0,0,1,1-1l4,0a1,1,0,0,1,0,2Z"/><path class="cls-1" d="M33.83,51a1,1,0,0,1-1,1,1,1,0,0,1-1-1l0-4a1,1,0,0,1,1-1,1,1,0,0,1,1,1Z"/><path class="cls-1" d="M33.88,61a1,1,0,0,1-1,1,1,1,0,0,1-1-1l0-4a1,1,0,1,1,2,0Z"/><path class="cls-1" d="M35.85,55a1,1,0,0,1-1-1,1,1,0,0,1,1-1l4,0a1,1,0,0,1,0,2Z"/><path class="cls-1" d="M25.85,55a1,1,0,0,1-1-1,1,1,0,0,1,1-1l4,0a1,1,0,0,1,0,2Z"/><path class="cls-1" d="M9.34,37.86a1,1,0,1,1-2,0l0-4a1,1,0,0,1,1-1,1,1,0,0,1,1,1Z"/><path class="cls-1" d="M9.39,47.86a1,1,0,1,1-2,0l0-4a1,1,0,0,1,1-1,1,1,0,0,1,1,1Z"/><path class="cls-1" d="M11.36,41.85a1,1,0,0,1-1-1,1,1,0,0,1,1-1l4,0a1,1,0,0,1,0,2Z"/><path class="cls-1" d="M1.36,41.9a1,1,0,0,1-1-1,1,1,0,0,1,1-1l4,0a1,1,0,0,1,0,2Z"/></svg>