<svg id="bg" xmlns="http://www.w3.org/2000/svg" xmlns:xlink="http://www.w3.org/1999/xlink" viewBox="0 0 100 100"><defs><style>.cls-1{fill:none;}.cls-2{clip-path:url(#clip-path);}.cls-3{fill:#fff;}.cls-4{fill:#433f3f;}</style><clipPath id="clip-path"><rect class="cls-1" x="-1255.73" y="314" width="1420" height="740" rx="4"/></clipPath></defs><title>mv_ico_scroll</title><g class="cls-2"><image width="2226" height="1584" transform="matrix(-0.69, 0, 0, 0.69, 270.11, 4.8)" xlink:href="../../../../../50_design/ver_2019/riumachi_top_pc/%E3%82%B9%E3%82%AF%E3%83%AA%E3%83%BC%E3%83%B3%E3%82%B7%E3%83%A7%E3%83%83%E3%83%88%202019-01-25%202.03.43.png"/></g><circle class="cls-3" cx="50" cy="50" r="50"/><path class="cls-4" d="M50.15,40c6.05,0,11,5.76,11,12.8v12.4c0,7-4.95,12.8-11,12.8s-11-5.76-11-12.8V52.76c0-7,5-12.8,11-12.8m0-1c-6.62,0-12,6.19-12,13.8v12.4c0,7.61,5.38,13.8,12,13.8s12-6.19,12-13.8V52.76c0-7.61-5.39-13.8-12-13.8Z"/><circle class="cls-4" cx="50.15" cy="49.97" r="2.5"/><path class="cls-4" d="M31.49,26.21h.44a3.26,3.26,0,0,0,.32,1,2.49,2.49,0,0,0,.59.73,2.45,2.45,0,0,0,.82.46,2.91,2.91,0,0,0,1,.17,2.14,2.14,0,0,0,1.4-.42A1.38,1.38,0,0,0,36.58,27a1.69,1.69,0,0,0-.1-.56,1.51,1.51,0,0,0-.35-.48,2.86,2.86,0,0,0-.64-.46,9.51,9.51,0,0,0-1-.5,10.39,10.39,0,0,1-1.25-.62,3.64,3.64,0,0,1-.8-.62,2,2,0,0,1-.43-.69,2.74,2.74,0,0,1-.13-.84,2.61,2.61,0,0,1,.2-1,2.4,2.4,0,0,1,.56-.81,2.55,2.55,0,0,1,.85-.53,3.14,3.14,0,0,1,1.08-.18,2.71,2.71,0,0,1,1,.17,3.29,3.29,0,0,1,.92.54l.31-.54h.28l.13,2.38h-.44a3.07,3.07,0,0,0-.84-1.46,1.91,1.91,0,0,0-1.31-.48,1.78,1.78,0,0,0-1.17.36,1.22,1.22,0,0,0-.43,1,1.24,1.24,0,0,0,.1.52,1.3,1.3,0,0,0,.31.45A3,3,0,0,0,34,23c.24.14.52.28.87.44.59.26,1.08.51,1.47.73a4.49,4.49,0,0,1,.94.69,2,2,0,0,1,.49.72,2.24,2.24,0,0,1,.15.84,2.47,2.47,0,0,1-.92,2,3,3,0,0,1-1,.56,4.25,4.25,0,0,1-1.32.2A4,4,0,0,1,33.39,29a4,4,0,0,1-1.11-.65L32,28.9h-.28Z"/><path class="cls-4" d="M45.21,28a2.84,2.84,0,0,1-1.12.82,3.66,3.66,0,0,1-1.48.3,2.85,2.85,0,0,1-1.17-.24,2.48,2.48,0,0,1-.91-.66,2.87,2.87,0,0,1-.6-1,4,4,0,0,1-.21-1.33A3.79,3.79,0,0,1,40,24.51a3.16,3.16,0,0,1,.68-1.06,3,3,0,0,1,1.06-.67,3.92,3.92,0,0,1,1.36-.23,3.78,3.78,0,0,1,.85.08,2.78,2.78,0,0,1,.67.21,1.25,1.25,0,0,1,.43.34.63.63,0,0,1,.16.42A.46.46,0,0,1,45,24a.67.67,0,0,1-.43.13.69.69,0,0,1-.36-.09,1.87,1.87,0,0,1-.37-.4,1.43,1.43,0,0,0-.46-.39,1.2,1.2,0,0,0-.57-.12,1.44,1.44,0,0,0-1.29.66,3.56,3.56,0,0,0-.44,1.95,3.67,3.67,0,0,0,.49,2.09,1.58,1.58,0,0,0,1.42.71,2.37,2.37,0,0,0,1-.19,3.48,3.48,0,0,0,.9-.65Z"/><path class="cls-4" d="M48.83,27.12c0,.33,0,.59,0,.78a1,1,0,0,0,.13.44.51.51,0,0,0,.29.2,4.27,4.27,0,0,0,.54.07V29H46.62v-.42a2.39,2.39,0,0,0,.55-.07.54.54,0,0,0,.32-.2.83.83,0,0,0,.13-.41,6.91,6.91,0,0,0,0-.73V25.8c0-.54,0-1,0-1.27a2.17,2.17,0,0,0-.12-.67.44.44,0,0,0-.32-.26,3.25,3.25,0,0,0-.6,0v-.42l2.1-.46.17,1.49h0a3.59,3.59,0,0,1,.39-.66,3.07,3.07,0,0,1,.51-.51,2.61,2.61,0,0,1,.58-.33,1.62,1.62,0,0,1,.61-.12.94.94,0,0,1,.61.18.62.62,0,0,1,.22.5.58.58,0,0,1-.18.45.74.74,0,0,1-.52.16,1,1,0,0,1-.32,0,1.67,1.67,0,0,1-.23-.11l-.2-.1a.41.41,0,0,0-.19-.05.86.86,0,0,0-.65.42A2.86,2.86,0,0,0,49,25a6.78,6.78,0,0,0-.15.78,9.12,9.12,0,0,0-.05.92Z"/><path class="cls-4" d="M56.26,22.55a3.44,3.44,0,0,1,2.37.92,3.16,3.16,0,0,1,.73,1,3.09,3.09,0,0,1,.27,1.3,3.24,3.24,0,0,1-.27,1.34,3.29,3.29,0,0,1-.73,1.06,3.41,3.41,0,0,1-1.08.7,3.53,3.53,0,0,1-1.29.25A3.25,3.25,0,0,1,55,28.9a3.23,3.23,0,0,1-1.78-1.75,3.32,3.32,0,0,1-.27-1.35,3.17,3.17,0,0,1,.27-1.31,3,3,0,0,1,.72-1A3.14,3.14,0,0,1,55,22.79,3.43,3.43,0,0,1,56.26,22.55Zm0,.57a1.68,1.68,0,0,0-.81.2,1.72,1.72,0,0,0-.63.54,2.66,2.66,0,0,0-.39.85,3.85,3.85,0,0,0-.14,1.1,4,4,0,0,0,.14,1.13,2.62,2.62,0,0,0,.39.86,1.77,1.77,0,0,0,.62.54,1.69,1.69,0,0,0,.82.2,1.72,1.72,0,0,0,.82-.2,1.76,1.76,0,0,0,.64-.55,2.74,2.74,0,0,0,.41-.86,4,4,0,0,0,.14-1.12,3.74,3.74,0,0,0-.14-1.09,2.69,2.69,0,0,0-.41-.85,2,2,0,0,0-.64-.55A1.72,1.72,0,0,0,56.26,23.12Z"/><path class="cls-4" d="M63.31,27.16a4.9,4.9,0,0,0,0,.73.84.84,0,0,0,.15.43.58.58,0,0,0,.32.22,2.57,2.57,0,0,0,.56.07V29H61.07v-.42a2.5,2.5,0,0,0,.57-.08.69.69,0,0,0,.35-.21.77.77,0,0,0,.16-.4,4,4,0,0,0,.05-.68V22.07c0-.43,0-.8,0-1.09a4.24,4.24,0,0,0,0-.59.47.47,0,0,0-.29-.37,2.08,2.08,0,0,0-.79-.1v-.41l2.26-.44Z"/><path class="cls-4" d="M67.81,27.16a4.9,4.9,0,0,0,0,.73.84.84,0,0,0,.15.43.58.58,0,0,0,.32.22,2.57,2.57,0,0,0,.56.07V29H65.57v-.42a2.5,2.5,0,0,0,.57-.08.69.69,0,0,0,.35-.21.77.77,0,0,0,.16-.4,4,4,0,0,0,0-.68V22.07c0-.43,0-.8,0-1.09a4.24,4.24,0,0,0-.05-.59.47.47,0,0,0-.29-.37,2.08,2.08,0,0,0-.79-.1v-.41l2.26-.44Z"/></svg>